<?xml version="1.0" encoding="utf-8"?>
<!-- Generator: Adobe Illustrator 22.1.0, SVG Export Plug-In . SVG Version: 6.00 Build 0)  -->
<svg version="1.1" xmlns="http://www.w3.org/2000/svg" xmlns:xlink="http://www.w3.org/1999/xlink" x="0px" y="0px"
	 viewBox="0 0 387.8 364.2" style="enable-background:new 0 0 387.8 364.2;" xml:space="preserve">
<style type="text/css">
	.st0{fill:#5696AC;}
	.st1{fill:#85BBCE;}
	.st2{fill:#D2D2F0;}
	.st3{fill:#FFFFFF;}
	.st4{fill:#B1B1F1;}
	.st5{opacity:0.6;fill:#F5F5F5;}
	.st6{fill:#E0E0E0;}
	.st7{fill:#442B9C;}
	.st8{fill:#263238;}
	.st9{fill:#BF256C;}
	.st10{opacity:0.3;fill:#BF256C;}
	.st11{opacity:0.3;fill:#442B9C;}
	.st12{opacity:0.4;}
	.st13{fill:#F0C9CF;}
	.st14{opacity:0.2;}
	.st15{opacity:0.5;fill:#BF256C;}
	.st16{fill:#A41746;}
	.st17{fill:#E6E6E6;}
	.st18{fill:#FF5652;}
	.st19{fill:#747474;}
	.st20{fill:#8484D9;}
	.st21{fill:#5757B6;}
	.st22{opacity:0.3;fill:#5757B6;}
</style>
<g id="Background_Complete">
	<g>
		<g>
			<g>
				<path class="st0" d="M151,221.8H30.2l0-171.1C30.2,37,151,37,151,50.6L151,221.8z"/>
				<path class="st1" d="M148.3,221.8H27.4l0-171.1c0-13.6,120.9-13.6,120.9,0L148.3,221.8z"/>
				<path class="st2" d="M33.4,213.2l0-159.1c0-1.1,0.7-2.1,1.7-2.4c6.7-2.4,25-5.2,52.7-5.2c27.7,0,46,2.7,52.7,5.2
					c1,0.4,1.7,1.3,1.7,2.4l0,159.1c0,1.4-1.2,2.6-2.6,2.6H36C34.5,215.8,33.4,214.6,33.4,213.2z"/>
				<g>
					<path class="st3" d="M58.9,47.6L40.1,215.8h27.5l19-169.3C75.9,46.5,66.6,46.9,58.9,47.6z"/>
					<path class="st3" d="M94.5,46.5l-19,169.3h15.2l18.9-168.7C105.1,46.8,100,46.6,94.5,46.5z"/>
				</g>
				
					<rect x="21.4" y="128.3" transform="matrix(-1.836970e-16 1 -1 -1.836970e-16 239.3725 22.4527)" class="st1" width="174.1" height="5.3"/>
				
					<rect x="-21.1" y="128.3" transform="matrix(-1.836970e-16 1 -1 -1.836970e-16 196.8528 64.9723)" class="st1" width="174.1" height="5.3"/>
				
					<rect x="-18" y="130.4" transform="matrix(-1.836970e-16 1 -1 -1.836970e-16 199.9688 61.8563)" class="st0" width="174.1" height="1"/>
				
					<rect x="24.5" y="130.4" transform="matrix(-1.836970e-16 1 -1 -1.836970e-16 242.4885 19.3366)" class="st0" width="174.1" height="1"/>
				<rect x="30.2" y="82.2" class="st1" width="114" height="5.3"/>
			</g>
			<rect x="21.9" y="220.1" class="st1" width="123.3" height="5.8"/>
			
				<rect x="145.2" y="220.1" transform="matrix(-1 -1.224647e-16 1.224647e-16 -1 296.2417 446.1307)" class="st0" width="5.8" height="5.8"/>
		</g>
		<g>
			<g>
				<path class="st0" d="M365.9,221.8H245V50.6c0-13.6,120.9-13.6,120.9,0L365.9,221.8z"/>
				<path class="st1" d="M363.1,221.8H242.2l0-171.1c0-13.6,120.9-13.6,120.9,0L363.1,221.8z"/>
				<path class="st2" d="M248.2,213.2l0-159.1c0-1.1,0.7-2.1,1.7-2.4c6.7-2.4,25-5.2,52.7-5.2c27.7,0,46,2.7,52.7,5.2
					c1,0.4,1.7,1.3,1.7,2.4l0,159.1c0,1.4-1.2,2.6-2.6,2.6H250.8C249.4,215.8,248.2,214.6,248.2,213.2z"/>
				<g>
					<path class="st3" d="M273.8,47.6L255,215.8h27.5l19-169.3C290.8,46.5,281.5,46.9,273.8,47.6z"/>
					<path class="st3" d="M309.4,46.5l-19,169.3h15.2l18.9-168.7C319.9,46.8,314.9,46.6,309.4,46.5z"/>
				</g>
				
					<rect x="236.3" y="128.3" transform="matrix(-1.836970e-16 1 -1 -1.836970e-16 454.2419 -192.4169)" class="st1" width="174.1" height="5.3"/>
				
					<rect x="193.7" y="128.3" transform="matrix(-1.836970e-16 1 -1 -1.836970e-16 411.7223 -149.8972)" class="st1" width="174.1" height="5.3"/>
				
					<rect x="196.9" y="130.4" transform="matrix(-1.836970e-16 1 -1 -1.836970e-16 414.8383 -153.0132)" class="st0" width="174.1" height="1"/>
				
					<rect x="239.4" y="130.4" transform="matrix(-1.836970e-16 1 -1 -1.836970e-16 457.358 -195.5329)" class="st0" width="174.1" height="1"/>
				<rect x="245.1" y="82.2" class="st1" width="114" height="5.3"/>
			</g>
			<rect x="236.7" y="220.1" class="st1" width="123.3" height="5.8"/>
			
				<rect x="360.1" y="220.1" transform="matrix(-1 -1.224647e-16 1.224647e-16 -1 725.9806 446.1307)" class="st0" width="5.8" height="5.8"/>
		</g>
		<g>
			<rect x="0" y="14.1" class="st4" width="30.2" height="8.5"/>
			<rect x="15.1" y="22.6" class="st4" width="30.2" height="8.5"/>
			<rect x="202.5" y="133.2" class="st4" width="30.2" height="8.5"/>
			<rect x="245.9" y="249.7" class="st4" width="30.2" height="8.5"/>
			
				<rect x="33.4" y="252.4" transform="matrix(-1 -1.224647e-16 1.224647e-16 -1 96.9016 513.2387)" class="st4" width="30.2" height="8.5"/>
			<rect x="122.9" y="5.5" class="st4" width="30.2" height="8.5"/>
			<rect x="129.1" y="243.8" class="st4" width="30.2" height="8.5"/>
			<rect x="350.8" y="239.6" class="st4" width="30.2" height="8.5"/>
			<rect x="114" y="252.4" class="st4" width="30.2" height="8.5"/>
			
				<rect x="236.7" y="22.6" transform="matrix(-1 -1.224647e-16 1.224647e-16 -1 503.6249 53.6665)" class="st4" width="30.2" height="8.5"/>
		</g>
	</g>
	<g>
		<g>
			<path class="st0" d="M370.6,26.9c7.4,0,13.5-6,13.5-13.5S378.1,0,370.6,0H369v26.9H370.6z"/>
			<circle class="st1" cx="369" cy="13.5" r="13.5"/>
			<path class="st5" d="M366.3,10.2c-2.3,2.9-5.5,4.3-7,3.1s-0.9-4.6,1.5-7.5c2.3-2.9,5.5-4.3,7-3.1C369.3,3.9,368.6,7.3,366.3,10.2
				z"/>
			<circle class="st6" cx="369" cy="13.5" r="1.9"/>
		</g>
		<g>
			<path class="st0" d="M376.1,36.8h-10.5c-2.2,0-4-1.8-4-4l0,0c0-2.2,1.8-4,4-4h10.5c2.2,0,4,1.8,4,4l0,0
				C380.1,35,378.3,36.8,376.1,36.8z"/>
			<path class="st1" d="M374.3,36.8h-10.5c-2.2,0-4-1.8-4-4l0,0c0-2.2,1.8-4,4-4h10.5c2.2,0,4,1.8,4,4l0,0
				C378.3,35,376.5,36.8,374.3,36.8z"/>
			<g>
				<g>
					<path class="st0" d="M379.3,32.1l-0.3-1.1c3.2-1,5-4.5,4-7.7L384,23C385.2,26.9,383.1,30.9,379.3,32.1z"/>
					<path class="st0" d="M384,24.8L384,24.8c-0.6,0.2-1.2-0.1-1.3-0.7l-0.4-1.2c-0.2-0.6,0.1-1.2,0.7-1.3l0,0
						c0.6-0.2,1.2,0.1,1.3,0.7l0.4,1.2C384.9,24,384.5,24.6,384,24.8z"/>
				</g>
			</g>
		</g>
	</g>
</g>
<g id="Shadow">
	<ellipse id="_x3C_Path_x3E__131_" class="st4" cx="193.9" cy="353.1" rx="193.9" ry="11.3"/>
</g>
<g id="Hats">
	<g>
		<g>
			<path class="st7" d="M48.6,40.7c-0.2,0-0.4-0.1-0.5-0.3c-0.9-1.8,0.2-3.2,1.3-4.7c1.6-2.1,3.5-4.8,1.5-10
				c-3.6-9.3-0.7-14.7-0.6-14.9c0.1-0.3,0.5-0.3,0.7-0.2c0.3,0.1,0.3,0.5,0.2,0.7c0,0.1-2.8,5.2,0.7,14c2.3,5.8,0,8.8-1.6,11.1
				c-1.2,1.6-1.7,2.5-1.2,3.6c0.1,0.3,0,0.6-0.2,0.7C48.7,40.7,48.6,40.7,48.6,40.7z"/>
			<path class="st7" d="M50.7,12.5c-0.8,0-1.5-0.7-1.5-1.5s0.7-1.5,1.5-1.5c0.8,0,1.5,0.7,1.5,1.5S51.5,12.5,50.7,12.5z M50.7,10.6
				c-0.2,0-0.4,0.2-0.4,0.4s0.2,0.4,0.4,0.4c0.2,0,0.4-0.2,0.4-0.4S50.9,10.6,50.7,10.6z"/>
		</g>
		<g>
			<polygon class="st8" points="67.5,31.4 68,32.2 18.5,62.5 17.9,61.7 38,38.8 			"/>
		</g>
		<g>
			<polygon class="st7" points="68,32.2 47.9,55 18.5,62.5 38.5,39.7 			"/>
		</g>
		<g>
			<g>
				<path class="st9" d="M64.3,49.9C54,54.4,44.2,60.4,35.5,67.5c-0.6,0.5-1.4,0.4-1.7-0.2l-5.3-8.7c-0.3-0.5-0.2-1.1,0.3-1.5
					c8.9-7.3,18.8-13.4,29.4-18c0.5-0.2,1.1-0.1,1.4,0.4l5.3,8.7C65.2,48.8,65,49.6,64.3,49.9z"/>
				<path class="st10" d="M64.3,49.9C54,54.4,44.2,60.4,35.5,67.5c-0.6,0.5-1.4,0.4-1.7-0.2l-5.3-8.7c-0.3-0.5-0.2-1.1,0.3-1.5
					c8.9-7.3,18.8-13.4,29.4-18c0.5-0.2,1.1-0.1,1.4,0.4l5.3,8.7C65.2,48.8,65,49.6,64.3,49.9z"/>
			</g>
		</g>
	</g>
	<g>
		<g>
			<path class="st7" d="M342.3,137.2c-0.2,0-0.4-0.1-0.6-0.3c-1.9-2.2-1-4.6-0.1-7.1c1.3-3.8,2.9-8-3.3-13.9
				c-12.2-11.6-4.6-22.9-4.5-23.1c0.2-0.4,0.7-0.5,1.1-0.2c0.4,0.2,0.5,0.7,0.2,1.1c-0.3,0.4-6.8,10.4,4.3,21
				c6.9,6.6,5,11.8,3.7,15.6c-0.9,2.6-1.4,4.1-0.2,5.5c0.3,0.3,0.2,0.8-0.1,1.1C342.6,137.1,342.5,137.2,342.3,137.2z"/>
			<path class="st7" d="M334.4,95.5c-1,0-1.9-0.7-2.2-1.7c-0.1-0.6-0.1-1.2,0.2-1.7c0.3-0.5,0.8-0.9,1.4-1c1.2-0.3,2.4,0.4,2.7,1.6
				l0,0c0.3,1.2-0.4,2.4-1.6,2.7C334.8,95.5,334.6,95.5,334.4,95.5z M334.4,92.7c-0.1,0-0.1,0-0.2,0c-0.2,0-0.3,0.1-0.4,0.3
				c-0.1,0.1-0.1,0.3-0.1,0.5c0.1,0.3,0.4,0.5,0.8,0.5c0.3-0.1,0.5-0.4,0.5-0.8l0,0c0-0.2-0.1-0.3-0.3-0.4
				C334.7,92.7,334.5,92.7,334.4,92.7z"/>
		</g>
		<g>
			<polygon class="st8" points="371.3,176.9 370.3,177.7 323.7,116.9 324.7,116.1 357.4,139.3 			"/>
		</g>
		<g>
			<g>
				<polygon class="st9" points="370.3,177.7 337.6,154.5 323.7,116.9 356.4,140 				"/>
			</g>
		</g>
		<g>
			<path class="st7" d="M346.6,175.3c-7.4-13-16.6-24.9-27.2-35.4c-0.7-0.7-0.7-1.7,0-2.3l10.7-8.2c0.6-0.4,1.4-0.4,1.9,0.2
				c10.9,10.7,20.2,22.9,27.7,36.1c0.4,0.7,0.2,1.5-0.3,1.9l-10.7,8.2C348.1,176.4,347.1,176.1,346.6,175.3z"/>
			<path class="st11" d="M346.6,175.3c-7.4-13-16.6-24.9-27.2-35.4c-0.7-0.7-0.7-1.7,0-2.3l10.7-8.2c0.6-0.4,1.4-0.4,1.9,0.2
				c10.9,10.7,20.2,22.9,27.7,36.1c0.4,0.7,0.2,1.5-0.3,1.9l-10.7,8.2C348.1,176.4,347.1,176.1,346.6,175.3z"/>
		</g>
	</g>
	<g>
		<g>
			<path class="st7" d="M65,156.1c6.4,2.7,13.1,4.4,20,5.3c0.4,0.1,0.7,0.4,0.6,0.8l-1.6,6c-0.1,0.3-0.4,0.5-0.8,0.5
				c-7-0.8-13.9-2.7-20.3-5.4c-0.3-0.1-0.5-0.5-0.4-0.8l1.6-6C64.2,156.2,64.6,156,65,156.1z"/>
		</g>
		<g>
			<polygon class="st8" points="58.2,153.8 58.3,153.2 92.6,162.3 92.4,162.9 73.9,163.6 			"/>
		</g>
		<g>
			<g>
				<g>
					<polygon class="st9" points="58.3,153.2 76.8,152.4 92.6,162.3 74,163.1 					"/>
				</g>
				<g class="st12">
					<polygon class="st9" points="58.3,153.2 76.8,152.4 92.6,162.3 74,163.1 					"/>
				</g>
			</g>
		</g>
		<g>
			<path class="st7" d="M76.4,158c0,0-0.1,0-0.1,0c-0.1-0.1-0.2-0.2-0.1-0.4c0.3-0.6,0.1-1.1-0.5-2c-0.8-1.2-1.8-3-0.4-5.9
				c2.2-4.5,1-7.3,0.9-7.4c-0.1-0.1,0-0.3,0.1-0.4s0.3,0,0.4,0.1c0.1,0.1,1.4,3.1-1,7.9c-1.3,2.7-0.4,4.2,0.3,5.4
				c0.5,0.8,1,1.6,0.5,2.5C76.6,158,76.5,158,76.4,158z"/>
			<path class="st7" d="M76.5,143C76.5,143,76.5,143,76.5,143c-0.3,0-0.5-0.1-0.6-0.3c-0.1-0.2-0.2-0.4-0.2-0.6
				c0-0.2,0.1-0.4,0.3-0.5c0.2-0.1,0.4-0.2,0.6-0.2c0.2,0,0.4,0.1,0.5,0.3c0.1,0.2,0.2,0.4,0.2,0.6C77.3,142.7,76.9,143,76.5,143z
				 M76.5,142c-0.1,0-0.1,0-0.1,0.1c0,0-0.1,0.1-0.1,0.2c0,0.1,0.1,0.2,0.2,0.2c0.1,0,0.2-0.1,0.2-0.2C76.7,142.1,76.6,142,76.5,142
				C76.5,142,76.5,142,76.5,142z"/>
		</g>
	</g>
</g>
<g id="Character">
	<g>
		<path class="st8" d="M192.7,58c-7.2-2-11.3,9.4-13.2,18.9c-1.9,9.5-10.4,10.9-10.4,10.9s25.5,16.6,44.4,7.4
			c15.3-7.4,10.4-24.8,3.5-32.9C210.1,54.3,197.1,51.1,192.7,58z"/>
		<polygon class="st13" points="206.7,344.2 198.1,345 189.1,324.4 197.8,323.6 		"/>
		<polygon class="st13" points="261.5,318.8 254.5,324.3 241.9,307.8 248.9,302.3 		"/>
		<path class="st8" d="M251.8,321.2l5.6-8.3c0.2-0.3,0.6-0.4,0.9-0.3l7.2,3.5c0.8,0.4,1,1.4,0.5,2.1c-2,2.9-3.1,4.2-5.6,7.8
			c-1.5,2.3-4.5,7.5-6.6,10.6c-2,3-5.3,1.2-4.7-0.3c2.6-6.7,2.6-10.5,2.2-13.6C251.4,322.2,251.5,321.6,251.8,321.2z"/>
		<path class="st8" d="M197,342.3h10.6c0.4,0,0.7,0.3,0.8,0.6l2.3,8.4c0.2,0.9-0.4,1.7-1.3,1.7c-3.7,0-5.5,0-10.2,0
			c-2.9,0-10.3,0-14.3,0c-3.9,0-4.7-3.9-3.1-4.3c7.2-1.6,11.3-3.8,13.6-5.9C195.9,342.5,196.4,342.3,197,342.3z"/>
		<polygon class="st14" points="189.1,324.4 193.8,335 202.8,335 197.8,323.6 		"/>
		<polygon class="st14" points="248.9,302.3 241.9,307.8 248.4,316.3 255.4,310.8 		"/>
		<path class="st1" d="M180.9,160.2c0,0-16.7,52.9-11.8,91.7c3.3,25.9,20.8,80.2,20.8,80.2l15.4-0.4c0,0-12.5-55.1-13.8-76.6
			c-2.2-36.8,16-94.9,16-94.9L180.9,160.2z"/>
		<polygon class="st8" points="187.7,332.8 206.7,332.3 205.6,326.4 186.3,326.4 		"/>
		<path class="st1" d="M188.8,160.2c0,0,2.3,57.8,15.2,90.4c10.4,26.3,40.8,65,40.8,65l9.3-8.1c0,0-19.3-40.9-27.2-58.5
			c-19.4-43,1.9-72.8-9.8-89L188.8,160.2z"/>
		<polygon class="st8" points="243.9,316.7 255.8,306.9 252.6,301.6 239.5,312.5 		"/>
		<path class="st1" d="M249.7,325.7c-0.3,0-0.5-0.1-0.7-0.4c-0.3-0.2-0.3-0.5-0.2-0.6c0.2-1.1,3.1-2.4,3.5-2.5c0.1,0,0.1,0,0.2,0
			c0.1,0,0.1,0.1,0,0.2c-0.4,1.1-1.3,3-2.4,3.3C249.9,325.7,249.8,325.7,249.7,325.7z M251.9,322.7c-1,0.5-2.8,1.4-2.9,2.1
			c0,0.1,0,0.2,0.1,0.3c0.3,0.2,0.5,0.3,0.8,0.2C250.6,325.2,251.3,324.2,251.9,322.7z"/>
		<path class="st1" d="M249.5,322.9c-0.5,0-1-0.2-1.2-0.4c-0.1-0.1-0.3-0.4-0.1-0.9c0.1-0.3,0.4-0.5,0.7-0.6
			c1.2-0.3,3.4,1.1,3.5,1.2c0.1,0,0.1,0.1,0.1,0.2c0,0.1,0,0.1-0.1,0.1C251.8,322.8,250.5,323,249.5,322.9z M249.5,321.4
			c-0.2,0-0.3,0-0.5,0c-0.2,0.1-0.4,0.2-0.5,0.4c-0.1,0.3-0.1,0.4,0,0.5c0.5,0.5,2.4,0.4,3.4,0.1C251.4,322,250.3,321.4,249.5,321.4
			z"/>
		<path class="st1" d="M192.3,344c-0.8,0-1.6-0.1-2-0.5c-0.3-0.2-0.5-0.6-0.5-1c0-0.3,0.1-0.5,0.3-0.5c1-0.7,4.8,1.1,5.3,1.3
			c0.1,0,0.1,0.1,0.1,0.2c0,0.1-0.1,0.1-0.1,0.2C194.4,343.8,193.3,344,192.3,344z M190.6,342.2c-0.2,0-0.3,0-0.4,0.1
			c0,0-0.1,0.1-0.1,0.2c0,0.3,0.1,0.5,0.4,0.7c0.9,0.7,3,0.4,4.1,0.2C193.2,342.9,191.4,342.2,190.6,342.2z"/>
		<path class="st1" d="M195.1,343.7C195.1,343.7,195.1,343.7,195.1,343.7c-1.2-0.5-3.7-2.4-3.5-3.4c0-0.2,0.2-0.5,0.7-0.5
			c2.1-0.2,3,3.6,3,3.7c0,0.1,0,0.1-0.1,0.2C195.2,343.7,195.2,343.7,195.1,343.7z M192.5,340.1c0,0-0.1,0-0.1,0
			c-0.4,0-0.4,0.2-0.4,0.2c-0.1,0.6,1.6,2.2,2.9,2.9C194.6,342.3,193.8,340.1,192.5,340.1z"/>
		<g>
			<g>
				<polygon class="st9" points="126.7,74.7 123.6,68 143.7,59.7 163.1,50 166.2,56.7 146.1,65.1 				"/>
				<polygon class="st15" points="126.7,74.7 123.6,68 143.7,59.7 163.1,50 166.2,56.7 146.1,65.1 				"/>
			</g>
		</g>
		<path class="st16" d="M150,64.6l-0.2,0.1c-0.6,0.2-1.2-0.2-1.4-0.8l-1.7-5.5c-0.2-0.6,0.2-1.2,0.8-1.4l0.2-0.1
			c0.6-0.2,1.2,0.2,1.4,0.8l1.7,5.5C150.9,63.8,150.6,64.4,150,64.6z"/>
		<path class="st16" d="M143.7,67.5l-0.2,0.1c-0.5,0.4-1.2,0.2-1.6-0.3l-3.3-4.7c-0.4-0.5-0.2-1.2,0.3-1.6l0.2-0.1
			c0.5-0.4,1.2-0.2,1.6,0.3l3.3,4.7C144.3,66.4,144.2,67.1,143.7,67.5z"/>
		<path class="st13" d="M147.4,71.4l2.1-7.7l-9.2,1.7c0,0,0.1,5.4,4.5,8.2L147.4,71.4z"/>
		<polygon class="st13" points="146.4,56.5 139.8,59 140.3,65.4 149.5,63.7 		"/>
		<path class="st13" d="M139.7,88.8c0.2-8.2,3.6-19.6,3.6-19.6l4.6-0.6c0,0-1.2,9.2-0.5,17.5L139.7,88.8z"/>
		<path class="st7" d="M184.6,124.1c-0.6,0.2-0.9,0.2-1.4,0.3l-1.2,0.3l-2.5,0.5c-1.6,0.3-3.3,0.7-4.9,0.9c-3.3,0.6-6.7,1-10.2,1.2
			c-3.6,0.1-7.3,0.2-11.5-0.8c-2.1-0.5-4.3-1.2-6.6-2.6c-0.6-0.3-1.1-0.7-1.7-1.1l-0.2-0.2l-0.3-0.2l-0.6-0.5c-0.3-0.3-0.7-0.6-1-1
			c-1.2-1.3-1.9-2.5-2.5-3.6c-1.2-2.2-1.8-4.2-2.3-6c-0.5-1.8-0.8-3.6-1.1-5.3c-0.6-3.4-0.8-6.7-1.1-9.9c-0.2-3.2-0.4-6.4-0.5-9.6
			l-0.2-4.8l-0.1-2.4c0-0.8-0.1-1.6-0.1-2.5l20,1.8c-0.1,0.6-0.3,1.3-0.4,2l-0.3,2.1c-0.2,1.4-0.4,2.9-0.5,4.3
			c-0.3,2.9-0.5,5.7-0.5,8.5c-0.1,2.8,0.1,5.6,0.3,8.1c0.1,1.3,0.4,2.5,0.6,3.6c0.2,1.1,0.6,2,0.8,2.5c0.1,0.2,0.2,0.3,0,0.1
			c0,0-0.1-0.1-0.2-0.2c0,0-0.1-0.1-0.1-0.1l-0.1-0.1l0,0c0.1,0,0.1,0.1,0.2,0.1c0.3,0.2,1,0.5,1.8,0.7c1.7,0.3,4.1,0.4,6.6,0.1
			c2.5-0.3,5.1-0.8,7.7-1.5c1.3-0.4,2.6-0.8,3.9-1.2c0.6-0.2,1.3-0.5,1.9-0.7l0.9-0.4c0.3-0.1,0.6-0.3,0.8-0.4L184.6,124.1z"/>
		<g class="st14">
			<path d="M175.5,282.5c1.4,5.5,2.9,11,4.4,16.3c4.4-1.2,10.6-3,17.4-5.3c-1.2-6.1-2.3-12.3-3.3-18.1L175.5,282.5z"/>
			<path d="M232.3,260.9l-19.6,7.5c3,5.3,6.3,10.6,9.6,15.7c6.4-2.9,12.2-6.1,16.4-9.4C236.5,269.9,234.3,265.2,232.3,260.9z"/>
		</g>
		<path class="st7" d="M175.3,110.9c0.6,13.7-17.3,70.2-8.9,185.4c8.3,1.9,68.4-23.5,75.5-30.7c-0.6-13.8-25.9-103.4-19.7-154
			c0.4-3.2-1.4-6.2-4.6-6.7c-2.7-0.4-6.1-0.8-9.5-1c-6.1-0.3-11.1-0.5-16.5,0c-4.1,0.4-8.6,1.2-11.7,1.7
			C177.3,106.1,175.2,108.3,175.3,110.9z"/>
		<path class="st13" d="M206.4,85.3c-1,5.3-2,15,1.7,18.6c0,0-5.3,8.3-14.3,12.3c-7.2-6.1-2.2-12.3-2.2-12.3
			c5.9-1.4,5.7-5.8,4.7-9.9L206.4,85.3z"/>
		<path class="st17" d="M193.4,117.4l1.1-6.4l12.2-9.8l4.2,2.4C210.8,103.6,199.9,117.8,193.4,117.4z"/>
		<path class="st17" d="M193.4,117.4l1.1-6.4l-1.6-8.2l-3.9,0.7C189,103.6,186.8,117.8,193.4,117.4z"/>
		<path class="st3" d="M194.5,111c0,0,5.2,5.2,5.5,9.8c3.5-3.4,12-14.5,12.2-17.6c-1.9-1.5-5.6-2.5-5.6-2.5L194.5,111z"/>
		<path class="st3" d="M194.5,111c0,0-5.1,4-5.3,8.7c-3.5-3.4-1.9-13.2-1.4-15.9c1.9-1.5,5.5-2,5.5-2L194.5,111z"/>
		<path class="st14" d="M202.3,88.8l-6,5.1c0.2,1,0.4,2,0.5,2.9c2.3-0.3,5.7-2.4,5.9-4.7C202.8,91,202.5,89.4,202.3,88.8z"/>
		<path class="st13" d="M211.8,77.3c-3,8.4-4,12-9.6,15.1c-8.3,4.7-18-0.7-17.6-9.8c0.4-8.2,5.1-20.5,14.4-21.5
			C208.2,60.1,214.7,68.9,211.8,77.3z"/>
		<path class="st8" d="M208.3,67.6c-5.3,1.8-4.8,12.3,0.4,16C213.9,87.2,220.2,63.4,208.3,67.6z"/>
		<path class="st8" d="M192.9,63.8c5.3,4.6,12.9,6.4,15.6,5.1c1.9,1.5,8.4,4.6,4.6-2.7c-3.9-7.3-10.7-8.2-15.1-8.2
			S188.4,59.8,192.9,63.8z"/>
		<path class="st13" d="M211.8,85.2c-1.1,1.7-2.8,2.7-4.3,3c-2.3,0.5-3.1-1.7-2.2-3.9c0.8-2,2.9-4.6,5.1-4.1
			C212.5,80.7,213.1,83.3,211.8,85.2z"/>
		<path class="st8" d="M198.2,76c-0.2,0.7-0.7,1.2-1.2,1c-0.5-0.1-0.7-0.8-0.5-1.5c0.2-0.7,0.7-1.2,1.2-1
			C198.2,74.6,198.4,75.3,198.2,76z"/>
		<path class="st8" d="M190.4,73.8c-0.2,0.7-0.7,1.2-1.2,1c-0.5-0.1-0.7-0.8-0.5-1.5c0.2-0.7,0.7-1.2,1.2-1
			C190.3,72.4,190.6,73.1,190.4,73.8z"/>
		<path class="st8" d="M190.1,72.4l-1.5-1C188.6,71.4,189,73,190.1,72.4z"/>
		<path class="st18" d="M192.1,75.5c0,0-2,2.6-3.7,3.7c0.7,1.1,2.3,1.2,2.3,1.2L192.1,75.5z"/>
		<path class="st8" d="M193.7,84.1c-0.4,0-0.8-0.1-1.3-0.2c-0.1,0-0.1-0.1-0.1-0.2c0-0.1,0.1-0.1,0.2-0.1c3.1,0.9,5.1-0.9,5.1-0.9
			c0.1-0.1,0.2-0.1,0.2,0c0.1,0.1,0.1,0.2,0,0.2C197.7,82.9,196.2,84.3,193.7,84.1z"/>
		<path class="st8" d="M202.5,71.9c-0.1,0-0.2-0.1-0.3-0.2c-0.8-1.7-2.4-1.9-2.5-1.9c-0.2,0-0.3-0.2-0.3-0.4c0-0.2,0.2-0.3,0.4-0.3
			c0.1,0,2,0.3,3,2.3c0.1,0.2,0,0.4-0.2,0.5C202.6,71.9,202.5,71.9,202.5,71.9z"/>
		<path class="st8" d="M187.6,69.4c-0.1,0-0.2-0.1-0.3-0.2c-0.1-0.2,0-0.4,0.2-0.5c2.1-1,3.7,0.1,3.8,0.1c0.2,0.1,0.2,0.3,0.1,0.5
			c-0.1,0.2-0.3,0.2-0.5,0.1c-0.1,0-1.4-0.8-3.1-0.1C187.7,69.4,187.7,69.4,187.6,69.4z"/>
		<path class="st13" d="M255.9,109.3l1-7.9l7.8,5.1c0,0-2.2,5-7.3,5.8L255.9,109.3z"/>
		<polygon class="st13" points="262.6,95.9 267.6,100.8 264.7,106.5 256.9,101.3 		"/>
		<path class="st13" d="M256.3,128.3c2.9-7.7,4.2-19.5,4.2-19.5l-4.1-2.3c0,0-2.4,9-6.3,16.3L256.3,128.3z"/>
		<path class="st7" d="M221.6,107.9c0.5,1.1,1.2,2.5,1.9,3.7c0.7,1.2,1.4,2.5,2.1,3.7c1.4,2.4,2.9,4.8,4.5,7.1
			c1.6,2.3,3.2,4.5,4.9,6.4c0.9,1,1.7,1.9,2.6,2.7c0.8,0.8,1.7,1.5,2.4,2.1c0.2,0.1,0.4,0.3,0.5,0.3l0.2,0.1c0.1,0,0,0,0,0
			c0,0-0.1,0-0.1,0c-0.2-0.1-0.7-0.3-1.2-0.3c-0.5,0-1,0.1-1.2,0.2c-0.2,0.1-0.2,0.1-0.1,0c0.2-0.2,0.8-0.7,1.4-1.5
			c0.6-0.8,1.2-1.7,1.7-2.8c1.1-2.1,2.2-4.5,3-7c0.5-1.3,0.8-2.6,1.2-3.9l0.5-2c0.1-0.3,0.1-0.7,0.2-1c0.1-0.3,0.1-0.7,0.2-0.9
			l19.2,5.9c-0.2,0.5-0.3,0.9-0.5,1.3l-0.5,1.1l-1,2.2c-0.7,1.5-1.4,3-2.1,4.4c-1.5,3-3,5.9-4.9,8.9c-0.9,1.5-2,3-3.3,4.6
			c-1.3,1.5-2.8,3.2-5,4.7c-1.1,0.8-2.4,1.6-4,2.1c-1.6,0.6-3.6,1-5.6,0.9c-2-0.1-4-0.6-5.5-1.4l-0.6-0.3c-0.2-0.1-0.4-0.2-0.5-0.3
			l-0.7-0.4c-0.5-0.3-0.9-0.6-1.4-0.9c-3.4-2.4-5.8-4.9-8.1-7.3c-2.3-2.5-4.3-5-6.3-7.5c-2-2.5-3.8-5-5.7-7.6l-2.7-3.8l-1.3-1.9
			c-0.5-0.7-0.9-1.3-1.4-2L221.6,107.9z"/>
		<path class="st8" d="M197.9,74.6l-1.5-1C196.4,73.6,196.9,75.2,197.9,74.6z"/>
		<g>
			<g>
				<polygon class="st19" points="234.2,61.3 234.1,61.9 177.8,47.8 177.9,47.2 207.5,48.4 				"/>
			</g>
			<g>
				<polygon class="st20" points="234.1,61.9 204.4,60.7 177.8,47.8 207.4,49 				"/>
			</g>
			<g>
				<path class="st21" d="M219.9,68.6c-10.6-3.9-21.6-6.7-32.8-8.2c-0.7-0.1-1.2-0.6-1.1-1.2l2-8c0.1-0.4,0.6-0.7,1.2-0.6
					c11.4,1.5,22.7,4.4,33.4,8.4c0.5,0.2,0.9,0.7,0.8,1.1l-2,8C221.3,68.6,220.6,68.9,219.9,68.6z"/>
				<path class="st22" d="M219.9,68.6c-10.6-3.9-21.6-6.7-32.8-8.2c-0.7-0.1-1.2-0.6-1.1-1.2l2-8c0.1-0.4,0.6-0.7,1.2-0.6
					c11.4,1.5,22.7,4.4,33.4,8.4c0.5,0.2,0.9,0.7,0.8,1.1l-2,8C221.3,68.6,220.6,68.9,219.9,68.6z"/>
			</g>
		</g>
		<g>
			<path class="st7" d="M224.9,91.7c-0.1,0-0.2,0-0.3-0.1c-0.2-0.2-0.2-0.5-0.1-0.7c4.9-5.8,2.2-8.4-1.6-12
				c-2.2-2.1-4.6-4.4-5.9-7.8c-3.4-9.2,7.1-15.3,7.2-15.3c0.3-0.1,0.6-0.1,0.7,0.2c0.1,0.3,0.1,0.6-0.2,0.7
				c-0.4,0.2-9.8,5.7-6.7,14.1c1.2,3.1,3.5,5.4,5.6,7.4c3.7,3.6,7.2,6.9,1.7,13.4C225.2,91.6,225,91.7,224.9,91.7z"/>
			<path class="st7" d="M224.9,92.6c-0.8,0-1.5-0.7-1.5-1.5c0-0.8,0.7-1.5,1.5-1.5c0.8,0,1.5,0.7,1.5,1.5
				C226.4,91.9,225.7,92.6,224.9,92.6z M224.9,90.7c-0.2,0-0.4,0.2-0.4,0.4s0.2,0.4,0.4,0.4s0.4-0.2,0.4-0.4S225.1,90.7,224.9,90.7z
				"/>
		</g>
	</g>
</g>
</svg>
