<?xml version="1.0" encoding="utf-8"?>
<!-- Generator: Adobe Illustrator 22.1.0, SVG Export Plug-In . SVG Version: 6.00 Build 0)  -->
<svg version="1.1" id="Layer_1" xmlns="http://www.w3.org/2000/svg" xmlns:xlink="http://www.w3.org/1999/xlink" x="0px" y="0px"
	 viewBox="0 0 169.6 151.4" style="enable-background:new 0 0 169.6 151.4;" xml:space="preserve">
<style type="text/css">
	.st0{fill:#68BDD1;}
	.st1{opacity:0.95;fill:#583F99;}
	.st2{fill:#FFFFFF;}
</style>
<path class="st0" d="M140.7,15.6C134.4,7.2,125.1-0.2,114.5,0c-10.8,0.2-19.8,8.2-26.4,16.7C81.5,25.3,76.1,35,67.4,41.3
	c-8.9,6.5-20.3,8.8-29.9,14.4c-14.2,8.4-23.7,25.8-19.6,41.8c2.3,8.9,8.2,16.4,14.1,23.4c10.9,12.8,23.4,25.7,39.8,29.4
	c15.8,3.7,32.7-2.1,45.4-12.3C150.9,110.8,168.5,52.6,140.7,15.6z"/>
<path class="st1" d="M3.9,70.1c-4.3,10.6-6,23.3,0.1,33c6.2,9.9,18.6,13.8,30.2,15.2c11.6,1.4,23.6,1.1,34.3,5.6
	c11,4.7,19.4,14,29.9,19.7c15.7,8.6,37.1,7.6,49.7-5c7-7,10.7-16.7,13.9-26.1c5.8-17.2,10.8-36,5.2-53.2
	C161.8,42.6,147,30.1,130.5,24C86.5,7.8,22.7,23.8,3.9,70.1z"/>
<g>
	<path class="st2" d="M56.4,74.1h-12V55.6h3.9v15.3h8.1V74.1z"/>
	<path class="st2" d="M57.7,74.1V55.6h3.9v18.5H57.7z"/>
	<path class="st2" d="M63.6,74.1V55.6h3.2l8.6,12h0.1v-12h3.7v18.5H76l-8.7-12.1h-0.1v12.1H63.6z"/>
	<path class="st2" d="M97.8,66.3c0,2.5-0.7,4.5-2.2,5.9c-1.5,1.4-3.5,2.2-6,2.2c-2.8,0-4.9-0.9-6.5-2.6c-1.6-1.7-2.4-4.1-2.4-7.1
		c0-3,0.8-5.3,2.4-7c1.6-1.7,3.7-2.5,6.4-2.5c2.2,0,4,0.6,5.5,1.7c1.5,1.2,2.4,2.7,2.7,4.5h-3.9c-0.3-1-0.8-1.7-1.5-2.3
		c-0.8-0.5-1.6-0.8-2.7-0.8c-1.5,0-2.7,0.6-3.6,1.7c-0.9,1.1-1.3,2.6-1.3,4.6c0,2,0.5,3.6,1.4,4.7c0.9,1.2,2.1,1.7,3.7,1.7
		c1.3,0,2.3-0.4,3.1-1.1c0.8-0.7,1.2-1.6,1.3-2.8l0-0.3h-4v-2.8h7.8V66.3z"/>
	<path class="st2" d="M103.2,67.1c0,1.2,0.3,2.2,1,2.8c0.7,0.7,1.6,1.1,2.9,1.1c1.2,0,2.2-0.4,2.9-1.1c0.7-0.7,1-1.6,1-2.8V55.6h3.9
		v12c0,2.1-0.7,3.7-2.1,5c-1.4,1.3-3.3,1.9-5.6,1.9c-2.4,0-4.2-0.6-5.7-1.9c-1.4-1.3-2.1-2.9-2.1-5v-12h3.9V67.1z"/>
	<path class="st2" d="M127.1,69.6h-6.5l-1.4,4.5h-4l6.4-18.5h4.6l6.4,18.5h-4.1L127.1,69.6z M121.5,66.7h4.8l-2.4-7.6h-0.1
		L121.5,66.7z"/>
	<path class="st2" d="M68.3,99.1h-12V80.6h3.9v15.3h8.1V99.1z"/>
	<path class="st2" d="M80.2,94.6h-6.5l-1.4,4.5h-4l6.4-18.5h4.6l6.4,18.5h-4.1L80.2,94.6z M74.5,91.7h4.8L77,84.1h-0.1L74.5,91.7z"
		/>
	<path class="st2" d="M86.6,99.1V80.6h3.2l8.6,12h0.1v-12h3.7v18.5H99l-8.7-12.1h-0.1v12.1H86.6z"/>
	<path class="st2" d="M111.4,80.6c2.8,0,4.9,0.8,6.5,2.4c1.6,1.6,2.3,3.9,2.3,6.8c0,2.9-0.8,5.2-2.3,6.9c-1.5,1.6-3.7,2.5-6.5,2.5
		h-7.1V80.6H111.4z M108.1,95.9h2.8c1.7,0,3.1-0.5,4-1.6c0.9-1,1.4-2.6,1.4-4.5c0-1.9-0.5-3.4-1.4-4.4c-0.9-1-2.2-1.6-3.9-1.6h-2.8
		V95.9z"/>
</g>
</svg>
