<?xml version="1.0" encoding="utf-8"?>
<!-- Generator: Adobe Illustrator 22.1.0, SVG Export Plug-In . SVG Version: 6.00 Build 0)  -->
<svg version="1.1" id="OBJECTS" xmlns="http://www.w3.org/2000/svg" xmlns:xlink="http://www.w3.org/1999/xlink" x="0px" y="0px"
	 viewBox="0 0 380 340" style="enable-background:new 0 0 380 340;" xml:space="preserve">
<style type="text/css">
	.st0{fill:#8585DD;}
	.st1{fill:#5656BA;}
	.st2{fill:#4A27A0;}
	.st3{fill:#6849C9;}
	.st4{fill:#2C1970;}
	.st5{fill:#E0A47C;}
	.st6{fill:#FECAD0;}
	.st7{fill:#EE84AA;}
	.st8{fill:#6C5EF7;}
	.st9{fill:#5451F2;}
	.st10{fill:#E0206E;}
	.st11{fill:#C11046;}
	.st12{fill:#C12525;}
	.st13{fill:#FFFFFF;}
	.st14{fill:#F4DCDC;}
	.st15{fill:#F46C6C;}
	.st16{fill:#222221;}
	.st17{fill:#8C8484;}
	.st18{fill:#68BDD1;}
	.st19{fill:#0E98AF;}
	.st20{fill:none;stroke:#8787F4;stroke-width:0.4728;stroke-linecap:round;stroke-linejoin:round;}
	.st21{fill:none;stroke:#8787F4;stroke-width:0.4728;stroke-linecap:round;stroke-linejoin:round;stroke-dasharray:1.8919,1.8919;}
	.st22{fill:none;stroke:#8787F4;stroke-width:0.4728;stroke-linecap:round;stroke-linejoin:round;stroke-dasharray:1.8966,1.8966;}
	
		.st23{fill:none;stroke:#8787F4;stroke-width:0.4728;stroke-linecap:round;stroke-linejoin:round;stroke-miterlimit:10;stroke-dasharray:1.891;}
	
		.st24{fill:none;stroke:#BC1919;stroke-width:0.4728;stroke-linecap:round;stroke-linejoin:round;stroke-miterlimit:10;stroke-dasharray:1.891;}
	.st25{fill:#D3D3F2;}
	.st26{fill:#B3B3F4;}
	.st27{fill:#DD3C77;}
	.st28{fill:#EF4786;}
	.st29{fill:#4949AD;}
</style>
<ellipse class="st0" cx="188.7" cy="306.5" rx="188.7" ry="33.5"/>
<ellipse class="st1" cx="295.3" cy="310.1" rx="39.3" ry="8.8"/>
<ellipse class="st1" cx="62.5" cy="294.9" rx="26.1" ry="6.8"/>
<path class="st1" d="M91.4,321c0,0,12.7,6.2,20.2,5.7c0,0,11.6,8.6,27.7,5.7c0,0,14.6-13.3,32.5-16.8c18-3.6,54.3-14.4,54.3-14.4
	s83.6-0.9,88.4-8.9s-153.2-9.5-157.8-4.7c-4.5,4.8,15.1,10.3,15.1,10.3S81,308.1,91.4,321z"/>
<g>
	<path class="st2" d="M198.3,176.7c6.4-9.2,14-18.2,24.5-22.3c11.1-4.4,23.7-2.3,34.9,1.8c16,5.9,31.1,16.5,38.3,32.1
		c5.2,11.2,5.8,23.9,7.8,36c1.6,9.9,4.1,19.8,4.4,29.7c0.4,10.1-1.8,20.6-8.3,28.2c-10.2,11.8-27.6,13.1-43,13.6
		c-11.9,0.4-23.9,0.7-35.8,1c-8.8,0.3-17.7,0.5-26.4-1c-8.7-1.6-17.2-5.2-23.4-11.6c-7.7-8.1-10.7-20.1-9.2-31.3
		c1.8-12.8,10-22.9,14.5-34.8C181.9,203.4,189.4,189.5,198.3,176.7z"/>
	<path class="st3" d="M308.9,254c-0.4-10.1-2.8-19.9-4.4-29.7c-2-12.2-2.6-24.8-7.8-36c-7.1-15.6-22.3-26.2-38.3-32.1
		c-6-2.2-12.5-3.8-18.9-4.2c5.4,0.5,10.3,2.7,15.7,4.6c59.2,20.5,47.9,113.7,51.3,115.3C308.4,266.2,309.1,260,308.9,254z"/>
	<path class="st4" d="M292.9,275c-12.9,25.1-45.7,8-69.5,12.1c-7,1-14.9,2-21.8,2c-18.4-0.7-33.9-14.2-39.2-31.2
		c-0.1,9.6,3,19.3,9.6,26.2c6.1,6.5,14.7,10.1,23.4,11.6c8.7,1.6,17.6,1.3,26.4,1c11.9-0.4,23.9-0.7,35.8-1
		c15.5-0.5,32.8-1.8,43-13.6c2.6-3,4.5-6.6,5.8-10.4C303.2,270.3,294.3,272.3,292.9,275z"/>
	<path class="st4" d="M193,264c11.3,4.9,24.3,5.1,36.3,2.4c5.5-1.2,11.1-3.1,15.4-6.9c2.4-2,4.2-4.5,6-6.9c2.2-3,4.2-6.1,6.2-9.3
		c7.1-11.5,12.7-24,16.1-37.1c1.2-4.8,2.2-9.9,1.3-14.8c-0.8-4.9-3.6-9.8-8-12c-3.6-1.7-8.3-1.9-10.3-5.2
		c-3.3-5.2,2.9-13.2-0.8-18.2c-2.6-3.4-7.8-2.5-11.9-1.2c-5.4,1.7-10.7,3.6-15.2,6.9c-4.5,3.3-8.2,8.3-8.8,13.9
		c-7.7-4-18.4-0.2-21.9,7.9c-2.5,5.8-1.6,12.5-3.8,18.4c-2.3,5.9-7.4,10.3-9.3,16.3c-1.1,3.7-1.3,8.5-4.7,10.4
		c-2.3,1.2-5.1,0.8-7.3,1.9c-6.7,3.4,0.7,15.2,3.5,19.3C179.7,256,186,260.9,193,264z"/>
	<path class="st5" d="M217.7,166.4c0,2.7,0.1,5.5,1.8,7.5c1.9,2.3,5,2.7,7.9,2.9c3,0.3,6,0.6,9,0.1c3-0.5,5.9-1.9,7.6-4.5
		c1.9-2.7,2.1-6.2,2.2-9.4c0.2-6.1,0.5-12.2,0.7-18.2c0.1-1.8,0.1-3.8-0.8-5.4c-1.4-2.7-4.6-3.6-7.4-4.1c-4.3-0.8-8.7-1.1-13.2-1.1
		c-6.9,0-8.4,2.7-7.8,8.6C218.4,150.5,217.7,158.6,217.7,166.4z"/>
	<path class="st6" d="M245.3,145.5c-5.9,1-7.9-7-10.9-5c-5.9,4-10,5-14.9,4c-0.7-0.4-1.2-0.8-1.8-1.3c0.7,7.6,0,15.5,0,23.1
		c0,2.7,0.1,5.5,1.8,7.5c1.9,2.3,5,2.7,7.9,2.9c3,0.3,6,0.6,9,0.1c3-0.5,5.9-1.9,7.6-4.5c0.9-1.3,1.4-2.9,1.7-4.5
		C242.7,162,246,152,245.3,145.5z"/>
	<path class="st7" d="M246.8,144.8c0.1-1.8,0.1-3.8-0.8-5.4c-1.4-2.7-4.6-3.6-7.4-4.1c-4.3-0.8-8.7-1.1-13.2-1.1
		c-6.9,0-8.4,2.7-7.8,8.6c0,0.2,0,0.3,0,0.5c0.6,0.5,1,1,1.8,1.3c5,1,8.9,0,14.9-4c3-2,5,6,10.9,5c0.8,6.5-2.6,16.4,0.5,22.4
		c0.3-1.6,0.4-3.3,0.5-4.9C246.3,156.9,246.6,150.9,246.8,144.8z"/>
	<path class="st8" d="M229.1,140.9c-4.4,2.9-11,1.7-14.1-2.6c-1.5-2.1-1.9-5.5,0.3-6.7c1.1-0.7,2.5-0.5,3.8-0.7
		c4.5-0.6,7.6-5.1,11.9-6.4c4.4-1.3,9,1,13.1,3.2c1.9,1,3.8,2.1,5,3.8s1.6,4.3,0.2,5.9c1.7-1.5,4.7-0.5,5.8,1.5
		c1.1,2.1,0.8,4.7,0,6.8c-0.8,2.2-2,4.3-2.5,6.6c-0.7,2.6-0.5,5.4-1.2,8c-0.8,2.6-3,5-5.6,4.7c-1.5-3.1-1-6.4,0.1-9.7
		c1-3.2,0.9-7.8,0.4-10.3c-0.5-1.9-3.2-2.2-4.7-3.3c-2.4-1.7-1.7-4.9-4.7-5.4C233.9,135.8,231.1,139.6,229.1,140.9z"/>
	<path class="st9" d="M251.2,140.5c-5-3-7.9-10.1-14.9-10.1c-5.5,0-9,6.1-14.1,6.4c-2.7,0.2-5-1.9-5.5-4.6c-0.1-0.4-0.2-0.9-0.3-1.2
		c-0.5,0.1-0.8,0.2-1.2,0.5c-0.5,0.3-0.8,0.7-1,1.1c0.4,2.5,2.2,5.1,5.3,5.9c7,3,12.9-9,18.9-5c4,2.4,5.4,4.8,8.8,7.2
		c2.3,1.5,3,4.5,2.1,7c-0.2,0.6-0.4,1.1-0.4,1.6c0.8,0,1.6,0.4,2.4,1.2c0.2,0.2,0.3,0.3,0.4,0.5C252.6,147,254,141.9,251.2,140.5z"
		/>
	<path class="st9" d="M246.5,150c-0.1,1.8-0.3,3.6-0.8,5.1c-0.6,1.7-0.9,3.4-1,5.1c1.2,1.9,3.1,3,5.1,2.7c0.7-0.9,1.2-1.8,1.5-2.9
		c0.8-2.5,0.7-5.1,1.2-7.7c-0.4-0.7-0.8-1.3-1.3-1.9C249.6,149,248,149.1,246.5,150z"/>
	<path class="st6" d="M226,168.7c0,0.3,1.2,17.8,1.2,17.8l18-1.6l-2.4-21.3L226,168.7z"/>
	<path class="st7" d="M226,168.7c0,0.1,0.7,10.3,0.7,10.3c6.7,1.5,11.7,0.7,17.5-3.4l-1.3-12L226,168.7z"/>
	<path class="st10" d="M196.5,208.7c-3.5,2.8-14.2,10.7-15,10.6c-2-0.3-9.7-4.7-12.3-8.3c5.8-3,11.9-9.1,17.1-13.3
		c6.7-5.3,16.1-25.1,26-18.9c6.1,3.8-3.5,17-6,20.8C203.9,203,199.7,206.4,196.5,208.7z"/>
	<path class="st11" d="M212.2,179c-0.9-0.6-1.9-1-2.7-1c-7.7,4.1-7.1,16.3-7.3,26.2c1.6-1.4,3-2.9,4-4.4
		C208.8,196,218.4,182.8,212.2,179z"/>
	<path class="st12" d="M265.8,185.7c-7.3,21.3-15.8,45.2-24.6,66c-11.4-3.5-22.4-8.6-32.5-14.8c-1.4-0.9-2.9-1.8-3.9-3.2
		c-1.4-2.1-1.5-4.9-1.4-7.5c0.3-13.4,0-23,2.6-35.9c1.1-5.5,1.6-12,7.1-11.2c2.4,0.3,7.1,1.7,10.4,2.9c6.9,2.7,12.6,2.9,13.9,3.2
		c4.1,0.8,6.4-0.5,10.6-0.3C253.2,185.2,262.9,181.9,265.8,185.7z"/>
	<path class="st11" d="M228.8,191.3c12.9,1.9,17.3,1,23-6.5c-1.4,0.2-2.6,0.3-3.8,0.2c-4.2-0.2-6.5,1-10.6,0.3
		c-1.3-0.3-7.1-0.6-13.9-3.2c-0.8-0.3-1.5-0.6-2.4-0.9c0,0.8,0,1.4,0,2.1C221.5,187.4,224.8,190.6,228.8,191.3z"/>
	<path class="st10" d="M235.3,221.8c10.4-6.7,10-28.9,23.7-37.9c-2.4,0.1-5,0.6-7.2,0.9c-6.1,8.1-16.7,11.2-26.3,6
		c-3.3-2.5-4.5-5.7-4.3-9.6c-2.9-1-6.2-1.9-8.1-2.2c-5.5-0.8-6,5.7-7.1,11.2c-2.6,12.9-2.4,22.5-2.6,35.9c-0.1,2.6,0,5.3,1.4,7.5
		c0.9,1.4,2.4,2.4,3.9,3.2c10.2,6.3,21.2,11.2,32.5,14.8c0.3-0.6,0.6-1.2,0.8-1.9c-13.8-4.1-26.9-11.1-31.4-21
		C202.6,209.8,228.4,227.8,235.3,221.8z"/>
	<path class="st11" d="M259,183.9c-9.5,6.3-17.3,26.2-20,38.5c-0.4,1.8-2.2,2.9-4,2.5c-4.6-1.2-12.6-3.6-15.2-6.3
		c-6.1-6.2-23.5-7.4-12.5,9.7c6.1,9.5,37.6,21.1,36.2,17.8c8.6-20.2,15.2-39.7,22.3-60.4C264.5,184,262,183.7,259,183.9z"/>
	<path class="st8" d="M229.6,162.8c6-2.3,10.3,1.7,13.5-1.3c0.8-0.8,0-11.2,4.3-11.9c1.1-0.2-1.4,4.8-0.8,5.7
		c0.5,0.7,0.4,1.6,0.2,2.4c-0.4,3-0.4,5.9-0.8,8.9c-0.3,2.2-0.7,4.9-2,6.7c-2.4,3.1-7.3,4.1-11.2,4.3c-3.3,0.1-8.2,0.3-11.1-1.4
		c-3.1-1.7-3.6-4-4.1-6.7c-0.4-2.2-1.5-8.4,1.1-8.7c1.8-0.2,5.3,1.8,6,2C226.3,163,228.1,163.4,229.6,162.8z"/>
	<path class="st9" d="M242.9,163.2c3.1-0.8,1.4-6.7,4-10.3c0.5-1.6,1.1-3.5,0.5-3.3c-4.3,0.7-3.5,11.1-4.3,11.9
		c-3.2,3-7.4-1-13.5,1.3c-1.5,0.6-3.2,0.3-4.8-0.1c-0.8-0.2-4.2-2.2-6-2c-0.8,0.1-1.2,0.8-1.4,1.6c0.8-1,7.2,2,10.4,1.5
		C233.5,162.9,239.6,164.4,242.9,163.2z"/>
	<path class="st13" d="M154.5,316.7c-5.7,2.2-9.4,6.4-13.6,9.4c-4.5,3.2-11,3-16.1,1c-1.3-0.6-2.7-1.4-3.1-2.9
		c-0.4-1.3,0.4-2.8,1.3-3.7c1-1,2.3-1.5,3.5-2.1c4.5-2.2,8.6-5.1,12-8.7c3.4-3.5,7.1-8.9,14.4-6.4
		C158.4,305.1,159.4,314.8,154.5,316.7z"/>
	<path class="st14" d="M122.8,320.7c-0.8,1-1.4,2.2-1.1,3.4c0.4,1.4,1.7,2.3,3.1,2.9c4.6,1.9,10.3,2.2,14.7-0.1
		C135.3,322.7,129,320.3,122.8,320.7z"/>
	<path class="st14" d="M148,310.1c3.5,0.5,6.2-0.7,8.6-3.6c-0.8-1.2-2.3-2.8-3.6-3.3c-4.6-1.6-7.8-0.1-10.3,2.2
		c0.1,1,0.6,1.9,1.2,2.7C144.9,309.3,146.5,309.9,148,310.1z"/>
	<path class="st9" d="M233.4,165.1c0.6,0,0.9,0.7,0.7,1.1c-1.2,2.1-3.3,3.4-5.4,3.3c-2.4,0-4.8-1.9-5.7-4.7"/>
	<path class="st14" d="M152.5,317.7c0.7-0.3,1.3-0.7,2-0.9c3.5-1.3,4.4-5.7,2.5-9.3C153.6,309.7,152.1,313.2,152.5,317.7z"/>
	<path class="st13" d="M225.1,165.8c2.5,0.1,5.1,0.2,7.6,0.2c-0.7,1.6-2.4,2.7-4.1,2.7c-1.7,0-3.4-1.1-4-2.8"/>
	<path class="st10" d="M226.5,188.3c6.1,2.1,15.2,3.3,20.4-0.7c1.2-1,2.3-1.1,2.9-2.7c0.6-1.4,0.2-3.5-0.7-4.8
		c-0.6-0.9-3.5-1.4-4.4-1c0.1,1.2,0.3,1.9-0.9,2.7c-7.6,4.4-17.5-0.2-16.8-1.3C220.4,180.4,222.5,186.9,226.5,188.3z"/>
	<path class="st11" d="M227.7,182.9c6.2,5,15.2,3.6,20.4-2.5c0.2-0.3,0.4-0.4,0.6-0.6c-0.5-0.6-3.3-1-4-0.7c1,1.2,0.3,1.9-0.9,2.7
		c-7.6,4.4-17.5-0.2-16.8-1.3c-0.3,0-1.1,0.1-1.4,0.1C226,181.4,226.9,182.1,227.7,182.9z"/>
	<path class="st6" d="M145,304.6c-0.6,5,8.5,5.7,9.8,2.6c0.2-0.5,3.1-9.2,2.7-12.6c-2.7-0.9-9.2-1.3-9.2-1.3
		C147,294.9,145.2,303.5,145,304.6z"/>
	<path class="st13" d="M126.7,311.1c-5.7,2.2-9.4,6.4-13.6,9.4c-4.5,3.2-11,3-16.1,1c-1.3-0.6-2.7-1.4-3.1-2.9
		c-0.4-1.3,0.4-2.8,1.3-3.7c1-1,2.3-1.5,3.5-2.1c4.5-2.2,8.6-5.1,12-8.7c3.4-3.5,7.1-8.9,14.4-6.4
		C130.6,299.5,131.7,309.1,126.7,311.1z"/>
	<path class="st14" d="M95,315c-0.8,1-1.4,2.2-1.1,3.4c0.4,1.4,1.7,2.3,3.1,2.9c4.6,1.9,10.3,2.2,14.7-0.1
		C107.5,317.1,101.2,314.7,95,315z"/>
	<path class="st14" d="M120.2,304.5c3.5,0.5,6.2-0.7,8.6-3.6c-0.8-1.2-2.3-2.8-3.6-3.3c-4.6-1.6-7.8-0.1-10.3,2.2
		c0.1,1,0.6,1.9,1.2,2.7C117.1,303.6,118.7,304.3,120.2,304.5z"/>
	<path class="st14" d="M124.7,312c0.7-0.3,1.3-0.7,2-0.9c3.5-1.3,4.4-5.7,2.5-9.3C125.8,304,124.3,307.6,124.7,312z"/>
	<path class="st6" d="M117.3,299c-0.6,5,8.5,5.7,9.8,2.6c0.2-0.5,3.1-9.2,2.7-12.6c-2.7-0.9-9.2-1.3-9.2-1.3
		C119.2,289.3,117.4,297.8,117.3,299z"/>
	<path class="st10" d="M249.7,197.7c1.4-4.4,2.9-9,6.7-11.9c1.6-1.2,3.7-2,5.7-2c5.4,0.1,7.3,4.8,7.1,9c-0.2,2.9-1.3,5.5-2.4,8.1
		c-5.7,13.6-11.4,27.1-17.1,40.7c-0.8,1.9-1.7,3.9-3.5,4.8c-2.5,1.3-5.5,0.1-8.1-1.2c-7-3.5-13.9-7.2-20.9-10.9
		c-2.6-1.4-9.5-5.6-10-6.1c-3.8-3.4,1-7.4,3.6-11.5c0.6-0.9,4-0.7,4.8,0.1c6.3,6.3,14.9,10.2,23.7,10.9c3.3-12.4,3.7-14.4,8.7-26.7
		L249.7,197.7z"/>
	<path class="st15" d="M215,220.1c0.1-4.5-5.3-4.9-8.4-2.8c-0.1,0.1-0.3,0.2-0.4,0.3c-1.6,1.5-2.2,4-1.9,6.2
		C209.8,232.8,214.9,224.3,215,220.1z"/>
	<path class="st16" d="M223.5,153.8c0,1.1-0.6,2-1.2,2c-0.7,0-1.2-1-1.2-2s0.6-2,1.2-2C222.9,151.7,223.5,152.7,223.5,153.8z"/>
	<path class="st16" d="M233.9,153.8c0,1.1-0.6,2-1.2,2c-0.7,0-1.2-1-1.2-2s0.6-2,1.2-2C233.5,151.7,233.9,152.7,233.9,153.8z"/>
	<g>
		<g>
			<g>
				<path class="st16" d="M224.5,145.4c-0.4-0.2-0.8-0.3-1.3-0.4c-0.5-0.1-1-0.1-1.5,0.1c-0.5,0.2-0.8,0.4-1,0.7
					c-0.2,0.3-0.2,0.5-0.2,0.5c0.1,0.1,0.6-0.4,1.4-0.6c0.8-0.2,1.7,0.2,2.3,0.5C225.4,146.8,225.8,146.1,224.5,145.4z"/>
			</g>
		</g>
	</g>
	<g>
		<g>
			<g>
				<path class="st16" d="M232.4,146.1c0.7-0.3,1.8-0.3,2.7,0c0.9,0.3,1.6,0.7,1.7,0.6c0.1-0.1-0.5-0.8-1.5-1.2
					c-0.5-0.2-1.1-0.4-1.7-0.4s-1.1,0.1-1.6,0.3c-0.8,0.4-1,1-0.8,1C231.4,146.5,231.8,146.3,232.4,146.1z"/>
			</g>
		</g>
	</g>
	<g>
		<g>
			<g>
				<path class="st16" d="M226.8,154c0,0.7-0.1,1.5-0.3,2.4c-0.1,0.4-0.3,0.9-0.5,1.2c-0.2,0.4-0.4,0.9-0.6,1.3
					c-0.2,0.5-0.1,1,0,1.4c0.1,0.4,0.4,0.8,0.6,1c0.5,0.4,0.8,0.4,0.9,0.4c0-0.1-0.3-0.2-0.7-0.7c-0.3-0.4-0.6-1.1-0.3-1.8
					c0.1-0.4,0.4-0.8,0.6-1.1c0.2-0.5,0.4-0.9,0.6-1.3c0.3-1,0.4-1.9,0.4-2.6c-0.1-1.5-0.6-2.1-0.8-2.1
					C226.7,151.9,226.8,152.6,226.8,154z"/>
			</g>
		</g>
	</g>
	<ellipse class="st7" cx="220" cy="158.3" rx="1.8" ry="1.1"/>
	<ellipse class="st7" cx="235.6" cy="158.3" rx="1.8" ry="1.1"/>
	<g>
		<polygon class="st4" points="117.4,176.5 120.9,174.5 173.5,174.5 183,214.8 181.4,218.6 131.6,217.2 		"/>
		<polygon class="st4" points="183,214.8 211.4,233.6 212.2,236.5 180.1,217.3 		"/>
		<polygon class="st17" points="179.5,215.4 212.2,236.5 210.5,238.9 171.8,216.3 		"/>
		<polygon class="st0" points="117.4,176.5 171.6,176.5 181.4,218.6 129.5,219.2 		"/>
		<path class="st4" d="M149.8,195.9c-1.6,0-2.8-1.3-2.8-2.9c0-0.2,0-0.3,0.1-0.5c-0.8,0.5-1.3,1.4-1.3,2.4c0,1.6,1.3,2.9,2.8,2.9
			c1.4,0,2.5-1,2.8-2.4C151,195.7,150.4,195.9,149.8,195.9z"/>
	</g>
	<path class="st18" d="M142.1,206c-0.3-0.2-0.5-0.4-0.8-0.6c-0.9-0.7-10.7-2.6-12.7,5.9c-7.3,30.7-7.4,51.5-9.6,80
		c2-0.8,8.4,0,10.4,2.6c6.9-14.4,13.4-43,16.4-57.4c3.5,3.7,7.2,7,10.8,10c0.1,0.1,0.1,0.1,0.2,0.2c0.2,0.1,0.4,0.3,0.6,0.4
		c1.9-10.4,3.8-20.6,5.1-31.1C156.8,212.5,149,208.6,142.1,206z"/>
	<path class="st19" d="M162.1,219.1c0.2-1,0.3-2.2,0.5-3.2c-5.7-3.4-13.5-7.2-20.4-9.9c-0.3-0.2-0.5-0.4-0.8-0.6
		c-0.9-0.7-10.7-2.6-12.7,5.9v0.1C134.6,201,153.2,213.2,162.1,219.1z"/>
	<path class="st19" d="M156.2,212.5c-4.2,8.6-5.8,18.1-6.6,27.8c2.4,2.2,4.7,4.3,7.1,6.2c0.1,0.1,0.1,0.1,0.2,0.2
		c0.2,0.1,0.4,0.3,0.6,0.4c1.9-10.4,3.8-20.6,5.1-31.1C160.7,214.7,158.5,213.6,156.2,212.5z"/>
	<path class="st19" d="M144,235.2c-1.9,20.2-9.3,38.7-16.9,57c1,0.5,1.9,1,2.4,1.7c6.9-14.4,13.4-43,16.4-57.4
		c2.8,2.9,5.7,5.6,8.6,8.1c0.3-1.3,0.5-2.8,0.8-4.1C151.7,238.3,148,236.2,144,235.2z"/>
	<g>
		<g>
			<path class="st20" d="M157.2,233.3c-0.2-0.3-0.4-0.5-0.6-0.8"/>
			<path class="st21" d="M155.4,231.1c-2.9-3.2-6.3-5.6-10.4-7.2c-1,0-2,1-2,2c-2,22.4-6.7,43.9-15.2,64.7"/>
			<path class="st20" d="M127.4,291.3c-0.1,0.3-0.3,0.6-0.4,0.9"/>
		</g>
	</g>
	<path class="st18" d="M240.2,248.5c-2.6-1.3-4.3,0.5-14.7-4.2c-3.9-1.8-7.1-4.7-10.6-6.9c-7.1-4.7-14.2-9.2-21.4-13.9
		c-5.8-3.8-15.3-8.6-23.6-11.9c-0.3-0.2-0.5-0.4-0.8-0.6c-0.9-0.7-10.7-2.6-12.7,5.9c-7.3,30.7-7.4,51.5-9.6,80
		c2-0.8,8.4,0,10.4,2.6c6.9-14.4,13.4-43,16.4-57.4c3.5,3.7,7.2,7,10.8,10c0.1,0.1,0.1,0.1,0.2,0.2c6.2,4.2,12.1,7.8,19.5,9.5
		c6.4,1.5,13.2,1.7,19.6,0.2C228.1,260.9,247,252,240.2,248.5z"/>
	<path class="st19" d="M145.9,227.2c-1.9-0.6-2.8,10.4-1.5,10.5C146.2,237.6,148,227.8,145.9,227.2z"/>
	<path class="st19" d="M226.6,244.8c-0.4-0.2-0.7-0.3-1-0.5c-3.9-1.8-7.1-4.7-10.6-6.9c-7.1-4.7-14.2-9.2-21.4-13.9
		c-5.8-3.8-15.3-8.6-23.6-11.9c-0.3-0.2-0.5-0.4-0.8-0.6c-0.5-0.3-2.6-0.9-5.1-0.6c20.9,5,37,25.2,56.3,33.4
		C222.5,244.6,224.6,244.8,226.6,244.8z"/>
	<path class="st19" d="M240.2,248.5C240.2,248.5,240.1,248.5,240.2,248.5c-1.4,1.9-2.5,4.1-4.8,3.3c-10.9-5-23.8,2-32.7,3
		c-10,1-18.9-11-30.8-14.1c-1.9,20.2-9.3,38.7-16.9,57c1,0.5,1.9,1,2.4,1.7c6.9-14.4,13.4-43,16.4-57.4c3.5,3.7,7.2,7,10.8,10
		c0.1,0.1,0.1,0.1,0.2,0.2c6.2,4.2,12.1,7.8,19.5,9.5c6.4,1.5,13.2,1.7,19.6,0.2C228.1,260.9,247,252,240.2,248.5z"/>
	<g>
		<g>
			<path class="st20" d="M211.9,253.9c0,0-0.3,0-0.9-0.1"/>
			<path class="st22" d="M209.1,253.3c-4.8-1.4-15.8-6.3-34.5-23.4c0,0-3.8-1-3.7,2.6c0,0-3.2,36.5-15.3,63.7"/>
			<path class="st20" d="M155.2,297c-0.1,0.3-0.3,0.6-0.4,0.9"/>
		</g>
	</g>
	<path class="st23" d="M235.4,248.1c0,0,0.5,3.1-5.1,4.5"/>
	<path class="st19" d="M177.7,231.2c0.8-0.8,2-1.4,3.1-1.1c0.3,0.6,0.2,1.2-0.1,1.8c-0.3,0.6-0.8,1-1.2,1.4
		c-1.9,1.7-3.8,3.5-5.6,5.2c2.1-1.4,4.4-2.5,6.9-2.9c0.5-0.1,1-0.1,1.3,0.2c0.3,0.3,0.3,0.9,0,1.2c-0.3,0.4-0.7,0.7-1,0.9
		c-2,1.1-4,2.3-6,3.5c-1.8,1-3.7,2.2-3.1-0.8C172.5,237,175,233.5,177.7,231.2z"/>
	<g>
		<path class="st6" d="M210.2,216.2l-8.8-4.6l0,0l-6.1-2.9c-0.8-0.3-1.6,0.1-2,0.9l-1.1,2.8h-0.3l-0.7-0.1c-0.8-0.1-1.6,0.6-1.7,1.4
			l-0.3,2.4h0.1c-0.6,0-0.9,0.5-0.9,1l0.1,4.5c0,0.3,0.2,0.6,0.5,0.8c0.8,0.4,1.6-0.2,1.6-1v-2.4l6.2,0.3l-5.1,0.3
			c-0.6,0-0.9,0.6-0.9,1.1l0.5,3.2c0.1,0.7,0.4,1.6,1.2,1.8c0,0,1.4,0.2,1.2-1.1l-0.3-2.4l1.8-0.5c1.1-0.3,2.3-0.2,3.3,0.2l8.8,3.2
			C213.4,225.9,212.2,217,210.2,216.2z M198.5,213.3l-3.6-0.6l0.5-1.4L198.5,213.3z M191.4,216l0.1-1.2l5.9,1.2H191.4z"/>
		<polygon class="st7" points="192.4,211.7 194.6,212 195.4,210.2 198.5,213.3 195.3,211.2 194.9,212.6 192.3,212.3 		"/>
		<polygon class="st7" points="191.4,216 190.7,216 191,214.2 197.3,216 191.5,214.7 		"/>
		<path class="st7" d="M189.9,222.1c0,0,1.1,0.5,0.8-3.5l5.8,0.2l-6.1-0.7C190.4,218.2,190.8,222.1,189.9,222.1z"/>
		<path class="st7" d="M193.2,225.4c0,0,1,0,0.2-3.4c0,0,2.8-0.8,3.8-0.6c0,0,2.5,0.7,3.9,1.3l6.4,2.3c0,0,4,0.9,4.4-2.9
			c0,0-2,4.1-6,1.7c0,0-7.7-2.9-8.7-3c0,0-4,0.4-4.1,0.9C192.9,221.5,193.7,225.3,193.2,225.4z"/>
	</g>
	<path class="st2" d="M240.4,257.1c-6-2.5-11.9-5.9-18.4-5.7c-11.3,0.3-20.5,11.5-31.8,10.8c-1.4-0.1-2.9-0.4-4.2,0.1
		c-1.3,0.5-2.5,2-1.9,3.3c0.3,0.7,1,1.1,1.7,1.4c11,6,23.4,9.4,35.9,9c12.5-0.5,24.9-4.9,34.3-13.3c1.7-1.4,3.8-3.6,3.7-6
		c-2.2-0.2-4.9,2.3-7.3,2.6C248.3,259.8,244.1,258.6,240.4,257.1z"/>
	<path class="st4" d="M259.9,258.4c1.3-0.4,2.8-1.1,3-2.6c-5.1,1-10.2,1.5-15.2,1.8c3.2-0.2,6.3-0.9,9.3-2.2c0.6-0.3,1.3-1,0.8-1.4
		c-0.3-0.3-0.7-0.2-1-0.1c-2.7,0.6-5.4,1.1-8.1,1.6c3-0.7,5.6-2.7,7.2-5.2c0.5-0.9,0.8-2.1-0.1-2.6c-0.8-0.4-1.6,0.2-2.2,0.8
		c-2.3,2.2-4.4,4.4-6.7,6.6c-0.7,0.7-2.6,2.3-1.9,3.3c0.6,0.9,4,1,4.9,1C253.3,259.7,256.7,259.4,259.9,258.4z"/>
	<path class="st4" d="M182.2,266c-0.6,0.5-1.2,1.1-0.9,1.9c0.2,0.5,0.8,0.7,1.2,0.7c0.5,0,0.9-0.3,1.4-0.6c4.3-2.4,8.6-4.8,12.9-7.2
		c-0.3,0.2-1.5-0.2-2-0.1c-0.6,0.1-1.1,0.4-1.7,0.6c-1.1,0.4-2.3,0.6-3.4,1C187,262.9,184.5,264.3,182.2,266z"/>
	<path class="st4" d="M275.7,192.2c0.4-3.2,0.6-6.5,0.1-9.6c-0.5-3.1-1.7-6.3-4-8.6c-0.7-0.7-1.7-1.2-2.4-0.6s0.1,1.7,0.8,2.5
		c2.4,2.6,3.6,6.2,3.3,9.7c-0.2-4.1-3.2-7.8-7-9c-0.9-0.3-1.7,0.9-1,1.6c0.8,0.8,1.8,1.4,2.6,2.1c1.9,1.5,3.2,3.8,3.9,6.1
		c0.8,2.4,0.8,4.8,0.9,7.3c0.1,5.5-0.8,10.7-1.8,16.2c1.5-0.3,2.4-6.5,2.8-7.9C274.7,198.6,275.3,195.4,275.7,192.2z"/>
	<path class="st4" d="M288,221c-0.1-1-0.4-2.3-1.3-2.6c-0.9-0.3-1.9,0.4-2.3,1.3s-0.3,1.9-0.2,2.9c0.7,8.9-2.5,18.1-8.7,24.6
		c1.4-2.5,2.8-4.9,3.5-7.7c0.3-1,0.4-2.1,0.4-3.1c0-1.6-2.3-2-2.8-0.5c-1.3,4.2-2.9,8.2-4.8,12.2c-1.1,2.5-2.5,4.9,1,2.9
		c2.1-1.1,3.9-2.9,5.5-4.5C285,239.8,288.8,230.3,288,221z"/>
	<path class="st6" d="M251.2,155.9c0,2.6-1.3,4.7-3,4.7s-3-2.1-3-4.7c0-2.6,1.3-4.7,3-4.7S251.2,153.3,251.2,155.9z"/>
	<path class="st7" d="M246.8,154.1c-0.1,0.2-0.1,0.4-0.1,0.6c0,0.4,0,0.9,0.1,1.2s0.2,0.8,0.4,1.1c0.2,0.4,0.5,0.7,0.8,0.9
		c0.3,0.1,0.6,0.1,0.8,0c0.3-0.2,0.4-0.6,0.4-0.9c0-1-0.3-1.9-0.8-2.7c-0.1-0.2-0.3-0.3-0.5-0.4C247.6,153.7,247,153.8,246.8,154.1z
		"/>
	<path class="st7" d="M245.2,155.9c0,2.6,1.3,4.6,2.9,4.6c-2.9-2-1.8-8-1.8-8.3C245.6,153,245.2,154.3,245.2,155.9z"/>
	<g>
		<g>
			<g>
				<path class="st16" d="M247.7,154.7c0.5,0.3,0.9,1,1.1,1.6c0.2,0.7,0.3,1.3,0.4,1.3c0.2,0,0.4-0.7,0.2-1.4
					c-0.1-0.4-0.2-0.9-0.5-1.3c-0.2-0.4-0.6-0.8-0.8-1c-0.7-0.4-1-0.2-1,0C247,154.2,247.3,154.4,247.7,154.7z"/>
			</g>
		</g>
	</g>
	<g>
		<g>
			<g>
				<path class="st16" d="M248,155.4c-0.3,0.3-0.6,0.9-0.8,1.3c-0.2,0.5-0.2,1,0,1c0.2,0,0.4-0.3,0.6-0.7c0.3-0.4,0.6-0.9,0.8-1.1
					C249.2,155.3,248.6,154.8,248,155.4z"/>
			</g>
		</g>
	</g>
	<path class="st11" d="M235.2,217.8c-5.5-1.2-10.6-4.3-14.3-8.6c1.9,5.4,4.9,10.4,8.8,14.4c-4.6-2.9-7.9-7.4-10.2-12.4
		c-1.4-3-2.4-6.2-3.3-9.4c-0.3-0.9-1.6-3.9-1.2-4.8c0.6-1.4,1.5,1,1.9,1.5c2.9,4.9,6.7,9.3,10.9,13.2
		C229.6,213.6,232.9,217.2,235.2,217.8z"/>
	<path class="st24" d="M264.8,185c0,0,6.8,4.8-6.5,27.5c0,0-10.9,35.4-15,32.3c0,0-23.3-10.8-33.2-16.9"/>
	<line class="st24" x1="183.5" y1="214" x2="204.2" y2="198.3"/>
</g>
<g>
	<ellipse class="st25" cx="88.6" cy="61.8" rx="50.7" ry="51.2"/>
	<path class="st0" d="M96.5,108c-27.9,0-50.7-22.9-50.7-51.2c0-16.6,7.8-31.4,19.9-40.7c-16.6,8.5-27.9,25.8-27.9,45.7
		C37.8,90,60.5,113,88.5,113c11.6,0,22.2-3.9,30.7-10.5C112.4,106,104.7,108,96.5,108z"/>
	<path class="st26" d="M94.1,110c0,1.6-6.5,1.6-6.5,0V10.7h6.5V110z"/>
	<path class="st26" d="M42,65.1c-2.2,0-2.2-6.6,0-6.6h99.5v6.6H42z"/>
	<path class="st2" d="M88.6,1.6C55.7,1.6,29,28.5,29,61.8s26.7,60.3,59.6,60.3s59.6-27,59.6-60.3S121.5,1.6,88.6,1.6z M88.6,113
		c-27.9,0-50.7-22.9-50.7-51.2s22.7-51.1,50.7-51.1c27.9,0,50.7,22.9,50.7,51.2S116.5,113,88.6,113z"/>
</g>
<g>
	<polygon class="st0" points="380,113.4 225,113.4 208.2,110 363.3,98.8 380,110.1 	"/>
	<g>
		<path class="st19" d="M352.3,64.2c0.8-1.2,2.3-2.6,3.6-2c0.9,0.4,1.4,1.6,1.2,2.7c-0.2,1-0.8,2-1.4,2.9
			c-4.3,6.1-8.8,12.1-13.5,17.9c-6.2-6.6-10.3-15.2-11.5-24.2c-0.1-1,0.4-2,1.3-2.3c1.5-0.5,2.3,1.1,2.6,2.5c3.1,10.6,3.5,12.6,6,21
			c-0.4-5.7-0.7-11.5-0.8-15.3c-0.1-1.6,0.2-3.3,0.9-4.8l0,0c1-1.9,4-1,4,1.1c-0.2,6.1-1.4,12.3-1,18.1
			C345.9,76.3,350.2,67.1,352.3,64.2z"/>
		<rect x="221.7" y="55.3" class="st27" width="12.4" height="49"/>
		<rect x="234" y="66.8" class="st18" width="9.3" height="38.6"/>
		<rect x="246.7" y="55.3" class="st27" width="12.4" height="49"/>
		<rect x="259.1" y="66.8" class="st18" width="9.3" height="38.6"/>
		<path class="st26" d="M320.2,93.5c0-2.9,1.8-5.2,4.3-6v-0.3H276v12.5h48.5v-0.3C322,98.7,320.2,96.3,320.2,93.5z"/>
		<path class="st28" d="M348.3,82h-13.4c-3,2.1-5,5.7-5,9.7c0,6.5,5.2,11.8,11.7,11.8c6.4,0,11.7-5.2,11.7-11.8
			C353.3,87.7,351.3,84.1,348.3,82z"/>
	</g>
	<rect x="208.2" y="98.8" class="st2" width="155" height="11.1"/>
</g>
<g>
	<path class="st26" d="M69,247.7h-1.8c4.5-17.6,8.6-35.5,8.5-53.3c0-4.8-7-5.7-8.1-1c-4.2,17.7-4.8,36.3-1.8,54.3h-0.5
		C66.7,248.9,67.9,248.6,69,247.7z"/>
	<path class="st26" d="M44.6,253.6l3.8,41c0.1,4.6,27.4,4.3,27.3-0.3l2.8-41.1L44.6,253.6z"/>
	<path class="st26" d="M63.7,247.8c-0.3,1-0.6,2.1-0.8,3.2c-0.2-1-0.4-2.1-0.6-3.2H63.7z"/>
	<path class="st1" d="M78.2,258.3l0.8-10.6h-1.4l-31,0.4h-2.4l0.9,10.6C45.1,260.4,78.2,260,78.2,258.3z"/>
	<g>
		<path class="st26" d="M47.9,248l0.2,2.3c-5.1-3.8-9.8-8.2-13.8-13.1c-3.6-4.3,2.4-9.9,6.4-6.2c4,3.7,7.8,7.6,11.3,11.9
			c1.3,1.6,2.5,3.3,3.7,5L47.9,248z"/>
		<path class="st0" d="M65,247.8l-5.6,0.1c-9-13.9-17.6-28.3-23-43.5c-2.2-6.3,6.6-10.3,9.9-4.5C54.8,214.7,61.1,231,65,247.8z"/>
		<path class="st0" d="M97.6,205.2c-4.5,15.2-11.6,29.6-20.7,42.5l-6.6,0.1c0.7-4.7,1.2-9.1,2.3-12.1c3.7-11,8.8-21.6,15.5-31.2
			c2.2-3.1,7-6.3,9.1-2.9C97.9,202.6,97.9,204,97.6,205.2z"/>
	</g>
	<path class="st2" d="M81.2,255.9c0,2.4-39.2,2.9-39.2,0.5l-1.6-9.2l42.2-0.5L81.2,255.9z"/>
</g>
<g>
	<g>
		<g>
			<path class="st29" d="M273.9,307.1c-0.2,0-0.4,0-0.5-0.1c-0.9-0.4-1.4-1.5-1.1-2.7c4.8-19.4,12-48.9,12.4-51.2
				c0.1-1,0.8-1.9,1.7-1.9c0.9,0,1.8,1,1.8,2.1c0,0.4,0,1.6-12.5,52.2C275.3,306.5,274.7,307.1,273.9,307.1z M284.6,253.2
				c0,0.1,0,0.1,0,0.2C284.6,253.3,284.6,253.2,284.6,253.2z"/>
		</g>
		<g>
			<path class="st29" d="M315.9,305.6c-12.5-50.6-12.5-51.8-12.5-52.2c0-1.1,0.8-2.1,1.8-2.1c0.9,0,1.7,0.9,1.7,1.9
				c0.4,2.4,7.6,31.8,12.4,51.2c0.3,1.1-0.3,2.3-1.1,2.7c-0.2,0.1-0.4,0.1-0.5,0.1C316.9,307.1,316.2,306.5,315.9,305.6z
				 M306.9,253.4c0,0,0-0.1,0-0.2C306.9,253.2,306.9,253.3,306.9,253.4z"/>
		</g>
		<path class="st29" d="M311.4,277.5h-30.9c-0.8,0-1.4,0.8-1.4,1.7s0.7,1.7,1.4,1.7h30.9c0.8,0,1.4-0.8,1.4-1.7
			C312.8,278.2,312.2,277.5,311.4,277.5z"/>
	</g>
	<path class="st10" d="M309.7,231.5c-0.2,0-0.3,0-0.5,0l0.4-4.4h-19.1l2,21.8h15.1l0.8-8.2c0.4,0.1,0.8,0.2,1.3,0.2
		c2.5,0,4.6-2.1,4.6-4.7C314.4,233.6,312.4,231.5,309.7,231.5z M309.7,239.4c-0.4,0-0.8-0.1-1.1-0.2l0.6-6.4c0.2,0,0.4-0.1,0.6-0.1
		c1.8,0,3.3,1.5,3.3,3.3C313,238,311.6,239.4,309.7,239.4z"/>
	<path class="st26" d="M324.4,256.7h-56.7c-1.3,0-2.4-1-2.4-2.4v-5c0-1.3,1-2.4,2.4-2.4h56.7c1.3,0,2.4,1,2.4,2.4v5
		C326.8,255.7,325.7,256.7,324.4,256.7z"/>
	<g>
		<g>
			<path class="st26" d="M265.2,315c-0.3,0-0.5,0-0.8-0.1c-1.3-0.4-2.1-1.8-1.7-3.1c6.9-22.9,17.1-57.9,17.6-60.6
				c0.1-1.2,1.2-2.3,2.4-2.3c1.4,0,2.4,1.1,2.4,2.5c0,0.5,0,1.9-17.9,61.9C267.3,314.3,266.4,315,265.2,315z M280.6,251.1
				c0,0.1,0,0.2,0,0.2C280.5,251.3,280.5,251.2,280.6,251.1z"/>
		</g>
		<g>
			<path class="st26" d="M325.2,313.2c-17.9-60-17.9-61.4-17.9-61.9c0-1.4,1.1-2.5,2.4-2.5s2.4,1,2.4,2.3
				c0.6,2.8,10.8,37.7,17.6,60.6c0.4,1.3-0.4,2.8-1.7,3.1c-0.3,0.1-0.5,0.1-0.8,0.1C326.5,315,325.4,314.3,325.2,313.2z
				 M312.3,251.4c0,0,0-0.1,0-0.2C312.3,251.2,312.3,251.3,312.3,251.4z"/>
		</g>
		<path class="st26" d="M318.7,279.9h-44.1c-1.1,0-2,0.9-2,2s0.8,2,2,2h44.1c1.1,0,2-0.9,2-2C320.6,280.9,319.8,279.9,318.7,279.9z"
			/>
	</g>
	<g>
		<path class="st26" d="M301.5,220c-1.3-1.9-3.7-3.1-4.6-5.1c-0.5-1-0.8-2.3-0.6-3.4c0.1-1.1,0.7-2.3,1.5-2.8c0.8-0.6,1.9-0.6,2.4,0
			c0.7,0.6,0.8,1.4,0.5,1.9c-0.4,0.6-0.9,0.8-1.3,0.8c-0.4,0-0.7-0.1-0.7,0c0,0,0.1,0.4,0.7,0.5c0.5,0.2,1.4,0.1,2.1-0.7
			c0.4-0.4,0.6-1,0.5-1.6c-0.1-0.6-0.4-1.2-0.8-1.7c-0.5-0.5-1.2-0.9-1.9-0.9c-0.8,0-1.5,0.2-2.2,0.6c-1.3,0.8-2.1,2.4-2.3,3.8
			c-0.2,1.5,0,3,0.7,4.4c0.7,1.4,1.7,2.4,2.6,3.2c0.9,0.9,1.7,1.5,2.2,2.3c0.5,0.7,0.8,1.4,0.8,1.9c0,0.6-0.1,1-0.2,1.4
			c-0.3,0.8-0.8,1-0.7,1.2c0,0.1,0.2,0.2,0.6,0.1c0.3-0.1,0.8-0.3,1.1-0.8c0.4-0.5,0.8-1.2,0.8-2.2C302.5,222,302.1,220.9,301.5,220
			z"/>
	</g>
</g>
</svg>
