<?xml version="1.0" encoding="utf-8"?>
<!-- Generator: Adobe Illustrator 22.1.0, SVG Export Plug-In . SVG Version: 6.00 Build 0)  -->
<svg version="1.1" id="OBJECTS" xmlns="http://www.w3.org/2000/svg" xmlns:xlink="http://www.w3.org/1999/xlink" x="0px" y="0px"
	 viewBox="0 0 404 356.1" style="enable-background:new 0 0 404 356.1;" xml:space="preserve">
<style type="text/css">
	.st0{fill:#8585DD;}
	.st1{fill:#5656BA;}
	.st2{fill:#4A27A0;}
	.st3{fill:#6849C9;}
	.st4{fill:#2C1970;}
	.st5{fill:#E0A47C;}
	.st6{fill:#FECAD0;}
	.st7{fill:#EE84AA;}
	.st8{fill:#6C5EF7;}
	.st9{fill:#5451F2;}
	.st10{fill:#E0206E;}
	.st11{fill:#C11046;}
	.st12{fill:#C12525;}
	.st13{fill:#FFFFFF;}
	.st14{fill:#F4DCDC;}
	.st15{fill:#F46C6C;}
	.st16{fill:#222221;}
	.st17{fill:#8C8484;}
	.st18{fill:#68BDD1;}
	.st19{fill:#0E98AF;}
	.st20{fill:none;stroke:#8787F4;stroke-width:0.5;stroke-linecap:round;stroke-linejoin:round;}
	.st21{fill:none;stroke:#8787F4;stroke-width:0.5;stroke-linecap:round;stroke-linejoin:round;stroke-dasharray:2.0009,2.0009;}
	.st22{fill:none;stroke:#8787F4;stroke-width:0.5;stroke-linecap:round;stroke-linejoin:round;stroke-dasharray:2.0059,2.0059;}
	
		.st23{fill:none;stroke:#8787F4;stroke-width:0.5;stroke-linecap:round;stroke-linejoin:round;stroke-miterlimit:10;stroke-dasharray:2;}
	
		.st24{fill:none;stroke:#BC1919;stroke-width:0.5;stroke-linecap:round;stroke-linejoin:round;stroke-miterlimit:10;stroke-dasharray:2;}
	.st25{fill:#D3D3F2;}
	.st26{fill:#B3B3F4;}
	.st27{fill:#DD3C77;}
	.st28{fill:#EF4786;}
	.st29{fill:none;stroke:#E1CFEF;stroke-miterlimit:10;}
	.st30{fill:#4949AD;}
</style>
<ellipse class="st0" cx="200.6" cy="320.9" rx="200.6" ry="35.2"/>
<ellipse class="st1" cx="313.9" cy="324.6" rx="41.8" ry="9.3"/>
<ellipse class="st1" cx="66.5" cy="308.6" rx="27.7" ry="7.2"/>
<path class="st1" d="M97.2,336.1c0,0,13.5,6.5,21.5,6c0,0,12.3,9,29.4,6c0,0,15.5-14,34.5-17.7c19.1-3.8,57.7-15.1,57.7-15.1
	s88.9-0.9,94-9.4c5.1-8.5-162.9-10-167.8-4.9c-4.8,5.1,16.1,10.8,16.1,10.8S86.1,322.5,97.2,336.1z"/>
<g>
	<path class="st2" d="M210.8,184.3c6.8-9.7,14.9-19.2,26-23.5c11.8-4.6,25.2-2.4,37.1,1.9c17,6.2,33.1,17.4,40.7,33.8
		c5.5,11.8,6.2,25.1,8.3,37.9c1.7,10.4,4.4,20.8,4.7,31.3c0.4,10.6-1.9,21.7-8.8,29.7c-10.8,12.4-29.3,13.8-45.7,14.3
		c-12.7,0.4-25.4,0.7-38.1,1.1c-9.4,0.3-18.8,0.5-28.1-1.1c-9.2-1.7-18.3-5.5-24.9-12.2c-8.2-8.5-11.4-21.2-9.8-32.9
		c1.9-13.5,10.6-24.1,15.4-36.6C193.4,212.4,201.4,197.8,210.8,184.3z"/>
	<path class="st3" d="M328.4,265.6c-0.4-10.6-3-20.9-4.7-31.3c-2.1-12.8-2.8-26.1-8.3-37.9c-7.6-16.4-23.7-27.6-40.7-33.8
		c-6.4-2.3-13.3-4-20.1-4.4c5.7,0.5,10.9,2.8,16.7,4.8c62.9,21.6,50.9,119.6,54.5,121.3C327.9,278.5,328.6,271.9,328.4,265.6z"/>
	<path class="st4" d="M311.4,287.7c-13.7,26.4-48.6,8.4-73.9,12.7c-7.4,1.1-15.8,2.1-23.2,2.1c-19.6-0.7-36-14.9-41.7-32.8
		c-0.1,10.1,3.2,20.3,10.2,27.6c6.5,6.8,15.6,10.6,24.9,12.2c9.2,1.7,18.7,1.4,28.1,1.1c12.7-0.4,25.4-0.7,38.1-1.1
		c16.5-0.5,34.9-1.9,45.7-14.3c2.8-3.2,4.8-6.9,6.2-10.9C322.3,282.8,312.9,284.9,311.4,287.7z"/>
	<path class="st4" d="M205.2,276.1c12,5.2,25.8,5.4,38.6,2.5c5.9-1.3,11.8-3.3,16.4-7.3c2.5-2.1,4.5-4.7,6.4-7.3
		c2.3-3.2,4.5-6.4,6.6-9.8c7.5-12.1,13.5-25.2,17.1-39c1.3-5.1,2.3-10.4,1.4-15.6c-0.8-5.2-3.8-10.3-8.5-12.6c-3.8-1.8-8.8-2-11-5.5
		c-3.5-5.5,3.1-13.9-0.9-19.1c-2.8-3.6-8.3-2.6-12.6-1.3c-5.7,1.8-11.4,3.8-16.2,7.3c-4.8,3.5-8.7,8.7-9.4,14.6
		c-8.2-4.2-19.6-0.2-23.3,8.3c-2.7,6.1-1.7,13.2-4,19.4c-2.4,6.2-7.9,10.8-9.9,17.1c-1.2,3.9-1.4,8.9-5,10.9c-2.4,1.3-5.4,0.8-7.8,2
		c-7.1,3.6,0.7,16,3.7,20.3C191.1,267.7,197.8,272.9,205.2,276.1z"/>
	<path class="st5" d="M231.4,173.4c0,2.8,0.1,5.8,1.9,7.9c2,2.4,5.3,2.8,8.4,3.1c3.2,0.3,6.4,0.6,9.6,0.1c3.2-0.5,6.3-2,8.1-4.7
		c2-2.8,2.2-6.5,2.3-9.9c0.2-6.4,0.5-12.8,0.7-19.2c0.1-1.9,0.1-4-0.8-5.7c-1.5-2.8-4.9-3.8-7.9-4.3c-4.6-0.8-9.3-1.2-14-1.2
		c-7.3,0-8.9,2.8-8.3,9.1C232.2,156.7,231.4,165.2,231.4,173.4z"/>
	<path class="st6" d="M260.8,151.5c-6.3,1.1-8.4-7.4-11.6-5.3c-6.3,4.2-10.6,5.3-15.8,4.2c-0.7-0.4-1.3-0.8-1.9-1.4
		c0.7,8,0,16.3,0,24.3c0,2.8,0.1,5.8,1.9,7.9c2,2.4,5.3,2.8,8.4,3.1c3.2,0.3,6.4,0.6,9.6,0.1c3.2-0.5,6.3-2,8.1-4.7
		c1-1.4,1.5-3,1.8-4.7C258,168.8,261.5,158.3,260.8,151.5z"/>
	<path class="st7" d="M262.4,150.7c0.1-1.9,0.1-4-0.8-5.7c-1.5-2.8-4.9-3.8-7.9-4.3c-4.6-0.8-9.3-1.2-14-1.2c-7.3,0-8.9,2.8-8.3,9.1
		c0,0.2,0,0.3,0,0.5c0.6,0.5,1.1,1,1.9,1.4c5.3,1.1,9.5,0,15.8-4.2c3.2-2.1,5.3,6.3,11.6,5.3c0.8,6.8-2.8,17.3,0.5,23.6
		c0.3-1.7,0.4-3.5,0.5-5.2C261.9,163.5,262.2,157.1,262.4,150.7z"/>
	<path class="st8" d="M243.6,146.6c-4.7,3.1-11.7,1.8-15-2.7c-1.6-2.2-2-5.8,0.3-7.1c1.2-0.7,2.7-0.5,4-0.7
		c4.8-0.6,8.1-5.4,12.7-6.7c4.7-1.4,9.6,1,13.9,3.4c2,1.1,4,2.2,5.3,4c1.3,1.8,1.7,4.5,0.2,6.2c1.8-1.6,5-0.5,6.2,1.6
		c1.2,2.2,0.9,4.9,0,7.2c-0.8,2.3-2.1,4.5-2.7,6.9c-0.7,2.7-0.5,5.7-1.3,8.4c-0.8,2.7-3.2,5.3-6,4.9c-1.6-3.3-1.1-6.7,0.1-10.2
		c1.1-3.4,1-8.2,0.4-10.8c-0.5-2-3.4-2.3-5-3.5c-2.5-1.8-1.8-5.2-5-5.7C248.7,141.2,245.7,145.2,243.6,146.6z"/>
	<path class="st9" d="M267.1,146.2c-5.3-3.2-8.4-10.6-15.8-10.6c-5.8,0-9.6,6.4-15,6.7c-2.9,0.2-5.3-2-5.8-4.8
		c-0.1-0.4-0.2-0.9-0.3-1.3c-0.5,0.1-0.9,0.2-1.3,0.5c-0.5,0.3-0.9,0.7-1.1,1.2c0.4,2.6,2.3,5.4,5.6,6.2c7.4,3.2,13.7-9.5,20.1-5.3
		c4.2,2.5,5.7,5,9.4,7.6c2.4,1.6,3.2,4.7,2.2,7.4c-0.2,0.6-0.4,1.2-0.4,1.7c0.9,0,1.7,0.4,2.6,1.3c0.2,0.2,0.3,0.3,0.4,0.5
		C268.6,153,270,147.7,267.1,146.2z"/>
	<path class="st9" d="M262.1,156.2c-0.1,1.9-0.3,3.8-0.9,5.4c-0.6,1.8-1,3.6-1.1,5.4c1.3,2,3.3,3.2,5.4,2.8c0.7-0.9,1.3-1.9,1.6-3
		c0.8-2.6,0.7-5.4,1.3-8.1c-0.4-0.7-0.9-1.4-1.4-2C265.4,155.1,263.7,155.2,262.1,156.2z"/>
	<path class="st6" d="M240.3,175.9c0,0.3,1.3,18.7,1.3,18.7l19.1-1.7l-2.5-22.4L240.3,175.9z"/>
	<path class="st7" d="M240.3,175.9c0,0.1,0.7,10.8,0.7,10.8c7.1,1.6,12.4,0.7,18.6-3.6l-1.4-12.6L240.3,175.9z"/>
	<path class="st10" d="M208.9,218c-3.7,2.9-15.1,11.3-16,11.2c-2.1-0.3-10.3-4.9-13.1-8.7c6.2-3.2,12.6-9.6,18.2-14
		c7.1-5.6,17.1-26.4,27.6-19.9c6.5,4-3.7,17.9-6.4,21.9C216.8,212,212.3,215.5,208.9,218z"/>
	<path class="st11" d="M225.6,186.7c-1-0.6-2-1-2.9-1.1c-8.2,4.3-7.6,17.2-7.8,27.6c1.7-1.5,3.2-3.1,4.3-4.6
		C222,204.6,232.2,190.7,225.6,186.7z"/>
	<path class="st12" d="M282.6,193.8c-7.8,22.4-16.8,47.6-26.2,69.4c-12.1-3.7-23.8-9-34.6-15.6c-1.5-0.9-3.1-1.9-4.1-3.4
		c-1.5-2.2-1.6-5.2-1.5-7.9c0.3-14.1,0-24.2,2.8-37.8c1.2-5.8,1.7-12.6,7.6-11.8c2.6,0.3,7.6,1.8,11.1,3.1
		c7.3,2.8,13.4,3.1,14.8,3.4c4.4,0.8,6.8-0.5,11.3-0.3C269.2,193.2,279.5,189.8,282.6,193.8z"/>
	<path class="st11" d="M243.3,199.6c13.7,2,18.4,1,24.4-6.8c-1.5,0.2-2.8,0.3-4,0.2c-4.5-0.2-6.9,1.1-11.3,0.3
		c-1.4-0.3-7.5-0.6-14.8-3.4c-0.8-0.3-1.6-0.6-2.5-0.9c0,0.8,0,1.5,0,2.2C235.5,195.5,239,198.9,243.3,199.6z"/>
	<path class="st10" d="M250.2,231.7c11.1-7,10.6-30.4,25.2-39.9c-2.5,0.1-5.3,0.6-7.7,0.9c-6.5,8.5-17.8,11.8-28,6.3
		c-3.5-2.6-4.8-6-4.6-10.1c-3.1-1-6.6-2-8.6-2.3c-5.9-0.8-6.4,6-7.6,11.8c-2.8,13.6-2.5,23.7-2.8,37.8c-0.1,2.7,0,5.6,1.5,7.9
		c1,1.5,2.6,2.5,4.1,3.4c10.8,6.6,22.5,11.8,34.6,15.6c0.3-0.6,0.6-1.3,0.8-2c-14.7-4.3-28.6-11.7-33.4-22.1
		C215.4,219.1,242.8,238.1,250.2,231.7z"/>
	<path class="st11" d="M275.4,191.9c-10.1,6.6-18.4,27.6-21.3,40.5c-0.4,1.9-2.3,3.1-4.2,2.6c-4.9-1.3-13.4-3.8-16.2-6.6
		c-6.5-6.5-25-7.8-13.3,10.2c6.5,10,40,22.2,38.5,18.7c9.1-21.3,16.2-41.8,23.7-63.5C281.2,192,278.5,191.7,275.4,191.9z"/>
	<path class="st8" d="M244.1,169.7c6.4-2.4,10.9,1.8,14.3-1.4c0.9-0.8,0-11.8,4.6-12.5c1.2-0.2-1.5,5-0.9,6c0.5,0.7,0.4,1.7,0.2,2.5
		c-0.4,3.2-0.4,6.2-0.8,9.4c-0.3,2.3-0.7,5.2-2.1,7.1c-2.5,3.3-7.8,4.3-11.9,4.5c-3.5,0.1-8.7,0.3-11.8-1.5
		c-3.3-1.8-3.8-4.2-4.4-7.1c-0.4-2.3-1.6-8.8,1.2-9.2c1.9-0.2,5.6,1.9,6.4,2.1C240.6,169.9,242.5,170.3,244.1,169.7z"/>
	<path class="st9" d="M258.2,170.1c3.3-0.8,1.5-7,4.2-10.8c0.5-1.7,1.2-3.7,0.5-3.5c-4.6,0.7-3.7,11.7-4.6,12.5
		c-3.4,3.2-7.9-1-14.3,1.4c-1.6,0.6-3.4,0.3-5.1-0.1c-0.8-0.2-4.5-2.3-6.4-2.1c-0.8,0.1-1.3,0.8-1.5,1.7c0.9-1,7.7,2.1,11.1,1.6
		C248.3,169.8,254.7,171.3,258.2,170.1z"/>
	<path class="st13" d="M164.3,331.6c-6.1,2.3-10,6.7-14.5,9.9c-4.8,3.4-11.7,3.2-17.1,1c-1.4-0.6-2.9-1.5-3.3-3
		c-0.4-1.4,0.4-2.9,1.4-3.9c1.1-1,2.4-1.6,3.7-2.2c4.8-2.3,9.1-5.4,12.8-9.2c3.6-3.7,7.6-9.4,15.3-6.7
		C168.4,319.4,169.5,329.6,164.3,331.6z"/>
	<path class="st14" d="M130.6,335.8c-0.9,1-1.5,2.3-1.2,3.6c0.4,1.5,1.8,2.4,3.3,3c4.9,2,10.9,2.3,15.6-0.1
		C143.8,337.9,137.1,335.4,130.6,335.8z"/>
	<path class="st14" d="M157.4,324.6c3.7,0.5,6.6-0.7,9.1-3.8c-0.8-1.3-2.4-2.9-3.8-3.5c-4.9-1.7-8.3-0.1-11,2.3
		c0.1,1.1,0.6,2,1.3,2.8C154.1,323.8,155.7,324.4,157.4,324.6z"/>
	<path class="st9" d="M248.1,172.1c0.6,0,1,0.7,0.7,1.2c-1.3,2.2-3.5,3.6-5.7,3.5c-2.6,0-5.1-2-6.1-4.9"/>
	<path class="st14" d="M162.1,332.6c0.7-0.3,1.4-0.7,2.1-0.9c3.7-1.4,4.7-6,2.7-9.8C163.3,324.2,161.7,327.9,162.1,332.6z"/>
	<path class="st13" d="M239.3,172.8c2.7,0.1,5.4,0.2,8.1,0.2c-0.7,1.7-2.5,2.8-4.4,2.8c-1.8,0-3.6-1.2-4.3-2.9"/>
	<path class="st10" d="M240.8,196.5c6.5,2.2,16.2,3.5,21.7-0.7c1.3-1,2.4-1.2,3.1-2.8c0.6-1.5,0.2-3.7-0.7-5
		c-0.6-0.9-3.7-1.5-4.7-1.1c0.1,1.3,0.3,2-1,2.8c-8.1,4.6-18.6-0.2-17.9-1.4C234.3,188.2,236.5,195,240.8,196.5z"/>
	<path class="st11" d="M242.1,190.8c6.6,5.3,16.2,3.8,21.7-2.6c0.2-0.3,0.4-0.4,0.6-0.6c-0.5-0.6-3.5-1.1-4.3-0.7
		c1.1,1.3,0.3,2-1,2.8c-8.1,4.6-18.6-0.2-17.9-1.4c-0.3,0-1.2,0.1-1.5,0.1C240.3,189.2,241.2,190,242.1,190.8z"/>
	<path class="st6" d="M154.2,318.9c-0.6,5.3,9,6,10.4,2.7c0.2-0.5,3.3-9.7,2.9-13.3c-2.9-0.9-9.8-1.4-9.8-1.4
		C156.3,308.7,154.4,317.7,154.2,318.9z"/>
	<path class="st13" d="M134.7,325.7c-6.1,2.3-10,6.7-14.5,9.9c-4.8,3.4-11.7,3.2-17.1,1c-1.4-0.6-2.9-1.5-3.3-3
		c-0.4-1.4,0.4-2.9,1.4-3.9c1.1-1,2.4-1.6,3.7-2.2c4.8-2.3,9.1-5.4,12.8-9.2c3.6-3.7,7.6-9.4,15.3-6.7
		C138.9,313.5,140,323.6,134.7,325.7z"/>
	<path class="st14" d="M101,329.8c-0.9,1-1.5,2.3-1.2,3.6c0.4,1.5,1.8,2.4,3.3,3c4.9,2,10.9,2.3,15.6-0.1
		C114.3,332,107.6,329.5,101,329.8z"/>
	<path class="st14" d="M127.8,318.7c3.7,0.5,6.6-0.7,9.1-3.8c-0.8-1.3-2.4-2.9-3.8-3.5c-4.9-1.7-8.3-0.1-11,2.3
		c0.1,1.1,0.6,2,1.3,2.8C124.5,317.8,126.2,318.5,127.8,318.7z"/>
	<path class="st14" d="M132.6,326.6c0.7-0.3,1.4-0.7,2.1-0.9c3.7-1.4,4.7-6,2.7-9.8C133.7,318.2,132.1,322,132.6,326.6z"/>
	<path class="st6" d="M124.7,313c-0.6,5.3,9,6,10.4,2.7c0.2-0.5,3.3-9.7,2.9-13.3c-2.9-0.9-9.8-1.4-9.8-1.4
		C126.7,302.8,124.8,311.7,124.7,313z"/>
	<path class="st10" d="M265.5,206.4c1.5-4.6,3.1-9.5,7.1-12.5c1.7-1.3,3.9-2.1,6.1-2.1c5.7,0.1,7.8,5.1,7.5,9.5
		c-0.2,3-1.4,5.8-2.6,8.5c-6.1,14.3-12.1,28.5-18.2,42.8c-0.8,2-1.8,4.1-3.7,5.1c-2.7,1.4-5.9,0.1-8.6-1.3
		c-7.4-3.7-14.8-7.6-22.2-11.5c-2.8-1.5-10.1-5.9-10.6-6.4c-4-3.6,1.1-7.8,3.8-12.1c0.6-0.9,4.3-0.7,5.1,0.1
		c6.7,6.6,15.8,10.7,25.2,11.5c3.5-13,3.9-15.2,9.2-28.1L265.5,206.4z"/>
	<path class="st15" d="M228.6,229.9c0.1-4.7-5.6-5.2-8.9-2.9c-0.1,0.1-0.3,0.2-0.4,0.3c-1.7,1.6-2.3,4.2-2,6.5
		C223.1,243.3,228.5,234.4,228.6,229.9z"/>
	<path class="st16" d="M237.6,160.2c0,1.2-0.6,2.1-1.3,2.1c-0.7,0-1.3-1-1.3-2.1s0.6-2.1,1.3-2.1C237,158,237.6,159,237.6,160.2z"/>
	<path class="st16" d="M248.7,160.2c0,1.2-0.6,2.1-1.3,2.1c-0.7,0-1.3-1-1.3-2.1s0.6-2.1,1.3-2.1C248.2,158,248.7,159,248.7,160.2z"
		/>
	<g>
		<g>
			<g>
				<path class="st16" d="M238.7,151.4c-0.4-0.2-0.8-0.3-1.4-0.4c-0.5-0.1-1.1-0.1-1.6,0.1c-0.5,0.2-0.9,0.4-1.1,0.7
					c-0.2,0.3-0.2,0.5-0.2,0.5c0.1,0.1,0.6-0.4,1.5-0.6c0.8-0.2,1.8,0.2,2.4,0.5C239.6,152.8,240.1,152.1,238.7,151.4z"/>
			</g>
		</g>
	</g>
	<g>
		<g>
			<g>
				<path class="st16" d="M247.1,152.1c0.7-0.3,1.9-0.3,2.9,0c1,0.3,1.7,0.7,1.8,0.6c0.1-0.1-0.5-0.8-1.6-1.3
					c-0.5-0.2-1.2-0.4-1.8-0.4c-0.6,0-1.2,0.1-1.7,0.3c-0.9,0.4-1.1,1-0.9,1.1C246,152.5,246.4,152.3,247.1,152.1z"/>
			</g>
		</g>
	</g>
	<g>
		<g>
			<g>
				<path class="st16" d="M241.1,160.4c0,0.7-0.1,1.6-0.3,2.5c-0.1,0.4-0.3,0.9-0.5,1.3c-0.2,0.4-0.4,0.9-0.6,1.4
					c-0.2,0.5-0.1,1,0,1.5c0.1,0.4,0.4,0.8,0.6,1c0.5,0.4,0.9,0.4,1,0.4c0-0.1-0.3-0.2-0.7-0.7c-0.3-0.4-0.6-1.2-0.3-1.9
					c0.1-0.4,0.4-0.8,0.6-1.2c0.2-0.5,0.4-0.9,0.6-1.4c0.3-1,0.4-2,0.4-2.7c-0.1-1.6-0.6-2.2-0.8-2.2
					C241,158.2,241.1,158.9,241.1,160.4z"/>
			</g>
		</g>
	</g>
	<ellipse class="st7" cx="233.9" cy="164.9" rx="1.9" ry="1.2"/>
	<ellipse class="st7" cx="250.5" cy="164.9" rx="1.9" ry="1.2"/>
	<g>
		<polygon class="st4" points="124.8,184.1 128.5,182 184.5,182 194.6,224.4 192.9,228.4 139.9,226.9 		"/>
		<polygon class="st4" points="194.6,224.4 224.8,244.1 225.6,247.2 191.5,227 		"/>
		<polygon class="st17" points="190.8,225 225.6,247.2 223.8,249.7 182.6,225.9 		"/>
		<polygon class="st0" points="124.8,184.1 182.4,184.1 192.9,228.4 137.7,229 		"/>
		<path class="st4" d="M159.3,204.5c-1.7,0-3-1.4-3-3c0-0.2,0-0.3,0.1-0.5c-0.8,0.5-1.4,1.5-1.4,2.5c0,1.7,1.4,3,3,3
			c1.5,0,2.7-1.1,3-2.5C160.5,204.3,159.9,204.5,159.3,204.5z"/>
	</g>
	<path class="st18" d="M151.1,215.1c-0.3-0.2-0.5-0.4-0.8-0.6c-1-0.7-11.4-2.7-13.5,6.2c-7.8,32.3-7.9,54.2-10.2,84.2
		c2.1-0.8,8.9,0,11.1,2.7c7.3-15.2,14.2-45.2,17.4-60.4c3.7,3.9,7.7,7.4,11.5,10.5c0.1,0.1,0.1,0.1,0.2,0.2c0.2,0.1,0.4,0.3,0.6,0.4
		c2-10.9,4-21.7,5.4-32.7C166.7,222,158.4,217.9,151.1,215.1z"/>
	<path class="st19" d="M172.3,228.9c0.2-1.1,0.3-2.3,0.5-3.4c-6.1-3.6-14.4-7.6-21.7-10.4c-0.3-0.2-0.5-0.4-0.8-0.6
		c-1-0.7-11.4-2.7-13.5,6.2c0,0,0,0.1,0,0.1C143.1,209.8,162.9,222.7,172.3,228.9z"/>
	<path class="st19" d="M166.1,221.9c-4.5,9.1-6.2,19-7,29.3c2.5,2.3,5,4.5,7.5,6.5c0.1,0.1,0.1,0.1,0.2,0.2c0.2,0.1,0.4,0.3,0.6,0.4
		c2-10.9,4-21.7,5.4-32.7C170.8,224.3,168.5,223.1,166.1,221.9z"/>
	<path class="st19" d="M153.1,245.8c-2,21.3-9.9,40.7-18,60c1.1,0.5,2,1.1,2.6,1.8c7.3-15.2,14.2-45.2,17.4-60.4
		c3,3.1,6.1,5.9,9.1,8.5c0.3-1.4,0.5-2.9,0.8-4.3C161.3,249.1,157.4,246.9,153.1,245.8z"/>
	<g>
		<g>
			<path class="st20" d="M167.1,243.8c-0.2-0.3-0.4-0.5-0.6-0.8"/>
			<path class="st21" d="M165.2,241.5c-3.1-3.4-6.7-5.9-11.1-7.6c-1.1,0-2.1,1.1-2.1,2.1c-2.1,23.6-7.1,46.2-16.2,68.1"/>
			<path class="st20" d="M135.4,304.9c-0.1,0.3-0.3,0.6-0.4,0.9"/>
		</g>
	</g>
	<path class="st18" d="M255.4,259.8c-2.8-1.4-4.6,0.5-15.6-4.4c-4.1-1.9-7.6-4.9-11.3-7.3c-7.6-4.9-15.1-9.7-22.7-14.6
		c-6.2-4-16.3-9.1-25.1-12.5c-0.3-0.2-0.5-0.4-0.8-0.6c-1-0.7-11.4-2.7-13.5,6.2c-7.8,32.3-7.9,54.2-10.2,84.2
		c2.1-0.8,8.9,0,11.1,2.7c7.3-15.2,14.2-45.2,17.4-60.4c3.7,3.9,7.7,7.4,11.5,10.5c0.1,0.1,0.1,0.1,0.2,0.2
		c6.6,4.4,12.9,8.2,20.7,10c6.8,1.6,14,1.8,20.8,0.2C242.5,272.9,262.6,263.5,255.4,259.8z"/>
	<path class="st19" d="M155.1,237.4c-2-0.6-3,10.9-1.6,11C155.4,248.4,157.3,238,155.1,237.4z"/>
	<path class="st19" d="M240.9,255.9c-0.4-0.2-0.7-0.3-1.1-0.5c-4.1-1.9-7.6-4.9-11.3-7.3c-7.6-4.9-15.1-9.7-22.7-14.6
		c-6.2-4-16.3-9.1-25.1-12.5c-0.3-0.2-0.5-0.4-0.8-0.6c-0.5-0.3-2.8-0.9-5.4-0.6c22.2,5.3,39.3,26.5,59.9,35.1
		C236.6,255.7,238.8,255.9,240.9,255.9z"/>
	<path class="st19" d="M255.4,259.8c0,0-0.1,0-0.1-0.1c-1.4,2.1-2.6,4.4-5,3.6c-11.6-5.3-25.3,2.1-34.8,3.2
		c-10.6,1.1-20.1-11.6-32.7-14.8c-2,21.3-9.9,40.7-18,60c1.1,0.5,2,1.1,2.6,1.8c7.3-15.2,14.2-45.2,17.4-60.4
		c3.7,3.9,7.7,7.4,11.5,10.5c0.1,0.1,0.1,0.1,0.2,0.2c6.6,4.4,12.9,8.2,20.7,10c6.8,1.6,14,1.8,20.8,0.2
		C242.5,272.9,262.6,263.5,255.4,259.8z"/>
	<g>
		<g>
			<path class="st20" d="M225.3,265.5c0,0-0.3,0-1-0.1"/>
			<path class="st22" d="M222.3,264.9c-5.1-1.5-16.8-6.6-36.7-24.6c0,0-4-1-3.9,2.7c0,0-3.4,38.4-16.3,67"/>
			<path class="st20" d="M165,310.9c-0.1,0.3-0.3,0.6-0.4,0.9"/>
		</g>
	</g>
	<path class="st23" d="M250.3,259.4c0,0,0.5,3.3-5.4,4.7"/>
	<path class="st19" d="M188.9,241.6c0.9-0.8,2.1-1.5,3.3-1.2c0.3,0.6,0.2,1.3-0.1,1.9c-0.3,0.6-0.8,1-1.3,1.5c-2,1.8-4,3.7-6,5.5
		c2.2-1.5,4.7-2.6,7.3-3.1c0.5-0.1,1.1-0.1,1.4,0.2c0.3,0.3,0.3,0.9,0,1.3c-0.3,0.4-0.7,0.7-1.1,0.9c-2.1,1.2-4.3,2.4-6.4,3.7
		c-1.9,1.1-3.9,2.3-3.3-0.8C183.4,247.7,186,244,188.9,241.6z"/>
	<g>
		<path class="st6" d="M223.5,225.8l-9.4-4.8l0,0l-6.5-3.1c-0.8-0.3-1.7,0.1-2.1,0.9l-1.2,2.9l-0.3,0l-0.7-0.1
			c-0.9-0.1-1.7,0.6-1.8,1.5l-0.3,2.5l0.1,0c-0.6,0-1,0.5-1,1.1l0.1,4.7c0,0.3,0.2,0.6,0.5,0.8c0.8,0.4,1.7-0.2,1.7-1.1v-2.5
			l6.6,0.3l-5.4,0.3c-0.6,0-1,0.6-1,1.2l0.5,3.4c0.1,0.7,0.4,1.7,1.3,1.9c0,0,1.5,0.2,1.3-1.2l-0.3-2.5l1.9-0.5
			c1.2-0.3,2.4-0.2,3.5,0.2l9.4,3.4C226.9,236,225.6,226.7,223.5,225.8z M211,222.8l-3.8-0.6l0.5-1.5L211,222.8z M203.5,225.6
			l0.1-1.3l6.3,1.3H203.5z"/>
		<polygon class="st7" points="204.6,221.1 206.9,221.4 207.7,219.5 211,222.8 207.6,220.6 207.2,222.1 204.4,221.7 		"/>
		<polygon class="st7" points="203.5,225.6 202.7,225.6 203.1,223.7 209.8,225.6 203.6,224.3 		"/>
		<path class="st7" d="M201.9,232.1c0,0,1.2,0.5,0.9-3.7l6.2,0.2l-6.5-0.7C202.4,227.9,202.8,232.1,201.9,232.1z"/>
		<path class="st7" d="M205.4,235.5c0,0,1.1,0,0.2-3.6c0,0,3-0.8,4-0.6c0,0,2.7,0.7,4.1,1.4l6.8,2.4c0,0,4.2,0.9,4.7-3.1
			c0,0-2.1,4.3-6.4,1.8c0,0-8.2-3.1-9.2-3.2c0,0-4.3,0.4-4.4,0.9C205.1,231.4,205.9,235.4,205.4,235.5z"/>
	</g>
	<path class="st2" d="M255.6,268.9c-6.4-2.6-12.7-6.2-19.6-6c-12,0.3-21.8,12.1-33.8,11.4c-1.5-0.1-3.1-0.4-4.5,0.1
		c-1.4,0.5-2.7,2.1-2,3.5c0.3,0.7,1.1,1.2,1.8,1.5c11.7,6.3,24.9,9.9,38.2,9.5c13.3-0.5,26.5-5.2,36.5-14c1.8-1.5,4-3.8,3.9-6.3
		c-2.3-0.2-5.2,2.4-7.8,2.7C264,271.7,259.5,270.5,255.6,268.9z"/>
	<path class="st4" d="M276.3,270.2c1.4-0.4,3-1.2,3.2-2.7c-5.4,1-10.8,1.6-16.2,1.9c3.4-0.2,6.7-0.9,9.9-2.3c0.6-0.3,1.4-1,0.9-1.5
		c-0.3-0.3-0.7-0.2-1.1-0.1c-2.9,0.6-5.7,1.2-8.6,1.7c3.2-0.7,6-2.8,7.7-5.5c0.5-0.9,0.8-2.2-0.1-2.7c-0.8-0.4-1.7,0.2-2.3,0.8
		c-2.4,2.3-4.7,4.6-7.1,6.9c-0.7,0.7-2.8,2.4-2,3.5c0.6,0.9,4.2,1,5.2,1.1C269.3,271.6,272.9,271.3,276.3,270.2z"/>
	<path class="st4" d="M193.7,278.2c-0.6,0.5-1.3,1.2-1,2c0.2,0.5,0.8,0.7,1.3,0.7c0.5,0,1-0.3,1.5-0.6c4.6-2.5,9.1-5,13.7-7.6
		c-0.3,0.2-1.6-0.2-2.1-0.1c-0.6,0.1-1.2,0.4-1.8,0.6c-1.2,0.4-2.4,0.6-3.6,1C198.8,275,196.1,276.4,193.7,278.2z"/>
	<path class="st4" d="M293.1,200.6c0.4-3.4,0.6-6.8,0.1-10.1c-0.5-3.3-1.8-6.6-4.2-9.1c-0.7-0.7-1.8-1.3-2.5-0.6
		c-0.7,0.7,0.1,1.8,0.8,2.6c2.5,2.7,3.8,6.5,3.5,10.2c-0.2-4.3-3.4-8.2-7.4-9.5c-1-0.3-1.8,0.9-1.1,1.7c0.8,0.8,1.9,1.5,2.8,2.2
		c2,1.6,3.4,4,4.1,6.4c0.8,2.5,0.9,5.1,1,7.7c0.1,5.8-0.9,11.3-1.9,17c1.6-0.3,2.6-6.8,3-8.3C292.1,207.3,292.7,204,293.1,200.6z"/>
	<path class="st4" d="M306.2,230.9c-0.1-1.1-0.4-2.4-1.4-2.7c-1-0.3-2,0.4-2.4,1.4c-0.4,1-0.3,2-0.2,3c0.7,9.4-2.7,19-9.2,25.9
		c1.5-2.6,3-5.2,3.7-8.1c0.3-1.1,0.4-2.2,0.4-3.3c0-1.7-2.4-2.1-3-0.5c-1.4,4.4-3.1,8.6-5.1,12.8c-1.2,2.6-2.7,5.2,1.1,3.1
		c2.2-1.2,4.1-3,5.9-4.7C303,250.7,307,240.7,306.2,230.9z"/>
	<path class="st6" d="M267.1,162.4c0,2.7-1.4,4.9-3.2,4.9s-3.2-2.2-3.2-4.9s1.4-4.9,3.2-4.9S267.1,159.7,267.1,162.4z"/>
	<path class="st7" d="M262.4,160.5c-0.1,0.2-0.1,0.4-0.1,0.6c0,0.4,0,0.9,0.1,1.3c0.1,0.4,0.2,0.8,0.4,1.2c0.2,0.4,0.5,0.7,0.9,0.9
		c0.3,0.1,0.6,0.1,0.8,0c0.3-0.2,0.4-0.6,0.4-0.9c0-1-0.3-2-0.9-2.8c-0.1-0.2-0.3-0.3-0.5-0.4C263.2,160.1,262.6,160.2,262.4,160.5z
		"/>
	<path class="st7" d="M260.7,162.4c0,2.7,1.4,4.8,3.1,4.8c-3.1-2.1-1.9-8.4-1.9-8.7C261.1,159.4,260.7,160.7,260.7,162.4z"/>
	<g>
		<g>
			<g>
				<path class="st16" d="M263.3,161.1c0.5,0.3,1,1,1.2,1.7c0.2,0.7,0.3,1.4,0.4,1.4c0.2,0,0.4-0.7,0.2-1.5
					c-0.1-0.4-0.2-0.9-0.5-1.4c-0.2-0.4-0.6-0.8-0.9-1c-0.7-0.4-1.1-0.2-1.1,0C262.6,160.6,262.9,160.8,263.3,161.1z"/>
			</g>
		</g>
	</g>
	<g>
		<g>
			<g>
				<path class="st16" d="M263.7,161.9c-0.3,0.3-0.6,0.9-0.8,1.4c-0.2,0.5-0.2,1,0,1c0.2,0,0.4-0.3,0.6-0.7c0.3-0.4,0.6-0.9,0.8-1.2
					C264.9,161.8,264.3,161.2,263.7,161.9z"/>
			</g>
		</g>
	</g>
	<path class="st11" d="M250.1,227.5c-5.9-1.3-11.3-4.5-15.2-9.1c2,5.7,5.2,10.9,9.4,15.2c-4.9-3-8.4-7.8-10.8-13
		c-1.5-3.2-2.6-6.5-3.5-9.9c-0.3-0.9-1.7-4.1-1.3-5c0.6-1.5,1.6,1,2,1.6c3.1,5.2,7.1,9.8,11.6,13.9
		C244.1,223.1,247.6,226.9,250.1,227.5z"/>
	<path class="st24" d="M281.5,193c0,0,7.2,5.1-6.9,28.9c0,0-11.6,37.2-16,34c0,0-24.8-11.4-35.3-17.8"/>
	<line class="st24" x1="195.1" y1="223.5" x2="217.1" y2="207"/>
</g>
<g>
	<ellipse transform="matrix(0.2352 -0.972 0.972 0.2352 10.3993 140.0541)" class="st25" cx="94.2" cy="63.4" rx="53.9" ry="53.9"/>
	<path class="st0" d="M102.6,112c-29.7,0-53.9-24.1-53.9-53.9c0-17.5,8.3-33,21.2-42.8c-17.6,8.9-29.7,27.1-29.7,48.1
		c0,29.7,24.1,53.9,53.9,53.9c12.3,0,23.6-4.1,32.6-11C119.5,109.9,111.3,112,102.6,112z"/>
	<path class="st26" d="M100,114.1c0,1.7-6.9,1.7-6.9,0V9.6h6.9V114.1z"/>
	<path class="st26" d="M44.7,66.9c-2.3,0-2.3-6.9,0-6.9h105.8v6.9H44.7z"/>
	<path class="st2" d="M94.2,0c-35,0-63.4,28.4-63.4,63.4s28.4,63.4,63.4,63.4c35,0,63.4-28.4,63.4-63.4S129.2,0,94.2,0z M94.2,117.3
		c-29.7,0-53.9-24.1-53.9-53.9S64.4,9.6,94.2,9.6c29.7,0,53.9,24.1,53.9,53.9S123.9,117.3,94.2,117.3z"/>
</g>
<g>
	<polygon class="st0" points="404,117.7 239.2,117.7 221.3,114.1 386.2,102.3 404,114.2 	"/>
	<g>
		<path class="st19" d="M374.5,65.9c0.9-1.3,2.4-2.7,3.8-2.1c1,0.4,1.5,1.7,1.3,2.8c-0.2,1.1-0.8,2.1-1.5,3
			c-4.6,6.4-9.4,12.7-14.4,18.8c-6.6-6.9-10.9-16-12.2-25.5c-0.1-1,0.4-2.1,1.4-2.4c1.6-0.5,2.4,1.2,2.8,2.6
			c3.3,11.2,3.7,13.3,6.4,22.1c-0.4-6-0.7-12.1-0.9-16.1c-0.1-1.7,0.2-3.5,1-5.1c0,0,0,0,0,0c1.1-2,4.2-1.1,4.2,1.2
			c-0.2,6.4-1.5,12.9-1.1,19C367.7,78.7,372.3,69,374.5,65.9z"/>
		<rect x="235.7" y="56.6" class="st27" width="13.2" height="51.6"/>
		<rect x="248.8" y="68.7" class="st18" width="9.9" height="40.6"/>
		<rect x="262.3" y="56.6" class="st27" width="13.2" height="51.6"/>
		<rect x="275.5" y="68.7" class="st18" width="9.9" height="40.6"/>
		<path class="st26" d="M340.4,96.7c0-3,1.9-5.5,4.6-6.3v-0.3h-51.6v13.2H345V103C342.3,102.2,340.4,99.7,340.4,96.7z"/>
		<path class="st28" d="M370.3,84.6h-14.2c-3.2,2.2-5.3,6-5.3,10.2c0,6.8,5.5,12.4,12.4,12.4c6.8,0,12.4-5.5,12.4-12.4
			C375.6,90.6,373.5,86.9,370.3,84.6z"/>
	</g>
	<rect x="221.3" y="102.3" class="st2" width="164.8" height="11.7"/>
</g>
<g>
	<path class="st26" d="M73.4,259l-1.9,0c4.8-18.5,9.1-37.3,9-56.1c0-5.1-7.4-6-8.6-1c-4.5,18.6-5.1,38.2-1.9,57.1l-0.5,0
		C70.9,260.3,72.2,259.9,73.4,259z"/>
	<path class="st26" d="M47.4,265.2l4,43.1c0.1,4.8,29.1,4.5,29-0.3l3-43.2L47.4,265.2z"/>
	<path class="st26" d="M67.7,259.1c-0.3,1.1-0.6,2.2-0.9,3.4c-0.2-1.1-0.4-2.2-0.6-3.4L67.7,259.1z"/>
	<path class="st1" d="M83.1,270.1l0.8-11.2l-1.5,0l-33,0.4l-2.5,0l1,11.2C47.9,272.3,83.1,271.9,83.1,270.1z"/>
	<g>
		<path class="st26" d="M50.9,259.3l0.2,2.4c-5.4-4-10.4-8.6-14.7-13.8c-3.8-4.5,2.5-10.4,6.8-6.5c4.3,3.9,8.3,8,12,12.5
			c1.4,1.7,2.7,3.5,3.9,5.3L50.9,259.3z"/>
		<path class="st0" d="M69.1,259.1l-6,0.1c-9.6-14.6-18.7-29.8-24.4-45.8c-2.3-6.6,7-10.8,10.5-4.7C58.3,224.3,65,241.4,69.1,259.1z
			"/>
		<path class="st0" d="M103.8,214.3c-4.8,16-12.3,31.1-22,44.7l-7,0.1c0.7-4.9,1.3-9.6,2.4-12.7c3.9-11.6,9.4-22.7,16.5-32.8
			c2.3-3.3,7.4-6.6,9.7-3.1C104.1,211.5,104.1,213,103.8,214.3z"/>
	</g>
	<path class="st2" d="M86.3,267.6c0,2.5-41.7,3-41.7,0.5l-1.7-9.7l44.9-0.5L86.3,267.6z"/>
</g>
<g>
	<g>
		<g>
			<path class="st30" d="M291.2,321.5c-0.2,0-0.4,0-0.5-0.1c-1-0.4-1.5-1.6-1.2-2.8c5.1-20.4,12.8-51.4,13.2-53.9
				c0.1-1.1,0.9-2,1.8-2c1,0,1.9,1,1.9,2.2c0,0.4,0,1.7-13.3,54.9C292.7,320.9,292,321.5,291.2,321.5z M302.6,264.8
				c0,0.1,0,0.1,0,0.2C302.6,264.9,302.6,264.8,302.6,264.8z"/>
		</g>
		<g>
			<path class="st30" d="M335.9,319.9c-13.3-53.2-13.3-54.5-13.3-54.9c0-1.2,0.8-2.2,1.9-2.2c1,0,1.8,0.9,1.8,2
				c0.4,2.5,8.1,33.5,13.2,53.9c0.3,1.2-0.3,2.4-1.2,2.8c-0.2,0.1-0.4,0.1-0.5,0.1C336.9,321.5,336.2,320.9,335.9,319.9z M326.3,265
				c0,0,0-0.1,0-0.2C326.3,264.8,326.3,264.9,326.3,265z"/>
		</g>
		<path class="st30" d="M331.1,290.3h-32.9c-0.8,0-1.5,0.8-1.5,1.8c0,1,0.7,1.8,1.5,1.8h32.9c0.8,0,1.5-0.8,1.5-1.8
			C332.6,291.1,331.9,290.3,331.1,290.3z"/>
	</g>
	<path class="st10" d="M329.3,241.9c-0.2,0-0.3,0-0.5,0l0.4-4.6h-20.3l2.1,22.9h16.1l0.8-8.6c0.4,0.1,0.9,0.2,1.4,0.2
		c2.7,0,4.9-2.2,4.9-4.9C334.3,244.1,332.1,241.9,329.3,241.9z M329.3,250.3c-0.4,0-0.9-0.1-1.2-0.2l0.6-6.7c0.2,0,0.4-0.1,0.6-0.1
		c1.9,0,3.5,1.6,3.5,3.5C332.8,248.8,331.3,250.3,329.3,250.3z"/>
	<path class="st26" d="M344.9,268.5h-60.3c-1.4,0-2.5-1.1-2.5-2.5v-5.3c0-1.4,1.1-2.5,2.5-2.5h60.3c1.4,0,2.5,1.1,2.5,2.5v5.3
		C347.4,267.4,346.3,268.5,344.9,268.5z"/>
	<g>
		<g>
			<path class="st26" d="M282,329.8c-0.3,0-0.5,0-0.8-0.1c-1.4-0.4-2.2-1.9-1.8-3.3c7.3-24.1,18.2-60.9,18.7-63.8
				c0.1-1.3,1.3-2.4,2.6-2.4c1.5,0,2.6,1.2,2.6,2.6c0,0.5,0,2-19,65.1C284.2,329.1,283.2,329.8,282,329.8z M298.3,262.6
				c0,0.1,0,0.2,0,0.2C298.2,262.8,298.2,262.7,298.3,262.6z"/>
		</g>
		<g>
			<path class="st26" d="M345.7,327.9c-19-63.1-19-64.6-19-65.1c0-1.5,1.2-2.6,2.6-2.6c1.4,0,2.5,1,2.6,2.4
				c0.6,2.9,11.5,39.7,18.7,63.8c0.4,1.4-0.4,2.9-1.8,3.3c-0.3,0.1-0.5,0.1-0.8,0.1C347.1,329.8,346,329.1,345.7,327.9z M332,262.9
				c0,0,0-0.1,0-0.2C332,262.7,332,262.8,332,262.9z"/>
		</g>
		<path class="st26" d="M338.8,292.9h-46.9c-1.2,0-2.1,0.9-2.1,2.1c0,1.2,0.9,2.1,2.1,2.1h46.9c1.2,0,2.1-0.9,2.1-2.1
			C340.9,293.9,340,292.9,338.8,292.9z"/>
	</g>
	<g>
		<path class="st26" d="M320.5,229.8c-1.4-2-3.9-3.3-4.9-5.4c-0.5-1.1-0.8-2.4-0.6-3.6c0.1-1.2,0.7-2.4,1.6-2.9c0.9-0.6,2-0.6,2.6,0
			c0.7,0.6,0.8,1.5,0.5,2c-0.4,0.6-1,0.8-1.4,0.8c-0.4,0-0.7-0.1-0.7,0c0,0,0.1,0.4,0.7,0.5c0.5,0.2,1.5,0.1,2.2-0.7
			c0.4-0.4,0.6-1,0.5-1.7c-0.1-0.6-0.4-1.3-0.8-1.8c-0.5-0.5-1.3-0.9-2-0.9c-0.8,0-1.6,0.2-2.3,0.6c-1.4,0.8-2.2,2.5-2.4,4
			c-0.2,1.6,0,3.2,0.7,4.6c0.7,1.5,1.8,2.5,2.8,3.4c1,0.9,1.8,1.6,2.3,2.4c0.5,0.7,0.8,1.5,0.8,2c0,0.6-0.1,1.1-0.2,1.5
			c-0.3,0.8-0.8,1.1-0.7,1.3c0,0.1,0.2,0.2,0.6,0.1c0.3-0.1,0.8-0.3,1.2-0.8c0.4-0.5,0.8-1.3,0.8-2.3
			C321.6,231.9,321.2,230.8,320.5,229.8z"/>
	</g>
</g>
</svg>
