<?xml version="1.0" encoding="utf-8"?>
<!-- Generator: Adobe Illustrator 22.1.0, SVG Export Plug-In . SVG Version: 6.00 Build 0)  -->
<svg version="1.1" xmlns="http://www.w3.org/2000/svg" xmlns:xlink="http://www.w3.org/1999/xlink" x="0px" y="0px"
	 viewBox="0 0 439.6 393.5" style="enable-background:new 0 0 439.6 393.5;" xml:space="preserve">
<style type="text/css">
	.st0{clip-path:url(#SVGID_2_);}
	.st1{fill:#B2B1F3;}
	.st2{fill:#E0E0E0;}
	.st3{fill:#5656B9;}
	.st4{fill:#BD256C;}
	.st5{fill:#891F54;}
	.st6{fill:#4A279F;}
	.st7{fill:#83B9CC;}
	.st8{fill:#E8505B;}
	.st9{fill:#263238;}
	.st10{fill:#8484DC;}
	.st11{fill:#FFFFFF;}
	.st12{clip-path:url(#SVGID_4_);}
	.st13{clip-path:url(#SVGID_6_);}
	.st14{clip-path:url(#SVGID_8_);}
	.st15{clip-path:url(#SVGID_10_);}
	.st16{clip-path:url(#SVGID_12_);}
	.st17{clip-path:url(#SVGID_14_);}
	.st18{clip-path:url(#SVGID_16_);}
	.st19{clip-path:url(#SVGID_18_);}
	.st20{clip-path:url(#SVGID_20_);}
	.st21{clip-path:url(#SVGID_22_);}
	.st22{clip-path:url(#SVGID_24_);}
	.st23{clip-path:url(#SVGID_26_);}
	.st24{clip-path:url(#SVGID_28_);}
	.st25{clip-path:url(#SVGID_30_);}
	.st26{clip-path:url(#SVGID_32_);}
	.st27{clip-path:url(#SVGID_34_);}
	.st28{clip-path:url(#SVGID_36_);}
	.st29{clip-path:url(#SVGID_38_);}
	.st30{clip-path:url(#SVGID_40_);}
	.st31{clip-path:url(#SVGID_42_);}
	.st32{clip-path:url(#SVGID_44_);}
	.st33{clip-path:url(#SVGID_46_);}
	.st34{clip-path:url(#SVGID_48_);}
	.st35{clip-path:url(#SVGID_50_);}
	.st36{clip-path:url(#SVGID_52_);}
	.st37{clip-path:url(#SVGID_54_);}
	.st38{clip-path:url(#SVGID_56_);}
	.st39{clip-path:url(#SVGID_58_);}
	.st40{clip-path:url(#SVGID_60_);}
	.st41{clip-path:url(#SVGID_62_);}
	.st42{clip-path:url(#SVGID_64_);}
	.st43{fill:none;}
	.st44{fill:#7F1C4E;}
	.st45{fill:#FAFAFA;}
	.st46{opacity:0.3;}
	.st47{fill:#F0C9CF;}
	.st48{fill:#455A64;}
	.st49{fill:#E383A9;}
</style>
<g id="Layer_1">
</g>
<g id="Layer_2">
	<g>
		<defs>
			<rect id="SVGID_1_" width="439.6" height="393.5"/>
		</defs>
		<clipPath id="SVGID_2_">
			<use xlink:href="#SVGID_1_"  style="overflow:visible;"/>
		</clipPath>
		<g id="Background_Complete" class="st0">
			<g>
				<g>
					
						<rect x="254.1" y="272.5" transform="matrix(0.9996 -2.998045e-02 2.998045e-02 0.9996 -8.8631 10.302)" class="st1" width="170" height="56.4"/>
				</g>
				<g>
					<g>
						<path class="st2" d="M401.4,289.4c0,0.1-28.5,1.1-63.6,2.2s-63.6,1.8-63.6,1.6c0-0.1,28.5-1.1,63.6-2.2
							C373,290,401.4,289.3,401.4,289.4z"/>
					</g>
				</g>
				<g>
					<g>
						<path class="st2" d="M402.8,304c0,0.1-28.5,1.1-63.6,2.2s-63.6,1.8-63.6,1.6c0-0.1,28.5-1.1,63.6-2.2
							C374.3,304.6,402.8,303.9,402.8,304z"/>
					</g>
				</g>
				<g>
					<polygon class="st3" points="302.7,265.5 368.6,263.6 365.5,266.9 370.4,270.2 365.3,273.3 370.6,277 301.6,279 305.4,275 
						302.9,271.3 306.3,269 					"/>
				</g>
			</g>
			<g>
				<g>
					<g>
						<polygon class="st4" points="4.7,163 16.8,209 35.8,210.8 70.2,200.6 56.1,148.8 						"/>
					</g>
					<g>
						<path class="st5" d="M21.6,203.9l-4.8,5.2c0,0,3.9,2.4,7.9,2.8c4,0.3,7.6,0,11.1-1C35.8,210.8,27.2,210.8,21.6,203.9z"/>
					</g>
				</g>
				<g>
					<polygon class="st6" points="4.4,174.8 23.5,156.5 19.7,152.5 0,170.6 					"/>
				</g>
				<g>
					<polygon class="st7" points="68.4,158 44.4,146.6 42,151.7 66,163.5 					"/>
				</g>
				<g>
					<g>
						<path class="st2" d="M57.3,166.9c0,0.1-9.1,2.8-20.4,5.9c-11.3,3.1-20.5,5.5-20.5,5.4s9.1-2.8,20.4-5.9
							C48,169.2,57.2,166.7,57.3,166.9z"/>
					</g>
				</g>
				<g>
					<g>
						<path class="st2" d="M59.1,174.3c0,0.1-9.1,2.8-20.4,5.9c-11.3,3.1-20.5,5.5-20.5,5.4s9.1-2.8,20.4-5.9S59.1,174.2,59.1,174.3
							z"/>
					</g>
				</g>
				<g>
					<g>
						<path class="st2" d="M61.2,180.8c0,0.1-9.1,2.8-20.4,5.9c-11.3,3.1-20.5,5.5-20.5,5.4s9.1-2.8,20.4-5.9
							C51.9,183.1,61.1,180.7,61.2,180.8z"/>
					</g>
				</g>
				<g>
					<g>
						<path class="st2" d="M62.9,187.1c0,0.1-9.1,2.8-20.4,5.9c-11.3,3.1-20.5,5.5-20.5,5.4s9.1-2.8,20.4-5.9
							C53.6,189.4,62.8,187,62.9,187.1z"/>
					</g>
				</g>
			</g>
		</g>
		<g id="Notes" class="st0">
			<g>
				<g>
					<g>
						<g>
							<path class="st1" d="M218.3,27.9l0.4,8.1c1.1-1.1,2.7-1.8,4.4-1.9c3.8-0.2,7.1,2.8,7.3,6.6s-2.7,7.1-6.5,7.3
								c-1.7,0.1-3.3-0.5-4.6-1.4l0.4,8.1c1.1-1.1,2.7-1.8,4.4-1.9c3.8-0.2,7.1,2.8,7.3,6.6s-2.7,7.1-6.5,7.3
								c-1.7,0.1-3.3-0.5-4.6-1.4l0.4,8.1c1.1-1.1,2.7-1.8,4.4-1.9c3.8-0.2,7.1,2.8,7.3,6.6s-2.7,7.1-6.5,7.3
								c-1.7,0.1-3.3-0.5-4.6-1.4l0.4,8.1c1.1-1.1,2.7-1.8,4.4-1.9c3.8-0.2,7.1,2.8,7.3,6.6c0.2,3.8-2.7,7.1-6.5,7.3
								c-1.7,0.1-3.3-0.5-4.6-1.4l0.4,8.1c1.1-1.1,2.7-1.8,4.4-1.9c3.8-0.2,7.1,2.8,7.3,6.6c0.2,3.8-2.7,7.1-6.5,7.3
								c-1.7,0.1-3.3-0.5-4.6-1.4l0.4,8.1c1.2-1.1,2.7-1.8,4.4-1.9c3.8-0.2,7.1,2.8,7.3,6.6s-2.7,7.1-6.5,7.3
								c-1.7,0.1-3.3-0.5-4.6-1.4l0.3,5l215-11.5l-6.3-117L218.3,27.9z"/>
						</g>
						<g>
							<g>
								<path class="st2" d="M434.6,39.6c0,0.1-48.1,2.8-107.5,6s-107.5,5.6-107.5,5.5s48.1-2.8,107.5-6
									C386.4,41.9,434.6,39.5,434.6,39.6z"/>
							</g>
						</g>
						<g>
							<g>
								<path class="st2" d="M435.6,58.3c0,0.1-48.1,2.8-107.5,6c-59.4,3.2-107.5,5.6-107.5,5.5s48.1-2.8,107.5-6
									C387.4,60.6,435.6,58.2,435.6,58.3z"/>
							</g>
						</g>
						<g>
							<g>
								<path class="st2" d="M436.6,77c0,0.1-48.1,2.8-107.5,6s-107.5,5.6-107.5,5.5s48.1-2.8,107.5-6
									C388.4,79.4,436.6,76.9,436.6,77z"/>
							</g>
						</g>
						<g>
							<g>
								<path class="st2" d="M437.6,95.8c0,0.1-48.1,2.8-107.5,6s-107.5,5.6-107.5,5.5s48.1-2.8,107.5-6
									C389.4,98.1,437.6,95.6,437.6,95.8z"/>
							</g>
						</g>
						<g>
							<g>
								<path class="st2" d="M438.6,114.5c0,0.1-48.1,2.8-107.5,6s-107.5,5.6-107.5,5.5s48.1-2.8,107.5-6
									C390.4,116.8,438.6,114.3,438.6,114.5z"/>
							</g>
						</g>
						<g>
							
								<rect x="251.1" y="26.3" transform="matrix(0.9986 -5.343169e-02 5.343169e-02 0.9986 -4.1775 13.5518)" class="st8" width="0.5" height="117.2"/>
						</g>
						<g>
							<g>
								<path class="st2" d="M274,142.3c-0.1,0-1.7-26.2-3.4-58.5c-1.7-32.3-3-58.5-2.9-58.5s1.7,26.2,3.4,58.5
									S274.1,142.3,274,142.3z"/>
							</g>
						</g>
						<g>
							<g>
								<path class="st2" d="M235.7,144.4c-0.1,0-1.7-26.2-3.4-58.5s-3-58.5-2.9-58.5s1.7,26.2,3.4,58.5
									C234.6,118.2,235.8,144.4,235.7,144.4z"/>
							</g>
						</g>
						<g>
							<g>
								<path class="st2" d="M294.9,141.2c-0.1,0-1.7-26.2-3.4-58.5c-1.7-32.3-3-58.5-2.9-58.5s1.7,26.2,3.4,58.5
									C293.8,115,295.1,141.2,294.9,141.2z"/>
							</g>
						</g>
						<g>
							<g>
								<path class="st2" d="M315.9,140.1c-0.1,0-1.7-26.2-3.4-58.5c-1.7-32.3-3-58.5-2.9-58.5s1.7,26.2,3.4,58.5
									C314.8,113.9,316,140.1,315.9,140.1z"/>
							</g>
						</g>
						<g>
							<g>
								<path class="st2" d="M336.9,139c-0.1,0-1.7-26.2-3.4-58.5c-1.7-32.3-3-58.5-2.9-58.5s1.7,26.2,3.4,58.5
									C335.7,112.7,337,139,336.9,139z"/>
							</g>
						</g>
						<g>
							<g>
								<path class="st2" d="M357.8,137.8c-0.1,0-1.7-26.2-3.4-58.5c-1.7-32.3-3-58.5-2.9-58.5s1.7,26.2,3.4,58.5
									C356.7,111.6,358,137.8,357.8,137.8z"/>
							</g>
						</g>
						<g>
							<g>
								<path class="st2" d="M378.8,136.7c-0.1,0-1.7-26.2-3.4-58.5c-1.7-32.3-3-58.5-2.9-58.5s1.7,26.2,3.4,58.5
									C377.6,110.5,378.9,136.7,378.8,136.7z"/>
							</g>
						</g>
						<g>
							<g>
								<path class="st2" d="M399.8,135.6c-0.1,0-1.7-26.2-3.4-58.5c-1.7-32.3-3-58.5-2.9-58.5s1.7,26.2,3.4,58.5
									C398.6,109.4,399.9,135.6,399.8,135.6z"/>
							</g>
						</g>
						<g>
							<g>
								<path class="st2" d="M420.7,134.5c-0.1,0-1.7-26.2-3.4-58.5c-1.7-32.3-3-58.5-2.9-58.5s1.7,26.2,3.4,58.5
									C419.6,108.3,420.9,134.5,420.7,134.5z"/>
							</g>
						</g>
					</g>
					<g>
						<g>
							<path class="st6" d="M241.9,40.2c0.3,5.4,4.9,9.5,10.3,9.2s9.5-4.9,9.2-10.3c-0.3-5.4-4.9-9.5-10.3-9.2
								C245.7,30.2,241.6,34.8,241.9,40.2z"/>
						</g>
						<g>
							<path class="st6" d="M236.3,36.6c0.2,3.2,2.9,5.7,6.2,5.5c3.2-0.2,5.7-2.9,5.5-6.2c-0.2-3.2-2.9-5.7-6.2-5.5
								C238.6,30.6,236.1,33.3,236.3,36.6z"/>
						</g>
						<g>
							<g>
								<path class="st6" d="M241.7,42c0-0.1,0.9,0.1,2.2-0.2s3-1.5,3.7-3.4c0.7-2,0.1-3.9-0.6-5.1c-0.7-1.2-1.5-1.6-1.5-1.7
									c0,0,0.2,0.1,0.6,0.3c0.3,0.2,0.8,0.6,1.2,1.2c0.8,1.1,1.6,3.3,0.8,5.4c-0.4,1.1-1.1,1.9-1.8,2.5c-0.8,0.6-1.6,0.9-2.3,1.1
									c-0.7,0.1-1.3,0.1-1.7,0.1C241.9,42.1,241.7,42,241.7,42z"/>
							</g>
						</g>
						<g>
							<g>
								<path class="st9" d="M246.7,32.7c0-0.1,1.6,0.6,3.4,0.2c1.9-0.4,2.9-1.8,3-1.7c0.1,0-0.1,0.4-0.6,0.9
									c-0.5,0.5-1.3,1-2.3,1.3c-1,0.2-2,0.1-2.6-0.1C247,33,246.6,32.7,246.7,32.7z"/>
							</g>
						</g>
						<g>
							<g>
								<path class="st9" d="M248.2,47.5c-0.1,0-0.2-0.5-0.4-1.2c-0.3-0.7-0.8-1.6-1.6-2.4c-0.8-0.8-1.8-1.2-2.5-1.5
									c-0.7-0.2-1.2-0.3-1.2-0.4c0-0.1,0.5-0.1,1.3,0s1.9,0.6,2.8,1.4c0.9,0.9,1.4,1.9,1.6,2.7C248.3,47,248.2,47.5,248.2,47.5z"
									/>
							</g>
						</g>
					</g>
					<g>
						<g>
							<path class="st7" d="M426.6,30.7c0.3,5.2-3.7,9.7-8.9,9.9c-5.2,0.3-9.7-3.7-9.9-8.9c-0.3-5.2,3.7-9.7,8.9-9.9
								C421.8,21.5,426.3,25.5,426.6,30.7z"/>
						</g>
						<g>
							<circle class="st7" cx="425.9" cy="26.9" r="5.7"/>
						</g>
						<g>
							<g>
								<path class="st9" d="M426.9,32.4c0,0-0.2,0.1-0.6,0.2c-0.4,0.1-0.9,0.2-1.6,0.1c-0.7-0.1-1.5-0.3-2.3-0.8s-1.6-1.2-2-2.2
									c-0.9-2-0.5-4.1,0.2-5.3c0.7-1.2,1.5-1.6,1.5-1.6c0.1,0.1-0.6,0.6-1.2,1.8c-0.6,1.2-0.9,3.1-0.1,4.9
									c0.9,1.8,2.7,2.7,3.9,2.9C426.1,32.6,426.9,32.3,426.9,32.4z"/>
							</g>
						</g>
						<g>
							<g>
								<path class="st9" d="M421.2,23.9c0,0.1-0.2,0.3-0.8,0.6c-0.6,0.3-1.5,0.5-2.5,0.4s-1.8-0.6-2.3-1s-0.7-0.8-0.7-0.8
									c0.1-0.1,1.2,1.1,3.1,1.3C419.8,24.7,421.2,23.8,421.2,23.9z"/>
							</g>
						</g>
						<g>
							<g>
								<path class="st9" d="M421.3,38.4c-0.1,0-0.2-0.5-0.1-1.3s0.5-1.8,1.3-2.8c0.8-0.9,1.8-1.5,2.5-1.7c0.8-0.2,1.2-0.2,1.2-0.1
									c0,0.1-0.4,0.2-1.1,0.5s-1.6,0.8-2.3,1.7c-0.7,0.8-1.1,1.8-1.3,2.5C421.4,37.9,421.4,38.4,421.3,38.4z"/>
							</g>
						</g>
					</g>
				</g>
			</g>
			<g>
				<g>
					<g>
						<polygon class="st10" points="69,6.3 47.3,114.9 85.2,138 167.6,151.9 191,29.3 						"/>
					</g>
					<g>
						<path class="st6" d="M62.6,109c-5.9,4-12.4,9-15.3,5.9c0,0,5.6,9,13.7,13.8s15.9,7.9,24.2,9.3C85.2,138,67.2,129.2,62.6,109z"
							/>
					</g>
				</g>
				<g>
					<polygon class="st4" points="56.7,29.7 112.8,11.8 109.1,0 52.1,17 					"/>
				</g>
				<g>
					<polygon class="st4" points="201,58.5 164.2,12.5 154.5,20.2 190.8,67.3 					"/>
				</g>
				<g>
					<g>
						<path class="st9" d="M170.1,65.5c0,0.1-20.8-3.7-46.4-8.5s-46.4-8.8-46.3-9c0-0.1,20.8,3.7,46.4,8.5S170.2,65.4,170.1,65.5z"
							/>
					</g>
				</g>
				<g>
					<g>
						<path class="st9" d="M166.6,82.2c0,0.1-20.8-3.7-46.4-8.5s-46.4-8.8-46.3-9c0-0.1,20.8,3.7,46.4,8.5
							C145.8,78,166.6,82,166.6,82.2z"/>
					</g>
				</g>
				<g>
					<g>
						<path class="st9" d="M164.3,97.1c0,0.1-20.8-3.7-46.4-8.5s-46.4-8.8-46.3-9c0-0.1,20.8,3.7,46.4,8.5S164.3,96.9,164.3,97.1z"
							/>
					</g>
				</g>
				<g>
					<g>
						<path class="st9" d="M161.5,111.4c0,0.1-20.8-3.7-46.4-8.5s-46.4-8.8-46.3-9c0-0.1,20.8,3.7,46.4,8.5
							C140.8,107.2,161.5,111.2,161.5,111.4z"/>
					</g>
				</g>
			</g>
			<g>
				<g>
					
						<rect x="307.3" y="123" transform="matrix(8.315440e-02 -0.9965 0.9965 8.315440e-02 100.5774 524.6992)" class="st7" width="56.2" height="169.3"/>
				</g>
				<g>
					<g>
						<path class="st9" d="M398.5,203.6c0,0.1-28.3-2.1-63.2-5s-63.1-5.4-63.1-5.5s28.3,2.1,63.2,5
							C370.2,201,398.5,203.4,398.5,203.6z"/>
					</g>
				</g>
				<g>
					<g>
						<path class="st9" d="M398.1,218.2c0,0.1-28.3-2.1-63.2-5s-63.1-5.4-63.1-5.5s28.3,2.1,63.2,5
							C369.9,215.6,398.1,218.1,398.1,218.2z"/>
					</g>
				</g>
				<g>
					<polygon class="st11" points="303.5,168.8 368.9,174.3 365.4,177.2 369.9,181.1 364.6,183.6 369.3,187.8 300.8,182.1 
						305.1,178.5 302.9,174.6 306.6,172.7 					"/>
				</g>
			</g>
			<g>
				<g>
					<g>
						<g>
							<defs>
								<path id="SVGID_3_" d="M220.9,181.9c0.7,1.1,1.1,2.4,1.1,3.9c0,4.2-3.4,7.6-7.6,7.6c-4.2,0-7.6-3.4-7.6-7.6
									c0-1.4,0.4-2.7,1.1-3.9H199c0.7,1.1,1.1,2.4,1.1,3.9c0,4.2-3.4,7.6-7.6,7.6c-4.2,0-7.6-3.4-7.6-7.6c0-1.4,0.4-2.7,1.1-3.9
									h-8.8c0.7,1.1,1.1,2.4,1.1,3.9c0,4.2-3.4,7.6-7.6,7.6c-4.2,0-7.6-3.4-7.6-7.6c0-1.4,0.4-2.7,1.1-3.9h-8.8
									c0.7,1.1,1.1,2.4,1.1,3.9c0,4.2-3.4,7.6-7.6,7.6c-4.2,0-7.6-3.4-7.6-7.6c0-1.4,0.4-2.7,1.1-3.9h-8.8
									c0.7,1.1,1.1,2.4,1.1,3.9c0,4.2-3.4,7.6-7.6,7.6c-4.2,0-7.6-3.4-7.6-7.6c0-1.4,0.4-2.7,1.1-3.9h-8.8
									c0.7,1.1,1.1,2.4,1.1,3.9c0,4.2-3.4,7.6-7.6,7.6s-7.6-3.4-7.6-7.6c0-1.4,0.4-2.7,1.1-3.9H93v157h130.8v-157H220.9z"/>
							</defs>
							<clipPath id="SVGID_4_">
								<use xlink:href="#SVGID_3_"  style="overflow:visible;"/>
							</clipPath>
							<g class="st12">
								<path class="st11" d="M220.9,181.9c0.7,1.1,1.1,2.4,1.1,3.9c0,4.2-3.4,7.6-7.6,7.6c-4.2,0-7.6-3.4-7.6-7.6
									c0-1.4,0.4-2.7,1.1-3.9H199c0.7,1.1,1.1,2.4,1.1,3.9c0,4.2-3.4,7.6-7.6,7.6c-4.2,0-7.6-3.4-7.6-7.6c0-1.4,0.4-2.7,1.1-3.9
									h-8.8c0.7,1.1,1.1,2.4,1.1,3.9c0,4.2-3.4,7.6-7.6,7.6c-4.2,0-7.6-3.4-7.6-7.6c0-1.4,0.4-2.7,1.1-3.9h-8.8
									c0.7,1.1,1.1,2.4,1.1,3.9c0,4.2-3.4,7.6-7.6,7.6c-4.2,0-7.6-3.4-7.6-7.6c0-1.4,0.4-2.7,1.1-3.9h-8.8
									c0.7,1.1,1.1,2.4,1.1,3.9c0,4.2-3.4,7.6-7.6,7.6c-4.2,0-7.6-3.4-7.6-7.6c0-1.4,0.4-2.7,1.1-3.9h-8.8
									c0.7,1.1,1.1,2.4,1.1,3.9c0,4.2-3.4,7.6-7.6,7.6s-7.6-3.4-7.6-7.6c0-1.4,0.4-2.7,1.1-3.9H93v157h130.8v-157H220.9z"/>
							</g>
						</g>
						<g>
							<defs>
								<path id="SVGID_5_" d="M220.9,181.9c0.7,1.1,1.1,2.4,1.1,3.9c0,4.2-3.4,7.6-7.6,7.6c-4.2,0-7.6-3.4-7.6-7.6
									c0-1.4,0.4-2.7,1.1-3.9H199c0.7,1.1,1.1,2.4,1.1,3.9c0,4.2-3.4,7.6-7.6,7.6c-4.2,0-7.6-3.4-7.6-7.6c0-1.4,0.4-2.7,1.1-3.9
									h-8.8c0.7,1.1,1.1,2.4,1.1,3.9c0,4.2-3.4,7.6-7.6,7.6c-4.2,0-7.6-3.4-7.6-7.6c0-1.4,0.4-2.7,1.1-3.9h-8.8
									c0.7,1.1,1.1,2.4,1.1,3.9c0,4.2-3.4,7.6-7.6,7.6c-4.2,0-7.6-3.4-7.6-7.6c0-1.4,0.4-2.7,1.1-3.9h-8.8
									c0.7,1.1,1.1,2.4,1.1,3.9c0,4.2-3.4,7.6-7.6,7.6c-4.2,0-7.6-3.4-7.6-7.6c0-1.4,0.4-2.7,1.1-3.9h-8.8
									c0.7,1.1,1.1,2.4,1.1,3.9c0,4.2-3.4,7.6-7.6,7.6s-7.6-3.4-7.6-7.6c0-1.4,0.4-2.7,1.1-3.9H93v157h130.8v-157H220.9z"/>
							</defs>
							<clipPath id="SVGID_6_">
								<use xlink:href="#SVGID_5_"  style="overflow:visible;"/>
							</clipPath>
							<g class="st13">
								<g>
									<path class="st2" d="M85,346.1c-0.1,0-0.6-38-1.1-85c-0.5-46.9-0.8-85-0.6-85c0.1,0,0.6,38,1.1,85S85.2,346.1,85,346.1z"/>
								</g>
							</g>
						</g>
						<g>
							<defs>
								<path id="SVGID_7_" d="M220.9,181.9c0.7,1.1,1.1,2.4,1.1,3.9c0,4.2-3.4,7.6-7.6,7.6c-4.2,0-7.6-3.4-7.6-7.6
									c0-1.4,0.4-2.7,1.1-3.9H199c0.7,1.1,1.1,2.4,1.1,3.9c0,4.2-3.4,7.6-7.6,7.6c-4.2,0-7.6-3.4-7.6-7.6c0-1.4,0.4-2.7,1.1-3.9
									h-8.8c0.7,1.1,1.1,2.4,1.1,3.9c0,4.2-3.4,7.6-7.6,7.6c-4.2,0-7.6-3.4-7.6-7.6c0-1.4,0.4-2.7,1.1-3.9h-8.8
									c0.7,1.1,1.1,2.4,1.1,3.9c0,4.2-3.4,7.6-7.6,7.6c-4.2,0-7.6-3.4-7.6-7.6c0-1.4,0.4-2.7,1.1-3.9h-8.8
									c0.7,1.1,1.1,2.4,1.1,3.9c0,4.2-3.4,7.6-7.6,7.6c-4.2,0-7.6-3.4-7.6-7.6c0-1.4,0.4-2.7,1.1-3.9h-8.8
									c0.7,1.1,1.1,2.4,1.1,3.9c0,4.2-3.4,7.6-7.6,7.6s-7.6-3.4-7.6-7.6c0-1.4,0.4-2.7,1.1-3.9H93v157h130.8v-157H220.9z"/>
							</defs>
							<clipPath id="SVGID_8_">
								<use xlink:href="#SVGID_7_"  style="overflow:visible;"/>
							</clipPath>
							<g class="st14">
								<g>
									<path class="st2" d="M106,345.9c-0.1,0-0.6-38-1.1-85c-0.5-46.9-0.8-85-0.6-85c0.1,0,0.6,38,1.1,85S106.2,345.9,106,345.9z
										"/>
								</g>
							</g>
						</g>
						<g>
							<defs>
								<path id="SVGID_9_" d="M220.9,181.9c0.7,1.1,1.1,2.4,1.1,3.9c0,4.2-3.4,7.6-7.6,7.6c-4.2,0-7.6-3.4-7.6-7.6
									c0-1.4,0.4-2.7,1.1-3.9H199c0.7,1.1,1.1,2.4,1.1,3.9c0,4.2-3.4,7.6-7.6,7.6c-4.2,0-7.6-3.4-7.6-7.6c0-1.4,0.4-2.7,1.1-3.9
									h-8.8c0.7,1.1,1.1,2.4,1.1,3.9c0,4.2-3.4,7.6-7.6,7.6c-4.2,0-7.6-3.4-7.6-7.6c0-1.4,0.4-2.7,1.1-3.9h-8.8
									c0.7,1.1,1.1,2.4,1.1,3.9c0,4.2-3.4,7.6-7.6,7.6c-4.2,0-7.6-3.4-7.6-7.6c0-1.4,0.4-2.7,1.1-3.9h-8.8
									c0.7,1.1,1.1,2.4,1.1,3.9c0,4.2-3.4,7.6-7.6,7.6c-4.2,0-7.6-3.4-7.6-7.6c0-1.4,0.4-2.7,1.1-3.9h-8.8
									c0.7,1.1,1.1,2.4,1.1,3.9c0,4.2-3.4,7.6-7.6,7.6s-7.6-3.4-7.6-7.6c0-1.4,0.4-2.7,1.1-3.9H93v157h130.8v-157H220.9z"/>
							</defs>
							<clipPath id="SVGID_10_">
								<use xlink:href="#SVGID_9_"  style="overflow:visible;"/>
							</clipPath>
							<g class="st15">
								<g>
									<path class="st2" d="M116.4,345.9c-0.1,0-0.6-38-1.1-85c-0.5-46.9-0.8-85-0.6-85c0.1,0,0.6,38,1.1,85
										S116.6,345.9,116.4,345.9z"/>
								</g>
							</g>
						</g>
						<g>
							<defs>
								<path id="SVGID_11_" d="M220.9,181.9c0.7,1.1,1.1,2.4,1.1,3.9c0,4.2-3.4,7.6-7.6,7.6c-4.2,0-7.6-3.4-7.6-7.6
									c0-1.4,0.4-2.7,1.1-3.9H199c0.7,1.1,1.1,2.4,1.1,3.9c0,4.2-3.4,7.6-7.6,7.6c-4.2,0-7.6-3.4-7.6-7.6c0-1.4,0.4-2.7,1.1-3.9
									h-8.8c0.7,1.1,1.1,2.4,1.1,3.9c0,4.2-3.4,7.6-7.6,7.6c-4.2,0-7.6-3.4-7.6-7.6c0-1.4,0.4-2.7,1.1-3.9h-8.8
									c0.7,1.1,1.1,2.4,1.1,3.9c0,4.2-3.4,7.6-7.6,7.6c-4.2,0-7.6-3.4-7.6-7.6c0-1.4,0.4-2.7,1.1-3.9h-8.8
									c0.7,1.1,1.1,2.4,1.1,3.9c0,4.2-3.4,7.6-7.6,7.6c-4.2,0-7.6-3.4-7.6-7.6c0-1.4,0.4-2.7,1.1-3.9h-8.8
									c0.7,1.1,1.1,2.4,1.1,3.9c0,4.2-3.4,7.6-7.6,7.6s-7.6-3.4-7.6-7.6c0-1.4,0.4-2.7,1.1-3.9H93v157h130.8v-157H220.9z"/>
							</defs>
							<clipPath id="SVGID_12_">
								<use xlink:href="#SVGID_11_"  style="overflow:visible;"/>
							</clipPath>
							<g class="st16">
								<g>
									<path class="st2" d="M137.7,345.9c-0.1,0-0.6-38-1.1-85c-0.5-46.9-0.8-85-0.6-85c0.1,0,0.6,38,1.1,85
										C137.5,307.9,137.8,345.9,137.7,345.9z"/>
								</g>
							</g>
						</g>
						<g>
							<defs>
								<path id="SVGID_13_" d="M220.9,181.9c0.7,1.1,1.1,2.4,1.1,3.9c0,4.2-3.4,7.6-7.6,7.6c-4.2,0-7.6-3.4-7.6-7.6
									c0-1.4,0.4-2.7,1.1-3.9H199c0.7,1.1,1.1,2.4,1.1,3.9c0,4.2-3.4,7.6-7.6,7.6c-4.2,0-7.6-3.4-7.6-7.6c0-1.4,0.4-2.7,1.1-3.9
									h-8.8c0.7,1.1,1.1,2.4,1.1,3.9c0,4.2-3.4,7.6-7.6,7.6c-4.2,0-7.6-3.4-7.6-7.6c0-1.4,0.4-2.7,1.1-3.9h-8.8
									c0.7,1.1,1.1,2.4,1.1,3.9c0,4.2-3.4,7.6-7.6,7.6c-4.2,0-7.6-3.4-7.6-7.6c0-1.4,0.4-2.7,1.1-3.9h-8.8
									c0.7,1.1,1.1,2.4,1.1,3.9c0,4.2-3.4,7.6-7.6,7.6c-4.2,0-7.6-3.4-7.6-7.6c0-1.4,0.4-2.7,1.1-3.9h-8.8
									c0.7,1.1,1.1,2.4,1.1,3.9c0,4.2-3.4,7.6-7.6,7.6s-7.6-3.4-7.6-7.6c0-1.4,0.4-2.7,1.1-3.9H93v157h130.8v-157H220.9z"/>
							</defs>
							<clipPath id="SVGID_14_">
								<use xlink:href="#SVGID_13_"  style="overflow:visible;"/>
							</clipPath>
							<g class="st17">
								<g>
									<path class="st2" d="M158.9,345.9c-0.1,0-0.6-38-1.1-85c-0.5-46.9-0.8-85-0.6-85c0.1,0,0.6,38,1.1,85
										C158.7,307.9,159,345.9,158.9,345.9z"/>
								</g>
							</g>
						</g>
						<g>
							<defs>
								<path id="SVGID_15_" d="M220.9,181.9c0.7,1.1,1.1,2.4,1.1,3.9c0,4.2-3.4,7.6-7.6,7.6c-4.2,0-7.6-3.4-7.6-7.6
									c0-1.4,0.4-2.7,1.1-3.9H199c0.7,1.1,1.1,2.4,1.1,3.9c0,4.2-3.4,7.6-7.6,7.6c-4.2,0-7.6-3.4-7.6-7.6c0-1.4,0.4-2.7,1.1-3.9
									h-8.8c0.7,1.1,1.1,2.4,1.1,3.9c0,4.2-3.4,7.6-7.6,7.6c-4.2,0-7.6-3.4-7.6-7.6c0-1.4,0.4-2.7,1.1-3.9h-8.8
									c0.7,1.1,1.1,2.4,1.1,3.9c0,4.2-3.4,7.6-7.6,7.6c-4.2,0-7.6-3.4-7.6-7.6c0-1.4,0.4-2.7,1.1-3.9h-8.8
									c0.7,1.1,1.1,2.4,1.1,3.9c0,4.2-3.4,7.6-7.6,7.6c-4.2,0-7.6-3.4-7.6-7.6c0-1.4,0.4-2.7,1.1-3.9h-8.8
									c0.7,1.1,1.1,2.4,1.1,3.9c0,4.2-3.4,7.6-7.6,7.6s-7.6-3.4-7.6-7.6c0-1.4,0.4-2.7,1.1-3.9H93v157h130.8v-157H220.9z"/>
							</defs>
							<clipPath id="SVGID_16_">
								<use xlink:href="#SVGID_15_"  style="overflow:visible;"/>
							</clipPath>
							<g class="st18">
								<g>
									<path class="st2" d="M180.1,345.9c-0.1,0-0.6-38-1.1-85c-0.5-46.9-0.8-85-0.6-85c0.1,0,0.6,38,1.1,85
										S180.2,345.9,180.1,345.9z"/>
								</g>
							</g>
						</g>
						<g>
							<defs>
								<path id="SVGID_17_" d="M220.9,181.9c0.7,1.1,1.1,2.4,1.1,3.9c0,4.2-3.4,7.6-7.6,7.6c-4.2,0-7.6-3.4-7.6-7.6
									c0-1.4,0.4-2.7,1.1-3.9H199c0.7,1.1,1.1,2.4,1.1,3.9c0,4.2-3.4,7.6-7.6,7.6c-4.2,0-7.6-3.4-7.6-7.6c0-1.4,0.4-2.7,1.1-3.9
									h-8.8c0.7,1.1,1.1,2.4,1.1,3.9c0,4.2-3.4,7.6-7.6,7.6c-4.2,0-7.6-3.4-7.6-7.6c0-1.4,0.4-2.7,1.1-3.9h-8.8
									c0.7,1.1,1.1,2.4,1.1,3.9c0,4.2-3.4,7.6-7.6,7.6c-4.2,0-7.6-3.4-7.6-7.6c0-1.4,0.4-2.7,1.1-3.9h-8.8
									c0.7,1.1,1.1,2.4,1.1,3.9c0,4.2-3.4,7.6-7.6,7.6c-4.2,0-7.6-3.4-7.6-7.6c0-1.4,0.4-2.7,1.1-3.9h-8.8
									c0.7,1.1,1.1,2.4,1.1,3.9c0,4.2-3.4,7.6-7.6,7.6s-7.6-3.4-7.6-7.6c0-1.4,0.4-2.7,1.1-3.9H93v157h130.8v-157H220.9z"/>
							</defs>
							<clipPath id="SVGID_18_">
								<use xlink:href="#SVGID_17_"  style="overflow:visible;"/>
							</clipPath>
							<g class="st19">
								<g>
									<path class="st2" d="M200.2,345.9c-0.1,0-0.6-38-1.1-85c-0.5-46.9-0.8-85-0.6-85c0.1,0,0.6,38,1.1,85
										C200.1,307.9,200.4,345.9,200.2,345.9z"/>
								</g>
							</g>
						</g>
						<g>
							<defs>
								<path id="SVGID_19_" d="M220.9,181.9c0.7,1.1,1.1,2.4,1.1,3.9c0,4.2-3.4,7.6-7.6,7.6c-4.2,0-7.6-3.4-7.6-7.6
									c0-1.4,0.4-2.7,1.1-3.9H199c0.7,1.1,1.1,2.4,1.1,3.9c0,4.2-3.4,7.6-7.6,7.6c-4.2,0-7.6-3.4-7.6-7.6c0-1.4,0.4-2.7,1.1-3.9
									h-8.8c0.7,1.1,1.1,2.4,1.1,3.9c0,4.2-3.4,7.6-7.6,7.6c-4.2,0-7.6-3.4-7.6-7.6c0-1.4,0.4-2.7,1.1-3.9h-8.8
									c0.7,1.1,1.1,2.4,1.1,3.9c0,4.2-3.4,7.6-7.6,7.6c-4.2,0-7.6-3.4-7.6-7.6c0-1.4,0.4-2.7,1.1-3.9h-8.8
									c0.7,1.1,1.1,2.4,1.1,3.9c0,4.2-3.4,7.6-7.6,7.6c-4.2,0-7.6-3.4-7.6-7.6c0-1.4,0.4-2.7,1.1-3.9h-8.8
									c0.7,1.1,1.1,2.4,1.1,3.9c0,4.2-3.4,7.6-7.6,7.6s-7.6-3.4-7.6-7.6c0-1.4,0.4-2.7,1.1-3.9H93v157h130.8v-157H220.9z"/>
							</defs>
							<clipPath id="SVGID_20_">
								<use xlink:href="#SVGID_19_"  style="overflow:visible;"/>
							</clipPath>
							<g class="st20">
								<g>
									<path class="st2" d="M220.3,345.9c-0.1,0-0.6-38-1.1-85c-0.5-46.9-0.8-85-0.6-85c0.1,0,0.6,38,1.1,85
										S220.5,345.9,220.3,345.9z"/>
								</g>
							</g>
						</g>
						<g>
							<defs>
								<path id="SVGID_21_" d="M220.9,181.9c0.7,1.1,1.1,2.4,1.1,3.9c0,4.2-3.4,7.6-7.6,7.6c-4.2,0-7.6-3.4-7.6-7.6
									c0-1.4,0.4-2.7,1.1-3.9H199c0.7,1.1,1.1,2.4,1.1,3.9c0,4.2-3.4,7.6-7.6,7.6c-4.2,0-7.6-3.4-7.6-7.6c0-1.4,0.4-2.7,1.1-3.9
									h-8.8c0.7,1.1,1.1,2.4,1.1,3.9c0,4.2-3.4,7.6-7.6,7.6c-4.2,0-7.6-3.4-7.6-7.6c0-1.4,0.4-2.7,1.1-3.9h-8.8
									c0.7,1.1,1.1,2.4,1.1,3.9c0,4.2-3.4,7.6-7.6,7.6c-4.2,0-7.6-3.4-7.6-7.6c0-1.4,0.4-2.7,1.1-3.9h-8.8
									c0.7,1.1,1.1,2.4,1.1,3.9c0,4.2-3.4,7.6-7.6,7.6c-4.2,0-7.6-3.4-7.6-7.6c0-1.4,0.4-2.7,1.1-3.9h-8.8
									c0.7,1.1,1.1,2.4,1.1,3.9c0,4.2-3.4,7.6-7.6,7.6s-7.6-3.4-7.6-7.6c0-1.4,0.4-2.7,1.1-3.9H93v157h130.8v-157H220.9z"/>
							</defs>
							<clipPath id="SVGID_22_">
								<use xlink:href="#SVGID_21_"  style="overflow:visible;"/>
							</clipPath>
							<g class="st21">
								<g>
									<path class="st2" d="M127,345.7c-0.1,0-0.6-38-1.1-85c-0.5-46.9-0.8-85-0.6-85c0.1,0,0.6,38,1.1,85
										C126.9,307.6,127.2,345.7,127,345.7z"/>
								</g>
							</g>
						</g>
						<g>
							<defs>
								<path id="SVGID_23_" d="M220.9,181.9c0.7,1.1,1.1,2.4,1.1,3.9c0,4.2-3.4,7.6-7.6,7.6c-4.2,0-7.6-3.4-7.6-7.6
									c0-1.4,0.4-2.7,1.1-3.9H199c0.7,1.1,1.1,2.4,1.1,3.9c0,4.2-3.4,7.6-7.6,7.6c-4.2,0-7.6-3.4-7.6-7.6c0-1.4,0.4-2.7,1.1-3.9
									h-8.8c0.7,1.1,1.1,2.4,1.1,3.9c0,4.2-3.4,7.6-7.6,7.6c-4.2,0-7.6-3.4-7.6-7.6c0-1.4,0.4-2.7,1.1-3.9h-8.8
									c0.7,1.1,1.1,2.4,1.1,3.9c0,4.2-3.4,7.6-7.6,7.6c-4.2,0-7.6-3.4-7.6-7.6c0-1.4,0.4-2.7,1.1-3.9h-8.8
									c0.7,1.1,1.1,2.4,1.1,3.9c0,4.2-3.4,7.6-7.6,7.6c-4.2,0-7.6-3.4-7.6-7.6c0-1.4,0.4-2.7,1.1-3.9h-8.8
									c0.7,1.1,1.1,2.4,1.1,3.9c0,4.2-3.4,7.6-7.6,7.6s-7.6-3.4-7.6-7.6c0-1.4,0.4-2.7,1.1-3.9H93v157h130.8v-157H220.9z"/>
							</defs>
							<clipPath id="SVGID_24_">
								<use xlink:href="#SVGID_23_"  style="overflow:visible;"/>
							</clipPath>
							<g class="st22">
								<g>
									<path class="st2" d="M148,345.5c-0.1,0-0.6-38-1.1-85c-0.5-46.9-0.8-85-0.6-85c0.1,0,0.6,38,1.1,85
										C147.9,307.4,148.1,345.5,148,345.5z"/>
								</g>
							</g>
						</g>
						<g>
							<defs>
								<path id="SVGID_25_" d="M220.9,181.9c0.7,1.1,1.1,2.4,1.1,3.9c0,4.2-3.4,7.6-7.6,7.6c-4.2,0-7.6-3.4-7.6-7.6
									c0-1.4,0.4-2.7,1.1-3.9H199c0.7,1.1,1.1,2.4,1.1,3.9c0,4.2-3.4,7.6-7.6,7.6c-4.2,0-7.6-3.4-7.6-7.6c0-1.4,0.4-2.7,1.1-3.9
									h-8.8c0.7,1.1,1.1,2.4,1.1,3.9c0,4.2-3.4,7.6-7.6,7.6c-4.2,0-7.6-3.4-7.6-7.6c0-1.4,0.4-2.7,1.1-3.9h-8.8
									c0.7,1.1,1.1,2.4,1.1,3.9c0,4.2-3.4,7.6-7.6,7.6c-4.2,0-7.6-3.4-7.6-7.6c0-1.4,0.4-2.7,1.1-3.9h-8.8
									c0.7,1.1,1.1,2.4,1.1,3.9c0,4.2-3.4,7.6-7.6,7.6c-4.2,0-7.6-3.4-7.6-7.6c0-1.4,0.4-2.7,1.1-3.9h-8.8
									c0.7,1.1,1.1,2.4,1.1,3.9c0,4.2-3.4,7.6-7.6,7.6s-7.6-3.4-7.6-7.6c0-1.4,0.4-2.7,1.1-3.9H93v157h130.8v-157H220.9z"/>
							</defs>
							<clipPath id="SVGID_26_">
								<use xlink:href="#SVGID_25_"  style="overflow:visible;"/>
							</clipPath>
							<g class="st23">
								<g>
									<path class="st2" d="M169,345.3c-0.1,0-0.6-38-1.1-85c-0.5-46.9-0.8-85-0.6-85c0.1,0,0.6,38,1.1,85
										C168.9,307.2,169.1,345.3,169,345.3z"/>
								</g>
							</g>
						</g>
						<g>
							<defs>
								<path id="SVGID_27_" d="M220.9,181.9c0.7,1.1,1.1,2.4,1.1,3.9c0,4.2-3.4,7.6-7.6,7.6c-4.2,0-7.6-3.4-7.6-7.6
									c0-1.4,0.4-2.7,1.1-3.9H199c0.7,1.1,1.1,2.4,1.1,3.9c0,4.2-3.4,7.6-7.6,7.6c-4.2,0-7.6-3.4-7.6-7.6c0-1.4,0.4-2.7,1.1-3.9
									h-8.8c0.7,1.1,1.1,2.4,1.1,3.9c0,4.2-3.4,7.6-7.6,7.6c-4.2,0-7.6-3.4-7.6-7.6c0-1.4,0.4-2.7,1.1-3.9h-8.8
									c0.7,1.1,1.1,2.4,1.1,3.9c0,4.2-3.4,7.6-7.6,7.6c-4.2,0-7.6-3.4-7.6-7.6c0-1.4,0.4-2.7,1.1-3.9h-8.8
									c0.7,1.1,1.1,2.4,1.1,3.9c0,4.2-3.4,7.6-7.6,7.6c-4.2,0-7.6-3.4-7.6-7.6c0-1.4,0.4-2.7,1.1-3.9h-8.8
									c0.7,1.1,1.1,2.4,1.1,3.9c0,4.2-3.4,7.6-7.6,7.6s-7.6-3.4-7.6-7.6c0-1.4,0.4-2.7,1.1-3.9H93v157h130.8v-157H220.9z"/>
							</defs>
							<clipPath id="SVGID_28_">
								<use xlink:href="#SVGID_27_"  style="overflow:visible;"/>
							</clipPath>
							<g class="st24">
								<g>
									<path class="st2" d="M190,345.1c-0.1,0-0.6-38-1.1-85c-0.5-46.9-0.8-85-0.6-85c0.1,0,0.6,38,1.1,85
										C189.9,307,190.1,345.1,190,345.1z"/>
								</g>
							</g>
						</g>
						<g>
							<defs>
								<path id="SVGID_29_" d="M220.9,181.9c0.7,1.1,1.1,2.4,1.1,3.9c0,4.2-3.4,7.6-7.6,7.6c-4.2,0-7.6-3.4-7.6-7.6
									c0-1.4,0.4-2.7,1.1-3.9H199c0.7,1.1,1.1,2.4,1.1,3.9c0,4.2-3.4,7.6-7.6,7.6c-4.2,0-7.6-3.4-7.6-7.6c0-1.4,0.4-2.7,1.1-3.9
									h-8.8c0.7,1.1,1.1,2.4,1.1,3.9c0,4.2-3.4,7.6-7.6,7.6c-4.2,0-7.6-3.4-7.6-7.6c0-1.4,0.4-2.7,1.1-3.9h-8.8
									c0.7,1.1,1.1,2.4,1.1,3.9c0,4.2-3.4,7.6-7.6,7.6c-4.2,0-7.6-3.4-7.6-7.6c0-1.4,0.4-2.7,1.1-3.9h-8.8
									c0.7,1.1,1.1,2.4,1.1,3.9c0,4.2-3.4,7.6-7.6,7.6c-4.2,0-7.6-3.4-7.6-7.6c0-1.4,0.4-2.7,1.1-3.9h-8.8
									c0.7,1.1,1.1,2.4,1.1,3.9c0,4.2-3.4,7.6-7.6,7.6s-7.6-3.4-7.6-7.6c0-1.4,0.4-2.7,1.1-3.9H93v157h130.8v-157H220.9z"/>
							</defs>
							<clipPath id="SVGID_30_">
								<use xlink:href="#SVGID_29_"  style="overflow:visible;"/>
							</clipPath>
							<g class="st25">
								<g>
									<path class="st2" d="M210.1,346.1c-0.1,0-0.6-38-1.1-85c-0.5-46.9-0.8-85-0.6-85c0.1,0,0.6,38,1.1,85
										S210.3,346.1,210.1,346.1z"/>
								</g>
							</g>
						</g>
						<g>
							<defs>
								<path id="SVGID_31_" d="M220.9,181.9c0.7,1.1,1.1,2.4,1.1,3.9c0,4.2-3.4,7.6-7.6,7.6c-4.2,0-7.6-3.4-7.6-7.6
									c0-1.4,0.4-2.7,1.1-3.9H199c0.7,1.1,1.1,2.4,1.1,3.9c0,4.2-3.4,7.6-7.6,7.6c-4.2,0-7.6-3.4-7.6-7.6c0-1.4,0.4-2.7,1.1-3.9
									h-8.8c0.7,1.1,1.1,2.4,1.1,3.9c0,4.2-3.4,7.6-7.6,7.6c-4.2,0-7.6-3.4-7.6-7.6c0-1.4,0.4-2.7,1.1-3.9h-8.8
									c0.7,1.1,1.1,2.4,1.1,3.9c0,4.2-3.4,7.6-7.6,7.6c-4.2,0-7.6-3.4-7.6-7.6c0-1.4,0.4-2.7,1.1-3.9h-8.8
									c0.7,1.1,1.1,2.4,1.1,3.9c0,4.2-3.4,7.6-7.6,7.6c-4.2,0-7.6-3.4-7.6-7.6c0-1.4,0.4-2.7,1.1-3.9h-8.8
									c0.7,1.1,1.1,2.4,1.1,3.9c0,4.2-3.4,7.6-7.6,7.6s-7.6-3.4-7.6-7.6c0-1.4,0.4-2.7,1.1-3.9H93v157h130.8v-157H220.9z"/>
							</defs>
							<clipPath id="SVGID_32_">
								<use xlink:href="#SVGID_31_"  style="overflow:visible;"/>
							</clipPath>
							<g class="st26">
								<g>
									<path class="st2" d="M232,344.6c-0.1,0-0.6-38-1.1-85c-0.5-46.9-0.8-85-0.6-85c0.1,0,0.6,38,1.1,85
										C231.8,306.6,232.1,344.6,232,344.6z"/>
								</g>
							</g>
						</g>
						<g>
							<defs>
								<path id="SVGID_33_" d="M220.9,181.9c0.7,1.1,1.1,2.4,1.1,3.9c0,4.2-3.4,7.6-7.6,7.6c-4.2,0-7.6-3.4-7.6-7.6
									c0-1.4,0.4-2.7,1.1-3.9H199c0.7,1.1,1.1,2.4,1.1,3.9c0,4.2-3.4,7.6-7.6,7.6c-4.2,0-7.6-3.4-7.6-7.6c0-1.4,0.4-2.7,1.1-3.9
									h-8.8c0.7,1.1,1.1,2.4,1.1,3.9c0,4.2-3.4,7.6-7.6,7.6c-4.2,0-7.6-3.4-7.6-7.6c0-1.4,0.4-2.7,1.1-3.9h-8.8
									c0.7,1.1,1.1,2.4,1.1,3.9c0,4.2-3.4,7.6-7.6,7.6c-4.2,0-7.6-3.4-7.6-7.6c0-1.4,0.4-2.7,1.1-3.9h-8.8
									c0.7,1.1,1.1,2.4,1.1,3.9c0,4.2-3.4,7.6-7.6,7.6c-4.2,0-7.6-3.4-7.6-7.6c0-1.4,0.4-2.7,1.1-3.9h-8.8
									c0.7,1.1,1.1,2.4,1.1,3.9c0,4.2-3.4,7.6-7.6,7.6s-7.6-3.4-7.6-7.6c0-1.4,0.4-2.7,1.1-3.9H93v157h130.8v-157H220.9z"/>
							</defs>
							<clipPath id="SVGID_34_">
								<use xlink:href="#SVGID_33_"  style="overflow:visible;"/>
							</clipPath>
							<g class="st27">
								<g>
									<path class="st2" d="M254.5,324.7c0,0.1-38,0.6-85,1.1c-46.9,0.5-85,0.7-85,0.6s38-0.6,85-1.1
										C216.4,324.8,254.5,324.6,254.5,324.7z"/>
								</g>
							</g>
						</g>
						<g>
							<defs>
								<path id="SVGID_35_" d="M220.9,181.9c0.7,1.1,1.1,2.4,1.1,3.9c0,4.2-3.4,7.6-7.6,7.6c-4.2,0-7.6-3.4-7.6-7.6
									c0-1.4,0.4-2.7,1.1-3.9H199c0.7,1.1,1.1,2.4,1.1,3.9c0,4.2-3.4,7.6-7.6,7.6c-4.2,0-7.6-3.4-7.6-7.6c0-1.4,0.4-2.7,1.1-3.9
									h-8.8c0.7,1.1,1.1,2.4,1.1,3.9c0,4.2-3.4,7.6-7.6,7.6c-4.2,0-7.6-3.4-7.6-7.6c0-1.4,0.4-2.7,1.1-3.9h-8.8
									c0.7,1.1,1.1,2.4,1.1,3.9c0,4.2-3.4,7.6-7.6,7.6c-4.2,0-7.6-3.4-7.6-7.6c0-1.4,0.4-2.7,1.1-3.9h-8.8
									c0.7,1.1,1.1,2.4,1.1,3.9c0,4.2-3.4,7.6-7.6,7.6c-4.2,0-7.6-3.4-7.6-7.6c0-1.4,0.4-2.7,1.1-3.9h-8.8
									c0.7,1.1,1.1,2.4,1.1,3.9c0,4.2-3.4,7.6-7.6,7.6s-7.6-3.4-7.6-7.6c0-1.4,0.4-2.7,1.1-3.9H93v157h130.8v-157H220.9z"/>
							</defs>
							<clipPath id="SVGID_36_">
								<use xlink:href="#SVGID_35_"  style="overflow:visible;"/>
							</clipPath>
							<g class="st28">
								<g>
									<path class="st2" d="M255.4,335.4c0,0.1-38,0.6-85,1.1c-46.9,0.5-85,0.7-85,0.6s38-0.6,85-1.1
										C217.3,335.6,255.4,335.3,255.4,335.4z"/>
								</g>
							</g>
						</g>
						<g>
							<defs>
								<path id="SVGID_37_" d="M220.9,181.9c0.7,1.1,1.1,2.4,1.1,3.9c0,4.2-3.4,7.6-7.6,7.6c-4.2,0-7.6-3.4-7.6-7.6
									c0-1.4,0.4-2.7,1.1-3.9H199c0.7,1.1,1.1,2.4,1.1,3.9c0,4.2-3.4,7.6-7.6,7.6c-4.2,0-7.6-3.4-7.6-7.6c0-1.4,0.4-2.7,1.1-3.9
									h-8.8c0.7,1.1,1.1,2.4,1.1,3.9c0,4.2-3.4,7.6-7.6,7.6c-4.2,0-7.6-3.4-7.6-7.6c0-1.4,0.4-2.7,1.1-3.9h-8.8
									c0.7,1.1,1.1,2.4,1.1,3.9c0,4.2-3.4,7.6-7.6,7.6c-4.2,0-7.6-3.4-7.6-7.6c0-1.4,0.4-2.7,1.1-3.9h-8.8
									c0.7,1.1,1.1,2.4,1.1,3.9c0,4.2-3.4,7.6-7.6,7.6c-4.2,0-7.6-3.4-7.6-7.6c0-1.4,0.4-2.7,1.1-3.9h-8.8
									c0.7,1.1,1.1,2.4,1.1,3.9c0,4.2-3.4,7.6-7.6,7.6s-7.6-3.4-7.6-7.6c0-1.4,0.4-2.7,1.1-3.9H93v157h130.8v-157H220.9z"/>
							</defs>
							<clipPath id="SVGID_38_">
								<use xlink:href="#SVGID_37_"  style="overflow:visible;"/>
							</clipPath>
							<g class="st29">
								<g>
									<path class="st2" d="M254.3,303.7c0,0.1-38,0.6-85,1.1c-46.9,0.5-85,0.7-85,0.6s38-0.6,85-1.1
										C216.2,303.8,254.3,303.6,254.3,303.7z"/>
								</g>
							</g>
						</g>
						<g>
							<defs>
								<path id="SVGID_39_" d="M220.9,181.9c0.7,1.1,1.1,2.4,1.1,3.9c0,4.2-3.4,7.6-7.6,7.6c-4.2,0-7.6-3.4-7.6-7.6
									c0-1.4,0.4-2.7,1.1-3.9H199c0.7,1.1,1.1,2.4,1.1,3.9c0,4.2-3.4,7.6-7.6,7.6c-4.2,0-7.6-3.4-7.6-7.6c0-1.4,0.4-2.7,1.1-3.9
									h-8.8c0.7,1.1,1.1,2.4,1.1,3.9c0,4.2-3.4,7.6-7.6,7.6c-4.2,0-7.6-3.4-7.6-7.6c0-1.4,0.4-2.7,1.1-3.9h-8.8
									c0.7,1.1,1.1,2.4,1.1,3.9c0,4.2-3.4,7.6-7.6,7.6c-4.2,0-7.6-3.4-7.6-7.6c0-1.4,0.4-2.7,1.1-3.9h-8.8
									c0.7,1.1,1.1,2.4,1.1,3.9c0,4.2-3.4,7.6-7.6,7.6c-4.2,0-7.6-3.4-7.6-7.6c0-1.4,0.4-2.7,1.1-3.9h-8.8
									c0.7,1.1,1.1,2.4,1.1,3.9c0,4.2-3.4,7.6-7.6,7.6s-7.6-3.4-7.6-7.6c0-1.4,0.4-2.7,1.1-3.9H93v157h130.8v-157H220.9z"/>
							</defs>
							<clipPath id="SVGID_40_">
								<use xlink:href="#SVGID_39_"  style="overflow:visible;"/>
							</clipPath>
							<g class="st30">
								<g>
									<path class="st2" d="M254.1,282.7c0,0.1-38,0.6-85,1.1c-46.9,0.5-85,0.7-85,0.6s38-0.6,85-1.1
										C216,282.8,254.1,282.6,254.1,282.7z"/>
								</g>
							</g>
						</g>
						<g>
							<defs>
								<path id="SVGID_41_" d="M220.9,181.9c0.7,1.1,1.1,2.4,1.1,3.9c0,4.2-3.4,7.6-7.6,7.6c-4.2,0-7.6-3.4-7.6-7.6
									c0-1.4,0.4-2.7,1.1-3.9H199c0.7,1.1,1.1,2.4,1.1,3.9c0,4.2-3.4,7.6-7.6,7.6c-4.2,0-7.6-3.4-7.6-7.6c0-1.4,0.4-2.7,1.1-3.9
									h-8.8c0.7,1.1,1.1,2.4,1.1,3.9c0,4.2-3.4,7.6-7.6,7.6c-4.2,0-7.6-3.4-7.6-7.6c0-1.4,0.4-2.7,1.1-3.9h-8.8
									c0.7,1.1,1.1,2.4,1.1,3.9c0,4.2-3.4,7.6-7.6,7.6c-4.2,0-7.6-3.4-7.6-7.6c0-1.4,0.4-2.7,1.1-3.9h-8.8
									c0.7,1.1,1.1,2.4,1.1,3.9c0,4.2-3.4,7.6-7.6,7.6c-4.2,0-7.6-3.4-7.6-7.6c0-1.4,0.4-2.7,1.1-3.9h-8.8
									c0.7,1.1,1.1,2.4,1.1,3.9c0,4.2-3.4,7.6-7.6,7.6s-7.6-3.4-7.6-7.6c0-1.4,0.4-2.7,1.1-3.9H93v157h130.8v-157H220.9z"/>
							</defs>
							<clipPath id="SVGID_42_">
								<use xlink:href="#SVGID_41_"  style="overflow:visible;"/>
							</clipPath>
							<g class="st31">
								<g>
									<path class="st2" d="M253.9,261.7c0,0.1-38,0.6-85,1.1c-46.9,0.5-85,0.7-85,0.6s38-0.6,85-1.1
										C215.8,261.9,253.9,261.6,253.9,261.7z"/>
								</g>
							</g>
						</g>
						<g>
							<defs>
								<path id="SVGID_43_" d="M220.9,181.9c0.7,1.1,1.1,2.4,1.1,3.9c0,4.2-3.4,7.6-7.6,7.6c-4.2,0-7.6-3.4-7.6-7.6
									c0-1.4,0.4-2.7,1.1-3.9H199c0.7,1.1,1.1,2.4,1.1,3.9c0,4.2-3.4,7.6-7.6,7.6c-4.2,0-7.6-3.4-7.6-7.6c0-1.4,0.4-2.7,1.1-3.9
									h-8.8c0.7,1.1,1.1,2.4,1.1,3.9c0,4.2-3.4,7.6-7.6,7.6c-4.2,0-7.6-3.4-7.6-7.6c0-1.4,0.4-2.7,1.1-3.9h-8.8
									c0.7,1.1,1.1,2.4,1.1,3.9c0,4.2-3.4,7.6-7.6,7.6c-4.2,0-7.6-3.4-7.6-7.6c0-1.4,0.4-2.7,1.1-3.9h-8.8
									c0.7,1.1,1.1,2.4,1.1,3.9c0,4.2-3.4,7.6-7.6,7.6c-4.2,0-7.6-3.4-7.6-7.6c0-1.4,0.4-2.7,1.1-3.9h-8.8
									c0.7,1.1,1.1,2.4,1.1,3.9c0,4.2-3.4,7.6-7.6,7.6s-7.6-3.4-7.6-7.6c0-1.4,0.4-2.7,1.1-3.9H93v157h130.8v-157H220.9z"/>
							</defs>
							<clipPath id="SVGID_44_">
								<use xlink:href="#SVGID_43_"  style="overflow:visible;"/>
							</clipPath>
							<g class="st32">
								<g>
									<path class="st2" d="M253.7,240.7c0,0.1-38,0.6-85,1.1c-46.9,0.5-85,0.7-85,0.6c0-0.1,38-0.6,85-1.1
										C215.6,240.9,253.7,240.6,253.7,240.7z"/>
								</g>
							</g>
						</g>
						<g>
							<defs>
								<path id="SVGID_45_" d="M220.9,181.9c0.7,1.1,1.1,2.4,1.1,3.9c0,4.2-3.4,7.6-7.6,7.6c-4.2,0-7.6-3.4-7.6-7.6
									c0-1.4,0.4-2.7,1.1-3.9H199c0.7,1.1,1.1,2.4,1.1,3.9c0,4.2-3.4,7.6-7.6,7.6c-4.2,0-7.6-3.4-7.6-7.6c0-1.4,0.4-2.7,1.1-3.9
									h-8.8c0.7,1.1,1.1,2.4,1.1,3.9c0,4.2-3.4,7.6-7.6,7.6c-4.2,0-7.6-3.4-7.6-7.6c0-1.4,0.4-2.7,1.1-3.9h-8.8
									c0.7,1.1,1.1,2.4,1.1,3.9c0,4.2-3.4,7.6-7.6,7.6c-4.2,0-7.6-3.4-7.6-7.6c0-1.4,0.4-2.7,1.1-3.9h-8.8
									c0.7,1.1,1.1,2.4,1.1,3.9c0,4.2-3.4,7.6-7.6,7.6c-4.2,0-7.6-3.4-7.6-7.6c0-1.4,0.4-2.7,1.1-3.9h-8.8
									c0.7,1.1,1.1,2.4,1.1,3.9c0,4.2-3.4,7.6-7.6,7.6s-7.6-3.4-7.6-7.6c0-1.4,0.4-2.7,1.1-3.9H93v157h130.8v-157H220.9z"/>
							</defs>
							<clipPath id="SVGID_46_">
								<use xlink:href="#SVGID_45_"  style="overflow:visible;"/>
							</clipPath>
							<g class="st33">
								<g>
									<path class="st2" d="M253.4,219.7c0,0.1-38,0.6-85,1.1c-46.9,0.5-85,0.7-85,0.6c0-0.1,38-0.6,85-1.1
										C215.4,219.9,253.4,219.6,253.4,219.7z"/>
								</g>
							</g>
						</g>
						<g>
							<defs>
								<path id="SVGID_47_" d="M220.9,181.9c0.7,1.1,1.1,2.4,1.1,3.9c0,4.2-3.4,7.6-7.6,7.6c-4.2,0-7.6-3.4-7.6-7.6
									c0-1.4,0.4-2.7,1.1-3.9H199c0.7,1.1,1.1,2.4,1.1,3.9c0,4.2-3.4,7.6-7.6,7.6c-4.2,0-7.6-3.4-7.6-7.6c0-1.4,0.4-2.7,1.1-3.9
									h-8.8c0.7,1.1,1.1,2.4,1.1,3.9c0,4.2-3.4,7.6-7.6,7.6c-4.2,0-7.6-3.4-7.6-7.6c0-1.4,0.4-2.7,1.1-3.9h-8.8
									c0.7,1.1,1.1,2.4,1.1,3.9c0,4.2-3.4,7.6-7.6,7.6c-4.2,0-7.6-3.4-7.6-7.6c0-1.4,0.4-2.7,1.1-3.9h-8.8
									c0.7,1.1,1.1,2.4,1.1,3.9c0,4.2-3.4,7.6-7.6,7.6c-4.2,0-7.6-3.4-7.6-7.6c0-1.4,0.4-2.7,1.1-3.9h-8.8
									c0.7,1.1,1.1,2.4,1.1,3.9c0,4.2-3.4,7.6-7.6,7.6s-7.6-3.4-7.6-7.6c0-1.4,0.4-2.7,1.1-3.9H93v157h130.8v-157H220.9z"/>
							</defs>
							<clipPath id="SVGID_48_">
								<use xlink:href="#SVGID_47_"  style="overflow:visible;"/>
							</clipPath>
							<g class="st34">
								<g>
									<path class="st2" d="M253.2,198.8c0,0.1-38,0.6-85,1.1c-46.9,0.5-85,0.7-85,0.6c0-0.1,38-0.6,85-1.1
										C215.2,198.9,253.2,198.6,253.2,198.8z"/>
								</g>
							</g>
						</g>
						<g>
							<defs>
								<path id="SVGID_49_" d="M220.9,181.9c0.7,1.1,1.1,2.4,1.1,3.9c0,4.2-3.4,7.6-7.6,7.6c-4.2,0-7.6-3.4-7.6-7.6
									c0-1.4,0.4-2.7,1.1-3.9H199c0.7,1.1,1.1,2.4,1.1,3.9c0,4.2-3.4,7.6-7.6,7.6c-4.2,0-7.6-3.4-7.6-7.6c0-1.4,0.4-2.7,1.1-3.9
									h-8.8c0.7,1.1,1.1,2.4,1.1,3.9c0,4.2-3.4,7.6-7.6,7.6c-4.2,0-7.6-3.4-7.6-7.6c0-1.4,0.4-2.7,1.1-3.9h-8.8
									c0.7,1.1,1.1,2.4,1.1,3.9c0,4.2-3.4,7.6-7.6,7.6c-4.2,0-7.6-3.4-7.6-7.6c0-1.4,0.4-2.7,1.1-3.9h-8.8
									c0.7,1.1,1.1,2.4,1.1,3.9c0,4.2-3.4,7.6-7.6,7.6c-4.2,0-7.6-3.4-7.6-7.6c0-1.4,0.4-2.7,1.1-3.9h-8.8
									c0.7,1.1,1.1,2.4,1.1,3.9c0,4.2-3.4,7.6-7.6,7.6s-7.6-3.4-7.6-7.6c0-1.4,0.4-2.7,1.1-3.9H93v157h130.8v-157H220.9z"/>
							</defs>
							<clipPath id="SVGID_50_">
								<use xlink:href="#SVGID_49_"  style="overflow:visible;"/>
							</clipPath>
							<g class="st35">
								<g>
									<path class="st2" d="M253.2,190.3c0,0.1-38,0.6-85,1.1c-46.9,0.5-85,0.7-85,0.6c0-0.1,38-0.6,85-1.1
										C215.2,190.5,253.2,190.2,253.2,190.3z"/>
								</g>
							</g>
						</g>
						<g>
							<defs>
								<path id="SVGID_51_" d="M220.9,181.9c0.7,1.1,1.1,2.4,1.1,3.9c0,4.2-3.4,7.6-7.6,7.6c-4.2,0-7.6-3.4-7.6-7.6
									c0-1.4,0.4-2.7,1.1-3.9H199c0.7,1.1,1.1,2.4,1.1,3.9c0,4.2-3.4,7.6-7.6,7.6c-4.2,0-7.6-3.4-7.6-7.6c0-1.4,0.4-2.7,1.1-3.9
									h-8.8c0.7,1.1,1.1,2.4,1.1,3.9c0,4.2-3.4,7.6-7.6,7.6c-4.2,0-7.6-3.4-7.6-7.6c0-1.4,0.4-2.7,1.1-3.9h-8.8
									c0.7,1.1,1.1,2.4,1.1,3.9c0,4.2-3.4,7.6-7.6,7.6c-4.2,0-7.6-3.4-7.6-7.6c0-1.4,0.4-2.7,1.1-3.9h-8.8
									c0.7,1.1,1.1,2.4,1.1,3.9c0,4.2-3.4,7.6-7.6,7.6c-4.2,0-7.6-3.4-7.6-7.6c0-1.4,0.4-2.7,1.1-3.9h-8.8
									c0.7,1.1,1.1,2.4,1.1,3.9c0,4.2-3.4,7.6-7.6,7.6s-7.6-3.4-7.6-7.6c0-1.4,0.4-2.7,1.1-3.9H93v157h130.8v-157H220.9z"/>
							</defs>
							<clipPath id="SVGID_52_">
								<use xlink:href="#SVGID_51_"  style="overflow:visible;"/>
							</clipPath>
							<g class="st36">
								<g>
									<path class="st2" d="M253.2,209.5c0,0.1-38,0.6-85,1.1c-46.9,0.5-85,0.7-85,0.6c0-0.1,38-0.6,85-1.1
										S253.2,209.3,253.2,209.5z"/>
								</g>
							</g>
						</g>
						<g>
							<defs>
								<path id="SVGID_53_" d="M220.9,181.9c0.7,1.1,1.1,2.4,1.1,3.9c0,4.2-3.4,7.6-7.6,7.6c-4.2,0-7.6-3.4-7.6-7.6
									c0-1.4,0.4-2.7,1.1-3.9H199c0.7,1.1,1.1,2.4,1.1,3.9c0,4.2-3.4,7.6-7.6,7.6c-4.2,0-7.6-3.4-7.6-7.6c0-1.4,0.4-2.7,1.1-3.9
									h-8.8c0.7,1.1,1.1,2.4,1.1,3.9c0,4.2-3.4,7.6-7.6,7.6c-4.2,0-7.6-3.4-7.6-7.6c0-1.4,0.4-2.7,1.1-3.9h-8.8
									c0.7,1.1,1.1,2.4,1.1,3.9c0,4.2-3.4,7.6-7.6,7.6c-4.2,0-7.6-3.4-7.6-7.6c0-1.4,0.4-2.7,1.1-3.9h-8.8
									c0.7,1.1,1.1,2.4,1.1,3.9c0,4.2-3.4,7.6-7.6,7.6c-4.2,0-7.6-3.4-7.6-7.6c0-1.4,0.4-2.7,1.1-3.9h-8.8
									c0.7,1.1,1.1,2.4,1.1,3.9c0,4.2-3.4,7.6-7.6,7.6s-7.6-3.4-7.6-7.6c0-1.4,0.4-2.7,1.1-3.9H93v157h130.8v-157H220.9z"/>
							</defs>
							<clipPath id="SVGID_54_">
								<use xlink:href="#SVGID_53_"  style="overflow:visible;"/>
							</clipPath>
							<g class="st37">
								<g>
									<path class="st2" d="M253.2,230.3c0,0.1-38,0.6-85,1.1c-46.9,0.5-85,0.7-85,0.6c0-0.1,38-0.6,85-1.1
										C215.2,230.4,253.2,230.2,253.2,230.3z"/>
								</g>
							</g>
						</g>
						<g>
							<defs>
								<path id="SVGID_55_" d="M220.9,181.9c0.7,1.1,1.1,2.4,1.1,3.9c0,4.2-3.4,7.6-7.6,7.6c-4.2,0-7.6-3.4-7.6-7.6
									c0-1.4,0.4-2.7,1.1-3.9H199c0.7,1.1,1.1,2.4,1.1,3.9c0,4.2-3.4,7.6-7.6,7.6c-4.2,0-7.6-3.4-7.6-7.6c0-1.4,0.4-2.7,1.1-3.9
									h-8.8c0.7,1.1,1.1,2.4,1.1,3.9c0,4.2-3.4,7.6-7.6,7.6c-4.2,0-7.6-3.4-7.6-7.6c0-1.4,0.4-2.7,1.1-3.9h-8.8
									c0.7,1.1,1.1,2.4,1.1,3.9c0,4.2-3.4,7.6-7.6,7.6c-4.2,0-7.6-3.4-7.6-7.6c0-1.4,0.4-2.7,1.1-3.9h-8.8
									c0.7,1.1,1.1,2.4,1.1,3.9c0,4.2-3.4,7.6-7.6,7.6c-4.2,0-7.6-3.4-7.6-7.6c0-1.4,0.4-2.7,1.1-3.9h-8.8
									c0.7,1.1,1.1,2.4,1.1,3.9c0,4.2-3.4,7.6-7.6,7.6s-7.6-3.4-7.6-7.6c0-1.4,0.4-2.7,1.1-3.9H93v157h130.8v-157H220.9z"/>
							</defs>
							<clipPath id="SVGID_56_">
								<use xlink:href="#SVGID_55_"  style="overflow:visible;"/>
							</clipPath>
							<g class="st38">
								<g>
									<path class="st2" d="M253.2,251.1c0,0.1-38,0.6-85,1.1c-46.9,0.5-85,0.7-85,0.6c0-0.1,38-0.6,85-1.1
										C215.2,251.3,253.2,251,253.2,251.1z"/>
								</g>
							</g>
						</g>
						<g>
							<defs>
								<path id="SVGID_57_" d="M220.9,181.9c0.7,1.1,1.1,2.4,1.1,3.9c0,4.2-3.4,7.6-7.6,7.6c-4.2,0-7.6-3.4-7.6-7.6
									c0-1.4,0.4-2.7,1.1-3.9H199c0.7,1.1,1.1,2.4,1.1,3.9c0,4.2-3.4,7.6-7.6,7.6c-4.2,0-7.6-3.4-7.6-7.6c0-1.4,0.4-2.7,1.1-3.9
									h-8.8c0.7,1.1,1.1,2.4,1.1,3.9c0,4.2-3.4,7.6-7.6,7.6c-4.2,0-7.6-3.4-7.6-7.6c0-1.4,0.4-2.7,1.1-3.9h-8.8
									c0.7,1.1,1.1,2.4,1.1,3.9c0,4.2-3.4,7.6-7.6,7.6c-4.2,0-7.6-3.4-7.6-7.6c0-1.4,0.4-2.7,1.1-3.9h-8.8
									c0.7,1.1,1.1,2.4,1.1,3.9c0,4.2-3.4,7.6-7.6,7.6c-4.2,0-7.6-3.4-7.6-7.6c0-1.4,0.4-2.7,1.1-3.9h-8.8
									c0.7,1.1,1.1,2.4,1.1,3.9c0,4.2-3.4,7.6-7.6,7.6s-7.6-3.4-7.6-7.6c0-1.4,0.4-2.7,1.1-3.9H93v157h130.8v-157H220.9z"/>
							</defs>
							<clipPath id="SVGID_58_">
								<use xlink:href="#SVGID_57_"  style="overflow:visible;"/>
							</clipPath>
							<g class="st39">
								<g>
									<path class="st2" d="M253.2,272c0,0.1-38,0.6-85,1.1c-46.9,0.5-85,0.7-85,0.6s38-0.6,85-1.1S253.2,271.8,253.2,272z"/>
								</g>
							</g>
						</g>
						<g>
							<defs>
								<path id="SVGID_59_" d="M220.9,181.9c0.7,1.1,1.1,2.4,1.1,3.9c0,4.2-3.4,7.6-7.6,7.6c-4.2,0-7.6-3.4-7.6-7.6
									c0-1.4,0.4-2.7,1.1-3.9H199c0.7,1.1,1.1,2.4,1.1,3.9c0,4.2-3.4,7.6-7.6,7.6c-4.2,0-7.6-3.4-7.6-7.6c0-1.4,0.4-2.7,1.1-3.9
									h-8.8c0.7,1.1,1.1,2.4,1.1,3.9c0,4.2-3.4,7.6-7.6,7.6c-4.2,0-7.6-3.4-7.6-7.6c0-1.4,0.4-2.7,1.1-3.9h-8.8
									c0.7,1.1,1.1,2.4,1.1,3.9c0,4.2-3.4,7.6-7.6,7.6c-4.2,0-7.6-3.4-7.6-7.6c0-1.4,0.4-2.7,1.1-3.9h-8.8
									c0.7,1.1,1.1,2.4,1.1,3.9c0,4.2-3.4,7.6-7.6,7.6c-4.2,0-7.6-3.4-7.6-7.6c0-1.4,0.4-2.7,1.1-3.9h-8.8
									c0.7,1.1,1.1,2.4,1.1,3.9c0,4.2-3.4,7.6-7.6,7.6s-7.6-3.4-7.6-7.6c0-1.4,0.4-2.7,1.1-3.9H93v157h130.8v-157H220.9z"/>
							</defs>
							<clipPath id="SVGID_60_">
								<use xlink:href="#SVGID_59_"  style="overflow:visible;"/>
							</clipPath>
							<g class="st40">
								<g>
									<path class="st2" d="M253.2,292.8c0,0.1-38,0.6-85,1.1c-46.9,0.5-85,0.7-85,0.6s38-0.6,85-1.1S253.2,292.6,253.2,292.8z"/>
								</g>
							</g>
						</g>
						<g>
							<defs>
								<path id="SVGID_61_" d="M220.9,181.9c0.7,1.1,1.1,2.4,1.1,3.9c0,4.2-3.4,7.6-7.6,7.6c-4.2,0-7.6-3.4-7.6-7.6
									c0-1.4,0.4-2.7,1.1-3.9H199c0.7,1.1,1.1,2.4,1.1,3.9c0,4.2-3.4,7.6-7.6,7.6c-4.2,0-7.6-3.4-7.6-7.6c0-1.4,0.4-2.7,1.1-3.9
									h-8.8c0.7,1.1,1.1,2.4,1.1,3.9c0,4.2-3.4,7.6-7.6,7.6c-4.2,0-7.6-3.4-7.6-7.6c0-1.4,0.4-2.7,1.1-3.9h-8.8
									c0.7,1.1,1.1,2.4,1.1,3.9c0,4.2-3.4,7.6-7.6,7.6c-4.2,0-7.6-3.4-7.6-7.6c0-1.4,0.4-2.7,1.1-3.9h-8.8
									c0.7,1.1,1.1,2.4,1.1,3.9c0,4.2-3.4,7.6-7.6,7.6c-4.2,0-7.6-3.4-7.6-7.6c0-1.4,0.4-2.7,1.1-3.9h-8.8
									c0.7,1.1,1.1,2.4,1.1,3.9c0,4.2-3.4,7.6-7.6,7.6s-7.6-3.4-7.6-7.6c0-1.4,0.4-2.7,1.1-3.9H93v157h130.8v-157H220.9z"/>
							</defs>
							<clipPath id="SVGID_62_">
								<use xlink:href="#SVGID_61_"  style="overflow:visible;"/>
							</clipPath>
							<g class="st41">
								<g>
									<path class="st2" d="M253.2,313.6c0,0.1-38,0.6-85,1.1c-46.9,0.5-85,0.7-85,0.6s38-0.6,85-1.1S253.2,313.5,253.2,313.6z"/>
								</g>
							</g>
						</g>
						<g>
							<defs>
								<path id="SVGID_63_" d="M220.9,181.9c0.7,1.1,1.1,2.4,1.1,3.9c0,4.2-3.4,7.6-7.6,7.6c-4.2,0-7.6-3.4-7.6-7.6
									c0-1.4,0.4-2.7,1.1-3.9H199c0.7,1.1,1.1,2.4,1.1,3.9c0,4.2-3.4,7.6-7.6,7.6c-4.2,0-7.6-3.4-7.6-7.6c0-1.4,0.4-2.7,1.1-3.9
									h-8.8c0.7,1.1,1.1,2.4,1.1,3.9c0,4.2-3.4,7.6-7.6,7.6c-4.2,0-7.6-3.4-7.6-7.6c0-1.4,0.4-2.7,1.1-3.9h-8.8
									c0.7,1.1,1.1,2.4,1.1,3.9c0,4.2-3.4,7.6-7.6,7.6c-4.2,0-7.6-3.4-7.6-7.6c0-1.4,0.4-2.7,1.1-3.9h-8.8
									c0.7,1.1,1.1,2.4,1.1,3.9c0,4.2-3.4,7.6-7.6,7.6c-4.2,0-7.6-3.4-7.6-7.6c0-1.4,0.4-2.7,1.1-3.9h-8.8
									c0.7,1.1,1.1,2.4,1.1,3.9c0,4.2-3.4,7.6-7.6,7.6s-7.6-3.4-7.6-7.6c0-1.4,0.4-2.7,1.1-3.9H93v157h130.8v-157H220.9z"/>
							</defs>
							<clipPath id="SVGID_64_">
								<use xlink:href="#SVGID_63_"  style="overflow:visible;"/>
							</clipPath>
							<g class="st42">
								<path class="st43" d="M220.9,181.9c0.7,1.1,1.1,2.4,1.1,3.9c0,4.2-3.4,7.6-7.6,7.6c-4.2,0-7.6-3.4-7.6-7.6
									c0-1.4,0.4-2.7,1.1-3.9H199c0.7,1.1,1.1,2.4,1.1,3.9c0,4.2-3.4,7.6-7.6,7.6c-4.2,0-7.6-3.4-7.6-7.6c0-1.4,0.4-2.7,1.1-3.9
									h-8.8c0.7,1.1,1.1,2.4,1.1,3.9c0,4.2-3.4,7.6-7.6,7.6c-4.2,0-7.6-3.4-7.6-7.6c0-1.4,0.4-2.7,1.1-3.9h-8.8
									c0.7,1.1,1.1,2.4,1.1,3.9c0,4.2-3.4,7.6-7.6,7.6c-4.2,0-7.6-3.4-7.6-7.6c0-1.4,0.4-2.7,1.1-3.9h-8.8
									c0.7,1.1,1.1,2.4,1.1,3.9c0,4.2-3.4,7.6-7.6,7.6c-4.2,0-7.6-3.4-7.6-7.6c0-1.4,0.4-2.7,1.1-3.9h-8.8
									c0.7,1.1,1.1,2.4,1.1,3.9c0,4.2-3.4,7.6-7.6,7.6s-7.6-3.4-7.6-7.6c0-1.4,0.4-2.7,1.1-3.9H93v157h130.8v-157H220.9z"/>
							</g>
						</g>
					</g>
					<g>
						<g>
							<path class="st4" d="M149.2,204.6c0.3,5.4,4.9,9.5,10.3,9.2c5.4-0.3,9.5-4.9,9.2-10.3s-4.9-9.5-10.3-9.2
								C153,194.6,148.9,199.2,149.2,204.6z"/>
						</g>
						<g>
							<path class="st4" d="M143.6,201c0.2,3.2,2.9,5.7,6.2,5.5c3.2-0.2,5.7-2.9,5.5-6.2c-0.2-3.2-2.9-5.7-6.2-5.5
								C145.9,195,143.4,197.8,143.6,201z"/>
						</g>
						<g>
							<g>
								<path class="st9" d="M149,206.4c0-0.1,0.9,0.1,2.2-0.2s3-1.5,3.7-3.4c0.7-2,0.1-3.9-0.6-5.1c-0.7-1.2-1.5-1.6-1.5-1.7
									c0,0,0.2,0.1,0.6,0.3c0.3,0.2,0.8,0.6,1.2,1.2c0.8,1.1,1.6,3.3,0.8,5.4c-0.4,1.1-1.1,1.9-1.8,2.5c-0.8,0.6-1.6,0.9-2.3,1.1
									c-0.7,0.1-1.3,0.1-1.7,0.1C149.2,206.5,149,206.5,149,206.4z"/>
							</g>
						</g>
						<g>
							<g>
								<path class="st9" d="M153.9,197.1c0-0.1,1.6,0.6,3.4,0.2c1.9-0.4,2.9-1.8,3-1.7c0.1,0-0.1,0.4-0.6,0.9s-1.3,1-2.3,1.3
									c-1,0.2-2,0.1-2.6-0.1C154.2,197.4,153.9,197.1,153.9,197.1z"/>
							</g>
						</g>
						<g>
							<g>
								<path class="st9" d="M155.4,212c-0.1,0-0.2-0.5-0.4-1.2c-0.3-0.7-0.8-1.6-1.6-2.4c-0.8-0.8-1.8-1.2-2.5-1.5
									c-0.7-0.2-1.2-0.3-1.2-0.4c0-0.1,0.5-0.1,1.3,0s1.9,0.6,2.8,1.4c0.9,0.9,1.4,1.9,1.6,2.7C155.6,211.4,155.5,211.9,155.4,212
									z"/>
							</g>
						</g>
					</g>
				</g>
				<g>
					<g>
						<path class="st9" d="M209.1,238c0,0.1-20.9,0.3-46.6,0.3s-46.6-0.1-46.6-0.3s20.9-0.3,46.6-0.3
							C188.3,237.7,209.1,237.8,209.1,238z"/>
					</g>
				</g>
				<g>
					<g>
						<path class="st9" d="M209.1,247.7c0,0.1-20.9,0.3-46.6,0.3s-46.6-0.1-46.6-0.3c0-0.1,20.9-0.3,46.6-0.3
							C188.3,247.4,209.1,247.5,209.1,247.7z"/>
					</g>
				</g>
				<g>
					<g>
						<path class="st9" d="M209.1,257.4c0,0.1-20.9,0.3-46.6,0.3s-46.6-0.1-46.6-0.3s20.9-0.3,46.6-0.3
							C188.3,257.1,209.1,257.2,209.1,257.4z"/>
					</g>
				</g>
				<g>
					<g>
						<path class="st9" d="M209.1,267.1c0,0.1-20.9,0.3-46.6,0.3s-46.6-0.1-46.6-0.3c0-0.1,20.9-0.3,46.6-0.3
							C188.3,266.8,209.1,266.9,209.1,267.1z"/>
					</g>
				</g>
				<g>
					<g>
						<path class="st9" d="M209.1,276.7c0,0.1-20.9,0.3-46.6,0.3s-46.6-0.1-46.6-0.3s20.9-0.3,46.6-0.3
							C188.3,276.5,209.1,276.6,209.1,276.7z"/>
					</g>
				</g>
				<g>
					<g>
						<path class="st9" d="M209.1,286.4c0,0.1-20.9,0.3-46.6,0.3s-46.6-0.1-46.6-0.3c0-0.1,20.9-0.3,46.6-0.3
							C188.3,286.2,209.1,286.3,209.1,286.4z"/>
					</g>
				</g>
				<g>
					<g>
						<path class="st9" d="M209.1,296.1c0,0.1-20.9,0.3-46.6,0.3s-46.6-0.1-46.6-0.3s20.9-0.3,46.6-0.3
							C188.3,295.9,209.1,296,209.1,296.1z"/>
					</g>
				</g>
			</g>
		</g>
		<g id="Character" class="st0">
			<g>
				<g>
					<g>
						<g>
							<path class="st4" d="M325.7,392.8c24.1-8,7.6-39.9,7.6-39.9l-105.5,9.9c-8.5-0.1-15.4,6.8-15.4,15.3l0,0
								c0,8.4,6.8,15.3,15.3,15.3L325.7,392.8"/>
						</g>
					</g>
					<g>
						<g>
							<path class="st4" d="M350.4,392.8c23.5-7.9,7.3-39.9,7.3-39.9l-102.9,9.7c-10,0.1-15,5-15,15.2l0,0c0,8.4,3.1,15.5,14.9,15.3
								L350.4,392.8"/>
						</g>
					</g>
					<g>
						<g>
							<g>
								<path class="st44" d="M326.5,358.3c0,0-0.1,0-0.3,0c-0.2,0-0.5,0-0.9,0c-0.8,0-1.9,0.1-3.3,0.1c-2.9,0.1-7,0.3-12.1,0.6
									c-10.2,0.6-24.3,1.3-39.9,2.2c-1.9,0.1-3.9,0.3-5.8,0.3s-3.8,0.1-5.6,0.2c-1.8,0.1-3.6,0.2-5.4,0.4
									c-1.8,0.2-3.5,0.4-5.1,1.1c-1.6,0.6-3.1,1.5-4.3,2.7s-2,2.7-2.6,4.2s-0.9,3-1.1,4.5c-0.2,1.5-0.3,2.9-0.3,4.3
									c0,2.7,0.5,5.2,1.4,7.2s2.1,3.4,3.2,4.4c1.1,0.9,2.2,1.4,2.9,1.6s0.7,0.2,0-0.1c-0.7-0.3-1.7-0.8-2.8-1.7
									c-1.1-0.9-2.2-2.4-3.1-4.3c-0.8-1.9-1.3-4.4-1.3-7c0-1.3,0.1-2.7,0.3-4.2c0.2-1.4,0.5-2.9,1.1-4.4c0.5-1.5,1.4-2.8,2.5-4
									c1.1-1.1,2.6-2,4.1-2.6c1.6-0.6,3.3-0.8,5-1c1.8-0.2,3.6-0.3,5.4-0.4s3.7-0.2,5.6-0.2s3.8-0.2,5.8-0.3
									c15.6-0.9,29.7-1.7,39.9-2.4c5.1-0.3,9.2-0.6,12.1-0.8c1.4-0.1,2.5-0.2,3.3-0.2c0.4,0,0.6-0.1,0.9-0.1
									C326.4,358.3,326.5,358.3,326.5,358.3z"/>
							</g>
						</g>
					</g>
					<g>
						<g>
							<path class="st44" d="M349.7,368.3c0,0-0.3,0.2-0.8,0.4c-0.6,0.2-1.4,0.4-2.5,0.5c-2.1,0.2-5.3-0.5-7.7-2.9
								c-2.4-2.4-2.9-5.7-2.7-7.8c0.1-1.1,0.3-1.9,0.6-2.5c0.2-0.6,0.4-0.8,0.4-0.8c0.1,0-0.5,1.2-0.6,3.3c-0.1,2,0.5,5.1,2.7,7.4
								s5.3,3,7.3,2.9C348.5,368.8,349.7,368.2,349.7,368.3z"/>
						</g>
					</g>
				</g>
				<g>
					<g>
						<g>
							<g>
								<g>
									<path class="st7" d="M318.7,266.2c-13.1,1.5-15.2,10.4-21.3,19.1l-8.8,16.3l16.2,10l-0.6,25l-6.6,22.1l61.1-3.5l-6.8-21
										l8.1-32.1c0.6-4.4,2.3-12.5,1.2-16.8c-3.6-13.5-17.5-17.4-27.2-19.9c-2-0.5-11.6-0.5-13.2-0.1"/>
								</g>
							</g>
						</g>
					</g>
					<g>
						<g>
							<path class="st45" d="M311.8,334.6c0,0,0.9-0.2,2.2,0.5c0.6,0.4,1.3,1,1.7,1.9c0.4,0.9,0.5,2,0.2,3.1s-1,2-1.9,2.5
								s-1.8,0.6-2.5,0.6c-1.5-0.1-2.2-0.8-2.1-0.8c0-0.1,0.8,0.5,2.1,0.5c0.7,0,1.5-0.2,2.2-0.6c0.7-0.5,1.4-1.3,1.6-2.2
								c0.3-1,0.2-2-0.2-2.8c-0.4-0.8-1-1.4-1.5-1.7C312.7,334.7,311.8,334.7,311.8,334.6z"/>
						</g>
					</g>
					<g>
						<g>
							<g>
								<g>
									<path class="st9" d="M326.4,307.6c0,0.1,6.2,2.3,14,4.8c7.8,2.6,14.1,4.6,14.1,4.5s-6.2-2.3-14-4.8
										C332.7,309.5,326.4,307.5,326.4,307.6z"/>
								</g>
							</g>
						</g>
					</g>
					<g class="st46">
						<g>
							<g>
								<path d="M351.5,321c-1.1,4.6-2.7,11.3-4.5,15.7c-1.3,3.2-2.7,6.4-4.9,9c-3,3.6-7.3,6-11.8,7.2s-9.3,1.2-14,0.7l23.2-13.1
									l6.2-21.5L351.5,321z"/>
							</g>
						</g>
					</g>
					<g>
						<g>
							<g>
								<path class="st9" d="M304.3,335.9c0,0,0.1-0.6,0.2-1.8c0.1-1.2,0.1-2.9,0.2-4.8c0.2-4.1,0.4-9.7,0.6-16
									c0.2-6.2,0.3-11.9,0.4-16c0-2,0-3.6,0.1-4.9c0-1.1,0-1.8-0.1-1.8c0,0-0.1,0.6-0.2,1.8c-0.1,1.2-0.1,2.9-0.2,4.8
									c-0.2,4.1-0.4,9.7-0.6,16c-0.2,6.2-0.3,11.9-0.4,16c0,2,0,3.6-0.1,4.9C304.2,335.2,304.2,335.9,304.3,335.9z"/>
							</g>
						</g>
					</g>
					<g>
						<g>
							<g>
								<path class="st9" d="M291,297.3c-0.1,0.1,3,2.1,6.9,4.4s7.1,4,7.1,3.9c0.1-0.1-3-2.1-6.9-4.4
									C294.3,298.9,291.1,297.1,291,297.3z"/>
							</g>
						</g>
					</g>
					<g>
						<g>
							<path class="st45" d="M321.5,287.1c0,0-0.5,0.9-1.9,1.3c-0.7,0.2-1.6,0.3-2.5,0s-1.8-1-2.4-2s-0.7-2.1-0.5-3.1
								s0.7-1.7,1.3-2.2c1.1-1,2.1-1,2.1-1c0,0.1-0.9,0.2-1.8,1.2c-0.5,0.5-0.9,1.2-1.1,2s0,1.8,0.5,2.7c0.5,0.9,1.3,1.5,2.1,1.8
								c0.8,0.3,1.6,0.3,2.3,0.1C320.9,287.7,321.5,287,321.5,287.1z"/>
						</g>
					</g>
					<g>
						<g>
							<path class="st45" d="M308.7,304.3c0,0-0.6-0.7-0.5-2.2c0.1-0.7,0.3-1.6,0.9-2.4s1.6-1.4,2.7-1.5c1.1-0.2,2.2,0.1,3.1,0.6
								c0.8,0.6,1.3,1.3,1.6,2c0.5,1.4,0.2,2.3,0.2,2.3c-0.1,0,0.1-0.9-0.5-2.1c-0.3-0.6-0.8-1.3-1.5-1.7c-0.7-0.5-1.7-0.7-2.7-0.5
								s-1.9,0.7-2.4,1.3c-0.6,0.7-0.8,1.5-0.9,2.1C308.3,303.5,308.7,304.3,308.7,304.3z"/>
						</g>
					</g>
					<g>
						<g>
							<path class="st45" d="M308.7,326.4c0,0-0.6-0.7-0.5-2.2c0.1-0.7,0.3-1.6,0.9-2.4s1.6-1.4,2.7-1.5c1.1-0.2,2.2,0.1,3.1,0.6
								c0.8,0.5,1.3,1.3,1.6,2c0.5,1.4,0.2,2.3,0.2,2.3c-0.1,0,0.1-0.9-0.5-2.1c-0.3-0.6-0.8-1.3-1.5-1.7c-0.7-0.5-1.7-0.7-2.7-0.5
								s-1.9,0.7-2.4,1.3c-0.6,0.7-0.8,1.5-0.9,2.1C308.3,325.6,308.7,326.4,308.7,326.4z"/>
						</g>
					</g>
					<g>
						<g>
							<path class="st45" d="M328,298.9c0,0-1,0.1-2.1-0.8c-0.6-0.5-1.1-1.2-1.4-2.1s-0.2-2.1,0.3-3.1s1.3-1.8,2.2-2.2
								c0.9-0.4,1.8-0.4,2.5-0.2c1.4,0.3,2,1.1,2,1.1c-0.1,0.1-0.7-0.6-2-0.8c-0.7-0.1-1.5-0.1-2.3,0.3c-0.8,0.3-1.5,1-2,1.9
								c-0.4,0.9-0.5,1.9-0.3,2.8c0.2,0.8,0.7,1.5,1.2,1.9C327.1,298.7,328,298.8,328,298.9z"/>
						</g>
					</g>
					<g>
						<g>
							<path class="st45" d="M320.1,307.7c0,0,0.9,0.4,1.4,1.8c0.2,0.7,0.3,1.6,0.1,2.5c-0.2,1-0.9,1.9-1.9,2.5s-2.1,0.8-3.1,0.6
								c-1-0.2-1.7-0.7-2.2-1.2c-1-1.1-1.1-2.1-1-2c0.1,0,0.3,0.9,1.3,1.8c0.5,0.4,1.2,0.9,2.1,1c0.9,0.2,1.8,0,2.7-0.6
								c0.9-0.5,1.5-1.3,1.7-2.2c0.3-0.8,0.2-1.7,0-2.3C320.8,308.4,320.1,307.8,320.1,307.7z"/>
						</g>
					</g>
					<g>
						<g>
							<path class="st45" d="M304.2,277.8c0,0,0.9-0.2,2.2,0.5c0.6,0.4,1.3,1,1.7,1.9c0.4,0.9,0.5,2,0.2,3.1s-1,2-1.9,2.5
								s-1.8,0.6-2.5,0.6c-1.5-0.1-2.2-0.8-2.1-0.8c0-0.1,0.8,0.5,2.1,0.5c0.7,0,1.5-0.2,2.2-0.6c0.7-0.5,1.4-1.3,1.6-2.2
								c0.3-1,0.2-2-0.2-2.8c-0.4-0.8-1-1.4-1.5-1.7C305.2,277.8,304.2,277.9,304.2,277.8z"/>
						</g>
					</g>
					<g>
						<g>
							<path class="st45" d="M331.8,304.3c0,0-0.6-0.8-0.3-2.3c0.1-0.7,0.5-1.6,1.2-2.3c0.7-0.7,1.7-1.2,2.9-1.3
								c1.1-0.1,2.2,0.3,3,0.9s1.2,1.4,1.4,2.1c0.4,1.4,0,2.3-0.1,2.3s0.2-0.9-0.3-2.2c-0.2-0.6-0.7-1.3-1.3-1.9
								c-0.7-0.5-1.6-0.8-2.6-0.8c-1,0.1-1.9,0.5-2.5,1.1s-1,1.4-1.1,2C331.5,303.4,331.9,304.3,331.8,304.3z"/>
						</g>
					</g>
					<g>
						<g>
							<path class="st45" d="M321.9,320.5c0,0,0.9-0.2,2.2,0.5c0.6,0.4,1.3,1,1.7,1.9c0.4,0.9,0.5,2,0.2,3.1s-1,2-1.9,2.5
								s-1.8,0.6-2.5,0.6c-1.5-0.1-2.2-0.8-2.1-0.8c0-0.1,0.8,0.5,2.1,0.5c0.7,0,1.5-0.2,2.2-0.6c0.7-0.5,1.4-1.3,1.6-2.2
								c0.3-1,0.2-2-0.2-2.8c-0.4-0.8-1-1.4-1.5-1.7C322.8,320.5,321.9,320.6,321.9,320.5z"/>
						</g>
					</g>
					<g>
						<g>
							<path class="st45" d="M337.9,349.4c0,0-0.1-1,0.9-2.1c0.5-0.6,1.2-1.1,2.1-1.4s2.1-0.2,3.1,0.3s1.8,1.4,2.1,2.3
								c0.3,0.9,0.3,1.8,0.1,2.5c-0.4,1.4-1.2,2-1.2,1.9c-0.1-0.1,0.6-0.7,0.8-2c0.1-0.7,0.1-1.5-0.2-2.3c-0.3-0.8-1-1.6-1.9-2
								c-0.9-0.5-1.9-0.6-2.7-0.3c-0.8,0.2-1.5,0.7-2,1.2C338.1,348.5,338,349.4,337.9,349.4z"/>
						</g>
					</g>
					<g>
						<g>
							<path class="st45" d="M349.4,333.5c0,0,1,0.1,2,1.1c0.5,0.5,0.9,1.3,1.1,2.3s-0.1,2.1-0.7,3s-1.6,1.6-2.6,1.8
								c-1,0.2-1.9,0.1-2.5-0.2c-1.4-0.6-1.8-1.4-1.8-1.5c0.1-0.1,0.6,0.7,1.9,1.1c0.6,0.2,1.5,0.3,2.3,0.1c0.8-0.2,1.7-0.8,2.3-1.6
								c0.6-0.8,0.8-1.8,0.7-2.7c-0.1-0.9-0.5-1.6-0.9-2.1C350.2,333.8,349.4,333.6,349.4,333.5z"/>
						</g>
					</g>
					<g>
						<g>
							<path class="st45" d="M349.4,302.9c0,0,1,0.1,2,1.1c0.5,0.5,0.9,1.3,1.1,2.3s-0.1,2.1-0.7,3s-1.6,1.6-2.6,1.8
								c-1,0.2-1.9,0.1-2.5-0.2c-1.4-0.6-1.8-1.4-1.8-1.5c0.1-0.1,0.6,0.7,1.9,1.1c0.6,0.2,1.5,0.3,2.3,0.1c0.8-0.2,1.7-0.8,2.3-1.6
								c0.6-0.8,0.8-1.8,0.7-2.7c-0.1-0.9-0.5-1.6-0.9-2.1C350.3,303.2,349.4,303,349.4,302.9z"/>
						</g>
					</g>
					<g>
						<g>
							<path class="st45" d="M356,297.3c0,0-1,0.1-2.2-0.7c-0.6-0.4-1.2-1.1-1.5-2s-0.3-2.1,0.1-3.1s1.2-1.9,2.2-2.3
								c0.9-0.4,1.8-0.4,2.5-0.3c1.5,0.3,2.1,1,2,1.1s-0.7-0.5-2.1-0.7c-0.7-0.1-1.5,0-2.3,0.4s-1.5,1.1-1.9,2s-0.4,1.9-0.1,2.8
								c0.3,0.8,0.8,1.5,1.3,1.9C355.1,297.1,356,297.2,356,297.3z"/>
						</g>
					</g>
					<g>
						<g>
							<path class="st45" d="M344.9,280.4c0,0-1,0.1-2.2-0.7c-0.6-0.4-1.2-1.1-1.5-2s-0.3-2.1,0.1-3.1s1.2-1.9,2.2-2.3
								c0.9-0.4,1.8-0.4,2.5-0.3c1.5,0.3,2.1,1,2,1.1s-0.7-0.5-2.1-0.7c-0.7-0.1-1.5,0-2.3,0.4s-1.5,1.1-1.9,2s-0.4,1.9-0.1,2.8
								c0.3,0.8,0.8,1.5,1.3,1.9C344,280.3,344.9,280.3,344.9,280.4z"/>
						</g>
					</g>
					<g>
						<g>
							<path class="st45" d="M300.4,299.8c0,0-1,0.1-2.2-0.7c-0.6-0.4-1.2-1.1-1.5-2s-0.3-2.1,0.1-3.1s1.2-1.9,2.2-2.3
								c0.9-0.4,1.8-0.4,2.5-0.3c1.5,0.3,2.1,1,2,1.1s-0.7-0.5-2.1-0.7c-0.7-0.1-1.5,0-2.3,0.4s-1.5,1.1-1.9,2s-0.4,1.9-0.1,2.8
								c0.3,0.8,0.8,1.5,1.3,1.9C299.5,299.7,300.5,299.7,300.4,299.8z"/>
						</g>
					</g>
					<g>
						<g>
							<path class="st45" d="M345,284.3c0,0,1,0.1,2,1.1c0.5,0.5,0.9,1.3,1.1,2.3s-0.1,2.1-0.7,3s-1.6,1.6-2.6,1.8
								c-1,0.2-1.9,0.1-2.5-0.2c-1.4-0.6-1.8-1.4-1.8-1.5c0.1-0.1,0.6,0.7,1.9,1.1c0.6,0.2,1.5,0.3,2.3,0.1c0.8-0.2,1.7-0.8,2.3-1.6
								c0.6-0.8,0.8-1.8,0.7-2.7c-0.1-0.9-0.5-1.6-0.9-2.1C345.9,284.6,345,284.4,345,284.3z"/>
						</g>
					</g>
					<g>
						<g>
							<g>
								<g>
									<path class="st9" d="M359,301.9c0,0-0.1,0.1-0.1,0.3c-0.1,0.3-0.2,0.6-0.3,1c-0.3,0.9-0.7,2.3-1.3,3.9
										c-1.1,3.4-2.6,8.3-4.4,14.3l0.2-0.1c-7.6-2.8-17-6.3-27.2-10c-0.2-0.1-0.5-0.2-0.7-0.3l0.1,0.2c1.8-6.5,4-12.6,6.4-17.9
										s5.1-9.9,8.1-13.1c1.5-1.6,3-2.9,4.6-3.7c1.5-0.8,3-1.2,4.2-1.2c0.3,0,0.6-0.1,0.9,0c0.3,0,0.5,0.1,0.8,0.1
										c0.2,0,0.5,0,0.6,0.1c0.2,0.1,0.4,0.1,0.5,0.1c0.3,0.1,0.5,0.1,0.7,0.2c0.2,0,0.2,0.1,0.2,0.1s-0.1,0-0.2-0.1
										c-0.2-0.1-0.4-0.1-0.7-0.2c-0.2,0-0.3-0.1-0.5-0.2c-0.2,0-0.4-0.1-0.7-0.1c-0.2,0-0.5-0.1-0.8-0.1s-0.6,0-0.9,0
										c-1.2,0-2.8,0.4-4.3,1.2c-1.6,0.8-3.2,2.1-4.7,3.7c-3,3.2-5.8,7.8-8.2,13.1c-2.4,5.3-4.6,11.4-6.4,17.9v0.2l0.2,0.1
										c0.2,0.1,0.4,0.2,0.7,0.3c10.2,3.8,19.6,7.2,27.2,10l0.2,0.1v-0.2c1.8-6,3.3-10.9,4.3-14.3c0.5-1.7,0.9-3,1.2-4
										c0.1-0.4,0.2-0.8,0.3-1C359,302,359.1,301.9,359,301.9z"/>
								</g>
							</g>
						</g>
					</g>
				</g>
				<g>
					<path class="st47" d="M307.7,318.3l-5.3,16.5c-2,6.8-7.7,11.9-14.8,13.2l-35.2,6.6l-9.6-0.3l9.6-11.8l26.4-9
						c2.6-0.6,4.7-2.5,5.3-5.1l10.5-22.9l13.3,8.2L307.7,318.3z"/>
				</g>
				<g>
					<path class="st47" d="M348.9,319.8l-5.7,18.7c-2,6.9-7.7,12.1-14.8,13.4l-35.2,6.7l-9.6-0.3l3.3-8.2l32.7-12.9
						c2.6-0.6,4.7-2.6,5.3-5.1l4.9-18.9L348.9,319.8z"/>
				</g>
				<g>
					<g>
						<g>
							<polygon class="st48" points="317.7,358.9 317.4,356.6 290.4,355.6 277.2,322.2 226.7,325.6 243.7,362.7 							"/>
						</g>
					</g>
					<g>
						<g>
							<path class="st11" d="M257.3,343.8c0.8,1.2,2.4,1.6,3.7,0.8c1.2-0.8,1.6-2.4,0.8-3.7c-0.8-1.2-2.4-1.6-3.7-0.8
								C256.9,341,256.5,342.6,257.3,343.8z"/>
						</g>
					</g>
				</g>
				<g>
					<g>
						<g>
							<path class="st9" d="M333.3,208.1c7.9,0.4,15.3,6,17.9,13.4c0.5,1.4,0.8,2.9,1.4,4.2s1.6,2.6,2.9,3.2c1,0.4,2.1,0.5,3.1,0.9
								c1.7,0.6,3,2.2,3.5,4c0.4,1.8,0,3.7-0.9,5.3c-0.5,0.8-1.1,1.5-1.2,2.5c0,0.6,0.2,1.2,0.4,1.8c0.5,2.1-0.5,4.4-2.3,5.5
								s-4.3,0.8-5.9-0.6c-0.7,1.5-1.5,3.1-3,3.8s-3.7,0.1-4-1.6c-0.7,1.6-2.6,2.5-4.3,2.2c-1.7-0.3-3.1-1.9-3.2-3.6"/>
						</g>
						<g>
							<g>
								<path class="st7" d="M309.3,232.7c-3.3-3.8-3.3-9.8-1-14.3c2.4-4.5,6.7-7.5,11.3-9.3c6.4-2.5,13.9-2.8,19.7,1
									c5,3.3,7.9,9.5,7.4,15.5s-4.4,11.6-9.9,14"/>
							</g>
							<g>
								<g>
									<path class="st45" d="M347,223.4c0,0.1-1.1,0.1-2.3,0.3c-1.3,0.1-2.3,0.3-2.3,0.2s1-0.6,2.3-0.7
										C345.9,223.1,347,223.3,347,223.4z"/>
								</g>
							</g>
							<g>
								<g>
									<path class="st45" d="M343.9,215.1c0,0.1-1,0.2-2.1,0.5s-2,0.6-2.1,0.5s0.8-0.7,2-1S343.9,215,343.9,215.1z"/>
								</g>
							</g>
							<g>
								<g>
									<path class="st45" d="M337.9,209.5c0,0.2-1.4,0.3-3,0.9c-1.6,0.5-2.8,1.2-2.9,1.1c-0.1-0.1,1.1-1,2.7-1.6
										C336.5,209.3,337.9,209.4,337.9,209.5z"/>
								</g>
							</g>
							<g>
								<g>
									<path class="st45" d="M328,207.3c0,0.1-1.2,0.6-2.5,1.5s-2.1,2-2.2,1.9s0.5-1.4,1.9-2.4C326.5,207.4,328,207.2,328,207.3z"
										/>
								</g>
							</g>
							<g>
								<g>
									<path class="st45" d="M316.5,211c0.1,0.1-0.3,0.5-0.7,1.1c-0.3,0.4-0.4,0.8-0.5,1l-0.2,0.4v-0.3c0-0.1,0-0.2,0.1-0.2
										c0,0,0.1,0,0.2,0.1h-0.2c0-0.2,0-0.7,0.3-1.2C315.8,211.1,316.4,210.9,316.5,211z"/>
								</g>
							</g>
							<g>
								<g>
									<path class="st45" d="M344.9,232.2c0,0.1-0.9,0.2-1.9-0.1s-1.7-0.9-1.7-1c0.1-0.1,0.8,0.2,1.8,0.5
										C344,231.9,344.9,232,344.9,232.2z"/>
								</g>
							</g>
						</g>
						<g>
							<g>
								<path class="st9" d="M360.6,224.2c0,0-0.2,0.7-1.2,1c-0.5,0.2-1.2,0.2-1.9-0.2c-0.7-0.4-1.2-1.2-1.3-2.2
									c-0.1-1,0.5-2.1,1.4-2.7c1-0.6,2.3-0.7,3.5-0.2c1.1,0.5,2.1,1.7,2.4,3.1c0.3,1.4-0.1,2.9-1,4c-0.9,1.2-2.4,1.7-3.8,1.6
									c-1.4,0-2.6-0.5-3.7-1.2c-2.1-1.4-3.3-3.3-4.3-4.7c-1-1.5-1.9-2.7-2.6-3.4s-1.1-1.1-1.1-1.1s0.1,0.1,0.4,0.2
									c0.2,0.2,0.5,0.4,0.9,0.8c0.7,0.7,1.7,1.9,2.8,3.3c1.1,1.4,2.3,3.3,4.3,4.5c1,0.6,2.2,1,3.4,1.1c1.2,0,2.6-0.4,3.4-1.5
									c0.8-1,1.1-2.4,0.9-3.6c-0.2-1.2-1-2.2-2.1-2.7c-1-0.5-2.2-0.4-3,0.1c-0.9,0.5-1.3,1.4-1.3,2.3c0,0.9,0.5,1.6,1,1.9
									c0.6,0.4,1.2,0.4,1.7,0.3C360.3,224.7,360.6,224.1,360.6,224.2z"/>
							</g>
						</g>
					</g>
					<g>
						<g>
							<g>
								<g>
									<g>
										<g>
											<g>
												<g>
													<g>
														<g>
															<path class="st47" d="M336.8,218.8c1.8,0.2,3.1,1.8,3.1,3.6l0,0l-1.9,47.7c-0.1,5.6-10,12.3-15.9,12.2l0,0
																c-5.9-0.1-4.2-6.6-4.3-12c-0.1-9-0.1-12.3-0.1-12.3s-7.5-1.3-9-11.3c-0.8-5-0.5-13.2-0.1-19.9
																c0.4-6,4.2-13.4,10.1-12.8L336.8,218.8z"/>
														</g>
													</g>
												</g>
											</g>
											<g>
												<g>
													<g>
														<g>
															<g>
																<path class="st9" d="M311,233.4c0,0.7,0.5,1.3,1.2,1.3s1.3-0.5,1.3-1.2s-0.5-1.3-1.2-1.3
																	C311.6,232.2,311,232.7,311,233.4z"/>
															</g>
														</g>
													</g>
												</g>
												<g>
													<g>
														<g>
															<g>
																<g>
																	<path class="st9" d="M310.2,231.2c0.2,0.2,1.1-0.6,2.5-0.6c1.3,0,2.3,0.7,2.5,0.5c0.1-0.1-0.1-0.4-0.5-0.7
																		s-1.1-0.6-2-0.6c-0.8,0-1.5,0.3-2,0.6C310.3,230.8,310.1,231.1,310.2,231.2z"/>
																</g>
															</g>
														</g>
													</g>
												</g>
											</g>
											<g>
												<g>
													<g>
														<g>
															<g>
																<path class="st9" d="M324.2,233.4c0,0.7,0.5,1.3,1.2,1.3s1.3-0.5,1.3-1.2s-0.5-1.3-1.2-1.3S324.2,232.7,324.2,233.4
																	z"/>
															</g>
														</g>
													</g>
												</g>
												<g>
													<g>
														<g>
															<g>
																<g>
																	<path class="st9" d="M323.4,231.4c0.2,0.2,1.1-0.6,2.5-0.6c1.3,0,2.3,0.7,2.5,0.5c0.1-0.1-0.1-0.4-0.5-0.7
																		s-1.1-0.6-2-0.6c-0.8,0-1.5,0.3-2,0.6C323.5,231,323.4,231.3,323.4,231.4z"/>
																</g>
															</g>
														</g>
													</g>
												</g>
											</g>
											<g>
												<g>
													<g>
														<g>
															<g>
																<path class="st9" d="M318.5,241.7c0-0.1-0.8-0.2-2.2-0.4c-0.3,0-0.7-0.1-0.7-0.3c-0.1-0.3,0.1-0.6,0.2-1
																	c0.3-0.9,0.7-1.8,1-2.7c1.4-3.8,2.4-7,2.3-7.1c-0.2-0.1-1.4,3-2.8,6.8c-0.3,0.9-0.7,1.8-1,2.7
																	c-0.1,0.4-0.4,0.9-0.2,1.4c0.1,0.3,0.3,0.5,0.6,0.5c0.2,0.1,0.4,0.1,0.6,0.1C317.7,241.8,318.5,241.8,318.5,241.7z"
																	/>
															</g>
														</g>
													</g>
												</g>
											</g>
											<g>
												<g>
													<g>
														<g>
															<path class="st49" d="M317.6,258.1c0,0,6.6,0.4,13.1-3.6c0,0-3.2,6.9-12.9,6L317.6,258.1z"/>
														</g>
													</g>
												</g>
											</g>
											<g>
												<g>
													<g>
														<g>
															<path class="st49" d="M319.1,245c0.5-0.7,1.3-1,2.2-0.9c0.6,0.1,1.2,0.4,1.5,0.8c0.4,0.5,0.4,1.2,0.1,1.7
																c-0.4,0.5-1.1,0.6-1.8,0.5c-0.6-0.2-1.2-0.6-1.7-1.1c-0.1-0.1-0.3-0.2-0.4-0.4C319,245.4,318.9,245.2,319.1,245"/>
														</g>
													</g>
												</g>
											</g>
											<g>
												<g>
													<g>
														<g>
															<g>
																<path class="st9" d="M322.5,242.7c-0.2,0-0.2,1.5-1.5,2.6c-1.2,1.1-2.8,0.9-2.8,1.1c0,0.1,0.3,0.3,1,0.3
																	c0.6,0,1.6-0.2,2.4-0.8c0.8-0.7,1.1-1.5,1.1-2.1C322.8,243,322.6,242.6,322.5,242.7z"/>
															</g>
														</g>
													</g>
												</g>
											</g>
										</g>
									</g>
								</g>
								<g>
									<g>
										<g>
											<g>
												<path class="st9" d="M322.8,229c0.1,0.4,1.5,0.2,3.1,0.4s2.9,0.6,3.1,0.3c0.1-0.2-0.1-0.5-0.6-0.9s-1.3-0.7-2.3-0.8
													c-0.9-0.1-1.8,0-2.4,0.3C323.1,228.5,322.8,228.8,322.8,229z"/>
											</g>
										</g>
									</g>
								</g>
								<g>
									<g>
										<g>
											<g>
												<path class="st9" d="M310.7,227.1c0.2,0.3,1.2,0,2.3,0c1.1-0.1,2.1,0.2,2.3-0.1c0.1-0.2-0.1-0.5-0.5-0.8
													s-1.1-0.5-1.9-0.5s-1.4,0.3-1.8,0.6C310.7,226.7,310.6,227,310.7,227.1z"/>
											</g>
										</g>
									</g>
								</g>
							</g>
						</g>
						<g>
							<path class="st47" d="M338.8,234.9c0.7-0.5,1.8-0.3,2.6,0.1c1.8,1.1,2.7,3.5,2,5.5s-2.8,3.4-4.9,3.1"/>
						</g>
						<g>
							<path class="st9" d="M323.4,210.8c-3.6,0.1-6.3,1.2-9.4,3s-5.7,4.7-6.7,8.2c-0.2,0.7-0.3,1.6,0.1,2.3c0.5,0.9,1.8,1,2.7,0.6
								c0.9-0.4,1.6-1.3,2.2-2.1c0.5,1.8,2.2,3.2,4.1,3.2c1.8,0,3.6-1.5,4-3.3c0,1.9,1.9,3.5,3.8,3.5c1.9-0.1,3.5-1.6,4.2-3.4
								c0.3,1.7,0.7,3.5,1.7,4.9s2.8,2.4,4.4,1.9c-0.2,1.5-0.5,3.1,0.1,4.5c0.5,1.4,2,2.6,3.4,2.1s1.9-2.1,2.2-3.6
								c0.6-2.8,1.1-5.6,1-8.4c-0.1-2.8-0.8-5.7-2.5-8s-4.4-3.8-7.2-4.5c-2.8-0.7-5.6-0.8-8.5-0.8"/>
						</g>
						<g>
							<g>
								<path class="st49" d="M339.4,240.7c0-0.1,0.4,0.1,0.9-0.1c0.5-0.2,0.9-0.9,0.8-1.7c0-0.8-0.6-1.4-1-1.6
									c-0.5-0.2-0.8-0.1-0.9-0.2c0,0,0.3-0.3,1-0.2c0.3,0.1,0.7,0.3,1,0.6s0.5,0.8,0.5,1.3c0.1,1-0.5,1.9-1.2,2.1
									C339.8,241.1,339.4,240.7,339.4,240.7z"/>
							</g>
						</g>
						<g>
							<g>
								<path class="st4" d="M343.2,241.2c0,0,0.1,0,0.4,0.1s0.6,0.2,1.1,0.5c0.9,0.5,2.2,1.4,3.2,3.1c0.5,0.8,0.8,1.9,0.9,3
									c0.1,1.2-0.2,2.4-0.8,3.5c-0.6,1.1-1.5,2.2-2.6,3s-2.5,1.3-4,1.3c-3,0-5.5-1.9-6.6-4.2c-0.6-1.1-0.8-2.4-0.7-3.6
									c0.1-1.1,0.5-2.2,0.9-3c1-1.7,2.3-2.6,3.2-3c0.5-0.2,0.9-0.3,1.1-0.4c0.3,0,0.4-0.1,0.4,0s-0.6,0.1-1.5,0.6s-2.1,1.4-3,3
									c-0.4,0.8-0.8,1.8-0.8,2.9c-0.1,1.1,0.1,2.2,0.7,3.3c1.1,2.1,3.4,3.9,6.2,3.9c2.7,0,5.1-1.9,6.2-4c1.2-2.1,1-4.6,0-6.1
									c-0.9-1.6-2.1-2.6-3-3.1C343.7,241.5,343.1,241.3,343.2,241.2z"/>
							</g>
						</g>
					</g>
				</g>
			</g>
		</g>
		<g id="Plant" class="st0">
			<g>
				<g>
					<g>
						<g>
							<path class="st7" d="M72.4,370.8c0,0,0-0.1,0.2-0.4c0.1-0.3,0.3-0.6,0.5-1c0.4-0.9,1-2.3,1.4-4.2c1-3.7,1.3-9.4-0.1-16.2
								c-0.7-3.4-1.7-7-3-10.9s-2.8-8-4-12.4s-2.1-9.2-2-14.3c0.2-5,1.7-10.1,3.3-15.1c1.6-5,3.3-9.9,3.8-14.9
								c0.6-4.9-0.5-9.8-2.7-13.7c-2.2-4-4.9-7.4-7-11c-2.1-3.5-3.4-7.2-4.2-10.6c-1.6-6.8-1-12.6-0.3-16.3C59.1,226,60,224,60,224
								s0,0.1-0.1,0.4c-0.1,0.3-0.2,0.6-0.3,1.1c-0.3,1-0.7,2.4-1.1,4.3c-0.7,3.8-1.2,9.5,0.4,16.2c0.8,3.3,2.1,6.9,4.2,10.4
								c2,3.5,4.8,6.9,7,11c2.3,4,3.4,9,2.8,14c-0.5,5-2.2,10-3.9,15c-1.6,5-3.1,10-3.3,14.9c-0.2,5,0.7,9.7,1.9,14.1
								c1.2,4.4,2.6,8.5,3.9,12.4s2.3,7.5,3,11c1.4,6.8,1,12.6,0,16.3c-0.5,1.9-1.1,3.3-1.5,4.2c-0.2,0.4-0.4,0.8-0.5,1
								C72.5,370.7,72.4,370.8,72.4,370.8z"/>
						</g>
					</g>
					<g>
						<g>
							<path class="st7" d="M65.7,260.3c0,0-4.2-13.3,3.3-21.1c0.3-0.3,0.7-0.1,0.8,0.2C70.2,241.6,70.7,248.3,65.7,260.3z"/>
						</g>
						<g>
							<g>
								<path class="st7" d="M68.2,243.6c0.1,0,0,0.9-0.3,2.5c-0.3,1.7-0.6,3.7-0.9,5.9s-0.7,4.2-0.9,5.9c-0.2,1.5-0.4,2.4-0.4,2.4
									c-0.1,0-0.1-1,0.1-2.5c0.1-1.5,0.4-3.6,0.8-5.9c0.4-2.3,0.8-4.4,1.1-5.8C67.9,244.5,68.1,243.6,68.2,243.6z"/>
							</g>
						</g>
					</g>
					<g>
						<g>
							<path class="st7" d="M70.6,291.6c0,0,2.5-13.7,12.8-17.1c0.4-0.1,0.7,0.2,0.6,0.6C83.3,277.2,80.6,283.4,70.6,291.6z"/>
						</g>
						<g>
							<g>
								<path class="st7" d="M80.6,278.1c0.1,0-0.5,0.8-1.4,2c-1,1.4-2.2,3-3.6,4.7c-1.3,1.8-2.5,3.4-3.6,4.7
									c-0.9,1.2-1.5,2-1.5,1.9c-0.1,0,0.4-0.9,1.2-2.1c0.8-1.3,2-3,3.5-4.8c1.4-1.9,2.7-3.5,3.7-4.7
									C79.9,278.7,80.5,278,80.6,278.1z"/>
							</g>
						</g>
					</g>
					<g>
						<g>
							<path class="st7" d="M67.8,325.9c0,0-1.5-13.8,7.3-20.1c0.3-0.2,0.7,0,0.7,0.4C75.8,308.5,75,315.2,67.8,325.9z"/>
						</g>
						<g>
							<g>
								<path class="st7" d="M73.5,310.1c0.1,0-0.2,0.9-0.7,2.4c-0.6,1.6-1.3,3.5-2,5.6c-0.8,2.1-1.4,4-2,5.6
									c-0.5,1.4-0.8,2.3-0.9,2.3s0.1-0.9,0.5-2.4s1.1-3.5,1.9-5.6c0.8-2.2,1.6-4.1,2.2-5.5C73,310.9,73.4,310.1,73.5,310.1z"/>
							</g>
						</g>
					</g>
					<g>
						<g>
							<path class="st7" d="M75.6,360.5c0,0-1-13.9,8-19.8c0.3-0.2,0.7,0,0.7,0.4C84.1,343.3,83.1,350,75.6,360.5z"/>
						</g>
						<g>
							<g>
								<path class="st7" d="M81.7,344.8c0.1,0-0.3,0.9-0.8,2.3c-0.6,1.6-1.4,3.4-2.2,5.5c-0.8,2.1-1.6,3.9-2.2,5.5
									c-0.6,1.4-0.9,2.3-1,2.3s0.2-0.9,0.6-2.4c0.5-1.4,1.2-3.4,2.1-5.6c0.9-2.1,1.7-4.1,2.4-5.4
									C81.2,345.6,81.7,344.8,81.7,344.8z"/>
							</g>
						</g>
					</g>
					<g>
						<g>
							<path class="st7" d="M59.8,248.6c0,0-12.3-6.4-12.6-17.2c0-0.4,0.4-0.6,0.7-0.4C49.7,232.2,54.8,236.6,59.8,248.6z"/>
						</g>
						<g>
							<g>
								<path class="st7" d="M49.7,235.1c0.1,0,0.6,0.7,1.5,1.9c1,1.4,2.2,3,3.5,4.8s2.5,3.4,3.5,4.8c0.9,1.2,1.5,2,1.4,2
									s-0.7-0.6-1.7-1.8s-2.3-2.8-3.6-4.7c-1.4-1.9-2.5-3.6-3.4-4.9C50.1,235.9,49.7,235.1,49.7,235.1z"/>
							</g>
						</g>
					</g>
					<g>
						<g>
							<path class="st7" d="M73,277.1c0,0-12.7-5.7-13.6-16.4c0-0.4,0.4-0.6,0.7-0.4C62,261.4,67.3,265.5,73,277.1z"/>
						</g>
						<g>
							<g>
								<path class="st7" d="M62.2,264.2c0.1,0,0.7,0.7,1.7,1.8c1.1,1.3,2.4,2.9,3.8,4.6s2.7,3.3,3.8,4.6c1,1.2,1.6,1.9,1.5,1.9
									c0,0-0.8-0.6-1.8-1.7s-2.4-2.7-3.9-4.5s-2.8-3.5-3.7-4.7C62.7,265.1,62.1,264.3,62.2,264.2z"/>
							</g>
						</g>
					</g>
					<g>
						<g>
							<path class="st7" d="M65.7,309c0,0-8.7-10.8-4.6-20.8c0.1-0.3,0.6-0.4,0.8-0.1C63.1,290,66,296,65.7,309z"/>
						</g>
						<g>
							<g>
								<path class="st7" d="M61.9,292.6c0.1,0,0.3,0.9,0.6,2.4c0.4,1.7,0.8,3.6,1.3,5.8c0.5,2.2,0.9,4.1,1.3,5.8
									c0.3,1.5,0.6,2.4,0.5,2.4s-0.4-0.9-0.8-2.3c-0.4-1.5-0.9-3.5-1.4-5.8s-0.9-4.3-1.1-5.8C62,293.5,61.9,292.6,61.9,292.6z"/>
							</g>
						</g>
					</g>
					<g>
						<g>
							<path class="st7" d="M74.3,346.4c0,0-12.6-5.9-13.3-16.6c0-0.4,0.4-0.6,0.7-0.4C63.6,330.5,68.9,334.7,74.3,346.4z"/>
						</g>
						<g>
							<g>
								<path class="st7" d="M63.7,333.4c0.1,0,0.7,0.7,1.6,1.9c1.1,1.3,2.3,2.9,3.7,4.7c1.4,1.7,2.6,3.3,3.7,4.6
									c1,1.2,1.5,1.9,1.5,2c0,0-0.7-0.6-1.8-1.7c-1-1.1-2.4-2.7-3.8-4.6c-1.4-1.8-2.7-3.5-3.6-4.8
									C64.2,334.2,63.7,333.4,63.7,333.4z"/>
							</g>
						</g>
					</g>
					<g>
						<g>
							<g>
								<path class="st7" d="M99.5,291.7c0,0,0,0.1,0,0.3c0,0.2,0,0.5,0,0.9c0,0.8-0.1,2-0.1,3.4c-0.2,3-0.4,7.1-0.7,12.1l0,0l0,0
									c-0.9,5-3.5,10.6-6.9,16c-2.5,4-5.2,7.6-7.5,11s-4.2,6.5-5.6,9.3s-2.2,5.1-2.6,6.8c-0.2,0.8-0.4,1.5-0.5,1.9
									s-0.2,0.7-0.2,0.7s0-0.2,0.1-0.7s0.2-1.1,0.4-2c0.4-1.7,1.2-4.1,2.5-6.9s3.2-6,5.5-9.4s4.9-7,7.4-11
									c3.4-5.4,6-10.9,6.9-15.9l0,0c0.3-4.9,0.6-9.1,0.8-12c0.1-1.4,0.2-2.5,0.3-3.4c0-0.4,0.1-0.6,0.1-0.9
									C99.4,291.8,99.5,291.7,99.5,291.7z"/>
							</g>
						</g>
						<g>
							<g>
								<path class="st7" d="M92,323.3c0,0,5.3-12.9-1.4-21.3c-0.2-0.3-0.7-0.2-0.8,0.2C89.2,304.4,88.1,311,92,323.3z"/>
							</g>
							<g>
								<g>
									<path class="st7" d="M91,306.5c0.1,0,0.2,0.9,0.4,2.4c0.2,1.5,0.4,3.6,0.6,5.9s0.2,4.4,0.2,5.9s-0.1,2.5-0.1,2.5
										c-0.1,0-0.1-0.9-0.2-2.5c-0.1-1.7-0.2-3.7-0.4-5.9c-0.2-2.2-0.3-4.2-0.4-5.9C90.9,307.5,90.9,306.6,91,306.5z"/>
								</g>
							</g>
							<g class="st46">
								<path class="st7" d="M92,323.3c0,0,5.3-12.9-1.4-21.3c-0.2-0.3-0.7-0.2-0.8,0.2C89.2,304.4,88.1,311,92,323.3z"/>
							</g>
						</g>
						<g>
							<g>
								<path class="st7" d="M75.4,354.3c0,0,4.3-13.2-3.1-21.1c-0.3-0.3-0.7-0.2-0.8,0.2C71.1,335.6,70.5,342.3,75.4,354.3z"/>
							</g>
							<g>
								<g>
									<path class="st7" d="M73.1,337.7c0.1,0,0.3,0.9,0.6,2.4c0.3,1.5,0.7,3.6,1,5.9c0.4,2.3,0.6,4.4,0.7,5.9s0.1,2.5,0.1,2.5
										c-0.1,0-0.2-0.9-0.4-2.4c-0.3-1.7-0.5-3.7-0.9-5.9c-0.3-2.2-0.6-4.2-0.9-5.9C73.1,338.6,73,337.7,73.1,337.7z"/>
								</g>
							</g>
							<g class="st46">
								<path class="st7" d="M75.4,354.3c0,0,4.3-13.2-3.1-21.1c-0.3-0.3-0.7-0.2-0.8,0.2C71.1,335.6,70.5,342.3,75.4,354.3z"/>
							</g>
						</g>
						<g>
							<g>
								<path class="st7" d="M98.8,307.6c0,0,11.4-8,10.3-18.7c0-0.4-0.5-0.6-0.8-0.3C106.6,290.1,102.1,295.1,98.8,307.6z"/>
							</g>
							<g class="st46">
								<path class="st7" d="M98.8,307.6c0,0,11.4-8,10.3-18.7c0-0.4-0.5-0.6-0.8-0.3C106.6,290.1,102.1,295.1,98.8,307.6z"/>
							</g>
							<g>
								<g>
									<path class="st7" d="M106.9,292.9c0.1,0-0.3,0.9-0.9,2.3c-0.7,1.4-1.6,3.3-2.7,5.3s-2.2,3.9-3,5.1c-0.8,1.3-1.4,2-1.4,2
										c-0.1,0,0.4-0.9,1.1-2.2c0.8-1.5,1.8-3.3,2.8-5.2c1.1-2,2-3.7,2.8-5.2C106.4,293.7,106.9,292.9,106.9,292.9z"/>
								</g>
							</g>
						</g>
						<g>
							<g>
								<path class="st7" d="M80,341.2c0,0,13.8-2.1,17.4-12.3c0.1-0.4-0.2-0.7-0.6-0.6C94.8,328.9,88.5,331.4,80,341.2z"/>
							</g>
							<g class="st46">
								<path class="st7" d="M80,341.2c0,0,13.8-2.1,17.4-12.3c0.1-0.4-0.2-0.7-0.6-0.6C94.8,328.9,88.5,331.4,80,341.2z"/>
							</g>
							<g>
								<g>
									<path class="st7" d="M93.8,331.6c0,0.1-0.7,0.7-1.9,1.6c-1.2,0.9-2.9,2.2-4.8,3.6s-3.6,2.5-4.9,3.3s-2.1,1.2-2.2,1.2
										c0-0.1,0.7-0.6,2-1.5c1.4-1,3-2.1,4.8-3.4s3.4-2.4,4.8-3.4C93,332.1,93.8,331.5,93.8,331.6z"/>
								</g>
							</g>
						</g>
					</g>
				</g>
				<g>
					<polygon class="st6" points="66.9,366.5 62.9,393.5 87.9,393.5 84.6,366.5 					"/>
				</g>
				<g>
					<g>
						<path class="st7" d="M85.6,374.9c0,0.1-4.5,0.3-10.1,0.3s-10.1-0.1-10.1-0.3c0-0.1,4.5-0.3,10.1-0.3S85.6,374.7,85.6,374.9z"
							/>
					</g>
				</g>
				<g>
					<g>
						<path class="st7" d="M86.1,377c0,0.1-4.7,0.3-10.4,0.3c-5.8,0-10.4-0.1-10.4-0.3s4.7-0.3,10.4-0.3
							C81.5,376.8,86.1,376.9,86.1,377z"/>
					</g>
				</g>
			</g>
		</g>
	</g>
</g>
</svg>
