<?xml version="1.0" encoding="utf-8"?>
<!-- Generator: Adobe Illustrator 22.1.0, SVG Export Plug-In . SVG Version: 6.00 Build 0)  -->
<svg version="1.1" xmlns="http://www.w3.org/2000/svg" xmlns:xlink="http://www.w3.org/1999/xlink" x="0px" y="0px"
	 viewBox="0 0 423.2 456.2" style="enable-background:new 0 0 423.2 456.2;" xml:space="preserve">
<style type="text/css">
	.st0{opacity:0.8;}
	.st1{fill:#5656BA;}
	.st2{fill:#4A27A0;}
	.st3{fill:#0B96AD;}
	.st4{fill:#66BBCF;}
	.st5{fill:#FFFFFF;}
	.st6{fill:#E0E0E0;}
	.st7{fill:none;stroke:#FBFBFB;stroke-width:0.25;stroke-miterlimit:10;}
	.st8{fill:#DE206E;}
	.st9{fill:#F5F5F5;}
	.st10{fill:#B3B3F4;}
	.st11{opacity:0.4;}
	.st12{opacity:0.2;}
	.st13{fill:#FAFAFA;}
	.st14{fill:#455A64;}
	.st15{fill:#EBEBEB;}
	.st16{opacity:0.3;}
	.st17{fill:#263238;}
	.st18{fill:#FECAD0;}
	.st19{fill:#D37F8B;}
	.st20{fill:#EB996E;}
	.st21{fill:none;stroke:#FFF2EC;stroke-miterlimit:10;}
</style>
<g id="Background_Complete">
	<g class="st0">
		<g>
			<path class="st1" d="M369.3,348.9h-46.7l-8.7,22.6H282l48.8-116.3h30.8l48.9,116.3H378L369.3,348.9z M360.2,324.7L346,287.5
				l-14.2,37.2H360.2z"/>
		</g>
	</g>
	<g>
		<g>
			<path class="st2" d="M152.9,221.6c0,16.6-13.8,26.4-39.6,26.4h-52v-96.3h49.3c25.3,0,37.7,10.3,37.7,25.2
				c0,9.2-4.7,16.6-12.9,20.9C146.2,201.6,152.9,209.9,152.9,221.6z M88.3,171.4v18.6H107c9.1,0,13.8-3.2,13.8-9.4
				c0-6.1-4.7-9.2-13.8-9.2H88.3z M125.4,218.6c0-6.6-5-9.8-14.3-9.8H88.3v19.5h22.8C120.5,228.3,125.4,225.2,125.4,218.6z"/>
		</g>
	</g>
	<g>
		<g>
			<g>
				<g>
					<rect x="279.2" y="20.4" class="st3" width="125" height="181.2"/>
				</g>
			</g>
		</g>
		<g>
			<g>
				<g>
					<rect x="273" y="20.4" class="st4" width="125" height="181.2"/>
				</g>
			</g>
		</g>
		<g>
			<g>
				<g>
					<g>
						<rect x="288.5" y="40" class="st5" width="94" height="142"/>
					</g>
				</g>
			</g>
			<g>
				<g>
					<g>
						<g>
							<path class="st6" d="M382.5,182c0,0,0-0.2,0-0.7c0-0.5,0-1.1,0-2c0-1.8,0-4.4,0-7.8c0-6.8,0-16.7-0.1-29.2
								c0-25-0.1-60.5-0.2-102.2l0.3,0.3c-28.7,0-60.5,0-94,0h0l0.3-0.3c0,53.6,0,102.9-0.1,142l-0.3-0.3
								c28.6,0.1,52.1,0.1,68.4,0.1c8.2,0,14.5,0.1,18.9,0.1c2.2,0,3.8,0,5,0C381.9,182,382.5,182,382.5,182s-0.6,0-1.7,0
								c-1.1,0-2.8,0-4.9,0c-4.3,0-10.7,0-18.8,0.1c-16.4,0-39.9,0.1-68.6,0.1l-0.3,0l0-0.3c0-39,0-88.4-0.1-142l0-0.3h0.3h0
								c33.4,0,65.3,0,94,0l0.3,0l0,0.3c-0.1,41.8-0.1,77.4-0.2,102.4c0,12.5-0.1,22.4-0.1,29.2c0,3.4,0,6,0,7.7c0,0.9,0,1.5,0,2
								C382.5,181.8,382.5,182,382.5,182z"/>
						</g>
					</g>
				</g>
			</g>
		</g>
		<g>
			<g>
				<g>
					<g>
						<path class="st6" d="M398.4,20.4c0.1,0.1-0.8,1.3-2.2,3.2c-1.5,1.9-3.5,4.6-5.9,7.4c-2.4,2.9-4.6,5.4-6.2,7.2
							c-1.6,1.8-2.7,2.9-2.8,2.8c-0.1-0.1,0.9-1.2,2.4-3.1c1.7-2,3.7-4.5,6-7.3c2.3-2.8,4.3-5.3,6-7.3
							C397.3,21.5,398.3,20.3,398.4,20.4z"/>
					</g>
				</g>
			</g>
		</g>
		<g>
			<g>
				<g>
					<g>
						<path class="st5" d="M383,181.5c4.7,7.4,10.2,14.3,16.4,20.5"/>
					</g>
				</g>
			</g>
			<g>
				<g>
					<g>
						<g>
							<path class="st6" d="M399.3,202c-0.1,0.1-1.2-0.9-2.9-2.6c-1.7-1.7-3.9-4.1-6.2-7c-2.3-2.8-4.2-5.6-5.4-7.6
								c-1.3-2-2-3.3-1.9-3.4c0.1-0.1,0.9,1.2,2.3,3.1c1.4,1.9,3.3,4.6,5.6,7.4c2.3,2.8,4.4,5.3,6,7.1
								C398.4,200.9,399.4,202,399.3,202z"/>
						</g>
					</g>
				</g>
			</g>
		</g>
		<g>
			<g>
				<g>
					<g>
						<path class="st5" d="M272.9,201.5c5.5-6.7,10.9-13.5,16.4-20.2"/>
					</g>
				</g>
			</g>
			<g>
				<g>
					<g>
						<g>
							<path class="st6" d="M289.3,181.3c0.1,0.1-3.4,4.7-7.9,10.3c-4.5,5.6-8.3,10-8.5,9.9c-0.1-0.1,3.4-4.7,7.9-10.3
								C285.4,185.6,289.2,181.2,289.3,181.3z"/>
						</g>
					</g>
				</g>
			</g>
		</g>
		<g>
			<g>
				<g>
					<g>
						<path class="st6" d="M273,20.4c0.1-0.1,3.7,4.1,7.9,9.5c4.2,5.4,7.6,9.8,7.4,9.9c-0.1,0.1-3.7-4.1-8-9.5
							C276.1,24.9,272.8,20.5,273,20.4z"/>
					</g>
				</g>
			</g>
		</g>
		<g>
			<g>
				<g>
					<rect x="321.7" y="68.8" class="st8" width="31.5" height="89.3"/>
				</g>
			</g>
		</g>
	</g>
</g>
<g id="Books">
	<g>
		<g>
			<g>
				<g>
					<g>
						<g>
							<g>
								<g>
									<g>
										<rect x="398.3" y="366.2" class="st9" width="19.2" height="22.8"/>
									</g>
								</g>
							</g>
						</g>
						<g>
							<g>
								<g>
									<g>
										<rect x="312.2" y="364.7" class="st10" width="86.8" height="25.8"/>
									</g>
								</g>
							</g>
						</g>
						<g>
							<g>
								<g>
									<g>
										<path class="st10" d="M418.1,366.9h-21.5v-2.2h21.5c0.6,0,1.1,0.5,1.1,1.1l0,0C419.2,366.4,418.7,366.9,418.1,366.9z"/>
									</g>
								</g>
							</g>
						</g>
						<g>
							<g>
								<g>
									<g>
										<path class="st10" d="M418.1,390.5h-21.5v-2.2h21.5c0.6,0,1.1,0.5,1.1,1.1l0,0C419.2,390,418.7,390.5,418.1,390.5z"/>
									</g>
								</g>
							</g>
						</g>
						<g class="st11">
							<g>
								<g>
									<g>
										<rect x="381.9" y="364.7" width="10.3" height="25.8"/>
									</g>
								</g>
							</g>
						</g>
						<g class="st11">
							<g>
								<g>
									<g>
										<rect x="319.9" y="364.7" width="10.3" height="25.8"/>
									</g>
								</g>
							</g>
						</g>
						<g>
							<g>
								<g>
									<g>
										<g>
											<path class="st6" d="M417.6,370c0,0.1-4.2,0.1-9.3,0.1c-5.1,0-9.3-0.1-9.3-0.1c0-0.1,4.2-0.1,9.3-0.1
												C413.4,369.8,417.6,369.9,417.6,370z"/>
										</g>
									</g>
								</g>
							</g>
						</g>
						<g>
							<g>
								<g>
									<g>
										<g>
											<path class="st6" d="M417.6,373.4c0,0.1-4.2,0.1-9.3,0.1c-5.1,0-9.3-0.1-9.3-0.1c0-0.1,4.2-0.1,9.3-0.1
												C413.4,373.3,417.6,373.3,417.6,373.4z"/>
										</g>
									</g>
								</g>
							</g>
						</g>
						<g>
							<g>
								<g>
									<g>
										<g>
											<path class="st6" d="M417.6,377.6c0,0.1-4.2,0.1-9.3,0.1c-5.1,0-9.3-0.1-9.3-0.1c0-0.1,4.2-0.1,9.3-0.1
												C413.4,377.5,417.6,377.5,417.6,377.6z"/>
										</g>
									</g>
								</g>
							</g>
						</g>
						<g>
							<g>
								<g>
									<g>
										<g>
											<path class="st6" d="M417.6,381.8c0,0.1-4.2,0.1-9.3,0.1c-5.1,0-9.3-0.1-9.3-0.1c0-0.1,4.2-0.1,9.3-0.1
												C413.4,381.7,417.6,381.8,417.6,381.8z"/>
										</g>
									</g>
								</g>
							</g>
						</g>
						<g>
							<g>
								<g>
									<g>
										<g>
											<path class="st6" d="M417.6,386c0,0.1-4.2,0.1-9.3,0.1c-5.1,0-9.3-0.1-9.3-0.1s4.2-0.1,9.3-0.1
												C413.4,385.9,417.6,386,417.6,386z"/>
										</g>
									</g>
								</g>
							</g>
						</g>
					</g>
					<g class="st12">
						<g>
							<g>
								<g>
									<rect x="337.4" y="375.3" width="39.1" height="4.6"/>
								</g>
							</g>
						</g>
					</g>
				</g>
				<g>
					<g>
						<g>
							<g>
								<g>
									<rect x="397.9" y="391" class="st13" width="19.5" height="13.9"/>
								</g>
							</g>
						</g>
					</g>
					<g>
						<g>
							<g>
								<g>
									<rect x="315.1" y="390.5" class="st14" width="83" height="14.9"/>
								</g>
							</g>
						</g>
					</g>
					<g>
						<g>
							<g>
								<g>
									<path class="st14" d="M397.5,391.5h21c0.3,0,0.5-0.2,0.5-0.5l0,0c0-0.3-0.2-0.5-0.5-0.5h-21V391.5z"/>
								</g>
							</g>
						</g>
					</g>
					<g>
						<g>
							<g>
								<g>
									<path class="st14" d="M397.5,405.4h21.1c0.2,0,0.4-0.2,0.4-0.4v-0.2c0-0.2-0.2-0.4-0.4-0.4h-21.1V405.4z"/>
								</g>
							</g>
						</g>
					</g>
					<g>
						<g>
							<g>
								<g>
									<g>
										<path class="st6" d="M417.4,393.6c0,0.1-4.3,0.1-9.6,0.1c-5.3,0-9.6-0.1-9.6-0.1c0-0.1,4.3-0.1,9.6-0.1
											C413,393.5,417.4,393.5,417.4,393.6z"/>
									</g>
								</g>
							</g>
						</g>
					</g>
					<g>
						<g>
							<g>
								<g>
									<g>
										<path class="st6" d="M417.4,396.2c0,0.1-4.3,0.1-9.6,0.1c-5.3,0-9.6-0.1-9.6-0.1c0-0.1,4.3-0.1,9.6-0.1
											C413,396.1,417.4,396.2,417.4,396.2z"/>
									</g>
								</g>
							</g>
						</g>
					</g>
					<g>
						<g>
							<g>
								<g>
									<g>
										<path class="st6" d="M417.4,398.9c0,0.1-4.3,0.1-9.6,0.1c-5.3,0-9.6-0.1-9.6-0.1c0-0.1,4.3-0.1,9.6-0.1
											C413,398.8,417.4,398.8,417.4,398.9z"/>
									</g>
								</g>
							</g>
						</g>
					</g>
					<g>
						<g>
							<g>
								<g>
									<g>
										<path class="st6" d="M417.4,401.5c0,0.1-4.3,0.1-9.6,0.1c-5.3,0-9.6-0.1-9.6-0.1c0-0.1,4.3-0.1,9.6-0.1
											C413,401.4,417.4,401.4,417.4,401.5z"/>
									</g>
								</g>
							</g>
						</g>
					</g>
				</g>
				<g>
					<g>
						<g>
							<g>
								<g>
									<rect x="400.4" y="406.7" class="st15" width="19.9" height="37.7"/>
								</g>
							</g>
						</g>
					</g>
					<g>
						<g>
							<g>
								<g>
									<rect x="307" y="405.4" class="st2" width="93.5" height="40.9"/>
								</g>
							</g>
						</g>
					</g>
					<g>
						<g>
							<g>
								<g>
									<path class="st2" d="M421.9,446.3h-24v-2.7h24c0.7,0,1.3,0.6,1.3,1.3l0,0C423.2,445.7,422.6,446.3,421.9,446.3z"/>
								</g>
							</g>
						</g>
					</g>
					<g>
						<g>
							<g>
								<g>
									<path class="st2" d="M422.1,408h-24.2v-2.7h24.2c0.6,0,1.1,0.5,1.1,1.1v0.5C423.2,407.5,422.7,408,422.1,408z"/>
								</g>
							</g>
						</g>
					</g>
					<g>
						<g>
							<g>
								<g>
									<g>
										<path class="st6" d="M420.3,411.8c0,0.1-4.5,0.1-10,0.1c-5.5,0-10-0.1-10-0.1c0-0.1,4.5-0.1,10-0.1
											C415.9,411.7,420.3,411.7,420.3,411.8z"/>
									</g>
								</g>
							</g>
						</g>
					</g>
					<g>
						<g>
							<g>
								<g>
									<g>
										<path class="st6" d="M420.3,416.6c0,0.1-4.5,0.1-10,0.1c-5.5,0-10-0.1-10-0.1c0-0.1,4.5-0.1,10-0.1
											C415.9,416.5,420.3,416.5,420.3,416.6z"/>
									</g>
								</g>
							</g>
						</g>
					</g>
					<g>
						<g>
							<g>
								<g>
									<g>
										<path class="st6" d="M420.3,421.4c0,0.1-4.5,0.1-10,0.1c-5.5,0-10-0.1-10-0.1c0-0.1,4.5-0.1,10-0.1
											C415.9,421.3,420.3,421.4,420.3,421.4z"/>
									</g>
								</g>
							</g>
						</g>
					</g>
					<g>
						<g>
							<g>
								<g>
									<g>
										<path class="st6" d="M420.3,426.3c0,0.1-4.5,0.1-10,0.1c-5.5,0-10-0.1-10-0.1c0-0.1,4.5-0.1,10-0.1
											C415.9,426.2,420.3,426.2,420.3,426.3z"/>
									</g>
								</g>
							</g>
						</g>
					</g>
					<g>
						<g>
							<g>
								<g>
									<g>
										<path class="st6" d="M420.3,431.1c0,0.1-4.5,0.1-10,0.1c-5.5,0-10-0.1-10-0.1c0-0.1,4.5-0.1,10-0.1
											C415.9,431,420.3,431.1,420.3,431.1z"/>
									</g>
								</g>
							</g>
						</g>
					</g>
					<g>
						<g>
							<g>
								<g>
									<g>
										<path class="st6" d="M420.3,436c0,0.1-4.5,0.1-10,0.1c-5.5,0-10-0.1-10-0.1c0-0.1,4.5-0.1,10-0.1
											C415.9,435.8,420.3,435.9,420.3,436z"/>
									</g>
								</g>
							</g>
						</g>
					</g>
					<g>
						<g>
							<g>
								<g>
									<g>
										<path class="st6" d="M420.3,440.8c0,0.1-4.5,0.1-10,0.1c-5.5,0-10-0.1-10-0.1s4.5-0.1,10-0.1
											C415.9,440.7,420.3,440.7,420.3,440.8z"/>
									</g>
								</g>
							</g>
						</g>
					</g>
				</g>
			</g>
			<g class="st16">
				<g>
					<g>
						<polygon points="330.2,405.4 317.3,446.3 307,446.3 307,405.4 						"/>
					</g>
				</g>
			</g>
		</g>
		<g>
			<g>
				<path class="st5" d="M318.2,423.2h3.6c2.6,0,4.4,1.6,4.4,4c0,2.4-1.8,4-4.4,4h-3.6V423.2z M321.8,429.7c1.6,0,2.6-0.9,2.6-2.5
					c0-1.5-1-2.5-2.6-2.5h-1.7v5H321.8z"/>
			</g>
			<g>
				<path class="st5" d="M327.7,423.2h1.9v8h-1.9V423.2z"/>
			</g>
			<g>
				<path class="st5" d="M330.9,427.2c0-2.4,1.9-4.1,4.3-4.1c1.4,0,2.5,0.5,3.3,1.4l-1.2,1.1c-0.5-0.6-1.2-0.9-2-0.9
					c-1.5,0-2.6,1.1-2.6,2.6c0,1.5,1.1,2.6,2.6,2.6c0.8,0,1.5-0.3,2-0.9l1.2,1.1c-0.8,0.9-1.9,1.4-3.3,1.4
					C332.8,431.4,330.9,429.6,330.9,427.2z"/>
			</g>
			<g>
				<path class="st5" d="M341.4,424.7h-2.6v-1.5h7v1.5h-2.6v6.5h-1.9V424.7z"/>
			</g>
			<g>
				<path class="st5" d="M346.8,423.2h1.9v8h-1.9V423.2z"/>
			</g>
			<g>
				<path class="st5" d="M350,427.2c0-2.4,1.9-4.1,4.4-4.1c2.5,0,4.4,1.7,4.4,4.1c0,2.4-1.9,4.1-4.4,4.1
					C351.9,431.4,350,429.6,350,427.2z M356.9,427.2c0-1.5-1.1-2.6-2.5-2.6c-1.4,0-2.5,1-2.5,2.6c0,1.5,1.1,2.6,2.5,2.6
					C355.8,429.8,356.9,428.8,356.9,427.2z"/>
			</g>
			<g>
				<path class="st5" d="M367.5,423.2v8H366l-4-4.9v4.9h-1.8v-8h1.5l4,4.9v-4.9H367.5z"/>
			</g>
			<g>
				<path class="st5" d="M374.7,429.5H371l-0.7,1.7h-1.9l3.6-8h1.8l3.6,8h-1.9L374.7,429.5z M374.1,428.1l-1.3-3.1l-1.3,3.1H374.1z"
					/>
			</g>
			<g>
				<path class="st5" d="M383.3,431.2l-1.5-2.2h-0.1H380v2.2h-1.9v-8h3.5c2.1,0,3.5,1.1,3.5,2.9c0,1.2-0.6,2.1-1.6,2.5l1.8,2.6
					H383.3z M381.5,424.7H380v2.8h1.5c1.1,0,1.7-0.5,1.7-1.4C383.2,425.3,382.7,424.7,381.5,424.7z"/>
			</g>
			<g>
				<path class="st5" d="M390.3,428.4v2.8h-1.9v-2.9l-3.1-5.1h2l2.1,3.6l2.1-3.6h1.8L390.3,428.4z"/>
			</g>
		</g>
	</g>
</g>
<g id="Plant">
	<g>
		<g>
			<g>
				<rect x="17.3" y="113.5" class="st14" width="136.8" height="7"/>
			</g>
		</g>
		<g>
			<g>
				<g>
					<g>
						<g>
							<g>
								<path class="st2" d="M129,42.2c0,0,0-0.1-0.1-0.2c-0.1-0.2-0.2-0.4-0.3-0.6c-0.3-0.5-0.8-1.3-1.4-2.3
									c-1.4-1.9-3.5-4.6-7.1-6.7c-1.8-1.1-3.9-2-6.4-2.4c-2.4-0.3-5.2-0.2-7.8,0.8c-2.6,1-5.1,2.8-6.7,5.4c-1.5,2.7-2,5.8-2.9,8.8
									c-0.5,1.5-1,2.9-1.9,4.2c-0.8,1.3-2,2.2-3.2,3.1c-1.2,0.9-2.4,1.7-3.6,2.6c-1.1,0.9-2.1,2-2.9,3.1c-1.6,2.3-2.5,4.8-3,7.2
									c-0.5,2.4-0.5,4.7-0.4,6.8c0.3,4.2,1.2,7.4,1.7,9.7c0.3,1.1,0.5,2,0.7,2.6c0.2,0.6,0.3,0.9,0.3,0.9c0,0,0-0.3-0.2-0.9
									c-0.2-0.6-0.4-1.5-0.6-2.6c-0.5-2.3-1.3-5.5-1.6-9.6c-0.1-2.1,0-4.3,0.5-6.7c0.5-2.4,1.4-4.8,2.9-7c0.8-1.1,1.7-2.1,2.8-3
									c1.1-0.9,2.3-1.7,3.5-2.6c1.2-0.9,2.4-1.9,3.3-3.2c0.9-1.3,1.5-2.8,1.9-4.3c0.9-3,1.4-6.1,2.9-8.7c1.4-2.6,3.9-4.3,6.4-5.2
									c2.5-1,5.2-1.2,7.5-0.8c2.4,0.3,4.5,1.2,6.3,2.2c3.6,2.1,5.8,4.7,7.2,6.5c0.7,0.9,1.2,1.7,1.5,2.2
									C128.8,42,128.9,42.3,129,42.2z"/>
							</g>
						</g>
					</g>
					<g>
						<g>
							<path class="st2" d="M89.8,53.2c0.8-0.8,1.2-0.2,2.3,0c1.1,0.2,2.1,0.8,3,1.5c3.8,3.1,5.5,8.5,4.1,13.2
								c-3.5,0.2-7.1-1.7-8.9-4.7c-1.8-3-1.9-7-0.1-10.1"/>
						</g>
					</g>
					<g>
						<g>
							<path class="st2" d="M123.7,37.8c0.4-1,1-0.7,2.1-1c1.1-0.3,2.2-0.2,3.3,0.1c4.8,1.1,8.7,5.3,9.4,10.2
								c-3.1,1.7-7.1,1.5-10.1-0.4c-3-1.9-4.7-5.5-4.4-9.1"/>
						</g>
					</g>
					<g>
						<g>
							<path class="st2" d="M82.3,74.1c2.2-2.6,5.7-4.1,9.1-3.9c3.4,0.2,6.7,2,8.7,4.8c-2.5,2.3-5.9,3.6-9.3,3.7
								c-3.4,0-6.8-1.5-9.3-3.8"/>
						</g>
					</g>
					<g>
						<g>
							<path class="st2" d="M85.1,58.5c-3.4,0.1-6.9-1.4-9.1-4.1c-2.2-2.6-3.2-6.3-2.5-9.7c3.6-0.8,7.6,0.5,10.1,3.2
								c2.4,2.8,3.2,6.9,2,10.4"/>
						</g>
					</g>
					<g>
						<g>
							<path class="st2" d="M97,40.2c-3.2,1.2-7,0.9-10-0.8c-3-1.7-5.1-4.9-5.6-8.3c3.1-2,7.3-2.1,10.6-0.3c3.2,1.8,5.3,5.4,5.3,9.1
								"/>
						</g>
					</g>
					<g>
						<g>
							<path class="st2" d="M101,34.2c3.2-1.2,7-0.9,10,0.8c3,1.7,5.1,4.9,5.6,8.3c-3.1,2-7.3,2.1-10.6,0.3
								c-3.2-1.8-5.3-5.4-5.3-9.1"/>
						</g>
					</g>
					<g>
						<g>
							<path class="st2" d="M105.8,31c-3.3-1.1-6-3.7-7.1-7c-1.2-3.2-0.8-7,1-9.9c3.7,0.5,7,3.1,8.3,6.5c1.3,3.4,0.6,7.6-1.8,10.4"
								/>
						</g>
					</g>
					<g>
						<g>
							<path class="st2" d="M118,31.6c-1.2-3.2-0.8-7,1-9.9c1.8-2.9,5-5,8.4-5.4c1.9,3.2,1.9,7.4,0.1,10.6c-1.9,3.2-5.6,5.2-9.2,5.1
								"/>
						</g>
					</g>
				</g>
				<g>
					<g>
						<polyline class="st17" points="68.8,114.1 62.3,73.3 112.1,73.9 107.2,113.6 						"/>
					</g>
				</g>
				<g>
					<g>
						<g>
							<g>
								<g>
									<path class="st4" d="M90.3,65.8c2.7,1.7,5.8,1.9,8.3,0.7c2.5-1.2,4.2-4,4.5-7.2c-2.7-1.3-5.7-1.5-8.3-0.4
										c-2.5,1-4.5,3.3-5.5,6.1"/>
								</g>
							</g>
							<g>
								<g>
									<path class="st4" d="M113.1,74.6c2.7,1.7,5.8,1.9,8.3,0.7c2.5-1.2,4.2-4,4.5-7.2c-2.7-1.3-5.7-1.5-8.3-0.4
										c-2.5,1-4.5,3.3-5.5,6.1"/>
								</g>
							</g>
							<g>
								<g>
									<path class="st4" d="M100.3,55c1.3,2.9,3.8,4.8,6.5,5.1c2.7,0.3,5.7-1,7.7-3.5c-1.6-2.6-4-4.4-6.7-4.9
										c-2.7-0.5-5.6,0.3-8,2.1"/>
								</g>
							</g>
							<g>
								<g>
									<path class="st4" d="M108.6,65.1c-3.2,0-6,1.4-7.4,3.7c-1.5,2.3-1.5,5.5-0.2,8.5c3-0.3,5.7-1.7,7.3-3.9
										c1.6-2.2,2.2-5.1,1.5-8.1"/>
								</g>
							</g>
							<g>
								<g>
									<path class="st4" d="M116.6,81.2c-1.4,2.8-1.3,6,0.2,8.3c1.5,2.3,4.4,3.7,7.6,3.7c1-2.9,0.8-5.9-0.5-8.3
										c-1.3-2.4-3.7-3.6-6.6-4.2"/>
								</g>
							</g>
						</g>
						<g>
							<g>
								<g>
									<path class="st4" d="M129.9,83.1c0,0.1-0.5-0.7-2-1.3c-0.7-0.3-1.6-0.4-2.7-0.5c-1.1,0-2.3,0.1-3.7,0.2
										c-1.4,0.1-2.9,0.2-4.5-0.4c-1.6-0.6-2.9-2-3.7-3.6c-0.9-1.7-1.2-3.6-1.6-5.5c-0.4-1.9-0.8-3.9-1.9-5.7
										c-1.1-1.7-2.7-3-4.2-4.3c-1.5-1.3-3-2.5-4-4.1c-2.1-3.1-2.4-6.7-2-9.4c0.4-2.8,1.5-4.8,2.4-6c0.5-0.6,0.9-1.1,1.2-1.3
										c0.3-0.3,0.5-0.4,0.5-0.4c0,0-0.1,0.2-0.4,0.5c-0.3,0.3-0.7,0.8-1.1,1.4c-0.9,1.2-1.9,3.3-2.2,6c-0.4,2.7,0,6.1,2,9.1
										c1,1.5,2.4,2.7,4,4c1.5,1.3,3.2,2.6,4.3,4.4c1.2,1.8,1.6,3.9,2,5.8c0.4,1.9,0.7,3.8,1.5,5.4c0.8,1.6,2,2.9,3.5,3.4
										c1.5,0.6,3,0.5,4.3,0.4c1.4-0.1,2.6-0.2,3.7-0.1c1.1,0.1,2,0.3,2.8,0.6c0.7,0.3,1.2,0.7,1.5,1c0.2,0.1,0.2,0.3,0.3,0.3
										C129.9,83.1,129.9,83.1,129.9,83.1z"/>
								</g>
							</g>
						</g>
						<g>
							<g>
								<g>
									<path class="st4" d="M129.9,83.1c0,0.1-0.5-0.7-2-1.3c-0.7-0.3-1.6-0.4-2.7-0.5c-1.1,0-2.3,0.1-3.7,0.2
										c-1.4,0.1-2.9,0.2-4.5-0.4c-1.6-0.6-2.9-2-3.7-3.6c-0.9-1.7-1.2-3.6-1.6-5.5c-0.4-1.9-0.8-3.9-1.9-5.7
										c-1.1-1.7-2.7-3-4.2-4.3c-1.5-1.3-3-2.5-4-4.1c-2.1-3.1-2.4-6.7-2-9.4c0.4-2.8,1.5-4.8,2.4-6c0.5-0.6,0.9-1.1,1.2-1.3
										c0.3-0.3,0.5-0.4,0.5-0.4c0,0-0.1,0.2-0.4,0.5c-0.3,0.3-0.7,0.8-1.1,1.4c-0.9,1.2-1.9,3.3-2.2,6c-0.4,2.7,0,6.1,2,9.1
										c1,1.5,2.4,2.7,4,4c1.5,1.3,3.2,2.6,4.3,4.4c1.2,1.8,1.6,3.9,2,5.8c0.4,1.9,0.7,3.8,1.5,5.4c0.8,1.6,2,2.9,3.5,3.4
										c1.5,0.6,3,0.5,4.3,0.4c1.4-0.1,2.6-0.2,3.7-0.1c1.1,0.1,2,0.3,2.8,0.6c0.7,0.3,1.2,0.7,1.5,1c0.2,0.1,0.2,0.3,0.3,0.3
										C129.9,83.1,129.9,83.1,129.9,83.1z"/>
								</g>
							</g>
						</g>
					</g>
					<g>
						<g>
							<g>
								<g>
									<path class="st3" d="M34.7,87.3c0.2-4.2-1.8-8.4-5.2-10.8c-3.4-2.5-8-3.1-11.9-1.6c2.9,6.6,9.5,11.5,16.6,12.3"/>
								</g>
							</g>
							<g>
								<g>
									<path class="st3" d="M31.4,89c-2.4,2.7-2.3,7-0.5,10.2c1.7,3.2,4.7,5.4,7.8,7.4c1-3.4,0.9-7.2-0.4-10.5
										c-1.3-3.3-3.6-6.2-6.7-8.1"/>
								</g>
							</g>
							<g>
								<g>
									<path class="st3" d="M43.3,76.5c0.4,3.9,2.4,7.6,5.5,10c3.1,2.4,7.2,3.5,11,3c-0.9-3.9-2.5-7.9-5.5-10.5
										c-3-2.7-7.8-3.6-11.2-1.4"/>
								</g>
							</g>
							<g>
								<g>
									<path class="st3" d="M43.2,72.5c-0.6-3.6-4.1-6.2-7.7-6.5c-3.6-0.3-7.2,1.2-10.1,3.4c2.2,2.5,5.3,4.1,8.6,4.4
										c3.3,0.3,6.7-0.6,9.3-2.7"/>
								</g>
							</g>
							<g>
								<g>
									<path class="st3" d="M24.6,102.8c-3.4,2.9-4.3,8.1-2.9,12.4c1.4,4.3,4.8,7.7,8.5,10.2c1.4-4.2,2.3-8.8,1.6-13.2
										c-0.8-4.4-3.4-8.7-7.5-10.5"/>
								</g>
							</g>
							<g>
								<g>
									<path class="st3" d="M42.6,62.5c1.8-2.7,4.9-4.4,8.1-4.6c3.2-0.2,6.5,1.2,8.6,3.6c-1.4,3.1-4.7,5.3-8.1,5.4
										c-3.4,0.1-6.8-1.9-8.3-5"/>
								</g>
							</g>
							<g>
								<g>
									<path class="st3" d="M46.8,52.2c-3.7,1.1-7.8,0.6-11.1-1.4c-3.3-2-5.6-5.5-6.3-9.3c2.7-0.2,5.5-0.4,8.2,0.1
										c2.7,0.5,5.4,1.6,7.3,3.6C46.8,47.2,47.4,49.5,46.8,52.2"/>
								</g>
							</g>
							<g>
								<g>
									<path class="st3" d="M54.7,49.5c-2.5-2.1-4.1-5.3-4.1-8.6c0-3.3,1.5-6.5,4-8.6c2.5,3,4.2,6.6,4.9,10.4
										c0.3,1.4,0.4,2.9,0,4.3c-0.4,1.4-1.6,2.6-3,2.8"/>
								</g>
							</g>
						</g>
						<g>
							<g>
								<g>
									<g class="st11">
										<g>
											<g>
												<path class="st3" d="M34.7,87.3c0.2-4.2-1.8-8.4-5.2-10.8c-3.4-2.5-8-3.1-11.9-1.6c2.9,6.6,9.5,11.5,16.6,12.3"/>
											</g>
										</g>
									</g>
									<g class="st11">
										<g>
											<g>
												<path class="st3" d="M31.4,89c-2.4,2.7-2.3,7-0.5,10.2c1.7,3.2,4.7,5.4,7.8,7.4c1-3.4,0.9-7.2-0.4-10.5
													c-1.3-3.3-3.6-6.2-6.7-8.1"/>
											</g>
										</g>
									</g>
									<g class="st11">
										<g>
											<g>
												<path class="st3" d="M43.3,76.5c0.4,3.9,2.4,7.6,5.5,10c3.1,2.4,7.2,3.5,11,3c-0.9-3.9-2.5-7.9-5.5-10.5
													c-3-2.7-7.8-3.6-11.2-1.4"/>
											</g>
										</g>
									</g>
									<g class="st11">
										<g>
											<g>
												<path class="st3" d="M43.2,72.5c-0.6-3.6-4.1-6.2-7.7-6.5c-3.6-0.3-7.2,1.2-10.1,3.4c2.2,2.5,5.3,4.1,8.6,4.4
													c3.3,0.3,6.7-0.6,9.3-2.7"/>
											</g>
										</g>
									</g>
									<g class="st11">
										<g>
											<g>
												<path class="st3" d="M24.6,102.8c-3.4,2.9-4.3,8.1-2.9,12.4c1.4,4.3,4.8,7.7,8.5,10.2c1.4-4.2,2.3-8.8,1.6-13.2
													c-0.8-4.4-3.4-8.7-7.5-10.5"/>
											</g>
										</g>
									</g>
									<g class="st11">
										<g>
											<g>
												<path class="st3" d="M42.6,62.5c1.8-2.7,4.9-4.4,8.1-4.6c3.2-0.2,6.5,1.2,8.6,3.6c-1.4,3.1-4.7,5.3-8.1,5.4
													c-3.4,0.1-6.8-1.9-8.3-5"/>
											</g>
										</g>
									</g>
									<g class="st11">
										<g>
											<g>
												<path class="st3" d="M46.8,52.2c-3.7,1.1-7.8,0.6-11.1-1.4c-3.3-2-5.6-5.5-6.3-9.3c2.7-0.2,5.5-0.4,8.2,0.1
													c2.7,0.5,5.4,1.6,7.3,3.6C46.8,47.2,47.4,49.5,46.8,52.2"/>
											</g>
										</g>
									</g>
									<g class="st11">
										<g>
											<g>
												<path class="st3" d="M54.7,49.5c-2.5-2.1-4.1-5.3-4.1-8.6c0-3.3,1.5-6.5,4-8.6c2.5,3,4.2,6.6,4.9,10.4
													c0.3,1.4,0.4,2.9,0,4.3c-0.4,1.4-1.6,2.6-3,2.8"/>
											</g>
										</g>
									</g>
								</g>
							</g>
							<g>
								<g>
									<g>
										<g>
											<path class="st3" d="M68.4,74.6c0,0,0-0.1,0-0.3c0-0.2,0-0.5,0-0.8c0-0.7,0.1-1.8,0.1-3.2c0-2.7,0-6.8-1.9-11.3
												c-0.9-2.2-2.4-4.6-4.6-6.4c-2.1-1.9-5.1-3.1-8.3-3.1c-1.6,0-3.2,0.4-4.7,1.2c-1.5,0.8-2.7,2-3.6,3.4
												c-1.8,3-2.3,6.7-2.1,10.4c0.1,3.7,0.7,7.4,0.2,11c-0.2,1.8-0.6,3.5-1.4,5.1c-0.7,1.6-1.7,3-3.1,4c-1.3,1-2.8,1.6-4.3,2.2
												c-1.4,0.5-2.8,1.1-4,1.8c-2.4,1.5-4.2,3.6-5.3,5.8c-1.1,2.2-1.5,4.4-1.5,6.3c0,1.9,0.4,3.6,0.8,4.9
												c0.9,2.6,2,3.7,1.9,3.8c0,0-0.1-0.1-0.2-0.2c-0.1-0.1-0.3-0.4-0.5-0.7c-0.4-0.6-0.9-1.5-1.4-2.8c-0.5-1.3-0.9-3-0.9-4.9
												c0-2,0.4-4.2,1.5-6.5c1.1-2.2,2.9-4.4,5.4-6c2.5-1.6,5.7-2,8.2-4c2.5-2,3.8-5.3,4.2-8.8c0.4-3.5-0.1-7.1-0.3-10.9
												c-0.2-3.7,0.3-7.6,2.2-10.7c0.9-1.5,2.3-2.8,3.8-3.6c1.5-0.8,3.3-1.2,4.9-1.2c3.3-0.1,6.4,1.3,8.6,3.2
												c2.2,1.9,3.7,4.3,4.6,6.6c0.9,2.3,1.4,4.5,1.6,6.5c0.2,2,0.2,3.6,0.1,5c-0.1,1.4-0.2,2.4-0.2,3.2c0,0.3-0.1,0.6-0.1,0.8
												C68.4,74.5,68.4,74.6,68.4,74.6z"/>
										</g>
									</g>
								</g>
								<g class="st11">
									<g>
										<g>
											<path class="st3" d="M68.4,74.6c0,0,0-0.1,0-0.3c0-0.2,0-0.5,0-0.8c0-0.7,0.1-1.8,0.1-3.2c0-2.7,0-6.8-1.9-11.3
												c-0.9-2.2-2.4-4.6-4.6-6.4c-2.1-1.9-5.1-3.1-8.3-3.1c-1.6,0-3.2,0.4-4.7,1.2c-1.5,0.8-2.7,2-3.6,3.4
												c-1.8,3-2.3,6.7-2.1,10.4c0.1,3.7,0.7,7.4,0.2,11c-0.2,1.8-0.6,3.5-1.4,5.1c-0.7,1.6-1.7,3-3.1,4c-1.3,1-2.8,1.6-4.3,2.2
												c-1.4,0.5-2.8,1.1-4,1.8c-2.4,1.5-4.2,3.6-5.3,5.8c-1.1,2.2-1.5,4.4-1.5,6.3c0,1.9,0.4,3.6,0.8,4.9
												c0.9,2.6,2,3.7,1.9,3.8c0,0-0.1-0.1-0.2-0.2c-0.1-0.1-0.3-0.4-0.5-0.7c-0.4-0.6-0.9-1.5-1.4-2.8c-0.5-1.3-0.9-3-0.9-4.9
												c0-2,0.4-4.2,1.5-6.5c1.1-2.2,2.9-4.4,5.4-6c2.5-1.6,5.7-2,8.2-4c2.5-2,3.8-5.3,4.2-8.8c0.4-3.5-0.1-7.1-0.3-10.9
												c-0.2-3.7,0.3-7.6,2.2-10.7c0.9-1.5,2.3-2.8,3.8-3.6c1.5-0.8,3.3-1.2,4.9-1.2c3.3-0.1,6.4,1.3,8.6,3.2
												c2.2,1.9,3.7,4.3,4.6,6.6c0.9,2.3,1.4,4.5,1.6,6.5c0.2,2,0.2,3.6,0.1,5c-0.1,1.4-0.2,2.4-0.2,3.2c0,0.3-0.1,0.6-0.1,0.8
												C68.4,74.5,68.4,74.6,68.4,74.6z"/>
										</g>
									</g>
								</g>
							</g>
						</g>
					</g>
					<g>
						<g>
							<g>
								<path class="st4" d="M141,65.7c-0.1,0,0.7-1.2,0.7-3.7c0-1.2-0.2-2.7-1-4.2c-0.8-1.5-2.1-3-4.1-3.9c-1-0.5-2-0.8-3.2-0.9
									c-1.2-0.1-2.4,0.1-3.6,0.4c-2.4,0.6-4.9,2-7.7,2.6c-1.4,0.3-3,0.4-4.5-0.1c-1.5-0.5-2.8-1.6-3.7-2.9
									c-1.7-2.7-2.2-6.1-4.3-8.6c-1-1.2-2.4-2.1-3.9-2.6c-1.5-0.5-3.1-0.6-4.6-0.5c-3.1,0.3-5.8,1.9-7.7,4c-1.9,2.1-3.1,4.6-3.8,7
									c-0.7,2.4-0.9,4.8-0.8,7c0.2,4.3,0.9,7.8,1.3,10.2c0.2,1.2,0.4,2.1,0.5,2.8c0,0.3,0.1,0.5,0.1,0.7c0,0.2,0,0.2,0,0.2
									c0,0,0-0.1-0.1-0.2c0-0.2-0.1-0.4-0.2-0.7c-0.1-0.7-0.3-1.6-0.6-2.7c-0.5-2.4-1.2-5.8-1.5-10.2c-0.1-2.2,0.1-4.6,0.8-7.1
									c0.7-2.5,1.9-5,3.9-7.2c1-1.1,2.1-2.1,3.5-2.8c1.3-0.7,2.9-1.2,4.5-1.4c1.6-0.2,3.2,0,4.8,0.5c1.6,0.5,3.1,1.4,4.2,2.7
									c2.2,2.7,2.7,6.1,4.4,8.6c0.8,1.3,2,2.3,3.4,2.7c1.4,0.4,2.9,0.4,4.2,0.1c2.8-0.5,5.2-1.9,7.7-2.5c1.2-0.3,2.5-0.5,3.7-0.4
									c1.2,0.1,2.3,0.4,3.3,0.9c2,1,3.4,2.6,4.2,4.1c0.8,1.6,1,3.1,0.9,4.4c0,1.2-0.3,2.2-0.5,2.8C141.2,65.4,141,65.7,141,65.7z"
									/>
							</g>
						</g>
					</g>
					<g>
						<g>
							<path class="st4" d="M111.8,47.6c2.7,1.7,6.4,1.8,8.9,0.6c2.5-1.2,4.2-4,4.5-7.2c-2.7-1.3-5.7-1.5-8.3-0.4s-4.5,3.3-5.5,6.1"
								/>
						</g>
					</g>
					<g>
						<g>
							<path class="st4" d="M121.3,56.2c0,3.2,1.8,6.4,4.1,7.9c2.3,1.5,5.5,1.5,8.5,0.1c-0.3-3-1.7-5.7-3.9-7.3
								c-2.2-1.6-5.1-2.1-8.1-1.5"/>
						</g>
					</g>
					<g>
						<g>
							<path class="st4" d="M137.7,54.3c2.8,1.4,6.6,1.1,8.9-0.4c2.3-1.5,3.7-4.4,3.7-7.6c-2.9-1-5.9-0.8-8.3,0.5
								c-2.4,1.3-4.1,3.7-4.8,6.7"/>
						</g>
					</g>
					<g>
						<g>
							<path class="st4" d="M98.1,41.9c-2.4-2.1-4-5.7-3.5-8.4c0.5-2.7,2.5-5.2,5.5-6.4c2.1,2.2,3.1,5.1,2.8,7.8
								c-0.3,2.7-1.8,5.3-4.2,7.1"/>
						</g>
					</g>
					<g>
						<g>
							<g>
								<g>
									<path class="st10" d="M34,30.2c0,0,0-0.1,0.1-0.2c0.1-0.2,0.2-0.4,0.3-0.6c0.3-0.5,0.8-1.3,1.4-2.3
										c1.4-1.9,3.5-4.6,7.1-6.7c1.8-1.1,3.9-2,6.4-2.4c2.4-0.3,5.2-0.2,7.8,0.8c2.6,1,5.1,2.8,6.7,5.4c1.5,2.7,2,5.8,2.9,8.8
										c0.5,1.5,1,2.9,1.9,4.2c0.8,1.3,2,2.2,3.2,3.1c1.2,0.9,2.4,1.7,3.6,2.6c1.1,0.9,2.1,2,2.9,3.1c1.6,2.3,2.5,4.8,3,7.2
										c0.5,2.4,0.5,4.7,0.4,6.8c-0.3,4.2-1.2,7.4-1.7,9.7c-0.3,1.1-0.5,2-0.7,2.6c-0.2,0.6-0.3,0.9-0.3,0.9c0,0,0-0.3,0.2-0.9
										c0.2-0.6,0.4-1.5,0.6-2.6c0.5-2.3,1.3-5.5,1.6-9.7c0.1-2.1,0-4.3-0.5-6.7c-0.5-2.4-1.4-4.8-2.9-7c-0.8-1.1-1.7-2.1-2.8-3
										c-1.1-0.9-2.3-1.7-3.5-2.6c-1.2-0.9-2.4-1.9-3.3-3.2c-0.9-1.3-1.5-2.8-1.9-4.3c-0.9-3-1.4-6.1-2.9-8.7
										c-1.4-2.6-3.9-4.3-6.4-5.2c-2.5-1-5.2-1.2-7.5-0.8c-2.4,0.3-4.5,1.2-6.3,2.2c-3.6,2.1-5.8,4.7-7.2,6.5
										c-0.7,0.9-1.2,1.7-1.5,2.2C34.2,29.9,34.1,30.2,34,30.2z"/>
								</g>
							</g>
						</g>
						<g>
							<g>
								<path class="st10" d="M73.2,41.2c-0.8-0.8-1.2-0.2-2.3,0c-1.1,0.2-2.1,0.8-3,1.5c-3.8,3.1-5.5,8.5-4.1,13.2
									c3.5,0.2,7.1-1.7,8.9-4.7c1.8-3,1.9-7,0.1-10.1"/>
							</g>
						</g>
						<g>
							<g>
								<path class="st10" d="M39.3,25.7c-0.4-1-1-0.7-2.1-1c-1.1-0.3-2.2-0.2-3.3,0.1c-4.8,1.1-8.7,5.3-9.4,10.2
									c3.1,1.7,7.1,1.5,10.1-0.4c3-1.9,4.7-5.5,4.4-9.1"/>
							</g>
						</g>
						<g>
							<g>
								<path class="st10" d="M80.7,62c-2.2-2.6-5.7-4.1-9.1-3.9c-3.4,0.2-6.7,2-8.7,4.8c2.5,2.3,5.9,3.6,9.3,3.7
									c3.4,0,6.8-1.5,9.3-3.8"/>
							</g>
						</g>
						<g>
							<g>
								<path class="st10" d="M77.9,46.4c3.4,0.1,6.9-1.4,9.1-4.1c2.2-2.6,3.2-6.3,2.5-9.7c-3.6-0.8-7.6,0.5-10.1,3.2
									c-2.4,2.8-3.2,6.9-2,10.4"/>
							</g>
						</g>
						<g>
							<g>
								<path class="st10" d="M66,28.1c3.2,1.2,7,0.9,10-0.8c3-1.7,5.1-4.9,5.6-8.3c-3.1-2-7.3-2.1-10.6-0.3
									c-3.2,1.8-5.3,5.4-5.3,9.1"/>
							</g>
						</g>
						<g>
							<g>
								<path class="st10" d="M62,22.1c-3.2-1.2-7-0.9-10,0.8c-3,1.7-5.1,4.9-5.6,8.3c3.1,2,7.3,2.1,10.6,0.3
									c3.2-1.8,5.3-5.4,5.3-9.1"/>
							</g>
						</g>
						<g>
							<g>
								<path class="st10" d="M57.2,18.9c3.3-1.1,6-3.7,7.1-7c1.2-3.2,0.8-7-1-9.9c-3.7,0.5-7,3.1-8.3,6.5
									c-1.3,3.4-0.6,7.6,1.8,10.4"/>
							</g>
						</g>
						<g>
							<g>
								<path class="st10" d="M45,19.5c1.2-3.2,0.8-7-1-9.9c-1.8-2.9-5-5-8.4-5.4c-1.9,3.2-1.9,7.4-0.1,10.6
									c1.9,3.2,5.6,5.2,9.2,5.1"/>
							</g>
						</g>
					</g>
				</g>
			</g>
			<g>
				<g>
					<polygon class="st17" points="61.7,109.4 65.5,114.1 112.4,114.1 115.6,109.4 					"/>
				</g>
			</g>
			<g>
				<g>
					<g>
						<path class="st14" d="M114.5,109.3c0,0.1-11.5,0.3-25.7,0.3c-14.2,0-25.7-0.1-25.7-0.3c0-0.1,11.5-0.3,25.7-0.3
							C103,109.1,114.5,109.2,114.5,109.3z"/>
					</g>
				</g>
			</g>
			<g>
				<g>
					<g>
						<path class="st14" d="M109.3,91.5c0,0-0.1,0.1-0.3,0.4c-0.2,0.2-0.5,0.6-1,1c-0.9,0.8-2.3,1.9-4.2,2.9
							c-1.9,0.9-4.4,1.8-7.3,1.9c-1.4,0.1-2.9,0-4.5-0.4c-1.5-0.3-3.1-0.9-4.6-1.5c-3-1.3-5.8-2.8-8.5-3.6c-2.7-0.9-5.2-1.1-7.3-0.7
							c-2.1,0.4-3.6,1.3-4.5,2.1c-0.9,0.8-1.2,1.4-1.3,1.3c0,0,0.1-0.2,0.2-0.4c0.2-0.3,0.5-0.6,0.9-1.1c0.9-0.8,2.4-1.8,4.5-2.3
							c2.1-0.5,4.8-0.3,7.5,0.6c2.7,0.8,5.5,2.3,8.5,3.6c1.5,0.6,3,1.2,4.5,1.5c1.5,0.3,3,0.4,4.3,0.4c2.8-0.1,5.3-0.8,7.2-1.7
							C107.5,93.6,109.2,91.4,109.3,91.5z"/>
					</g>
				</g>
			</g>
			<g>
				<g>
					<g>
						<path class="st14" d="M109.7,87.9c0,0-0.1,0.1-0.3,0.4c-0.2,0.2-0.6,0.6-1,0.9c-0.9,0.8-2.4,1.8-4.3,2.7
							c-2,0.9-4.5,1.6-7.4,1.8c-1.4,0.1-3,0-4.5-0.3c-1.5-0.3-3.1-0.8-4.6-1.3c-3.1-1.1-5.9-2.4-8.7-3.2c-2.7-0.8-5.3-1-7.4-0.7
							c-2.1,0.3-3.7,1.1-4.6,1.8c-1,0.7-1.4,1.2-1.4,1.2c0,0,0.1-0.1,0.3-0.4c0.2-0.2,0.5-0.6,1-0.9c1-0.7,2.6-1.6,4.7-2
							c2.1-0.4,4.8-0.2,7.6,0.6c2.8,0.7,5.6,2,8.7,3.1c1.5,0.6,3.1,1,4.6,1.3c1.5,0.3,3,0.4,4.4,0.3c2.8-0.1,5.3-0.8,7.2-1.6
							C107.8,89.8,109.7,87.7,109.7,87.9z"/>
					</g>
				</g>
			</g>
		</g>
		<g>
			<g>
				<g>
					<rect x="54.4" y="118.7" class="st14" width="4.1" height="11.5"/>
				</g>
			</g>
			<g>
				<g>
					<rect x="113" y="118.7" class="st14" width="4.1" height="11.5"/>
				</g>
			</g>
		</g>
	</g>
</g>
<g id="Character">
	<g>
		<g>
			<g>
				<g>
					<polyline class="st18" points="169.7,225.4 188,217.7 231.7,209 278.9,218.3 216.6,285.3 187,287 164.6,242.5 169.7,225.4 
											"/>
				</g>
			</g>
			<g>
				<g>
					<path class="st8" d="M328.6,276.5c0,0-29.8-47.9-37.8-53.6c-8-5.7-33.6-9.3-33.6-9.3s-28.2,63.6-55,61.4
						c-26.8-2.2-29.7-50.9-29.7-50.9l-11.8,4.7c-4.2,1.7-7.5,5.1-9,9.4L128,307.1l40.2,9.6c7.1,26.3,17,49.2,29.5,69l1.3-6.6
						l83.5-1.3l24.2-9.4l-29.1-66.2L328.6,276.5z"/>
				</g>
			</g>
			<g>
				<g>
					<g>
						<path class="st17" d="M174.3,335.6c0,0-0.1-0.2-0.2-0.5c-0.1-0.4-0.3-0.9-0.6-1.6c-0.5-1.4-1.2-3.4-2-5.8
							c-1.7-4.9-4-11.7-6.2-19.3c-1-3.8-1.9-7.5-2.5-10.9c-0.6-3.4-1.1-6.4-1.3-9c-0.1-1.3-0.2-2.5-0.2-3.5c-0.1-1-0.1-1.9-0.1-2.6
							c0-0.7,0-1.2,0-1.7c0-0.4,0-0.6,0-0.6c0,0,0,0.2,0.1,0.6c0,0.4,0.1,1,0.1,1.7c0,0.7,0.1,1.6,0.2,2.6c0.1,1,0.2,2.2,0.3,3.5
							c0.3,2.6,0.7,5.6,1.4,9c0.7,3.4,1.5,7,2.6,10.8c2.1,7.6,4.4,14.4,6,19.3c0.8,2.5,1.4,4.5,1.9,5.9c0.2,0.7,0.4,1.2,0.5,1.6
							C174.3,335.4,174.3,335.6,174.3,335.6z"/>
					</g>
				</g>
			</g>
			<g>
				<g>
					<g>
						<path class="st17" d="M258.4,324.6c0,0-0.1,0.1-0.4,0.3c-0.3,0.1-0.7,0.4-1.3,0.6c-1.2,0.5-2.9,1.2-5.1,1.7
							c-4.4,1.2-10.9,1.7-17.7,0c-6.8-1.8-12.2-5.4-15.5-8.6c-1.7-1.6-2.9-3-3.6-4c-0.4-0.5-0.7-0.9-0.9-1.2
							c-0.2-0.3-0.3-0.4-0.3-0.4c0,0,0.5,0.5,1.3,1.5c0.8,1,2,2.3,3.7,3.9c3.3,3,8.7,6.6,15.4,8.4c6.7,1.7,13.1,1.2,17.5,0.2
							c2.2-0.5,3.9-1.1,5.1-1.6C257.8,324.8,258.4,324.5,258.4,324.6z"/>
					</g>
				</g>
			</g>
			<g>
				<g>
					<g>
						<path class="st17" d="M267.3,249.3c0,0,0.1-0.4,0.3-1.2c0.2-0.8,0.5-1.8,1-3.2c0.9-2.6,2.5-6.2,4.9-9.8c2.3-3.6,4.9-6.5,7-8.5
							c1-1,1.9-1.7,2.5-2.2c0.6-0.5,1-0.7,1-0.7c0.1,0.1-1.3,1.2-3.2,3.2c-2,2-4.5,4.9-6.8,8.5c-2.3,3.6-3.9,7.1-5,9.7
							C267.8,247.7,267.4,249.4,267.3,249.3z"/>
					</g>
				</g>
			</g>
			<g>
				<g>
					<g>
						<path class="st17" d="M270,302.7c-0.1,0-1.3-8.9-2.6-19.9c-1.3-11-2.2-19.9-2.1-19.9c0.1,0,1.3,8.9,2.6,19.9
							C269.2,293.7,270.2,302.7,270,302.7z"/>
					</g>
				</g>
			</g>
			<g class="st16">
				<g>
					<g>
						<path d="M214.1,314.8c4.3,6.3,8.7,12.6,14.8,17.2c6.1,4.6,14.1,7.1,21.4,4.9c2.3-0.7,4.5-1.9,6.5-3.2c2.9-1.9,5.7-4.6,6.1-8
							c0.1-0.8,0-1.7-0.7-2.1c-0.4-0.2-0.9-0.2-1.4-0.1c-5.1,1-9.6,4.6-14.7,4.9c-2.7,0.2-5.3-0.5-7.9-1.1
							C229,325.1,220.3,321.7,214.1,314.8"/>
					</g>
				</g>
			</g>
			<g class="st16">
				<g>
					<g>
						<path d="M274.1,342.5c1.3-1.6,2.2-2.9,3.4-4.3c0.6-0.8,1-1.6,1.3-2.6c0.3-1.1,0.2-2.2,0-3.3c-1.3-9.3-3.6-18.4-6.7-27.2
							c-0.1-0.4-0.3-0.9,0-1.2c0.2-0.2,0.4-0.3,0.6-0.3c1.5-0.5,3.3-1.1,4.8-1.6c2.2,11,4.1,23.2,6.3,33.8
							C283.8,335.6,277.3,340.4,274.1,342.5"/>
					</g>
				</g>
			</g>
			<g class="st16">
				<g>
					<g>
						<path d="M167.8,316.8c-3.6-3.5-6.6-7.7-8.7-12.2c-0.9-1.9-1.7-4-2.1-6.1c-0.5-2.4-0.5-4.8-0.4-7.2c0.2-8.1,1.3-16.3,3.3-24.2
							c0.4,0.4,0.5,1,0.6,1.6c1.5,8.2,0.6,16.7,1.9,24.9c0.5,3.3,1.4,6.6,1.9,9.9c0.3,1.7,0.5,3.4,1,5.1c0.4,1.5,1.1,2.9,1.6,4.4
							c0.5,1.4,0.7,2.9,1,4.3"/>
					</g>
				</g>
			</g>
		</g>
		<g>
			<g>
				<g>
					<path class="st18" d="M230.1,373.9l53.7-38.3l-6.3-33.6l35.2-18.2c0,0,12.8,53.5,4.3,74.1c-2.9,7.1-89.9,34.8-89.9,34.8
						L230.1,373.9z"/>
				</g>
			</g>
			<g>
				<g>
					<g>
						<path class="st19" d="M304.1,332.3c0,0.1-1.2-0.4-3.2-0.7c-1-0.2-2.2-0.3-3.5-0.3c-1.3,0-2.8,0.1-4.3,0.3
							c-1.5,0.3-2.9,0.7-4.1,1.1c-1.2,0.5-2.3,1-3.2,1.5c-1.7,1-2.7,1.8-2.7,1.7c0,0,0.2-0.2,0.6-0.6c0.4-0.4,1.1-0.9,1.9-1.4
							c0.9-0.6,1.9-1.1,3.2-1.6c1.3-0.5,2.7-0.9,4.2-1.2c1.5-0.3,3-0.3,4.4-0.3c1.3,0.1,2.5,0.2,3.5,0.5c1,0.2,1.8,0.5,2.3,0.7
							C303.8,332.1,304.1,332.3,304.1,332.3z"/>
					</g>
				</g>
			</g>
			<g>
				<g>
					<g>
						<path class="st19" d="M296.5,325.6c0,0.1-0.9,0.5-2.2,1.2c-1.4,0.7-3.2,1.9-5.2,3.2c-2,1.3-3.6,2.8-4.5,4
							c-0.9,1.2-1.3,2.1-1.4,2.1c-0.1,0,0.2-1,1.1-2.3c0.9-1.3,2.5-2.9,4.5-4.2c2-1.3,3.9-2.4,5.3-3.1
							C295.5,325.8,296.5,325.5,296.5,325.6z"/>
					</g>
				</g>
			</g>
			<g>
				<g>
					<g>
						<path class="st20" d="M187.3,399.7c2.9,0,5.2,0,5.2,0.1c0,0-2.3,0.1-5.2,0.1c-2.9,0-5.2,0-5.2-0.1
							C182.1,399.7,184.4,399.7,187.3,399.7z"/>
					</g>
				</g>
			</g>
		</g>
		<g>
			<g>
				<g>
					<g>
						<path class="st4" d="M193.9,377.6c0,0-99.3-40.7-115.8-44.3c-16.5-3.5-45.4-5.3-57.5,19c-8.5,16.9-9.4,37,23,54.1
							c32.4,17.1,128.9,33,128.9,33s87.1,21.8,101.2,15.9s33.6-18.2,27.7-41.8c-5.9-23.5-4.6-35.7-25.8-37c-20.9-1.3-26.1-2-46,17.2
							L193.9,377.6z"/>
					</g>
				</g>
			</g>
			<g>
				<g>
					<path class="st4" d="M306.3,367.3c0,0,17.8,29.8,11.1,47c-6.8,17.2-24,28.4-24,28.4L264.6,380L306.3,367.3z"/>
				</g>
			</g>
			<g>
				<g>
					<g>
						<path class="st14" d="M184.1,419.5c0,0-0.1,0-0.4-0.2c-0.3-0.1-0.6-0.3-1.1-0.5c-0.9-0.5-2.3-1.2-4-2.2
							c-3.5-1.9-8.4-4.8-14.3-8.8c-5.9-4-12.6-9.1-19.9-15c-3.7-2.9-7.5-6-11.4-9.2c-3.9-3.2-8-6.6-12.4-9.7
							c-4.4-3.2-8.9-5.9-13.4-8.2c-4.5-2.3-9.1-4.2-13.5-5.8c-8.8-3.2-17-5.1-23.9-6.6c-6.9-1.5-12.6-2.4-16.5-3.1
							c-1.9-0.3-3.4-0.6-4.5-0.8c-0.5-0.1-0.9-0.2-1.2-0.2c-0.3-0.1-0.4-0.1-0.4-0.1s0.1,0,0.4,0c0.3,0,0.7,0.1,1.2,0.2
							c1.1,0.2,2.6,0.4,4.5,0.7c3.9,0.6,9.6,1.5,16.5,2.9c6.9,1.5,15.2,3.4,24,6.5c4.4,1.6,9,3.4,13.5,5.7c4.5,2.3,9.1,5.1,13.5,8.2
							c4.4,3.2,8.5,6.5,12.4,9.7c3.9,3.2,7.8,6.3,11.4,9.2c7.3,5.9,13.9,11,19.8,15c5.8,4,10.7,7,14.1,9c1.7,1,3.1,1.7,4,2.3
							c0.4,0.2,0.8,0.4,1,0.6C184,419.4,184.1,419.4,184.1,419.5z"/>
					</g>
				</g>
			</g>
			<g>
				<g>
					<path class="st18" d="M185.3,418.8c4.2-1.7-9.1,2.7-13.5,1.4c-7-1.9-11.8-10-19.1-10.1c-4.7-0.1-8.7,3.1-13.1,4.7
						c-5.4,2-11.3,1.5-17,0.7c-5.7-0.8-11.4-2-17.1-1.4c-1.7,0.2-3.4,0.6-4.6,1.8c-1.5,1.6-1.6,4.2-0.5,6.1c1.1,1.9,3.1,3.2,5.2,3.9
						c2.1,0.7,4.3,0.9,6.5,1.2c10.2,1.5,19.9,5.6,29.9,8.1c10.3,2.6,21,3.5,31.6,4.4C173.6,439.6,172.9,423.9,185.3,418.8z"/>
				</g>
			</g>
			<g>
				<g>
					<g>
						<path class="st14" d="M277.5,419.4c0,0,0.1,0.1,0.2,0.4c0.1,0.3,0.3,0.7,0.4,1.2c0.3,1,0.7,2.6,0.8,4.5
							c0.2,1.9,0.2,4.3-0.3,6.8c-0.5,2.5-1.5,5.2-3.1,7.7c-1.7,2.5-3.9,4.4-6.1,5.7c-2.2,1.3-4.5,2-6.4,2.3c-1.9,0.3-3.5,0.2-4.6,0
							c-0.5-0.1-0.9-0.2-1.2-0.3c-0.3-0.1-0.4-0.1-0.4-0.1c0-0.2,2.4,0.7,6.2,0c1.9-0.3,4.1-1.1,6.2-2.4c2.2-1.3,4.3-3.2,5.9-5.6
							c1.6-2.4,2.6-5.1,3.1-7.5c0.5-2.5,0.6-4.8,0.4-6.7c-0.1-1.9-0.4-3.4-0.7-4.5C277.6,420,277.4,419.5,277.5,419.4z"/>
					</g>
				</g>
			</g>
			<g>
				<g>
					<polygon class="st5" points="208.9,399.8 269.5,372.1 288.7,376.1 289.6,378.2 218.8,406.6 208.9,404.2 					"/>
				</g>
			</g>
			<g>
				<g>
					<polygon class="st14" points="271.1,374.7 208.9,404.2 229.3,409.1 293.7,379 					"/>
				</g>
			</g>
			<g>
				<g>
					<g>
						<path class="st4" d="M185.3,418.8c0,0,32-21.8,40.4-26.2c8.4-4.4,53-14.6,64.1-9.9c11.2,4.6-33.2,44.4-33.2,44.4L185.3,418.8z
							"/>
					</g>
				</g>
				<g>
					<g>
						<g>
							<path class="st14" d="M250.5,401.3c0,0-0.1,0-0.2-0.1c-0.2-0.1-0.4-0.2-0.7-0.3c-0.6-0.3-1.5-0.7-2.6-1.1
								c-2.3-1-5.5-2.4-9.8-3.6c-2.1-0.6-4.5-1-7-1.1c-1.3-0.1-2.6,0-4,0.2c-1.3,0.2-2.7,0.5-4.1,0.9c-5.6,1.7-10.9,5.4-16.3,9.3
								c-5.5,3.9-11,7.2-15.8,10.4c-2.4,1.6-4.7,3.1-6.8,4.6c-2.1,1.5-3.9,3.1-5.1,4.9c-1.3,1.8-2.1,3.6-2.7,5.2
								c-0.6,1.6-1,3.1-1.3,4.3c-0.3,1.2-0.5,2.1-0.7,2.7c-0.1,0.3-0.1,0.5-0.2,0.7c0,0.2-0.1,0.2-0.1,0.2c0,0,0-0.1,0-0.3
								c0-0.2,0.1-0.4,0.1-0.7c0.1-0.6,0.3-1.6,0.6-2.8c0.3-1.2,0.7-2.7,1.3-4.3c0.6-1.6,1.4-3.5,2.7-5.3c1.2-1.9,3.1-3.5,5.2-5
								c2.1-1.5,4.4-3.1,6.8-4.7c4.9-3.2,10.3-6.6,15.8-10.4c5.5-3.9,10.8-7.6,16.5-9.3c1.4-0.5,2.8-0.7,4.2-0.9
								c1.4-0.1,2.7-0.2,4-0.1c2.6,0.1,5,0.6,7.1,1.2c4.3,1.2,7.5,2.7,9.7,3.8c1.1,0.5,2,0.9,2.6,1.2c0.3,0.1,0.5,0.2,0.7,0.3
								C250.4,401.2,250.5,401.3,250.5,401.3z"/>
						</g>
					</g>
				</g>
				<g>
					<g>
						<g>
							<path class="st14" d="M255.6,399.5c-0.1,0.1-0.9-0.7-2.5-1.6c-1.6-0.9-4-1.8-6.8-2.1c-2.8-0.4-5.4-0.3-7.2-0.2
								c-1.9,0.1-3,0.2-3,0.1c0-0.1,1.1-0.3,3-0.5c1.9-0.2,4.5-0.3,7.3,0.1c2.9,0.3,5.4,1.3,7,2.3c0.8,0.5,1.4,1,1.8,1.3
								C255.5,399.3,255.7,399.5,255.6,399.5z"/>
						</g>
					</g>
				</g>
			</g>
			<g>
				<g>
					<g>
						<path class="st14" d="M297.5,386.8c0,0-0.7-0.4-1.8-1.2c-1.2-0.7-2.9-1.7-5.3-2.5c-2.3-0.8-5.2-1.5-8.5-1.7
							c-3.3-0.3-6.9-0.1-10.6,0.3c-3.8,0.5-7.3,1.1-10.6,1.8c-3.2,0.6-6.1,1.3-8.6,1.8c-2.4,0.6-4.4,1.1-5.7,1.4
							c-0.6,0.2-1.1,0.3-1.6,0.4c-0.4,0.1-0.5,0.1-0.6,0.1c0,0,0.2-0.1,0.5-0.2c0.3-0.1,0.9-0.3,1.5-0.5c1.3-0.4,3.3-0.9,5.7-1.6
							c2.4-0.6,5.3-1.3,8.5-1.9c3.2-0.6,6.8-1.3,10.6-1.8c3.8-0.4,7.4-0.6,10.7-0.2c3.3,0.3,6.2,1,8.6,1.9c2.4,0.9,4.1,1.9,5.3,2.7
							c0.6,0.4,1,0.8,1.3,1C297.4,386.7,297.5,386.8,297.5,386.8z"/>
					</g>
				</g>
			</g>
		</g>
		<g>
			<g>
				<path class="st18" d="M144.6,311.5c0,0,5.4,40.4,7.5,46.9c2.2,6.4,19.1,29.9,19.1,29.9l22.6-10.7l-15.1-28.4L168.3,317
					L144.6,311.5z"/>
			</g>
		</g>
		<g>
			<g>
				<g>
					<g>
						<path class="st19" d="M192.9,376.1c2-0.3,3.9-0.4,5.9-0.3c0.7,0,1.5,0.1,2.1,0.6c0.4,0.3,0.6,0.7,0.9,1.1
							c1.1,2,1.8,4.3,1.8,6.6c0,0.4,0,0.9-0.3,1.3c-0.5,0.6-1.4,0.4-2.1,0.1c-1-0.4-1.9-1-2.7-1.7c-1.1-0.9-2-2.1-2.8-3.2
							c-0.3-0.4-0.6-0.8-0.9-1.1c-0.7-1-1.5-1.9-2.2-2.9"/>
					</g>
				</g>
				<g>
					<g>
						<path class="st6" d="M184.8,358.7c1.6,4.2,6.6,17.6,6.6,17.6l3.4,3.8l-7.8-22.3c-0.2-0.6-0.9-0.9-1.5-0.8l0,0
							C184.9,357.2,184.5,358,184.8,358.7z"/>
					</g>
				</g>
				<g>
					<g>
						<g>
							<path class="st18" d="M180.4,377.5c0,0-4.8,0.4-6.2,1.8c-1.3,1.4-1.8,5.7-1.8,5.7s-2.8,3.9-1.3,7.3c0,0-2.3,5.4-0.4,7.2
								c1.9,1.8,2.7,2.1,2.7,2.1h21.8l8.6-13.2l-8.6-8.2c0,0-5.4-8-8.3-8.3C184,371.4,178.2,372.1,180.4,377.5z"/>
						</g>
					</g>
					<g>
						<g>
							<g>
								<path class="st19" d="M180.4,377.5c0,0-0.1-0.1-0.2-0.4c-0.1-0.3-0.3-0.6-0.3-1.2c-0.1-0.5-0.1-1.2,0.2-2
									c0.3-0.7,1.1-1.4,2-1.8c0.9-0.4,2.1-0.6,3.3-0.6c0.6,0,1.2,0,1.9,0.2c0.7,0.2,1.3,0.6,1.8,1c2.2,1.8,4.2,4.3,6.2,7.2l0,0
									c2.6,2.5,5.5,5.3,8.6,8.2l0.1,0.1l-0.1,0.2c-2.7,4.1-5.6,8.6-8.6,13.2l-0.1,0.1h-0.1c-0.4,0-0.8,0-1.1,0
									c-7.3,0-14.3,0-20.7,0l-0.1,0l0,0c-1-0.5-1.7-1.2-2.4-1.8c-0.3-0.3-0.8-0.7-0.9-1.2c-0.2-0.5-0.3-1-0.3-1.4
									c0-1.9,0.6-3.6,1.2-5.2l0,0.2c-0.6-1.4-0.5-2.9-0.2-4.1c0.3-1.3,0.9-2.4,1.5-3.4l0,0.1c0.3-2,0.6-3.7,1.4-5.1
									c0.2-0.3,0.5-0.7,0.8-0.9c0.3-0.2,0.6-0.4,0.9-0.5c0.6-0.3,1.2-0.4,1.7-0.5c1.1-0.2,1.9-0.3,2.4-0.4c0.3,0,0.5,0,0.6,0
									C180.4,377.5,180.4,377.5,180.4,377.5c0,0-0.1,0-0.2,0c-0.2,0-0.4,0.1-0.6,0.1c-0.6,0.1-1.4,0.2-2.4,0.5
									c-0.5,0.1-1.1,0.3-1.7,0.6c-0.3,0.1-0.6,0.3-0.9,0.5c-0.3,0.2-0.5,0.5-0.7,0.8c-0.7,1.3-1.1,3.1-1.3,5l0,0l0,0
									c-0.6,0.9-1.1,2.1-1.4,3.3c-0.3,1.2-0.3,2.6,0.2,3.9l0,0.1l0,0.1c-0.6,1.5-1.1,3.2-1.1,5c0,0.4,0.1,0.9,0.2,1.3
									c0.1,0.4,0.5,0.7,0.8,1c0.7,0.6,1.5,1.3,2.2,1.7l-0.1,0c6.3,0,13.3,0,20.7,0c0.4,0,0.8,0,1.1,0l-0.2,0.1
									c3-4.7,6-9.1,8.6-13.2l0,0.3c-3.1-3-6-5.8-8.6-8.3l0,0l0,0c-2-2.8-4-5.4-6.1-7.2c-0.5-0.4-1.1-0.8-1.7-1
									c-0.6-0.2-1.2-0.2-1.8-0.2c-1.2,0-2.3,0.2-3.2,0.5c-0.9,0.4-1.6,0.9-1.9,1.6c-0.3,0.7-0.3,1.4-0.2,1.9
									c0.1,0.5,0.2,0.9,0.3,1.2C180.4,377.3,180.5,377.5,180.4,377.5z"/>
							</g>
						</g>
					</g>
				</g>
				<g>
					<g>
						<g>
							<path class="st19" d="M190.7,395.1c0,0.1-1.1,0-2.8-0.2c-0.9-0.1-1.9-0.2-3-0.4c-0.6-0.1-1.2-0.2-1.8-0.5
								c-0.6-0.3-1.2-0.6-1.7-1c-2.1-1.6-3.8-3.4-4.9-4.8c-1.1-1.4-1.6-2.3-1.5-2.4c0.1,0,0.7,0.8,1.8,2.1c1.1,1.3,2.8,3,4.9,4.6
								c0.5,0.4,1.1,0.7,1.6,1c0.5,0.2,1.1,0.4,1.7,0.5c1.1,0.2,2.1,0.4,3,0.5C189.6,394.8,190.7,395,190.7,395.1z"/>
						</g>
					</g>
				</g>
				<g>
					<g>
						<g>
							<path class="st19" d="M189.8,400.7c0,0.1-1,0.2-2.7,0.3c-0.8,0-1.9,0-3-0.1c-1.1-0.1-2.3-0.5-3.5-1.1c-2.4-1.2-4.1-2.8-5.3-4
								c-1.2-1.2-1.8-2-1.8-2.1c0.1-0.1,0.8,0.7,2.1,1.8c1.2,1.1,3,2.7,5.3,3.8c2.3,1.1,4.6,1.3,6.3,1.3
								C188.7,400.7,189.8,400.6,189.8,400.7z"/>
						</g>
					</g>
				</g>
				<g>
					<g>
						<g>
							<path class="st19" d="M193.6,389.5c0,0.1-0.9-0.3-2.2-1.1c-1.3-0.8-3-1.9-4.7-3.4c-1.7-1.5-3.1-3-4.1-4.2
								c-0.9-1.2-1.4-2-1.4-2c0.1-0.1,2.4,2.8,5.8,5.8C190.5,387.6,193.7,389.4,193.6,389.5z"/>
						</g>
					</g>
				</g>
				<g>
					<g>
						<polygon class="st5" points="144.6,407.5 144.6,399.8 208.9,399.8 208.9,402.3 208.9,402.8 199.9,409.1 						"/>
					</g>
				</g>
				<g>
					<g>
						<polygon class="st14" points="198.7,409.7 139.8,409.7 139.8,406.6 203.3,406.6 						"/>
					</g>
				</g>
			</g>
			<g>
				<g>
					<g>
						<path class="st18" d="M219.8,376.3c-0.7,0.1-15,2.6-15,2.6l-10.2,12.3v8.7c0,0,3.1,1.8,4.6-0.9c0,0-3.1,8.9-1.9,10.2
							c1.2,1.3,3.2,2.4,4.9,0c1.7-2.4,4.1-8.3,4.1-8.3l0.4,3.7c0,0,8.6-4.2,9.5-5.4c1-1.2,6.5-9.3,6.5-9.3l2.6-2.3l-2.6,4.1
							c0,0-4.6,4.9-2.7,5.9c1.9,1,5.3-2.6,5.3-2.6l5.3-6.1l4.5-0.5c0,0,0.3-2.9-0.7-8.9c-0.3-1.9-3.5-5.7-3.2-6.1c0,0,0-0.1,0-0.1
							L219.8,376.3z"/>
					</g>
				</g>
				<g>
					<g>
						<g>
							<path class="st19" d="M207.9,382.8c0.1,0.1-0.7,0.8-1.8,2.2c-1.1,1.3-2.6,3.2-4,5.3c-0.7,1-0.8,2.3-1.1,3.4
								c-0.3,1.1-0.6,2.1-0.9,2.9c-0.6,1.6-1,2.6-1.1,2.6c-0.1,0,0.2-1,0.7-2.7c0.2-0.8,0.5-1.8,0.8-2.9c0.1-0.6,0.3-1.1,0.4-1.7
								c0.1-0.6,0.4-1.3,0.8-1.8c1.5-2.2,3-4,4.2-5.3C207,383.4,207.8,382.7,207.9,382.8z"/>
						</g>
					</g>
				</g>
				<g>
					<g>
						<g>
							<path class="st19" d="M215.1,384.8c0,0-0.2,0.2-0.5,0.6c-0.4,0.5-0.9,1-1.4,1.6c-0.6,0.7-1.3,1.5-2,2.3
								c-0.4,0.4-0.8,0.9-1.2,1.4c-0.4,0.5-0.8,1-1,1.6c-1.2,4.1-2.3,7.7-2.7,8.9l-0.1,0.3l0-0.3c0-0.4,0-0.5,0-0.5
								c0,0,0.1,0.2,0.2,0.5l-0.2,0c0.3-1.2,1.1-4.8,2.4-9c0.1-0.3,0.3-0.7,0.5-1c0.2-0.3,0.4-0.5,0.6-0.8c0.4-0.5,0.8-1,1.2-1.4
								c0.8-0.9,1.5-1.7,2.1-2.3C214.2,385.4,215.1,384.7,215.1,384.8z"/>
						</g>
					</g>
				</g>
				<g>
					<g>
						<g>
							<path class="st19" d="M218.8,387.4c0.1,0-0.5,0.8-1.4,1.9c-0.5,0.6-1.1,1.2-1.7,1.9c-0.3,0.4-0.6,0.7-0.9,1.1
								c-0.3,0.4-0.5,0.9-0.7,1.4c-0.4,1-0.6,2-0.9,2.9c-0.3,0.9-0.5,1.7-0.7,2.4c-0.4,1.4-0.7,2.2-0.8,2.2c-0.1,0,0.1-0.9,0.4-2.3
								c0.2-0.8,0.4-1.6,0.6-2.5c0.2-0.9,0.5-1.9,0.9-3c0.2-0.5,0.4-1,0.7-1.5c0.3-0.4,0.6-0.8,1-1.2c0.6-0.7,1.2-1.3,1.8-1.8
								C218.1,388,218.8,387.3,218.8,387.4z"/>
						</g>
					</g>
				</g>
				<g>
					<g>
						<g>
							<path class="st19" d="M235.6,387.6c0,0-0.1,0-0.3,0.1c-0.2,0.1-0.5,0.1-0.9,0.2c-0.9,0.2-2.1,0.5-3.7,0.9l0.1,0
								c-0.7,0.9-1.6,1.8-2.5,3c-0.5,0.6-1,1.2-1.5,1.8c-0.6,0.6-1,1.3-1.7,1.9c-0.7,0.6-1.4,1.2-2.3,1.7c-0.4,0.2-0.9,0.5-1.4,0.6
								c-0.5,0.1-1.1,0.1-1.6-0.4c-0.2-0.2-0.3-0.6-0.2-0.9c0-0.3,0.1-0.6,0.2-0.8c0.2-0.5,0.5-1,0.8-1.5c0.6-0.9,1.4-1.8,2.2-2.7
								l0,0c0.8-1.3,1.7-2.7,2.6-4.1l0.3,0.3c-0.8,0.7-1.7,1.5-2.6,2.3l0,0c-2,2.8-4,5.7-6.2,8.8c-0.1,0.2-0.3,0.4-0.4,0.6
								c-0.2,0.2-0.4,0.4-0.6,0.5c-0.4,0.3-0.8,0.5-1.2,0.8c-0.8,0.5-1.7,1-2.5,1.4c-1.7,0.9-3.5,1.8-5.3,2.7l-0.3,0.2l0-0.4
								c-0.1-1.1-0.3-2.4-0.4-3.7l0.5,0.1c-0.7,1.6-1.4,3.3-2.2,4.9c-0.4,0.8-0.8,1.7-1.3,2.5c-0.5,0.8-1,1.7-2,2.2
								c-0.6,0.3-1.4,0.3-2,0.1c-0.6-0.2-1.2-0.6-1.6-1.1c-0.1-0.1-0.2-0.2-0.3-0.4c-0.1-0.2-0.2-0.4-0.2-0.5
								c-0.1-0.3-0.1-0.7-0.1-1c0-0.6,0.1-1.3,0.2-1.9c0.5-2.4,1.2-4.7,2-7l0.5,0.2c-0.4,0.8-1.3,1.5-2.3,1.6
								c-1,0.1-1.9-0.2-2.7-0.6l-0.1-0.1l0-0.2c0-3,0-5.9,0-8.7l0-0.1l0.1-0.1c3.7-4.4,7.1-8.5,10.3-12.2l0-0.1l0.1,0
								c5.9-1,10.9-1.8,15-2.5l0,0c3.6-1,6.5-1.8,8.5-2.3c1-0.3,1.7-0.4,2.3-0.6c0.2-0.1,0.4-0.1,0.6-0.1c0.1,0,0.1,0,0.2,0
								c0,0,0,0.1,0,0.1c0.1-0.1-0.2,0-0.7,0.2c-0.5,0.2-1.3,0.4-2.2,0.7c-2,0.6-4.9,1.4-8.5,2.4l0,0l0,0c-4.1,0.7-9.1,1.6-15,2.7
								l0.1-0.1c-3.1,3.7-6.5,7.8-10.2,12.3l0.1-0.2c0,2.8,0,5.7,0,8.7l-0.1-0.2c0.7,0.4,1.6,0.6,2.4,0.5c0.8-0.1,1.5-0.6,1.9-1.4
								l0.5,0.2c-0.8,2.2-1.5,4.5-1.9,6.9c-0.1,0.6-0.2,1.2-0.2,1.8c0,0.3,0,0.6,0,0.9c0,0.3,0.2,0.4,0.4,0.6c0.8,0.8,2,1.4,3.1,0.9
								c0.8-0.4,1.3-1.2,1.7-2c0.5-0.8,0.9-1.6,1.3-2.4c0.8-1.6,1.5-3.3,2.2-4.9l0.4-0.9l0.1,1c0.1,1.3,0.3,2.5,0.4,3.7l-0.4-0.2
								c1.8-0.9,3.6-1.8,5.3-2.7c0.9-0.5,1.7-0.9,2.5-1.4c0.4-0.2,0.8-0.5,1.2-0.8c0.2-0.1,0.4-0.3,0.5-0.4c0.1-0.2,0.3-0.4,0.4-0.6
								c2.2-3,4.2-6,6.2-8.7l0,0l0,0c0.9-0.8,1.8-1.6,2.6-2.3l1.2-1l-0.8,1.3c-0.9,1.4-1.8,2.8-2.6,4.1l0,0l0,0
								c-0.8,0.9-1.5,1.7-2.1,2.7c-0.3,0.5-0.6,0.9-0.8,1.4c-0.2,0.5-0.3,1-0.1,1.3c0.3,0.3,0.8,0.4,1.3,0.3
								c0.5-0.1,0.9-0.3,1.3-0.5c0.8-0.5,1.6-1.1,2.2-1.7c0.7-0.6,1.2-1.3,1.7-1.9c0.5-0.6,1.1-1.2,1.5-1.8c1-1.1,1.8-2.1,2.6-2.9
								l0,0l0,0c1.6-0.3,2.8-0.6,3.7-0.8c0.4-0.1,0.7-0.1,1-0.2C235.5,387.6,235.6,387.5,235.6,387.6z"/>
						</g>
					</g>
				</g>
			</g>
		</g>
		<g>
			<g>
				<g>
					<g>
						<path class="st17" d="M162.4,164.6c-4.7-3.3-7.1-9.6-5.8-15.2c0.1-0.6,0.3-1.3,0-1.9c-0.3-0.5-0.8-0.8-1.3-1
							c-2.7-1.4-4.8-3.9-5.6-6.9c-0.8-2.9,0-6.3,2.3-8.4c-4.4-1.6-6.3-7.5-4.2-11.7c2.1-4.2,7.2-6.4,11.9-5.8
							c-1.6-2.4-0.9-5.8,1-7.9c1.9-2.1,4.8-3.2,7.6-3.7c3.8-0.7,8.3-0.2,10.5,2.9c0.2-2.4,2.6-3.9,4.9-4.5
							c6.1-1.5,13.1,2.5,14.9,8.6c2-1.4,4.2-2.6,6.6-2.7c2.4,0,5,1.5,5.5,3.8c1-2.2,3.6-3,6-3.3c1.7-0.2,3.5,0,5,0.8
							c1.5,0.8,2.6,2.6,2.2,4.3c3.1-1.2,7,0.4,8.4,3.4c1.4,3,0.2,7-2.6,8.7c2.5,1.4,4.3,4.2,4.4,7.1c0.1,2.9-1.4,5.8-3.8,7.5
							c1.4,0.1,2.2,2.1,1.5,3.4c-0.6,1.3-2.1,1.9-3.6,2.2c0.6,5,1.1,9.9,1.7,14.9c0.4,3.2,0.7,6.5,0.1,9.6c-0.6,3.2-2.5,6.3-5.4,7.6
							"/>
					</g>
				</g>
				<g>
					<g>
						<g>
							<g>
								<g>
									<g>
										<g>
											<g>
												<g>
													<g>
														<g>
															<g>
																<g>
																	<g>
																		<path class="st18" d="M160.9,150.3c-0.7-12.1,10.7-25.7,22.8-25.9l39.7,2.5l0.7,6.5l9.2,83.5L190,241.5l-2.7-31.4
																			c0,0-15.6-0.6-21.3-20.2C163.2,180.1,161.7,163.7,160.9,150.3z"/>
																	</g>
																</g>
															</g>
														</g>
														<g>
															<g>
																<g>
																	<g>
																		<g>
																			<g>
																				<g>
																					<g>
																						<g>
																							<g>
																								<g>
																									<g>
																										<g>
																											<path class="st17" d="M167.2,164.9c0.1,1.4,1.4,2.4,2.8,2.3c1.4-0.1,2.5-1.3,2.4-2.6
																												c-0.1-1.4-1.4-2.4-2.8-2.3C168.1,162.4,167.1,163.6,167.2,164.9z"/>
																										</g>
																									</g>
																								</g>
																							</g>
																						</g>
																					</g>
																				</g>
																			</g>
																		</g>
																	</g>
																</g>
															</g>
															<g>
																<g>
																	<g>
																		<g>
																			<g>
																				<g>
																					<g>
																						<g>
																							<g>
																								<g>
																									<g>
																										<g>
																											<g>
																												<path class="st17" d="M165.5,158.3c0.4,0.3,2.1-1.4,4.9-1.7c2.8-0.4,5,0.8,5.2,0.4
																													c0.1-0.2-0.3-0.7-1.2-1.3c-0.9-0.5-2.5-1-4.2-0.7c-1.7,0.2-3.1,1-3.8,1.8
																													C165.5,157.6,165.3,158.2,165.5,158.3z"/>
																											</g>
																										</g>
																									</g>
																								</g>
																							</g>
																						</g>
																					</g>
																				</g>
																			</g>
																		</g>
																	</g>
																</g>
															</g>
														</g>
														<g>
															<g>
																<g>
																	<g>
																		<g>
																			<g>
																				<g>
																					<g>
																						<g>
																							<g>
																								<g>
																									<g>
																										<g>
																											<path class="st17" d="M191.9,162.9c0.1,1.4,1.4,2.4,2.8,2.3c1.4-0.1,2.5-1.3,2.4-2.6
																												c-0.1-1.4-1.4-2.4-2.8-2.3C192.8,160.4,191.8,161.6,191.9,162.9z"/>
																										</g>
																									</g>
																								</g>
																							</g>
																						</g>
																					</g>
																				</g>
																			</g>
																		</g>
																	</g>
																</g>
															</g>
															<g>
																<g>
																	<g>
																		<g>
																			<g>
																				<g>
																					<g>
																						<g>
																							<g>
																								<g>
																									<g>
																										<g>
																											<g>
																												<path class="st17" d="M192.7,156.1c0.4,0.3,2.1-1.4,4.9-1.7c2.8-0.4,5,0.8,5.2,0.4
																													c0.1-0.2-0.3-0.7-1.2-1.3c-0.9-0.5-2.5-1-4.2-0.7c-1.7,0.2-3.1,1-3.8,1.8
																													C192.7,155.3,192.5,155.9,192.7,156.1z"/>
																											</g>
																										</g>
																									</g>
																								</g>
																							</g>
																						</g>
																					</g>
																				</g>
																			</g>
																		</g>
																	</g>
																</g>
															</g>
														</g>
														<g>
															<g>
																<g>
																	<g>
																		<g>
																			<g>
																				<g>
																					<g>
																						<g>
																							<g>
																								<g>
																									<g>
																										<g>
																											<path class="st17" d="M185.2,177.2c0-0.2-1.8-0.2-4.6-0.2c-0.7,0-1.4,0-1.6-0.5c-0.2-0.5,0-1.3,0.2-2.1
																												c0.4-1.8,0.9-3.7,1.4-5.6c1.9-8,3.2-14.5,2.9-14.6c-0.3-0.1-2.2,6.3-4.1,14.4c-0.5,2-0.9,3.9-1.3,5.6
																												c-0.2,0.8-0.5,1.8,0,2.8c0.3,0.5,0.8,0.8,1.3,0.9c0.5,0.1,0.9,0,1.2,0
																												C183.5,177.5,185.2,177.3,185.2,177.2z"/>
																										</g>
																									</g>
																								</g>
																							</g>
																						</g>
																					</g>
																				</g>
																			</g>
																		</g>
																	</g>
																</g>
															</g>
														</g>
														<g>
															<g>
																<g>
																	<g>
																		<g>
																			<g>
																				<g>
																					<g>
																						<g>
																							<g>
																								<g>
																									<g>
																										<path class="st19" d="M187.4,210.1c0,0,13.6-0.8,25.9-10.5c0,0-5.4,14.9-25.6,15.5L187.4,210.1z"/>
																									</g>
																								</g>
																							</g>
																						</g>
																					</g>
																				</g>
																			</g>
																		</g>
																	</g>
																</g>
															</g>
														</g>
														<g>
															<g>
																<g>
																	<g>
																		<g>
																			<g>
																				<g>
																					<g>
																						<g>
																							<g>
																								<g>
																									<g>
																										<path class="st19" d="M187.2,183.7c0.8-1.4,2.5-2.4,4.2-2.4c1.2,0,2.5,0.4,3.3,1.3
																											c0.8,0.9,1.2,2.2,0.6,3.3c-0.6,1.1-2.1,1.6-3.5,1.4c-1.4-0.2-2.6-0.9-3.8-1.7c-0.3-0.2-0.7-0.4-0.9-0.7
																											c-0.2-0.3-0.3-0.7-0.1-1"/>
																									</g>
																								</g>
																							</g>
																						</g>
																					</g>
																				</g>
																			</g>
																		</g>
																	</g>
																</g>
															</g>
														</g>
														<g>
															<g>
																<g>
																	<g>
																		<g>
																			<g>
																				<g>
																					<g>
																						<g>
																							<g>
																								<g>
																									<g>
																										<g>
																											<path class="st17" d="M193.6,178.1c-0.5,0-0.1,3-2.4,5.5c-2.3,2.5-5.5,2.5-5.5,2.9
																												c0,0.2,0.8,0.5,2.1,0.4c1.3-0.1,3.2-0.8,4.6-2.3c1.4-1.5,1.9-3.3,1.8-4.6
																												C194.2,178.7,193.8,178,193.6,178.1z"/>
																										</g>
																									</g>
																								</g>
																							</g>
																						</g>
																					</g>
																				</g>
																			</g>
																		</g>
																	</g>
																</g>
															</g>
														</g>
													</g>
												</g>
											</g>
											<g>
												<g>
													<g>
														<g>
															<g>
																<g>
																	<g>
																		<g>
																			<g>
																				<g>
																					<g>
																						<g>
																							<path class="st17" d="M190.6,146.3c0.4,0.7,3.1,0,6.4,0c3.3-0.1,6,0.5,6.4-0.2c0.2-0.3-0.4-1-1.5-1.6
																								c-1.1-0.6-2.9-1.1-4.9-1c-2,0-3.7,0.6-4.8,1.2C191,145.3,190.4,146,190.6,146.3z"/>
																						</g>
																					</g>
																				</g>
																			</g>
																		</g>
																	</g>
																</g>
															</g>
														</g>
													</g>
												</g>
											</g>
											<g>
												<g>
													<g>
														<g>
															<g>
																<g>
																	<g>
																		<g>
																			<g>
																				<g>
																					<g>
																						<g>
																							<path class="st17" d="M165.5,150.2c0.6,0.6,2.4-0.3,4.7-0.6c2.3-0.4,4.3-0.1,4.6-0.8
																								c0.2-0.3-0.2-0.9-1.1-1.4c-0.9-0.5-2.4-0.8-3.9-0.6c-1.6,0.2-2.9,1-3.6,1.7
																								C165.4,149.3,165.2,149.9,165.5,150.2z"/>
																						</g>
																					</g>
																				</g>
																			</g>
																		</g>
																	</g>
																</g>
															</g>
														</g>
													</g>
												</g>
											</g>
										</g>
									</g>
								</g>
							</g>
						</g>
					</g>
				</g>
				<g>
					<g>
						<path class="st17" d="M166.2,126.2c-0.8,3.8,0.9,8,4.1,10.2c3.2,2.2,7.8,2.2,11,0c-1.2,1.4-0.7,3.7,0.7,5
							c1.4,1.2,3.4,1.5,5.2,1.4c3.9-0.2,7.6-2.3,9.9-5.4c0.8,3,3.1,5.6,6,6.7c2.9,1.1,6.3,0.8,9-0.8c-2.4,2.9-2.7,7.3-0.7,10.5
							c2,3.2,6.1,4.9,9.7,4.1c3.7-0.8,6.6-4.1,7-7.9c2.7-1.6,4.6-4.4,5-7.5s-0.7-6.3-3-8.5c1.9-0.9,3.1-3,3.3-5.1s-0.5-4.2-1.4-6.1
							c-2.2-4.7-6.1-8.8-11-10.4c-4.9-1.6-11-0.3-14.1,3.8c-0.4,0.5-0.7,1-1.3,1.2c-0.8,0.2-1.5-0.3-2.2-0.8
							c-2.8-2.3-5.6-4.7-9.2-5.2c-4.3-0.6-8.8,2.1-10.1,6.2c-2.9-3.8-8.3-5.8-12.7-3.9c-4.4,1.9-6.7,7.9-4,11.9"/>
					</g>
				</g>
				<g>
					<g>
						<path class="st17" d="M218.6,153.6c0.7,4,2,8,3.8,11.6c0.8,1.6,1.9,3.2,3.6,3.4c1.6,0.2,3-1.1,3.6-2.6
							c0.5-1.5,0.4-3.1,0.2-4.7c-0.8-5.6-2.3-11-3.8-16.4"/>
					</g>
				</g>
				<g>
					<g>
						<g>
							<g>
								<g>
									<g>
										<g>
											<g>
												<g>
													<g>
														<g>
															<g>
																<g>
																	<g>
																		<g>
																			<g>
																				<g>
																					<path class="st18" d="M223.5,157.8c0.2-0.2,9.7-4.8,11.1,5.4c1.4,10.2-9.1,9.5-9.1,9.2
																						C225.4,172.1,223.5,157.8,223.5,157.8z"/>
																				</g>
																			</g>
																		</g>
																	</g>
																</g>
															</g>
														</g>
													</g>
												</g>
											</g>
										</g>
									</g>
								</g>
							</g>
						</g>
					</g>
					<g>
						<g>
							<g>
								<g>
									<g>
										<g>
											<g>
												<g>
													<g>
														<g>
															<g>
																<g>
																	<g>
																		<g>
																			<g>
																				<g>
																					<g>
																						<path class="st19" d="M228,168.1c0,0,0.2,0.1,0.5,0.2c0.3,0.1,0.8,0.1,1.3-0.2c1-0.5,1.7-2.4,1.5-4.2
																							c-0.1-0.9-0.4-1.8-0.9-2.5c-0.4-0.7-1-1.2-1.5-1.2c-0.6,0-0.9,0.3-1,0.6c-0.1,0.3,0,0.5-0.1,0.5
																							c0,0-0.2-0.1-0.2-0.6c0-0.2,0.1-0.5,0.3-0.7c0.2-0.2,0.6-0.4,0.9-0.4c0.8-0.1,1.6,0.6,2.1,1.3
																							c0.5,0.7,0.9,1.7,1,2.8c0.2,2.1-0.6,4.1-2,4.8c-0.7,0.3-1.3,0.2-1.7,0C228.1,168.4,228,168.2,228,168.1z"/>
																					</g>
																				</g>
																			</g>
																		</g>
																	</g>
																</g>
															</g>
														</g>
													</g>
												</g>
											</g>
										</g>
									</g>
								</g>
							</g>
						</g>
					</g>
				</g>
				<g>
					<g>
						<g>
							<path class="st14" d="M168.7,174.9c-2.4,0-5.5-0.2-6.5-1c-1.5-1.2-3.3-5.9-5-10.4c-0.2-0.6-0.4-1-0.4-1.1l0.9-0.5
								c0.1,0.1,0.1,0.3,0.5,1.2c0.9,2.4,3.2,8.8,4.7,9.9c1.7,1.4,14.6,0.6,15.7-0.4c0.7-0.7,1.8-6.8,2.4-10.9l0.1-0.4l5.1-0.7
								l0.2,0.3c1.3,2.6,5.2,9.5,7.5,10.6c3,1.4,13.9-0.7,14.6-2c0.6-1.1,1.8-8.2,2.4-12.6l0.1-0.4l15.7-1.2l0.1,1l-14.9,1.1
								c-0.3,2.2-1.7,11.1-2.5,12.6c-1.1,2-12.8,3.8-15.9,2.4c-2.9-1.3-7-9-7.9-10.7l-3.6,0.5c-0.3,2.3-1.5,9.9-2.6,11.1
								c-1,1-7.5,1.3-8.2,1.4C170.5,174.9,169.7,174.9,168.7,174.9z"/>
						</g>
					</g>
					<g>
						<g>
							<path class="st14" d="M186.6,162.5l-1.2-1.6c6.3-4.7,18.2-7.7,26.3-4.4l-0.8,1.9C203.8,155.4,192.6,158.1,186.6,162.5z"/>
						</g>
					</g>
					<g>
						<g>
							<path class="st14" d="M157.6,163.5l-0.9-1.8c7.8-4.2,18.5-4.4,25.4-0.4l-1,1.7C174.8,159.4,164.8,159.6,157.6,163.5z"/>
						</g>
					</g>
				</g>
				<g>
					<g>
						<path class="st17" d="M231.4,163.2c-1.2-0.6-2.6-0.8-3.7,0c-0.7,0.5-1.1,1.5-0.9,2.4c0.2,0.9,1,1.6,1.8,1.8
							c0.5,0.1,1,0,1.4,0.3c0.4,0.3,0.7,0.8,0.7,1.3c0,0.5-0.1,1-0.2,1.5c-0.2,1.2-0.1,2.4,0.3,3.5c0.1,0.3,0.2,0.7,0.5,0.9
							c0.2,0.2,0.5,0.2,0.8,0.2c0.9,0,1.7-0.5,2.2-1.3c0.5-0.7,0.7-1.6,0.9-2.5c0.2-1.4,0.3-2.8,0.1-4.1c-0.1-0.8-0.3-1.7-0.8-2.4
							c-0.8-1.1-3.8-2-5.2-2.1"/>
					</g>
				</g>
				<g>
					<g>
						<g>
							<path class="st5" d="M197.4,135.3c0,0-0.1,0.1-0.3,0.1c-0.2,0.1-0.5,0.2-0.9,0.3c-0.8,0.2-2,0.5-3.6,0.4
								c-0.8,0-1.7-0.1-2.6-0.4c-0.9-0.2-1.9-0.7-2.8-1.4c-0.9-0.7-1.6-1.7-2.1-2.8c-0.5-1.2-0.7-2.6-0.2-3.9l0.4,0.2
								c-2,1.8-4.7,3.2-7.8,3.5c-1.5,0.2-3.2,0-4.8-0.4c-0.8-0.2-1.6-0.5-2.3-1c-0.7-0.5-1.4-1.1-1.7-1.9c-0.5-0.9-0.6-2-0.6-2.9
								c0-1,0.1-1.9,0.2-2.9c0.1-0.9,0.3-1.9,0.7-2.7c0.4-0.8,1.1-1.6,2-1.9l0.2,0.5c-1.7,0.8-3.6,0.9-5.3,0.4
								c-1.7-0.4-3.1-1.3-4.2-2.4c-1.1-1.1-1.8-2.5-2-3.8c-0.2-1.3-0.1-2.6,0.1-3.7c0.6-2.2,1.8-3.6,2.7-4.4c1-0.8,1.6-1,1.6-1
								c0,0-0.6,0.3-1.5,1.1c-0.9,0.8-2,2.2-2.6,4.3c-0.3,1.1-0.3,2.3-0.1,3.5c0.2,1.3,0.9,2.5,1.9,3.6c1,1,2.4,1.8,4,2.2
								c1.6,0.4,3.4,0.3,5-0.4l0.2,0.5c-0.8,0.2-1.4,0.8-1.7,1.6c-0.4,0.8-0.6,1.7-0.7,2.6c-0.2,1.8-0.5,3.8,0.4,5.5
								c0.7,1.5,2.2,2.2,3.7,2.6c1.5,0.4,3.1,0.5,4.6,0.4c3-0.3,5.7-1.6,7.6-3.3l0.7-0.6l-0.3,0.9c-0.4,1.2-0.3,2.5,0.1,3.6
								c0.5,1.1,1.2,2,2,2.7c0.8,0.7,1.7,1.1,2.6,1.4c0.9,0.3,1.7,0.4,2.5,0.4c1.5,0.1,2.8-0.2,3.6-0.3
								C197,135.4,197.4,135.3,197.4,135.3z"/>
						</g>
					</g>
				</g>
				<g>
					<g>
						<g>
							<path class="st5" d="M165.3,134.8c0,0-0.2,0.2-0.6,0.4c-0.4,0.2-1.1,0.4-2,0.5c-0.9,0-2-0.1-3-0.8c-0.5-0.3-1-0.9-1.1-1.6
								c-0.1-0.7,0-1.5,0.7-2l0.3,0.5c-0.1,0-0.1,0-0.2,0.1c-2.6,1.1-5.3,0.6-6.9-0.3c-0.8-0.4-1.4-0.9-1.7-1.2
								c-0.3-0.4-0.5-0.6-0.5-0.6c0.1-0.1,0.8,0.8,2.4,1.5c1.5,0.7,4.1,1.2,6.5,0.1c0.1,0,0.1,0,0.2-0.1l2.3-1l-2.1,1.4
								c-0.4,0.3-0.6,0.9-0.5,1.5c0.1,0.5,0.5,1,0.9,1.3c0.9,0.6,1.9,0.8,2.8,0.8C164.4,135.3,165.3,134.7,165.3,134.8z"/>
						</g>
					</g>
				</g>
				<g>
					<g>
						<g>
							<path class="st17" d="M177,206.3c0,0,0,0.1,0.1,0.4c0.1,0.3,0.2,0.7,0.3,1.3c0.2,1.1,0.6,2.8,1,4.8
								c0.9,4.2,2.2,10.3,4.5,17.6c2.3,7.3,5.9,15.9,12.3,23.8c1.6,2,3.3,3.9,5.1,5.9c0.9,1,1.8,2,2.9,2.8c1.1,0.8,2.4,1.1,3.7,0.9
								c1.3-0.2,2.6-0.9,3.7-1.6c1.1-0.8,2.2-1.7,3.2-2.7c2.1-1.9,4.1-4.1,6-6.2c7.8-8.8,13.6-18.6,16.3-28.4
								c1.4-4.9,2.1-9.7,2.2-14.2c0.1-4.5-0.2-8.7-0.8-12.5c-1.1-7.6-2.7-13.6-3.7-17.8c-0.5-2.1-1-3.7-1.2-4.8
								c-0.1-0.5-0.2-0.9-0.3-1.2c-0.1-0.3-0.1-0.4-0.1-0.4c0,0,0.1,0.1,0.1,0.4c0.1,0.3,0.2,0.7,0.4,1.2c0.3,1.1,0.8,2.7,1.3,4.8
								c1.1,4.2,2.8,10.2,3.9,17.8c0.6,3.8,0.9,8,0.8,12.6c-0.1,4.5-0.7,9.4-2.2,14.3c-2.8,9.9-8.6,19.8-16.4,28.6
								c-2,2.2-4,4.3-6.1,6.3c-1,1-2.1,2-3.3,2.8c-1.2,0.8-2.5,1.5-3.9,1.7c-1.4,0.2-2.9-0.1-4.1-1c-1.2-0.8-2-1.9-2.9-2.8
								c-1.8-2-3.5-3.9-5.1-5.9c-6.4-8-9.9-16.7-12.2-24c-2.3-7.4-3.5-13.5-4.4-17.7c-0.4-2.1-0.7-3.7-0.9-4.9
								c-0.1-0.5-0.2-1-0.2-1.3C177.1,206.4,177,206.3,177,206.3z"/>
						</g>
					</g>
				</g>
			</g>
			<g>
				<g>
					<g>
						<path class="st17" d="M214,375.2c0,0,0-0.1-0.1-0.3c-0.1-0.2-0.1-0.5-0.2-0.9c-0.1-0.4-0.2-0.9-0.3-1.4
							c-0.2-0.5-0.2-1.2-0.3-1.9c-0.4-2.9-0.2-7.3,1.1-12.4c1.2-5.1,3.4-11,5-17.7c0.8-3.4,1.4-7,1.3-10.7c0-3.8-1-7.6-2.4-11.3
							c-1.4-3.7-3.2-7.2-4.8-10.7c-1.6-3.4-3.2-6.8-3.4-10.4c-0.2-3.6,1.2-6.7,2-9.7c0.4-1.5,0.7-2.9,0.6-4.4
							c-0.1-1.4-0.3-2.7-0.8-4c-0.9-2.4-2.2-4.5-3.2-6.3c-1-1.8-1.8-3.5-2.2-4.9c-0.2-0.7-0.3-1.4-0.4-1.9c0-0.6,0-1.1,0-1.4
							c0.1-0.4,0.1-0.6,0.1-0.9c0-0.2,0.1-0.3,0.1-0.3c0.1,0-0.5,1.7,0.3,4.5c0.4,1.4,1.2,3,2.2,4.8c1,1.8,2.3,3.8,3.3,6.3
							c0.5,1.2,0.8,2.6,0.9,4.1c0.1,1.5-0.2,3-0.6,4.5c-0.8,3-2.1,6.1-1.9,9.5c0.2,3.4,1.8,6.8,3.4,10.2c1.6,3.4,3.4,6.9,4.8,10.7
							c1.4,3.8,2.4,7.6,2.5,11.5c0.1,3.8-0.5,7.5-1.3,10.8c-1.7,6.8-3.9,12.6-5.1,17.7c-1.3,5.1-1.5,9.4-1.2,12.3
							c0.1,0.7,0.1,1.4,0.2,1.9c0.1,0.5,0.2,1,0.3,1.4c0.1,0.4,0.1,0.6,0.2,0.9C214,375.1,214,375.2,214,375.2z"/>
					</g>
				</g>
			</g>
			<g>
				<g>
					<polygon class="st14" points="203.3,262.7 203,263.9 205.4,266.9 206.4,266.9 209.1,263.9 208.7,262.7 					"/>
				</g>
			</g>
		</g>
	</g>
</g>
<g id="Device">
	<g>
		<g>
			<g>
				<g>
					<path class="st14" d="M0.6,367.4l44.8,78.9l173.7,0.1c1.5,0,2.6-1.2,2.6-2.7l0,0c0-1.5-1.2-2.6-2.6-2.7l-57.7-1.6
						c-2.6,0-5.1-1.5-6.3-3.9l-37.5-71.5c-0.8-1.5-2.3-2.4-4-2.4L4.6,360.7C1.1,360.6-1.1,364.4,0.6,367.4z"/>
				</g>
			</g>
		</g>
		<g>
			<g>
				<g>
					<path class="st17" d="M0.8,364.4c0,0,0.2,0,0.5,0c0.4,0,0.9,0,1.5,0c1.4,0,3.3,0,5.9,0c5.1,0,12.5,0.1,21.6,0.2
						c18.2,0.2,43.4,0.5,71.1,0.8c1.7,0,3.5,0,5.2,0.1c0.9,0,1.7,0,2.6,0c0.9,0,1.8,0.2,2.6,0.6c0.8,0.4,1.5,1,2,1.7
						c0.5,0.8,0.8,1.5,1.2,2.2c0.8,1.5,1.5,2.9,2.3,4.4c3,5.8,6,11.4,8.8,16.7c5.6,10.7,10.6,20.3,14.8,28.3
						c4.2,8.1,7.6,14.6,10,19.1c1.2,2.2,2.1,4,2.7,5.2c0.3,0.6,0.5,1,0.7,1.4c0.2,0.3,0.2,0.5,0.2,0.5s-0.1-0.1-0.3-0.4
						c-0.2-0.3-0.4-0.8-0.7-1.3c-0.6-1.2-1.6-2.9-2.8-5.2c-2.4-4.5-5.8-11-10.1-19.1c-4.3-8.1-9.3-17.6-14.9-28.3
						c-2.8-5.3-5.7-10.9-8.8-16.7c-0.8-1.4-1.5-2.9-2.3-4.4c-0.4-0.7-0.8-1.5-1.2-2.2c-0.5-0.7-1.1-1.2-1.8-1.6
						c-0.7-0.4-1.5-0.6-2.3-0.6c-0.9,0-1.7,0-2.6,0c-1.7,0-3.4,0-5.2-0.1c-27.8-0.4-52.9-0.7-71.1-1c-9.1-0.1-16.4-0.3-21.6-0.4
						c-2.5-0.1-4.5-0.1-5.9-0.1c-0.7,0-1.2,0-1.5,0C1,364.5,0.8,364.4,0.8,364.4z"/>
				</g>
			</g>
		</g>
		<g>
			<g>
				<path class="st5" d="M73.4,401.5c0,2.1-1.9,3.9-4.2,3.9c-2.3,0-4.2-1.7-4.2-3.9c0-2.1,1.9-3.9,4.2-3.9
					C71.5,397.6,73.4,399.3,73.4,401.5z"/>
			</g>
		</g>
	</g>
</g>
</svg>
