<?xml version="1.0" encoding="utf-8"?>
<!-- Generator: Adobe Illustrator 22.1.0, SVG Export Plug-In . SVG Version: 6.00 Build 0)  -->
<svg version="1.1" id="OBJECTS" xmlns="http://www.w3.org/2000/svg" xmlns:xlink="http://www.w3.org/1999/xlink" x="0px" y="0px"
	 viewBox="0 0 222 331.6" style="enable-background:new 0 0 222 331.6;" xml:space="preserve">
<style type="text/css">
	.st0{fill:#B3B3F4;}
	.st1{fill:#FECAD0;}
	.st2{fill:#2C1970;}
	.st3{fill:#EE84AA;}
	.st4{fill:#68BDD1;}
	.st5{fill:#0E98AF;}
	.st6{fill:#171C51;}
	.st7{fill:#8585DD;}
	.st8{opacity:0.25;fill:#FFFFFF;}
	.st9{fill:#FFFFFF;}
	.st10{fill:none;stroke:#171C51;stroke-width:0.5252;stroke-linecap:round;stroke-linejoin:round;stroke-miterlimit:10;}
	.st11{fill:#0D1235;}
	.st12{fill:none;stroke:#E45E8E;stroke-width:0.5252;stroke-linecap:round;stroke-miterlimit:9;}
	.st13{fill:none;stroke:#171C51;stroke-width:0.7879;stroke-linecap:round;stroke-linejoin:round;stroke-miterlimit:10;}
	.st14{fill:#FBB8C2;}
	.st15{fill:#C11046;}
	.st16{fill:#E0206E;}
	.st17{fill:#E4F2F9;}
	.st18{fill:none;stroke:#D8166E;stroke-linecap:round;stroke-linejoin:round;stroke-miterlimit:10;}
	.st19{opacity:0.25;fill:none;stroke:#587CF8;stroke-linecap:round;stroke-linejoin:round;stroke-miterlimit:10;}
</style>
<path class="st0" d="M46.4,328.1c0,0,0-14.8-7-36.1c-7-21.3-42.9-25.6-39.2-56.2c20.1,7.2,35.9,37.1,39.4,46.2
	c-11.8-45.9-3.5-78.4-3.5-78.4s16.1,34.3,10.2,78.6c21.2-53.1,37.9-60.3,37.9-60.3s-4.4,32.2-15.9,49.1S48,287.5,48,287.5
	s0.3,27.8,5.4,40.6H46.4z"/>
<g>
	<polyline class="st1" points="156.8,300.8 159,317.5 154.2,325.8 142.5,321.2 138.9,305 	"/>
	<path class="st2" d="M183.9,329.1l-25.4-14.7l-4.8,6.8h-11.1l-1.2,10.3h42C184.6,331.6,185.1,329.8,183.9,329.1z"/>
	<polyline class="st1" points="66.3,300.8 63.1,317.5 67.9,325.8 79.6,321.2 84.3,305 	"/>
	<path class="st1" d="M169.5,138.7l-19.1,25.1c-0.7,0.9-1.1,1.9-1.1,3l-1.6,22.3l-6.8-46.9l9.7-16.2l-1-3.2l-3.6-12.1l18.8-7.1
		l1.1,3.4l6,17.7C173.4,129.5,172.6,134.7,169.5,138.7z"/>
	<polygon class="st3" points="165.9,107 149.6,122.8 145.9,110.7 164.7,103.6 	"/>
	<polygon class="st4" points="160.3,305.1 137.3,308.9 119.1,231.1 114.6,211.7 114.5,211.3 85.1,310.9 62,304.5 83.5,166.1 
		85.1,155.7 143.7,154.8 144.3,160.5 	"/>
	<polygon class="st5" points="144.3,160.5 83.5,166.1 84.4,160.5 85.1,155.7 143.7,154.8 144.2,159.5 	"/>
	<path class="st6" d="M144.2,159.5c-12.7,1.8-50.8,1.2-59.8,1l0.8-4.8l58.6-0.9L144.2,159.5z"/>
	<path class="st7" d="M167.7,102.5l-13.6,8.1l-1.7,1l-4.1,2.4v0.1l-0.1,1.7l-0.6,14.2l-0.1,1.7l-0.6,14.2l-0.1,1.7l-0.2,4.5
		c0,0,2.4,2.7,1.7,5c-0.2,0.6-4.2,1-10.2,1.3c-0.6,0-1.1,0.1-1.7,0.1c-4.1,0.2-9.1,0.3-14.2,0.3c-0.6,0-1.2,0-1.7,0
		c-4.7,0-9.6,0-14.2-0.1c-0.6,0-1.2,0-1.7,0c-5.4-0.1-10.4-0.3-14.2-0.6c-0.6,0-1.2-0.1-1.7-0.1c-3.9-0.4-6.2-0.9-6.2-1.5
		c0.3-3.2,2.3-5.4,2.3-5.4l0-3.4l0-1.7l0.1-14.2l0-1.7l0.1-14.2V115l-1.4-0.8l-9-5.3l-1.7-1l-11.3-6.6l0.6-1.4l0.8-1.7L69.2,84
		l0.8-1.7l2.7-6l0.6-1.2c0.4-0.8,0.8-1.6,1.2-2.4c0.9-1.6,1.9-3.2,3.1-4.6c0.5-0.6,1-1.2,1.5-1.7c2.7-3,6-5.5,9.6-7.3
		c0.6-0.3,1.2-0.6,1.7-0.8c2.5-1.1,5.2-1.8,7.9-2.3l4.2-0.7l2.1-0.3l1.7-0.3l0.1,0l14.2,1.2l1.7,0.1l4.3,0.4l3.6,0.5
		c0.2,0,0.5,0.1,0.7,0.1c1.9,0.3,3.8,0.8,5.6,1.4c0.6,0.2,1.2,0.4,1.7,0.7c4.1,1.7,7.8,4.1,10.9,7.3c0.6,0.6,1.1,1.1,1.6,1.7
		c0.6,0.7,1.2,1.4,1.7,2.2c0.6,0.9,1.2,1.8,1.7,2.7c0.6,1,1.1,2,1.6,3.1l2.8,6.2l0.8,1.7l6.4,14.2l0.8,1.7L167.7,102.5z"/>
	<g>
		<path class="st8" d="M165.8,98.2h-11.6V84h5.2l-0.8-1.7h-4.4v-9.3c-0.5-0.9-1.1-1.8-1.7-2.7v12h-14.2V68h12.5
			c-0.5-0.6-1.1-1.2-1.6-1.7h-10.9V59c-0.6-0.2-1.2-0.5-1.7-0.7v7.9h-14.2V56l-1.7-0.1v10.5h-14.2V54.6l-1.7,0.3v11.3H90.3v-8.1
			c-0.6,0.3-1.2,0.5-1.7,0.8v7.3h-9.6c-0.5,0.6-1,1.1-1.5,1.7h11.1v14.2H74.4v-9.6c-0.4,0.8-0.8,1.6-1.2,2.4l-0.6,1.2v6h-2.7
			L69.2,84h3.5v14.2h-9.9L62,99.9h10.6v7.9l1.7,1v-9h14.2v14.2h-5.2l1.4,0.8v0.9h3.8v14.2h-3.8l0,1.7h3.8v14.2h-3.9l0,1.7h3.9V158
			c0.5,0.1,1.1,0.1,1.7,0.1v-10.4h14.2v11c0.6,0,1.2,0,1.7,0v-11.1h14.2v11.1c0.6,0,1.2,0,1.7,0v-11.1h14.2v10.8
			c0.6,0,1.2-0.1,1.7-0.1v-10.7h8.6l0.1-1.7h-8.7v-14.2h9.3l0.1-1.7h-9.4v-14.2h10l0.1-1.7h-10.1V99.9h14.2v11.7l1.7-1V99.9h12.4
			L165.8,98.2z M88.6,98.2H74.4V84h14.2V98.2z M104.5,146.1H90.3v-14.2h14.2V146.1z M104.5,130.1H90.3v-14.2h14.2V130.1z
			 M104.5,114.1H90.3V99.9h14.2V114.1z M104.5,98.2H90.3V84h14.2V98.2z M104.5,82.2H90.3V68h14.2V82.2z M120.5,146.1h-14.2v-14.2
			h14.2V146.1z M120.5,130.1h-14.2v-14.2h14.2V130.1z M120.5,114.1h-14.2V99.9h14.2V114.1z M120.5,98.2h-14.2V84h14.2V98.2z
			 M120.5,82.2h-14.2V68h14.2V82.2z M136.5,146.1h-14.2v-14.2h14.2V146.1z M136.5,130.1h-14.2v-14.2h14.2V130.1z M136.5,114.1h-14.2
			V99.9h14.2V114.1z M136.5,98.2h-14.2V84h14.2V98.2z M136.5,82.2h-14.2V68h14.2V82.2z M152.4,98.2h-14.2V84h14.2V98.2z"/>
	</g>
	<path class="st9" d="M130.8,56.9c-1.4,5.7-4.6,11.3-11.9,11.3c-12-0.1-15.5-9.2-16.5-12.9l3.9-0.6l20.2,1.7l3.6,0.5
		C130.4,56.8,130.6,56.9,130.8,56.9z"/>
	<line class="st10" x1="145.9" y1="110.7" x2="144.4" y2="87.5"/>
	<path class="st2" d="M135.9,17.9c0,0,2.5,2.7,0.5,7.5c-2,4.7-3,8.8-3.1,13.2c-0.1,3.7-16.2,5.9-21.8,6.5c-1.1,0.1-1.8,0.2-1.8,0.2
		l-4.4-8.6c-0.6-1.5-2-4.4-3.2-7.7c-2-5.4-3.5-12-0.4-15.9c5.1-6.3,10.8-3.5,19.5-7.8c8.7-4.3,13.1-8.3,18.1-2.4
		C144.3,8.8,135.9,17.9,135.9,17.9z"/>
	<path class="st11" d="M113,43.3l-1.5,1.9c-1.1,0.1-1.8,0.2-1.8,0.2l-4.4-8.6c-0.6-1.5-2-4.4-3.2-7.7c4.3-1.8,7.3-6.3,7.3-6.3
		L113,43.3z"/>
	<path class="st1" d="M126.5,56.3c0,0,0.4,8.5-8.8,8.2c-9.2-0.3-11.4-9.9-11.4-9.9l2.6-0.5c0,0,0.9-10.1,0-17.4l17.6,9
		c-0.2,0.2-0.3,0.3-0.5,0.5c-2,2.8-1.8,9.2-1.8,9.2L126.5,56.3z"/>
	<path class="st3" d="M124.3,55.5c-11.4,0.3-14.5-12.9-14.5-12.9l16.3,3.7C124,49.1,124.3,55.5,124.3,55.5z"/>
	<path class="st1" d="M134.5,37.5c0,1.6-0.1,3.2-0.3,4.7c-0.9,6.1-4.2,10.4-12.1,9.8c-11.6-0.9-13.7-12.4-13.7-12.4s-3,2.5-5.9-0.4
		c-2.9-2.9-1.4-7.2,1.4-7.7c1.5-0.3,3,1.3,4.1,2.8c0.5,0.7,1.5,0.3,1.5-0.5V22.7c0,0,14.2,0.6,22.6-2.5c0.1,0,0.1,0,0.1-0.1
		c1.3,1.2,1.8,2.9,2,4.7c0.2,2.5-0.3,5.3,0,7.7C134.4,34.2,134.5,35.9,134.5,37.5z"/>
	<path class="st12" d="M126.1,39.7l1.1-0.7c0.8-0.4,1.1-1.4,0.7-2.2l-1.8-4.2"/>
	<path d="M122,35.7c0,0.6-0.4,1-0.8,1s-0.8-0.5-0.8-1c0-0.6,0.4-1,0.8-1S122,35.1,122,35.7z"/>
	<ellipse cx="130.8" cy="35.2" rx="0.8" ry="1"/>
	<path class="st12" d="M103,34.7c1.7-1,3.8,0.7,3.4,3.1"/>
	<path class="st12" d="M122.2,44.3c0,0,2.2,2.3,5.2,0.5"/>
	<path class="st13" d="M117.3,31.3c0,0,1.7-2.5,5-1.4"/>
	<path class="st13" d="M133.3,30c0,0-2-2.2-5.2-0.2"/>
	<circle class="st14" cx="117.7" cy="39.7" r="2.8"/>
	<path class="st14" d="M134.5,37.5c0,1.6-0.1,3.2-0.3,4.7c-0.4,0.2-0.9,0.4-1.4,0.4c-1.6,0-2.8-1.3-2.8-2.8s1.3-2.8,2.8-2.8
		C133.5,36.9,134,37.1,134.5,37.5z"/>
	<g>
		<path class="st15" d="M140.5,132.3H126c-1.7,0-2.9-1.4-2.5-3.1l6.1-30.3c0.4-1.7,2-3.1,3.8-3.1H150c1.7,0,2.9,1.4,2.5,3.1
			l-8.2,30.3C143.9,130.9,142.2,132.3,140.5,132.3z"/>
		<path class="st16" d="M142.6,133.6h-14.5c-1.7,0-2.9-1.4-2.5-3.1l6.1-30.3c0.4-1.7,2-3.1,3.8-3.1H150c1.7,0,2.9,1.4,2.5,3.1
			l-6.1,30.3C146,132.2,144.3,133.6,142.6,133.6z"/>
	</g>
	<path class="st1" d="M139.1,127.5c0,3-3.6,5.6-3.6,5.6s0.9,4.1-5.9,5.5c-6.8,1.4-13.6-4.5-13.6-4.5l-43.6,9.2
		c-1.1,0.2-2.3,0.4-3.4,0.4c-4.9,0-9.6-2.2-12.7-6.1c-3.9-4.9-4.8-11.6-2.2-17.2l6.3-13.6l2.2-4.7l22.2,13l-1.6,2.7l-2.3,4l35.3-1.3
		c0,0,3.6-2.5,5.9-5.6c2.3-3.1,3.2-3.8,5-2.6c1.8,1.2-0.2,6.4-1.7,8.4c5.6,3.1,12.4,0.7,15.1,1.1
		C143.3,122.2,143.3,125.4,139.1,127.5z"/>
	<path class="st12" d="M139.1,127.5c-3.5,1.5-12,0.2-14.4-1.5"/>
	<path class="st12" d="M135.5,133.1c-4.8,0.9-10.1,0.6-12.9-2.1"/>
	<path class="st15" d="M133.9,110.2L133.9,110.2c-0.9,0-1.5-0.7-1.3-1.6l1.2-5.9c0.2-0.9,1.1-1.6,2-1.6l0,0c0.9,0,1.5,0.7,1.3,1.6
		l-1.2,5.9C135.7,109.5,134.8,110.2,133.9,110.2z"/>
	<line class="st12" x1="80.9" y1="121.7" x2="69.2" y2="121.7"/>
	<line class="st12" x1="150.5" y1="126" x2="156.8" y2="118.5"/>
	<line class="st10" x1="84.8" y1="115" x2="97.5" y2="90.6"/>
	<polygon class="st3" points="84.8,115 83.2,117.7 60.4,106.8 62.6,102 	"/>
	<line class="st10" x1="114.5" y1="211.3" x2="122.6" y2="185"/>
	<path class="st2" d="M38.2,329.1l25.5-14.7l4.8,6.8h11.1l1.2,10.3h-42C37.5,331.6,37,329.8,38.2,329.1z"/>
	<g>
		<g>
			<path class="st5" d="M84.7,311.5l-22.4-4.6c-1.5-0.3-2.5-1.8-2.2-3.3l0.7-3.6c0.3-1.5,1.8-2.5,3.3-2.2l22.4,4.6
				c1.5,0.3,2.5,1.8,2.2,3.3l-0.7,3.6C87.7,310.9,86.2,311.8,84.7,311.5z"/>
			<line class="st5" x1="63.7" y1="297.8" x2="87" y2="302.6"/>
		</g>
	</g>
	<g>
		<g>
			<path class="st5" d="M160.7,307.2l-22.5,4.2c-1.5,0.3-3-0.7-3.3-2.3l-0.7-3.6c-0.3-1.5,0.7-3,2.3-3.3l22.5-4.2
				c1.5-0.3,3,0.7,3.3,2.3l0.7,3.6C163.2,305.5,162.2,307,160.7,307.2z"/>
			<line class="st5" x1="136.1" y1="302.4" x2="159.4" y2="298.1"/>
		</g>
	</g>
	<line class="st10" x1="91.2" y1="149.3" x2="142.2" y2="141.8"/>
	<polygon class="st5" points="122,188.2 119.1,231.1 114.6,211.7 114.7,210.8 	"/>
</g>
<g>
	<polygon class="st17" points="170.7,25.9 170.7,68.1 181.3,57.5 222,57.5 222,25.9 	"/>
	<g>
		<line class="st18" x1="208.1" y1="34.5" x2="184.5" y2="34.5"/>
		<line class="st19" x1="204.2" y1="39.3" x2="184.5" y2="39.3"/>
		<line class="st19" x1="208.1" y1="44.2" x2="184.5" y2="44.2"/>
		<line class="st19" x1="201.1" y1="49" x2="184.5" y2="49"/>
	</g>
</g>
</svg>
