<?xml version="1.0" encoding="utf-8"?>
<!-- Generator: Adobe Illustrator 22.1.0, SVG Export Plug-In . SVG Version: 6.00 Build 0)  -->
<svg version="1.1" id="OBJECTS" xmlns="http://www.w3.org/2000/svg" xmlns:xlink="http://www.w3.org/1999/xlink" x="0px" y="0px"
	 viewBox="0 0 212.4 355.3" style="enable-background:new 0 0 212.4 355.3;" xml:space="preserve">
<style type="text/css">
	.st0{fill:#B3B3F4;}
	.st1{fill:#FECAD0;}
	.st2{fill:#E0206E;}
	.st3{fill:#2C1970;}
	.st4{fill:#171C51;}
	.st5{fill:#68BDD1;}
	.st6{opacity:0.25;fill:#FFFFFF;}
	.st7{fill:#FFFFFF;}
	.st8{fill:#EE84AA;}
	.st9{fill:none;stroke:#E45E8E;stroke-width:0.5252;stroke-linecap:round;stroke-miterlimit:9;}
	.st10{fill:none;stroke:#171C51;stroke-width:0.7879;stroke-linecap:round;stroke-linejoin:round;stroke-miterlimit:10;}
	.st11{fill:none;stroke:#587CF8;stroke-width:0.7879;stroke-miterlimit:10;}
	.st12{fill:#8585DD;}
	.st13{fill:#E6EAFD;}
	.st14{fill:#6B6BC6;}
	.st15{fill:#96A4CD;}
	.st16{fill:none;stroke:#171C51;stroke-width:0.5252;stroke-linecap:round;stroke-linejoin:round;stroke-miterlimit:10;}
	.st17{fill:#E4F2F9;}
	.st18{fill:none;stroke:#587CF8;stroke-linecap:round;stroke-linejoin:round;stroke-miterlimit:10;}
	.st19{opacity:0.25;fill:none;stroke:#587CF8;stroke-linecap:round;stroke-linejoin:round;stroke-miterlimit:10;}
</style>
<g>
	<path class="st0" d="M174.5,353.6c0,0,0-14.8-7-36.1c-7-21.3-42.9-25.6-39.2-56.2c20.1,7.2,35.9,37.1,39.4,46.2
		c-11.8-45.9-3.5-78.4-3.5-78.4s16.1,34.3,10.2,78.6c21.2-53.1,37.9-60.3,37.9-60.3s-4.4,32.2-15.9,49.1
		c-11.5,16.9-20.4,16.6-20.4,16.6s0.3,27.8,5.4,40.6H174.5z"/>
	<g>
		<g>
			<polyline class="st1" points="74.8,295.1 73.2,341.2 78,349.5 89.7,345 92.8,299.3 			"/>
			<path class="st2" d="M48.3,352.9l25.5-14.7l4.8,6.8h11.1l1.2,10.3h-42C47.6,355.3,47.1,353.5,48.3,352.9z"/>
		</g>
		<g>
			<polyline class="st1" points="152.6,295.1 167.3,341.2 162.5,349.5 150.8,345 134.6,299.3 			"/>
			<path class="st2" d="M192.2,352.9l-25.4-14.7l-4.8,6.8h-11.1l-1.2,10.3h42C192.9,355.3,193.3,353.5,192.2,352.9z"/>
		</g>
		<path class="st3" d="M76.2,143.5l-6,173.9l23.9,1.7l9.1-108.8l35.9,112.1l21.2-6.7c0,0-28.7-118.3-31.9-135.2
			c-3.2-16.9-1.6-25.8-6.7-37.6L76.2,143.5z"/>
		<path class="st4" d="M95.3,26.7c-6.9-1.9-12.1,8.2-10.5,20.7c1.6,12.5-9.1,24.4-7.9,29.5c1.2,5.1,25.1,12.2,41,12.1
			s20.9-7.1,18-12.1c-3-5-7.6-9.8-7.2-24.7S118.7,9.2,95.3,26.7z"/>
		<path class="st1" d="M62.4,97.9l-8.9,19.8L39.9,85.6c0,0-1.7-11-3.2-14c-1.4-3.1-0.9-7.2-2.8-7.8c-1.9-0.6-2.5,2.7-2.5,5.6
			c0,2.9-0.5,5.6-0.5,5.6s-7.8-6.8-8.3-9c-0.5-2.1-0.2-9.5-1.9-10.4c-1.7-0.9-3.7,1.2-4.1,7.4c-0.4,6.2,12.1,24.4,12.1,24.4
			l9.2,44.5l25.7,4.7l15.3-25.1L62.4,97.9z"/>
		<path class="st5" d="M141.3,103.7l-9.5,6.9l-0.9,0.6l-7.1,5.1l-1.1,28l-4.3-0.1l-0.9,0l-12.5-0.3l-0.9,0l-12.5-0.3l-0.9,0
			l-12.5-0.3l-0.9,0l-1.3,0c0,0,0.5-6.8-1.5-16.8c-2-10,0.8-16.9,0.8-16.9L62.4,97.9l6.7-10.5c2.1-3.2,5-5.8,8.4-7.4
			c0.3-0.1,0.6-0.3,0.9-0.4c1-0.4,2-0.8,3-1l9.4-2.4l0.5-0.1l0.4-0.1l3.2-0.8l9.3,0h0.9l10.1,0l2.4,1.2l0.9,0.5l0,0l8.5,4.4
			c1.4,0.7,2.8,1.6,3.9,2.7c0.3,0.3,0.6,0.5,0.9,0.8c2.1,2,3.7,4.5,4.8,7.2L141.3,103.7z"/>
		<g>
			<path class="st6" d="M78.4,79.6v63.9l-0.9,0V80C77.8,79.8,78.1,79.7,78.4,79.6z"/>
			<polygon class="st6" points="91.7,75.9 91.7,143.8 90.8,143.8 90.8,76.1 91.4,76 			"/>
			<polygon class="st6" points="105.1,75.1 105.1,144 104.2,144 104.2,75.1 			"/>
			<polygon class="st6" points="118.4,76.8 118.4,144.3 117.5,144.3 117.5,76.4 			"/>
			<path class="st6" d="M131.8,84.8v25.8l-0.9,0.6V84C131.2,84.2,131.5,84.5,131.8,84.8z"/>
		</g>
		<path class="st7" d="M118.5,76.9c-2.8,5.7-10.1,9-19,8.4c-7.5-0.5-8.4-5.5-8.1-9.2l3.6-0.9l20.3,0.1L118.5,76.9z"/>
		<path class="st1" d="M115.2,75.1c0,0-3.7,7.4-13.2,7.4s-7.1-7.4-7.1-7.4l2.7-0.9l-0.2-4.6l-0.2-6.7l16.1-4.9
			c-0.3,0.7-0.6,1.6-0.7,2.8c-0.7,5.1,0.1,13.5,0.1,13.5L115.2,75.1z"/>
		<path class="st8" d="M113.3,58c-0.3,0.7-0.6,1.6-0.7,2.8c0,0,0,0,0,0c-4.5,9.1-12.1,9.2-15.1,8.8l-0.2-6.7L113.3,58z"/>
		<path class="st1" d="M95.6,33.8c1.5,7.9,18.4,13.4,19.6,14.3c0.7,0.5,0.9,1.8,1,2.7c0,0.2,0.3,0.2,0.4,0.1c0.4-1.2,1.3-2.8,2.7-3
			c2.2-0.3,4.4,2.6,3.1,5.9c-1.3,3.4-6.4,1.6-6.4,1.6s-4.2,10.1-13.7,10.4c-9.6,0.3-11.7-7.8-11-12.8c0.7-5,0.7-7.5,0.2-10.4
			C91.1,39.6,94.8,37.6,95.6,33.8z"/>
		<path class="st9" d="M120.1,49.8c-0.8,0.2-1.7,2.4-1.3,3.5"/>
		<g>
			<path class="st9" d="M100.9,56.1l-1.1-0.7C99,55,98.7,54.1,99,53.3l1.8-4.2"/>
			<path d="M104.9,51.1c0,0.6,0.4,1,0.8,1c0.4,0,0.8-0.5,0.8-1s-0.4-1-0.8-1C105.3,50.1,104.9,50.5,104.9,51.1z"/>
			<path d="M95.3,50.5c0,0.6,0.4,1,0.8,1c0.4,0,0.8-0.5,0.8-1c0-0.6-0.4-1-0.8-1C95.7,49.5,95.3,49.9,95.3,50.5z"/>
			<path class="st10" d="M109.1,45.6c0,0-2-2.2-5.1-0.6"/>
			<path class="st10" d="M93.5,45.5c0,0,2-2.2,5.2-0.2"/>
		</g>
		<path class="st11" d="M98.8,50.7c0,2.3-1.8,4.1-4.1,4.1s-4.1-1.8-4.1-4.1s1.8-4.1,4.1-4.1S98.8,48.5,98.8,50.7z"/>
		<path class="st11" d="M110.1,50.7c0,2.3-1.8,4.1-4.1,4.1s-4.1-1.8-4.1-4.1s1.8-4.1,4.1-4.1S110.1,48.5,110.1,50.7z"/>
		<path class="st11" d="M98.7,49.8c0,0,1.7-1.7,3.4,0"/>
		<path class="st9" d="M102,59.8c0,0,2.6,1.1,4.8-0.8"/>
		<path class="st12" d="M73.1,143.1H33.3l0,0c-0.7,0-1.3-0.4-1.4-1l-8.5-30.9c-0.2-0.8,0.2-1.6,1-1.8l0.5-0.1h0c0,0,0,0,0,0h39.7
			L73.1,143.1z"/>
		<path class="st13" d="M49.4,127.6c0,1.7-1.4,3.1-3.1,3.1s-3.1-1.4-3.1-3.1c0-1.7,1.4-3.1,3.1-3.1S49.4,125.9,49.4,127.6z"/>
		<g>
			<path class="st14" d="M73.1,143.1h31.5c0.8,0,1.4-0.6,1.4-1.4v-0.5c0-0.8-0.6-1.4-1.4-1.4H73.1c-0.8,0-1.4,0.6-1.4,1.4v0.5
				C71.6,142.4,72.3,143.1,73.1,143.1z"/>
			<path class="st14" d="M63.1,111.1l8.4,30.4c0.2,0.8,1,1.2,1.8,1l0.5-0.1c0.8-0.2,1.2-1,1-1.8l-8.4-30.4c-0.2-0.8-1-1.2-1.8-1
				l-0.5,0.1C63.4,109.5,62.9,110.3,63.1,111.1z"/>
		</g>
		<path class="st1" d="M155.6,151.9c0,3.9-1.7,7.6-4.8,10.2c-4.5,3.7-11,4-15.8,0.7l-22.1-15.2c0,0-12,2.6-17.4,2.1
			c-5.4-0.5-11.2-3.4-11.2-4.5c-0.1-1.1,21.8-3.4,20.7-4.3c-1-0.9-10.8-1-10.9-3.1c-0.1-2.1,2.3-2.8,6.4-3.1
			c4.1-0.3,9.3,1.8,9.3,1.8l22.1,3.1l-6.3-18.3l-1.7-4.9l17.4-12.7l1.1,3.7L155,148C155.4,149.3,155.6,150.6,155.6,151.9z"/>
		<polygon class="st8" points="141.3,103.7 142.4,107.4 125.5,121.3 123.8,116.4 		"/>
		<line class="st9" x1="131.8" y1="139.6" x2="141.3" y2="140.9"/>
		<path class="st4" d="M79.4,141.3c0,0.3-0.2,0.5-0.5,0.5c-0.3,0-0.5-0.2-0.5-0.5s0.2-0.5,0.5-0.5C79.2,140.8,79.4,141.1,79.4,141.3
			z"/>
		<path class="st4" d="M81.5,141.3c0,0.3-0.2,0.5-0.5,0.5s-0.5-0.2-0.5-0.5s0.2-0.5,0.5-0.5S81.5,141.1,81.5,141.3z"/>
		<g>
			<path class="st15" d="M93.3,325.5l-22.9-0.8c-1.6-0.1-2.8-1.4-2.7-2.9l0.1-3.6c0.1-1.6,1.4-2.8,2.9-2.7l22.9,0.8
				c1.6,0.1,2.8,1.4,2.7,2.9l-0.1,3.6C96.2,324.3,94.9,325.5,93.3,325.5z"/>
		</g>
		<g>
			<path class="st15" d="M162,320.3l-21.9,6.6c-1.5,0.4-3.1-0.4-3.5-1.9l-1-3.5c-0.4-1.5,0.4-3.1,1.9-3.5l21.9-6.6
				c1.5-0.4,3.1,0.4,3.5,1.9l1,3.5C164.4,318.3,163.5,319.8,162,320.3z"/>
		</g>
		<line class="st16" x1="96.3" y1="187.7" x2="107.4" y2="223.4"/>
		<path class="st16" d="M78.4,125.8c5.9,5.4,16.3,6.2,16.3,6.2"/>
		<line class="st16" x1="123.8" y1="116.4" x2="116.3" y2="103.7"/>
		<path class="st16" d="M75.6,109.8c3.2-6.4,3.9-14.7,3.9-14.7"/>
	</g>
	<g>
		<polygon class="st17" points="51.3,0 51.3,42.2 40.7,31.6 0,31.6 0,0 		"/>
		<g>
			<line class="st18" x1="13.9" y1="8.6" x2="37.5" y2="8.6"/>
			<line class="st19" x1="17.8" y1="13.4" x2="37.5" y2="13.4"/>
			<line class="st19" x1="13.9" y1="18.3" x2="37.5" y2="18.3"/>
			<line class="st19" x1="20.9" y1="23.1" x2="37.5" y2="23.1"/>
		</g>
	</g>
</g>
</svg>
